%TF.GenerationSoftware,Altium Limited,Altium Designer,22.10.1 (41)*%
G04 Layer_Color=32896*
%FSLAX26Y26*%
%MOIN*%
%TF.SameCoordinates,59CDB8F9-364B-4C5A-A8AF-F7A69B8E0267*%
%TF.FilePolarity,Positive*%
%TF.FileFunction,Legend,Bot*%
%TF.Part,Single*%
G01*
G75*
%TA.AperFunction,NonConductor*%
%ADD50C,0.010000*%
G36*
X596056Y426266D02*
X594287D01*
Y425676D01*
X592518D01*
Y425087D01*
X591339D01*
Y424497D01*
X588981D01*
Y423908D01*
X587802D01*
Y423318D01*
X585443D01*
Y422728D01*
X584264D01*
Y422139D01*
X582495D01*
Y421549D01*
X580727D01*
Y420960D01*
X579548D01*
Y420370D01*
X577189D01*
Y419781D01*
X576010D01*
Y419191D01*
X573652D01*
Y418601D01*
X572473D01*
Y418012D01*
X570704D01*
Y417422D01*
X568346D01*
Y416833D01*
X567756D01*
Y416243D01*
X565398D01*
Y415654D01*
X563629D01*
Y415064D01*
X562450D01*
Y414474D01*
X560091D01*
Y413885D01*
X558912D01*
Y413295D01*
X556554D01*
Y412706D01*
X555375D01*
Y412116D01*
X553606D01*
Y411526D01*
X551837D01*
Y410937D01*
X550658D01*
Y410347D01*
X548300D01*
Y409758D01*
X547121D01*
Y409168D01*
X544762D01*
Y408579D01*
X543583D01*
Y407989D01*
X541814D01*
Y407399D01*
X540046D01*
Y406810D01*
X538867D01*
Y406220D01*
X536508D01*
Y405631D01*
X535329D01*
Y405041D01*
X533560D01*
Y404452D01*
X531792D01*
Y403862D01*
X530612D01*
Y403272D01*
X528254D01*
Y402683D01*
X527075D01*
Y402093D01*
X524717D01*
Y401504D01*
X523538D01*
Y400914D01*
X521769D01*
Y400325D01*
X520000D01*
Y399735D01*
X518821D01*
Y399145D01*
X516463D01*
Y398556D01*
X515283D01*
Y397966D01*
X512925D01*
Y397377D01*
X511746D01*
Y396787D01*
X509977D01*
Y396197D01*
X508209D01*
Y395608D01*
X507029D01*
Y395018D01*
X504671D01*
Y394429D01*
X503492D01*
Y393839D01*
X501723D01*
Y393250D01*
X499365D01*
Y392660D01*
X498775D01*
Y392070D01*
X496417D01*
Y391481D01*
X495238D01*
Y390891D01*
X492879D01*
Y390302D01*
X491700D01*
Y389712D01*
X489932D01*
Y389122D01*
X487573D01*
Y388533D01*
X486984D01*
Y387943D01*
X484625D01*
Y387354D01*
X483446D01*
Y386764D01*
X481677D01*
Y386175D01*
X479319D01*
Y385585D01*
X478140D01*
Y384995D01*
X475782D01*
Y384406D01*
X475192D01*
Y383816D01*
X472834D01*
Y383227D01*
X471065D01*
Y382637D01*
X469886D01*
Y382048D01*
X468117D01*
Y381458D01*
X466938D01*
Y380868D01*
X464580D01*
Y380279D01*
X462811D01*
Y379689D01*
X461632D01*
Y379100D01*
X459273D01*
Y378510D01*
X458094D01*
Y377920D01*
X455736D01*
Y377331D01*
X454557D01*
Y376741D01*
X452788D01*
Y376152D01*
X451609D01*
Y375562D01*
X449840D01*
Y374973D01*
X447482D01*
Y374383D01*
X446303D01*
Y373793D01*
X444534D01*
Y373204D01*
X443944D01*
Y372614D01*
X443355D01*
Y302454D01*
X443944D01*
Y301865D01*
X444534D01*
Y302454D01*
X445713D01*
Y303044D01*
X448071D01*
Y303633D01*
X448661D01*
Y304223D01*
X451019D01*
Y304813D01*
X452198D01*
Y305402D01*
X453967D01*
Y305992D01*
X455736D01*
Y306581D01*
X456915D01*
Y307171D01*
X459273D01*
Y307760D01*
X460452D01*
Y308350D01*
X462221D01*
Y308940D01*
X463990D01*
Y309529D01*
X465759D01*
Y310119D01*
X468117D01*
Y310708D01*
X468707D01*
Y346083D01*
X469296D01*
Y346673D01*
X470475D01*
Y347262D01*
X471654D01*
Y347852D01*
X473423D01*
Y348442D01*
X475782D01*
Y349031D01*
X476371D01*
Y349621D01*
X478729D01*
Y350210D01*
X479909D01*
Y350800D01*
X482267D01*
Y351389D01*
X484036D01*
Y351979D01*
X485215D01*
Y352568D01*
X487573D01*
Y353158D01*
X488163D01*
Y353748D01*
X490521D01*
Y354337D01*
X491700D01*
Y354927D01*
X493469D01*
Y355516D01*
X495827D01*
Y356106D01*
X497006D01*
Y356696D01*
X499365D01*
Y357285D01*
X500544D01*
Y357875D01*
X502313D01*
Y358464D01*
X504081D01*
Y359054D01*
X505261D01*
Y359644D01*
X507619D01*
Y360233D01*
X508209D01*
Y360823D01*
X510567D01*
Y361412D01*
X512336D01*
Y362002D01*
X513515D01*
Y362591D01*
X515873D01*
Y363181D01*
X517052D01*
Y363771D01*
X522358D01*
Y363181D01*
X523538D01*
Y362591D01*
X525896D01*
Y362002D01*
X527075D01*
Y361412D01*
X528254D01*
Y360823D01*
X530612D01*
Y360233D01*
X531792D01*
Y359644D01*
X534150D01*
Y359054D01*
X535329D01*
Y358464D01*
X537098D01*
Y357875D01*
X538867D01*
Y357285D01*
X540046D01*
Y356696D01*
X542404D01*
Y356106D01*
X543583D01*
Y355516D01*
X545942D01*
Y354927D01*
X547121D01*
Y354337D01*
X548889D01*
Y353748D01*
X550658D01*
Y353158D01*
X551837D01*
Y352568D01*
X554196D01*
Y351979D01*
X555375D01*
Y351389D01*
X557144D01*
Y350800D01*
X558912D01*
Y350210D01*
X560091D01*
Y349621D01*
X562450D01*
Y349031D01*
X563629D01*
Y348442D01*
X565987D01*
Y347852D01*
X567166D01*
Y347262D01*
X568935D01*
Y346673D01*
X571293D01*
Y346083D01*
X571883D01*
Y345494D01*
X574241D01*
Y344904D01*
X575420D01*
Y344314D01*
X577189D01*
Y343725D01*
X578958D01*
Y343135D01*
X580137D01*
Y342546D01*
X582495D01*
Y341956D01*
X583675D01*
Y341366D01*
X586033D01*
Y340777D01*
X587212D01*
Y340187D01*
X588981D01*
Y339598D01*
X591339D01*
Y339008D01*
X591929D01*
Y338419D01*
X594287D01*
Y337829D01*
X596056D01*
Y266490D01*
X594287D01*
Y267079D01*
X593697D01*
Y267669D01*
X590750D01*
Y268259D01*
X589570D01*
Y268848D01*
X587802D01*
Y269438D01*
X586033D01*
Y270027D01*
X584854D01*
Y270617D01*
X582495D01*
Y271207D01*
X581316D01*
Y271796D01*
X578958D01*
Y272386D01*
X577779D01*
Y272975D01*
X576010D01*
Y273565D01*
X574241D01*
Y274154D01*
X573062D01*
Y274744D01*
X570704D01*
Y275334D01*
X569525D01*
Y275923D01*
X567166D01*
Y276513D01*
X565987D01*
Y277102D01*
X564808D01*
Y277692D01*
X561860D01*
Y278281D01*
X561271D01*
Y278871D01*
X558912D01*
Y279461D01*
X557733D01*
Y280050D01*
X555964D01*
Y280640D01*
X554196D01*
Y281229D01*
X553016D01*
Y281819D01*
X550069D01*
Y282409D01*
X549479D01*
Y282998D01*
X547121D01*
Y283588D01*
X545352D01*
Y284177D01*
X544173D01*
Y284767D01*
X541814D01*
Y285356D01*
X541225D01*
Y285946D01*
X538277D01*
Y286536D01*
X537098D01*
Y287125D01*
X535329D01*
Y287715D01*
X533560D01*
Y288304D01*
X532381D01*
Y288894D01*
X530023D01*
Y289483D01*
X528844D01*
Y290073D01*
X527075D01*
Y290663D01*
X525306D01*
Y291252D01*
X524127D01*
Y291842D01*
X521769D01*
Y292431D01*
X521179D01*
Y293021D01*
X520000D01*
Y258236D01*
X519410D01*
Y257646D01*
Y257057D01*
X518231D01*
Y256467D01*
X515873D01*
Y255877D01*
X514694D01*
Y255288D01*
X512925D01*
Y254698D01*
X511156D01*
Y254109D01*
X509977D01*
Y253519D01*
X507619D01*
Y252930D01*
X506440D01*
Y252340D01*
X504671D01*
Y251750D01*
X502313D01*
Y251161D01*
X501134D01*
Y250571D01*
X498775D01*
Y249982D01*
X498186D01*
Y249392D01*
X495827D01*
Y248803D01*
X494058D01*
Y248213D01*
X492879D01*
Y247623D01*
X490521D01*
Y247034D01*
X489342D01*
Y246444D01*
X486984D01*
Y245855D01*
X485804D01*
Y245265D01*
X484036D01*
Y244675D01*
X482267D01*
Y244086D01*
X481088D01*
Y243496D01*
X478729D01*
Y242907D01*
X477550D01*
Y242317D01*
X475192D01*
Y241728D01*
X474013D01*
Y241138D01*
X472834D01*
Y240548D01*
X470475D01*
Y239959D01*
X469296D01*
Y239369D01*
X466938D01*
Y238780D01*
X465759D01*
Y238190D01*
X463990D01*
Y237601D01*
X462221D01*
Y237011D01*
X461042D01*
Y236421D01*
X458684D01*
Y235832D01*
X457505D01*
Y235242D01*
X455146D01*
Y234653D01*
X453967D01*
Y234063D01*
X452198D01*
Y233473D01*
X450430D01*
Y232884D01*
X449250D01*
Y232294D01*
X446303D01*
Y231705D01*
X445713D01*
Y231115D01*
X442175D01*
Y231705D01*
X441586D01*
Y232294D01*
X440996D01*
Y232884D01*
X439817D01*
Y233473D01*
X439228D01*
Y234063D01*
X438048D01*
Y234653D01*
X437459D01*
Y235242D01*
X436280D01*
Y235832D01*
X435690D01*
Y236421D01*
X435101D01*
Y237011D01*
X433921D01*
Y237601D01*
X433332D01*
Y238190D01*
X432153D01*
Y238780D01*
X431563D01*
Y239369D01*
X430384D01*
Y239959D01*
X429794D01*
Y240548D01*
X429205D01*
Y241138D01*
X428026D01*
Y241728D01*
X427436D01*
Y242317D01*
X426257D01*
Y242907D01*
X425667D01*
Y243496D01*
X424488D01*
Y244086D01*
X423899D01*
Y244675D01*
X423309D01*
Y245265D01*
X422130D01*
Y245855D01*
X421540D01*
Y246444D01*
X420361D01*
Y247034D01*
X419772D01*
Y247623D01*
X418592D01*
Y248213D01*
X418003D01*
Y248803D01*
X417413D01*
Y249392D01*
X416234D01*
Y249982D01*
X415644D01*
Y250571D01*
X414465D01*
Y251161D01*
X413876D01*
Y251750D01*
X413286D01*
Y252340D01*
X412107D01*
Y252930D01*
X411517D01*
Y253519D01*
X410338D01*
Y254109D01*
X409749D01*
Y254698D01*
X408570D01*
Y255288D01*
X407980D01*
Y255877D01*
X407390D01*
Y256467D01*
X406211D01*
Y257057D01*
X405622D01*
Y257646D01*
X404442D01*
Y258236D01*
X403853D01*
Y258825D01*
X402674D01*
Y259415D01*
X402084D01*
Y260005D01*
X401495D01*
Y260594D01*
X400315D01*
Y261184D01*
X399726D01*
Y261773D01*
X398547D01*
Y262363D01*
X397957D01*
Y262952D01*
X396778D01*
Y263542D01*
X396188D01*
Y264132D01*
X395599D01*
Y264721D01*
X394420D01*
Y265311D01*
X393830D01*
Y265900D01*
X392651D01*
Y426856D01*
X393830D01*
Y427445D01*
X396188D01*
Y428035D01*
X397368D01*
Y428624D01*
X399136D01*
Y429214D01*
X400905D01*
Y429803D01*
X402084D01*
Y430393D01*
X404442D01*
Y430983D01*
X405622D01*
Y431572D01*
X407980D01*
Y432162D01*
X409159D01*
Y432751D01*
X410928D01*
Y433341D01*
X412697D01*
Y433930D01*
X413876D01*
Y434520D01*
X416234D01*
Y435110D01*
X417413D01*
Y435699D01*
X419772D01*
Y436289D01*
X420951D01*
Y436878D01*
X422719D01*
Y437468D01*
X424488D01*
Y438058D01*
X425667D01*
Y438647D01*
X428026D01*
Y439237D01*
X429205D01*
Y439826D01*
X430974D01*
Y440416D01*
X433332D01*
Y441005D01*
X434511D01*
Y441595D01*
X436280D01*
Y442185D01*
X437459D01*
Y442774D01*
X439817D01*
Y443364D01*
X441586D01*
Y443953D01*
X442765D01*
Y444543D01*
X445123D01*
Y445132D01*
X446303D01*
Y445722D01*
X448661D01*
Y446312D01*
X449840D01*
Y446901D01*
X451609D01*
Y447491D01*
X453378D01*
Y448080D01*
X454557D01*
Y448670D01*
X456915D01*
Y449260D01*
X458094D01*
Y449849D01*
X459863D01*
Y450439D01*
X461632D01*
Y451028D01*
X462811D01*
Y451618D01*
X465169D01*
Y452207D01*
X466348D01*
Y452797D01*
X468707D01*
Y453387D01*
X469886D01*
Y453976D01*
X471654D01*
Y454566D01*
X473423D01*
Y455155D01*
X474602D01*
Y455745D01*
X476961D01*
Y456334D01*
X478140D01*
Y456924D01*
X480498D01*
Y457514D01*
X481677D01*
Y458103D01*
X483446D01*
Y458693D01*
X485215D01*
Y459282D01*
X486394D01*
Y459872D01*
X488752D01*
Y460462D01*
X489932D01*
Y461051D01*
X491700D01*
Y461641D01*
X494058D01*
Y462230D01*
X494648D01*
Y462820D01*
X497006D01*
Y463409D01*
X498186D01*
Y463999D01*
X500544D01*
Y464589D01*
X501723D01*
Y465178D01*
X503492D01*
Y465768D01*
X505850D01*
Y466357D01*
X506440D01*
Y466947D01*
X508798D01*
Y467536D01*
X510567D01*
Y468126D01*
X511746D01*
Y468716D01*
X514104D01*
Y469305D01*
X515283D01*
Y469895D01*
X517642D01*
Y470484D01*
X518821D01*
Y471074D01*
X520590D01*
Y471664D01*
X522358D01*
Y472253D01*
X523538D01*
Y472843D01*
X525896D01*
Y473432D01*
X527075D01*
Y474022D01*
X529433D01*
Y474611D01*
X530612D01*
Y475201D01*
X532381D01*
Y475791D01*
X534150D01*
Y476380D01*
X535329D01*
Y476970D01*
X537687D01*
Y477559D01*
X538867D01*
Y478149D01*
X541225D01*
Y478738D01*
X542404D01*
Y479328D01*
X543583D01*
Y479918D01*
X545942D01*
Y480507D01*
X547121D01*
Y481097D01*
X549479D01*
Y481686D01*
X550658D01*
Y482276D01*
X552427D01*
Y482866D01*
X554196D01*
Y483455D01*
X555375D01*
Y484045D01*
X557733D01*
Y484634D01*
X558912D01*
Y485224D01*
X561271D01*
Y485813D01*
X562450D01*
Y486403D01*
X564218D01*
Y486993D01*
X566577D01*
Y487582D01*
X567166D01*
Y488172D01*
X569525D01*
Y488761D01*
X571293D01*
Y489351D01*
X572473D01*
Y489940D01*
X574831D01*
Y490530D01*
X576010D01*
Y491120D01*
X578368D01*
Y491709D01*
X578958D01*
Y492299D01*
X581316D01*
Y492888D01*
X583085D01*
Y493478D01*
X584264D01*
Y494068D01*
X586622D01*
Y494657D01*
X587802D01*
Y495247D01*
X590160D01*
Y495836D01*
X591339D01*
Y496426D01*
X593108D01*
Y497015D01*
X594877D01*
Y497605D01*
X596056D01*
Y426266D01*
D02*
G37*
G36*
Y185718D02*
X593108D01*
Y185128D01*
X591929D01*
Y184538D01*
X590160D01*
Y183949D01*
X587802D01*
Y183359D01*
X586622D01*
Y182770D01*
X584854D01*
Y182180D01*
X583675D01*
Y181590D01*
X581316D01*
Y181001D01*
X579548D01*
Y180411D01*
X578368D01*
Y179822D01*
X576010D01*
Y179232D01*
X574831D01*
Y178643D01*
X572473D01*
Y178053D01*
X571293D01*
Y177463D01*
X570114D01*
Y176874D01*
X567756D01*
Y176284D01*
X566577D01*
Y175695D01*
X564218D01*
Y175105D01*
X563039D01*
Y174516D01*
X561271D01*
Y173926D01*
X559502D01*
Y173336D01*
X558323D01*
Y172747D01*
X555964D01*
Y172157D01*
X554785D01*
Y171568D01*
X552427D01*
Y170978D01*
X551248D01*
Y170388D01*
X549479D01*
Y169799D01*
X547121D01*
Y168620D01*
X545352D01*
Y182180D01*
Y182770D01*
Y239959D01*
X545942D01*
Y240548D01*
X548300D01*
Y241138D01*
X550069D01*
Y241728D01*
X551248D01*
Y242317D01*
X553606D01*
Y242907D01*
X554196D01*
Y243496D01*
X557144D01*
Y244086D01*
X558323D01*
Y244675D01*
X560091D01*
Y245265D01*
X561860D01*
Y245855D01*
X563039D01*
Y246444D01*
X565398D01*
Y247034D01*
X566577D01*
Y247623D01*
X568935D01*
Y248213D01*
X570114D01*
Y248803D01*
X571883D01*
Y249392D01*
X573652D01*
Y249982D01*
X574831D01*
Y250571D01*
X577189D01*
Y251161D01*
X578368D01*
Y251750D01*
X580137D01*
Y252340D01*
X581906D01*
Y252930D01*
X583085D01*
Y253519D01*
X586033D01*
Y254109D01*
X586622D01*
Y254698D01*
X588981D01*
Y255288D01*
X590750D01*
Y255877D01*
X591929D01*
Y256467D01*
X594287D01*
Y257057D01*
X595466D01*
Y257646D01*
X596056D01*
Y185718D01*
D02*
G37*
G36*
Y746997D02*
X595466D01*
Y746408D01*
X594287D01*
Y745818D01*
X591929D01*
Y745229D01*
X590160D01*
Y744639D01*
X588981D01*
Y744049D01*
X586622D01*
Y743460D01*
X585443D01*
Y742870D01*
X583085D01*
Y742281D01*
X582495D01*
Y741691D01*
X580137D01*
Y741101D01*
X578368D01*
Y740512D01*
X577189D01*
Y739922D01*
X574831D01*
Y739333D01*
X573652D01*
Y738743D01*
X571293D01*
Y738154D01*
X570114D01*
Y737564D01*
X568346D01*
Y736974D01*
X566577D01*
Y736385D01*
X565398D01*
Y735795D01*
X563039D01*
Y735206D01*
X561860D01*
Y734616D01*
X559502D01*
Y734027D01*
X558323D01*
Y733437D01*
X556554D01*
Y732847D01*
X554785D01*
Y732258D01*
X553606D01*
Y731668D01*
X551248D01*
Y731079D01*
X549479D01*
Y730489D01*
X548300D01*
Y729899D01*
X546531D01*
Y729310D01*
X545352D01*
Y728720D01*
X542404D01*
Y728131D01*
X541814D01*
Y727541D01*
X539456D01*
Y726952D01*
X537687D01*
Y726362D01*
X536508D01*
Y725772D01*
X534150D01*
Y725183D01*
X532971D01*
Y724593D01*
X531202D01*
Y724004D01*
X529433D01*
Y723414D01*
X528254D01*
Y722824D01*
X525896D01*
Y722235D01*
X524717D01*
Y721645D01*
X522358D01*
Y721056D01*
X521179D01*
Y720466D01*
X519410D01*
Y719877D01*
X517642D01*
Y719287D01*
X516463D01*
Y718697D01*
X514104D01*
Y718108D01*
X512925D01*
Y717518D01*
X511156D01*
Y716929D01*
X509388D01*
Y716339D01*
X508209D01*
Y715750D01*
X505850D01*
Y715160D01*
X504671D01*
Y714570D01*
X502313D01*
Y713981D01*
X501134D01*
Y713391D01*
X499365D01*
Y712802D01*
X497596D01*
Y712212D01*
X496417D01*
Y711622D01*
X494058D01*
Y711033D01*
X492879D01*
Y710443D01*
X490521D01*
Y709854D01*
X489342D01*
Y709264D01*
X487573D01*
Y708674D01*
X485804D01*
Y708085D01*
X484625D01*
Y707495D01*
X482267D01*
Y706906D01*
X481088D01*
Y706316D01*
X479319D01*
Y705727D01*
X477550D01*
Y705137D01*
X476371D01*
Y704548D01*
X474013D01*
Y703958D01*
X472834D01*
Y703368D01*
X470475D01*
Y702779D01*
X469296D01*
Y702189D01*
X467527D01*
Y701600D01*
X465759D01*
Y701010D01*
X464580D01*
Y700420D01*
X462221D01*
Y699831D01*
X461042D01*
Y699241D01*
X459273D01*
Y698652D01*
X457505D01*
Y698062D01*
X456325D01*
Y697472D01*
X453967D01*
Y696883D01*
X452788D01*
Y696293D01*
X450430D01*
Y695704D01*
X449250D01*
Y695114D01*
X447482D01*
Y694525D01*
X445713D01*
Y693935D01*
X444534D01*
Y693346D01*
X443355D01*
Y623186D01*
X443944D01*
Y622596D01*
X445713D01*
Y623186D01*
X446892D01*
Y623775D01*
X448661D01*
Y624365D01*
X450430D01*
Y624954D01*
X451609D01*
Y625544D01*
X453967D01*
Y626133D01*
X455146D01*
Y626723D01*
X457505D01*
Y627313D01*
X458684D01*
Y627902D01*
X459863D01*
Y628492D01*
X462221D01*
Y629081D01*
X463400D01*
Y629671D01*
X465759D01*
Y630260D01*
X466938D01*
Y630850D01*
X468707D01*
Y631440D01*
X470475D01*
Y632029D01*
X471654D01*
Y632619D01*
X474013D01*
Y633208D01*
X475192D01*
Y633798D01*
X477550D01*
Y634388D01*
X478729D01*
Y634977D01*
X480498D01*
Y635567D01*
X482267D01*
Y636156D01*
X483446D01*
Y636746D01*
X485804D01*
Y637335D01*
X486984D01*
Y637925D01*
X488752D01*
Y638515D01*
X490521D01*
Y639104D01*
X491700D01*
Y639694D01*
X494058D01*
Y672121D01*
X494648D01*
Y672710D01*
X494058D01*
Y674479D01*
X494648D01*
Y675658D01*
X495238D01*
Y676248D01*
X497006D01*
Y676837D01*
X498186D01*
Y677427D01*
X499954D01*
Y678016D01*
X501723D01*
Y678606D01*
X502902D01*
Y679196D01*
X505261D01*
Y679785D01*
X506440D01*
Y680375D01*
X508209D01*
Y680964D01*
X509977D01*
Y681554D01*
X511156D01*
Y682144D01*
X513515D01*
Y682733D01*
X514694D01*
Y683323D01*
X517052D01*
Y683912D01*
X518231D01*
Y684502D01*
X520000D01*
Y685091D01*
X521769D01*
Y685681D01*
X522948D01*
Y686270D01*
X525306D01*
Y686860D01*
X526485D01*
Y687450D01*
X528254D01*
Y688039D01*
X530023D01*
Y688629D01*
X531202D01*
Y689218D01*
X534150D01*
Y689808D01*
X534740D01*
Y690398D01*
X537098D01*
Y690987D01*
X538867D01*
Y691577D01*
X540046D01*
Y692166D01*
X542404D01*
Y692756D01*
X542994D01*
Y693346D01*
X544762D01*
Y692756D01*
X545352D01*
Y657971D01*
X547121D01*
Y658560D01*
X547710D01*
Y659150D01*
X550069D01*
Y659739D01*
X551837D01*
Y660329D01*
X553016D01*
Y660919D01*
X555375D01*
Y661508D01*
X555964D01*
Y662098D01*
X558323D01*
Y662687D01*
X559502D01*
Y663277D01*
X561271D01*
Y663866D01*
X563629D01*
Y664456D01*
X564218D01*
Y665046D01*
X567166D01*
Y665635D01*
X568346D01*
Y666225D01*
X570114D01*
Y666814D01*
X571883D01*
Y667404D01*
X573062D01*
Y667994D01*
X575420D01*
Y668583D01*
X576010D01*
Y669173D01*
X578368D01*
Y669762D01*
X579548D01*
Y670352D01*
X581316D01*
Y670942D01*
X583675D01*
Y671531D01*
X584854D01*
Y672121D01*
X587212D01*
Y672710D01*
X588391D01*
Y673300D01*
X590160D01*
Y673889D01*
X591929D01*
Y674479D01*
X593108D01*
Y675068D01*
X595466D01*
Y675658D01*
X596056D01*
Y604319D01*
X594877D01*
Y603729D01*
X593697D01*
Y603140D01*
X591929D01*
Y602550D01*
X590160D01*
Y601961D01*
X588981D01*
Y601371D01*
X586622D01*
Y600782D01*
X585443D01*
Y600192D01*
X583085D01*
Y599602D01*
X581316D01*
Y599013D01*
X580137D01*
Y598423D01*
X577779D01*
Y597834D01*
X576600D01*
Y597244D01*
X574831D01*
Y596654D01*
X573652D01*
Y596065D01*
X571293D01*
Y595475D01*
X569525D01*
Y594886D01*
X568346D01*
Y594296D01*
X565987D01*
Y593707D01*
X564808D01*
Y593117D01*
X563039D01*
Y592527D01*
X561271D01*
Y591938D01*
X560091D01*
Y591348D01*
X557733D01*
Y590759D01*
X556554D01*
Y590169D01*
X554196D01*
Y589580D01*
X553016D01*
Y588990D01*
X551248D01*
Y588400D01*
X549479D01*
Y587811D01*
X548300D01*
Y587221D01*
X545942D01*
Y586632D01*
X544762D01*
Y586042D01*
X542404D01*
Y585452D01*
X541225D01*
Y584863D01*
X539456D01*
Y584273D01*
X537687D01*
Y583684D01*
X536508D01*
Y583094D01*
X534150D01*
Y582505D01*
X532971D01*
Y581915D01*
X531202D01*
Y581325D01*
X528844D01*
Y580736D01*
X527665D01*
Y580146D01*
X525306D01*
Y579557D01*
X524717D01*
Y578967D01*
X522358D01*
Y578378D01*
X520590D01*
Y577788D01*
X519410D01*
Y577198D01*
X517052D01*
Y576609D01*
X515873D01*
Y576019D01*
X514104D01*
Y575430D01*
X512336D01*
Y574840D01*
X510567D01*
Y574250D01*
X508798D01*
Y573661D01*
X507619D01*
Y573071D01*
X505261D01*
Y572482D01*
X504081D01*
Y571892D01*
X502313D01*
Y571303D01*
X500544D01*
Y570713D01*
X499365D01*
Y570123D01*
X497006D01*
Y569534D01*
X495827D01*
Y568944D01*
X493469D01*
Y568355D01*
X492290D01*
Y567765D01*
X490521D01*
Y567176D01*
X488752D01*
Y566586D01*
X487573D01*
Y565996D01*
X485215D01*
Y565407D01*
X484036D01*
Y564817D01*
X481677D01*
Y564228D01*
X480498D01*
Y563638D01*
X478729D01*
Y563048D01*
X476961D01*
Y562459D01*
X475782D01*
Y561869D01*
X473423D01*
Y561280D01*
X472244D01*
Y560690D01*
X470475D01*
Y560101D01*
X468117D01*
Y559511D01*
X466938D01*
Y558921D01*
X464580D01*
Y558332D01*
X463990D01*
Y557742D01*
X461632D01*
Y557153D01*
X459863D01*
Y556563D01*
X458684D01*
Y555973D01*
X456325D01*
Y555384D01*
X455146D01*
Y554794D01*
X453378D01*
Y554205D01*
X451609D01*
Y553615D01*
X449840D01*
Y553026D01*
X448071D01*
Y552436D01*
X446892D01*
Y551846D01*
X445123D01*
Y551257D01*
X442765D01*
Y551846D01*
X441586D01*
Y552436D01*
X440996D01*
Y553026D01*
X440407D01*
Y553615D01*
X439228D01*
Y554205D01*
X438638D01*
Y554794D01*
X437459D01*
Y555384D01*
X436869D01*
Y555973D01*
X435690D01*
Y556563D01*
X435101D01*
Y557153D01*
X434511D01*
Y557742D01*
X433332D01*
Y558332D01*
X432742D01*
Y558921D01*
X431563D01*
Y559511D01*
X430974D01*
Y560101D01*
X430384D01*
Y560690D01*
X429205D01*
Y561280D01*
X428615D01*
Y561869D01*
X427436D01*
Y562459D01*
X426846D01*
Y563048D01*
X425667D01*
Y563638D01*
X425078D01*
Y564228D01*
X424488D01*
Y564817D01*
X423309D01*
Y565407D01*
X422719D01*
Y565996D01*
X421540D01*
Y566586D01*
X420951D01*
Y567176D01*
X419772D01*
Y567765D01*
X419182D01*
Y568355D01*
X418592D01*
Y568944D01*
X417413D01*
Y569534D01*
X416824D01*
Y570123D01*
X415644D01*
Y570713D01*
X415055D01*
Y571303D01*
X414465D01*
Y571892D01*
X413286D01*
Y572482D01*
X412697D01*
Y573071D01*
X411517D01*
Y573661D01*
X410928D01*
Y574250D01*
X409749D01*
Y574840D01*
X409159D01*
Y575430D01*
X407980D01*
Y576019D01*
X407390D01*
Y576609D01*
X406801D01*
Y577198D01*
X405622D01*
Y577788D01*
X405032D01*
Y578378D01*
X403853D01*
Y578967D01*
X403263D01*
Y579557D01*
X402674D01*
Y580146D01*
X401495D01*
Y580736D01*
X400905D01*
Y581325D01*
X399726D01*
Y581915D01*
X398547D01*
Y582505D01*
X397957D01*
Y583094D01*
X397368D01*
Y583684D01*
X396778D01*
Y584273D01*
X395599D01*
Y584863D01*
X394420D01*
Y585452D01*
X393830D01*
Y586042D01*
X392651D01*
Y694525D01*
X393830D01*
Y695704D01*
X394420D01*
Y696293D01*
X395009D01*
Y696883D01*
X395599D01*
Y698062D01*
X396188D01*
Y698652D01*
X396778D01*
Y699831D01*
X397368D01*
Y700420D01*
X397957D01*
Y701010D01*
X398547D01*
Y702189D01*
X399136D01*
Y702779D01*
X399726D01*
Y703958D01*
X400315D01*
Y704548D01*
X400905D01*
Y705727D01*
X401495D01*
Y706316D01*
X402084D01*
Y706906D01*
X402674D01*
Y708085D01*
X403263D01*
Y708674D01*
X403853D01*
Y709854D01*
X404442D01*
Y710443D01*
X405032D01*
Y711033D01*
X405622D01*
Y712212D01*
X406211D01*
Y712802D01*
X406801D01*
Y713981D01*
X407390D01*
Y714570D01*
X407980D01*
Y715160D01*
X408570D01*
Y716339D01*
X409159D01*
Y716929D01*
X409749D01*
Y718108D01*
X410338D01*
Y718697D01*
X410928D01*
Y719877D01*
X411517D01*
Y720466D01*
X412107D01*
Y721056D01*
X412697D01*
Y722235D01*
X413286D01*
Y722824D01*
X413876D01*
Y724004D01*
X414465D01*
Y724593D01*
X415055D01*
Y725183D01*
X415644D01*
Y726362D01*
X416234D01*
Y726952D01*
X416824D01*
Y727541D01*
X417413D01*
Y728720D01*
X418003D01*
Y729310D01*
X418592D01*
Y729899D01*
X419182D01*
Y731079D01*
X419772D01*
Y731668D01*
X420361D01*
Y732847D01*
X420951D01*
Y733437D01*
X421540D01*
Y734027D01*
X422130D01*
Y735206D01*
X422719D01*
Y735795D01*
X423309D01*
Y736974D01*
X423899D01*
Y737564D01*
X424488D01*
Y738154D01*
X425078D01*
Y739333D01*
X425667D01*
Y739922D01*
X426257D01*
Y741101D01*
X426846D01*
Y741691D01*
X427436D01*
Y742281D01*
X428026D01*
Y743460D01*
X428615D01*
Y744049D01*
X429205D01*
Y745229D01*
X429794D01*
Y745818D01*
X430384D01*
Y746408D01*
X430974D01*
Y747587D01*
X431563D01*
Y748176D01*
X432153D01*
Y749356D01*
X432742D01*
Y749945D01*
X433332D01*
Y751124D01*
X433921D01*
Y751714D01*
X434511D01*
Y752303D01*
X435101D01*
Y753483D01*
X435690D01*
Y754072D01*
X436280D01*
Y755251D01*
X436869D01*
Y755841D01*
X437459D01*
Y756431D01*
X438048D01*
Y757610D01*
X438638D01*
Y758199D01*
X439228D01*
Y759378D01*
X439817D01*
Y759968D01*
X440407D01*
Y760558D01*
X440996D01*
Y761737D01*
X441586D01*
Y762326D01*
X442175D01*
Y763505D01*
X442765D01*
Y764095D01*
X443355D01*
Y764685D01*
X443944D01*
Y765274D01*
X445713D01*
Y765864D01*
X447482D01*
Y766453D01*
X448661D01*
Y767043D01*
X451019D01*
Y767633D01*
X452198D01*
Y768222D01*
X454557D01*
Y768812D01*
X455736D01*
Y769401D01*
X457505D01*
Y769991D01*
X459273D01*
Y770580D01*
X460452D01*
Y771170D01*
X462811D01*
Y771760D01*
X463990D01*
Y772349D01*
X466348D01*
Y772939D01*
X467527D01*
Y773528D01*
X469296D01*
Y774118D01*
X471065D01*
Y774707D01*
X472244D01*
Y775297D01*
X474602D01*
Y775887D01*
X475782D01*
Y776476D01*
X477550D01*
Y777066D01*
X479909D01*
Y777655D01*
X481088D01*
Y778245D01*
X483446D01*
Y778835D01*
X484036D01*
Y779424D01*
X486394D01*
Y780014D01*
X488163D01*
Y780603D01*
X489342D01*
Y781193D01*
X491700D01*
Y781782D01*
X492879D01*
Y782372D01*
X494648D01*
Y782962D01*
X496417D01*
Y783551D01*
X498186D01*
Y784141D01*
X499954D01*
Y784730D01*
X501134D01*
Y785320D01*
X503492D01*
Y785909D01*
X504671D01*
Y786499D01*
X506440D01*
Y787089D01*
X508209D01*
Y787678D01*
X509388D01*
Y788268D01*
X511746D01*
Y788857D01*
X512925D01*
Y789447D01*
X515283D01*
Y790037D01*
X516463D01*
Y790626D01*
X518231D01*
Y791216D01*
X520000D01*
Y791805D01*
X521179D01*
Y792395D01*
X523538D01*
Y792984D01*
X524717D01*
Y793574D01*
X527075D01*
Y794164D01*
X528844D01*
Y794753D01*
X530023D01*
Y795343D01*
X531792D01*
Y795932D01*
X532971D01*
Y796522D01*
X535329D01*
Y797111D01*
X536508D01*
Y797701D01*
X538277D01*
Y798291D01*
X540635D01*
Y798880D01*
X541814D01*
Y799470D01*
X544173D01*
Y800059D01*
X544762D01*
Y800649D01*
X547121D01*
Y801239D01*
X548889D01*
Y801828D01*
X550069D01*
Y802418D01*
X552427D01*
Y803007D01*
X553606D01*
Y803597D01*
X555375D01*
Y804186D01*
X557144D01*
Y804776D01*
X558912D01*
Y805366D01*
X560681D01*
Y805955D01*
X561860D01*
Y806545D01*
X564218D01*
Y807134D01*
X565398D01*
Y807724D01*
X567166D01*
Y808313D01*
X568935D01*
Y808903D01*
X570114D01*
Y809493D01*
X572473D01*
Y810082D01*
X573652D01*
Y810672D01*
X576010D01*
Y811261D01*
X577189D01*
Y811851D01*
X578958D01*
Y812441D01*
X580727D01*
Y813030D01*
X581906D01*
Y813620D01*
X584264D01*
Y814209D01*
X585443D01*
Y814799D01*
X587802D01*
Y815388D01*
X589570D01*
Y815978D01*
X590750D01*
Y816568D01*
X592518D01*
Y817157D01*
X593697D01*
Y817747D01*
X596056D01*
Y746997D01*
D02*
G37*
G36*
Y540055D02*
Y539465D01*
Y515293D01*
X594287D01*
Y514703D01*
X593108D01*
Y514113D01*
X591339D01*
Y513524D01*
X589570D01*
Y512934D01*
X588391D01*
Y512345D01*
X586033D01*
Y511755D01*
X584854D01*
Y511165D01*
X583085D01*
Y510576D01*
X581316D01*
Y509986D01*
X579548D01*
Y509397D01*
X577189D01*
Y508807D01*
X576600D01*
Y508217D01*
X574241D01*
Y507628D01*
X572473D01*
Y507038D01*
X571293D01*
Y506449D01*
X568935D01*
Y505859D01*
X567756D01*
Y505270D01*
X565398D01*
Y504680D01*
X564218D01*
Y504090D01*
X562450D01*
Y503501D01*
X560681D01*
Y502911D01*
X559502D01*
Y502322D01*
X557144D01*
Y501732D01*
X555964D01*
Y501143D01*
X553606D01*
Y500553D01*
X552427D01*
Y499963D01*
X550658D01*
Y499374D01*
X548889D01*
Y498784D01*
X547710D01*
Y498195D01*
X545352D01*
Y568944D01*
X545942D01*
Y569534D01*
X547710D01*
Y570123D01*
X549479D01*
Y570713D01*
X551248D01*
Y571303D01*
X552427D01*
Y571892D01*
X554785D01*
Y572482D01*
X555964D01*
Y573071D01*
X558323D01*
Y573661D01*
X559502D01*
Y574250D01*
X561271D01*
Y574840D01*
X563039D01*
Y575430D01*
X564218D01*
Y576019D01*
X566577D01*
Y576609D01*
X567756D01*
Y577198D01*
X570114D01*
Y577788D01*
X571293D01*
Y578378D01*
X572473D01*
Y578967D01*
X574831D01*
Y579557D01*
X576010D01*
Y580146D01*
X578368D01*
Y580736D01*
X579548D01*
Y581325D01*
X581316D01*
Y581915D01*
X583675D01*
Y582505D01*
X584854D01*
Y583094D01*
X586622D01*
Y583684D01*
X588391D01*
Y584273D01*
X590160D01*
Y584863D01*
X591929D01*
Y585452D01*
X593108D01*
Y586042D01*
X595466D01*
Y586632D01*
X596056D01*
Y540055D01*
D02*
G37*
G36*
Y1067139D02*
X594877D01*
Y1066549D01*
X593108D01*
Y1065960D01*
X591929D01*
Y1065370D01*
X589570D01*
Y1064781D01*
X588391D01*
Y1064191D01*
X586622D01*
Y1063601D01*
X584854D01*
Y1063012D01*
X583675D01*
Y1062422D01*
X581316D01*
Y1061833D01*
X580137D01*
Y1061243D01*
X577779D01*
Y1060653D01*
X576600D01*
Y1060064D01*
X574831D01*
Y1059474D01*
X573062D01*
Y1058885D01*
X571883D01*
Y1058295D01*
X569525D01*
Y1057706D01*
X568346D01*
Y1057116D01*
X566577D01*
Y1056526D01*
X564808D01*
Y1055937D01*
X563039D01*
Y1055347D01*
X561271D01*
Y1054758D01*
X560091D01*
Y1054168D01*
X557733D01*
Y1053579D01*
X556554D01*
Y1052989D01*
X554785D01*
Y1052399D01*
X552427D01*
Y1051810D01*
X551248D01*
Y1051220D01*
X549479D01*
Y1050631D01*
X548300D01*
Y1050041D01*
X545942D01*
Y1049451D01*
X544173D01*
Y1048862D01*
X542994D01*
Y1048272D01*
X540635D01*
Y1047683D01*
X539456D01*
Y1047093D01*
X537098D01*
Y1046504D01*
X535919D01*
Y1045914D01*
X534150D01*
Y1045324D01*
X532381D01*
Y1044735D01*
X531202D01*
Y1044145D01*
X528844D01*
Y1043556D01*
X527665D01*
Y1042966D01*
X525896D01*
Y1042377D01*
X524127D01*
Y1041787D01*
X522948D01*
Y1041197D01*
X520590D01*
Y1040608D01*
X519410D01*
Y1040018D01*
X517052D01*
Y1039429D01*
X515873D01*
Y1038839D01*
X514104D01*
Y1038249D01*
X512336D01*
Y1037660D01*
X511156D01*
Y1037070D01*
X508798D01*
Y1036481D01*
X507619D01*
Y1035891D01*
X505261D01*
Y1035302D01*
X504081D01*
Y1034712D01*
X502902D01*
Y1034122D01*
X500544D01*
Y1033533D01*
X499365D01*
Y1032943D01*
X497006D01*
Y1032354D01*
X495827D01*
Y1031764D01*
X494058D01*
Y1031175D01*
X492290D01*
Y1030585D01*
X491111D01*
Y1029995D01*
X488752D01*
Y1029406D01*
X487573D01*
Y1028816D01*
X485215D01*
Y1028227D01*
X484036D01*
Y1027637D01*
X482267D01*
Y1027047D01*
X480498D01*
Y1026458D01*
X479319D01*
Y1025868D01*
X476961D01*
Y1025279D01*
X475782D01*
Y1024689D01*
X474013D01*
Y1024100D01*
X472244D01*
Y1023510D01*
X471065D01*
Y1022920D01*
X468707D01*
Y1022331D01*
X467527D01*
Y1021741D01*
X465169D01*
Y1021152D01*
X463990D01*
Y1020562D01*
X462221D01*
Y1019972D01*
X460452D01*
Y1019383D01*
X459273D01*
Y1018793D01*
X456915D01*
Y1018204D01*
X455736D01*
Y1017614D01*
X453967D01*
Y1017025D01*
X451609D01*
Y1016435D01*
X451019D01*
Y1015846D01*
X448661D01*
Y1015256D01*
X446892D01*
Y1014666D01*
X445123D01*
Y1014077D01*
X443944D01*
Y1012898D01*
X443355D01*
Y943327D01*
X443944D01*
Y942738D01*
X445123D01*
Y943327D01*
X446303D01*
Y943917D01*
X448661D01*
Y944506D01*
X449840D01*
Y945096D01*
X452198D01*
Y945686D01*
X453378D01*
Y946275D01*
X455146D01*
Y946865D01*
X456915D01*
Y947454D01*
X458094D01*
Y948044D01*
X460452D01*
Y948633D01*
X461632D01*
Y949223D01*
X463400D01*
Y949813D01*
X465169D01*
Y950402D01*
X466348D01*
Y950992D01*
X468707D01*
Y986366D01*
X469296D01*
Y987546D01*
X471654D01*
Y988135D01*
X472834D01*
Y988725D01*
X474602D01*
Y989314D01*
X476371D01*
Y989904D01*
X477550D01*
Y990494D01*
X479909D01*
Y991083D01*
X481088D01*
Y991673D01*
X482856D01*
Y992262D01*
X484625D01*
Y992852D01*
X485804D01*
Y993442D01*
X488163D01*
Y994031D01*
X489342D01*
Y994621D01*
X491700D01*
Y995210D01*
X492879D01*
Y995800D01*
X494648D01*
Y996389D01*
X496417D01*
Y996979D01*
X497596D01*
Y997568D01*
X499954D01*
Y998158D01*
X501134D01*
Y998748D01*
X502902D01*
Y999337D01*
X504671D01*
Y999927D01*
X505850D01*
Y1000516D01*
X508209D01*
Y1001106D01*
X509388D01*
Y1001696D01*
X511746D01*
Y1002285D01*
X512925D01*
Y1002875D01*
X514694D01*
Y1003464D01*
X516463D01*
Y1004054D01*
X517642D01*
Y1004644D01*
X519410D01*
Y1004054D01*
X520000D01*
Y898519D01*
X519410D01*
Y897930D01*
X518821D01*
Y897340D01*
X517052D01*
Y896750D01*
X515283D01*
Y896161D01*
X514104D01*
Y895571D01*
X511746D01*
Y894982D01*
X510567D01*
Y894392D01*
X508209D01*
Y893803D01*
X507029D01*
Y893213D01*
X505261D01*
Y892623D01*
X503492D01*
Y892034D01*
X502313D01*
Y891444D01*
X499954D01*
Y890855D01*
X498775D01*
Y890265D01*
X497006D01*
Y889676D01*
X495238D01*
Y889086D01*
X493469D01*
Y888496D01*
X491700D01*
Y887907D01*
X490521D01*
Y887317D01*
X488163D01*
Y886728D01*
X486394D01*
Y886138D01*
X485215D01*
Y885548D01*
X482856D01*
Y884959D01*
X481677D01*
Y884369D01*
X479909D01*
Y883780D01*
X478140D01*
Y883190D01*
X476371D01*
Y882601D01*
X474602D01*
Y882011D01*
X473423D01*
Y881421D01*
X471065D01*
Y880832D01*
X469886D01*
Y880242D01*
X468117D01*
Y879653D01*
X466348D01*
Y879063D01*
X464580D01*
Y878473D01*
X462811D01*
Y877884D01*
X461632D01*
Y877294D01*
X459273D01*
Y876705D01*
X458094D01*
Y876115D01*
X456325D01*
Y875526D01*
X454557D01*
Y874936D01*
X453378D01*
Y874346D01*
X451019D01*
Y873757D01*
X449840D01*
Y873167D01*
X447482D01*
Y872578D01*
X446303D01*
Y871988D01*
X444534D01*
Y871399D01*
X442765D01*
Y871988D01*
X442175D01*
Y872578D01*
X441586D01*
Y873167D01*
X440407D01*
Y873757D01*
X439817D01*
Y874346D01*
X438638D01*
Y874936D01*
X438048D01*
Y875526D01*
X436869D01*
Y876115D01*
X436280D01*
Y876705D01*
X435690D01*
Y877294D01*
X434511D01*
Y877884D01*
X433921D01*
Y878473D01*
X432742D01*
Y879063D01*
X432153D01*
Y879653D01*
X430974D01*
Y880242D01*
X430384D01*
Y880832D01*
X429794D01*
Y881421D01*
X428615D01*
Y882011D01*
X428026D01*
Y882601D01*
X426846D01*
Y883190D01*
X426257D01*
Y883780D01*
X425078D01*
Y884369D01*
X424488D01*
Y884959D01*
X423899D01*
Y885548D01*
X422719D01*
Y886138D01*
X422130D01*
Y886728D01*
X420951D01*
Y887317D01*
X420361D01*
Y887907D01*
X419182D01*
Y888496D01*
X418592D01*
Y889086D01*
X418003D01*
Y889676D01*
X416824D01*
Y890265D01*
X415644D01*
Y890855D01*
X415055D01*
Y891444D01*
X414465D01*
Y892034D01*
X413876D01*
Y892623D01*
X412697D01*
Y893213D01*
X411517D01*
Y893803D01*
X410928D01*
Y894392D01*
X409749D01*
Y894982D01*
X409159D01*
Y895571D01*
X408570D01*
Y896161D01*
X407390D01*
Y896750D01*
X406801D01*
Y897340D01*
X405622D01*
Y897930D01*
X405032D01*
Y898519D01*
X403853D01*
Y899109D01*
X403263D01*
Y899698D01*
X402674D01*
Y900288D01*
X401495D01*
Y900878D01*
X400905D01*
Y901467D01*
X399726D01*
Y902057D01*
X399136D01*
Y902646D01*
X397957D01*
Y903236D01*
X397368D01*
Y903825D01*
X396778D01*
Y904415D01*
X395599D01*
Y905005D01*
X395009D01*
Y905594D01*
X393830D01*
Y906184D01*
X393240D01*
Y906773D01*
X392651D01*
Y1067139D01*
X393830D01*
Y1067728D01*
X395009D01*
Y1068318D01*
X396778D01*
Y1068908D01*
X397957D01*
Y1069497D01*
X400315D01*
Y1070087D01*
X401495D01*
Y1070676D01*
X403263D01*
Y1071266D01*
X405622D01*
Y1071855D01*
X406211D01*
Y1072445D01*
X408570D01*
Y1073035D01*
X409749D01*
Y1073624D01*
X412107D01*
Y1074214D01*
X413286D01*
Y1074803D01*
X415055D01*
Y1075393D01*
X417413D01*
Y1075983D01*
X418592D01*
Y1076572D01*
X420361D01*
Y1077162D01*
X422130D01*
Y1077751D01*
X423309D01*
Y1078341D01*
X425667D01*
Y1078930D01*
X426846D01*
Y1079520D01*
X429205D01*
Y1080110D01*
X430384D01*
Y1080699D01*
X432153D01*
Y1081289D01*
X433921D01*
Y1081878D01*
X435101D01*
Y1082468D01*
X437459D01*
Y1083057D01*
X438638D01*
Y1083647D01*
X440996D01*
Y1084237D01*
X442175D01*
Y1084826D01*
X443944D01*
Y1085416D01*
X445713D01*
Y1086005D01*
X446892D01*
Y1086595D01*
X449250D01*
Y1087185D01*
X450430D01*
Y1087774D01*
X452198D01*
Y1088364D01*
X453967D01*
Y1088953D01*
X455146D01*
Y1089543D01*
X457505D01*
Y1090132D01*
X458684D01*
Y1090722D01*
X461042D01*
Y1091312D01*
X462221D01*
Y1091901D01*
X463990D01*
Y1092491D01*
X465759D01*
Y1093080D01*
X466938D01*
Y1093670D01*
X469296D01*
Y1094260D01*
X470475D01*
Y1094849D01*
X472834D01*
Y1095439D01*
X474013D01*
Y1096028D01*
X475782D01*
Y1096618D01*
X477550D01*
Y1097207D01*
X478729D01*
Y1097797D01*
X481088D01*
Y1098387D01*
X482267D01*
Y1098976D01*
X484036D01*
Y1099566D01*
X486394D01*
Y1100155D01*
X487573D01*
Y1100745D01*
X489342D01*
Y1101334D01*
X491111D01*
Y1101924D01*
X492879D01*
Y1102514D01*
X494648D01*
Y1103103D01*
X495827D01*
Y1103693D01*
X498186D01*
Y1104282D01*
X499365D01*
Y1104872D01*
X501723D01*
Y1105462D01*
X502902D01*
Y1106051D01*
X504671D01*
Y1106641D01*
X506440D01*
Y1107230D01*
X507619D01*
Y1107820D01*
X509977D01*
Y1108409D01*
X511156D01*
Y1108999D01*
X512925D01*
Y1109589D01*
X514694D01*
Y1110178D01*
X515873D01*
Y1110768D01*
X518231D01*
Y1111357D01*
X519410D01*
Y1111947D01*
X521769D01*
Y1112536D01*
X522948D01*
Y1113126D01*
X524717D01*
Y1113716D01*
X526485D01*
Y1114305D01*
X527665D01*
Y1114895D01*
X530023D01*
Y1115484D01*
X531202D01*
Y1116074D01*
X533560D01*
Y1116664D01*
X534740D01*
Y1117253D01*
X535919D01*
Y1117843D01*
X538277D01*
Y1118432D01*
X539456D01*
Y1119022D01*
X541814D01*
Y1119611D01*
X542994D01*
Y1120201D01*
X544762D01*
Y1120791D01*
X547121D01*
Y1121380D01*
X547710D01*
Y1121970D01*
X550658D01*
Y1122559D01*
X551837D01*
Y1123149D01*
X553606D01*
Y1123738D01*
X555375D01*
Y1124328D01*
X556554D01*
Y1124918D01*
X558912D01*
Y1125507D01*
X559502D01*
Y1126097D01*
X562450D01*
Y1126686D01*
X563629D01*
Y1127276D01*
X564808D01*
Y1127866D01*
X567166D01*
Y1128455D01*
X568346D01*
Y1129045D01*
X570704D01*
Y1129634D01*
X571883D01*
Y1130224D01*
X573652D01*
Y1130813D01*
X575420D01*
Y1131403D01*
X576600D01*
Y1131993D01*
X578958D01*
Y1132582D01*
X580137D01*
Y1133172D01*
X582495D01*
Y1133761D01*
X583675D01*
Y1134351D01*
X585443D01*
Y1134940D01*
X587212D01*
Y1135530D01*
X588391D01*
Y1136120D01*
X590750D01*
Y1136709D01*
X591929D01*
Y1137299D01*
X594287D01*
Y1137888D01*
X596056D01*
Y1067139D01*
D02*
G37*
G36*
Y835434D02*
X594877D01*
Y834845D01*
X591929D01*
Y834255D01*
X591339D01*
Y833665D01*
X588981D01*
Y833076D01*
X587212D01*
Y832486D01*
X586033D01*
Y831897D01*
X583675D01*
Y831307D01*
X582495D01*
Y830717D01*
X580137D01*
Y830128D01*
X578958D01*
Y829538D01*
X577779D01*
Y828949D01*
X575420D01*
Y828359D01*
X574241D01*
Y827770D01*
X571883D01*
Y827180D01*
X570704D01*
Y826590D01*
X568935D01*
Y826001D01*
X567166D01*
Y825411D01*
X565987D01*
Y824822D01*
X563629D01*
Y824232D01*
X562450D01*
Y823643D01*
X560091D01*
Y823053D01*
X558912D01*
Y822463D01*
X557144D01*
Y821874D01*
X554785D01*
Y821284D01*
X553606D01*
Y820695D01*
X551837D01*
Y820105D01*
X550658D01*
Y819515D01*
X548300D01*
Y818926D01*
X547121D01*
Y818336D01*
X545352D01*
Y882601D01*
Y883190D01*
Y889086D01*
X545942D01*
Y889676D01*
X547121D01*
Y890265D01*
X548889D01*
Y890855D01*
X550069D01*
Y891444D01*
X552427D01*
Y892034D01*
X553606D01*
Y892623D01*
X555964D01*
Y893213D01*
X557144D01*
Y893803D01*
X558912D01*
Y894392D01*
X561271D01*
Y894982D01*
X561860D01*
Y895571D01*
X564808D01*
Y896161D01*
X565987D01*
Y896750D01*
X567756D01*
Y897340D01*
X569525D01*
Y897930D01*
X570704D01*
Y898519D01*
X573062D01*
Y899109D01*
X574241D01*
Y899698D01*
X576010D01*
Y900288D01*
X577779D01*
Y900878D01*
X578958D01*
Y901467D01*
X581316D01*
Y902057D01*
X582495D01*
Y902646D01*
X584854D01*
Y903236D01*
X586033D01*
Y903825D01*
X587802D01*
Y904415D01*
X589570D01*
Y905005D01*
X590750D01*
Y905594D01*
X593697D01*
Y906184D01*
X594287D01*
Y906773D01*
X596056D01*
Y835434D01*
D02*
G37*
G36*
Y1297665D02*
X595466D01*
Y1297075D01*
X594877D01*
Y1296485D01*
X594287D01*
Y1295306D01*
X593697D01*
Y1294717D01*
X593108D01*
Y1293537D01*
X592518D01*
Y1292948D01*
X591929D01*
Y1292358D01*
X591339D01*
Y1291179D01*
X590750D01*
Y1290590D01*
X590160D01*
Y1289410D01*
X589570D01*
Y1288821D01*
X588981D01*
Y1287642D01*
X588391D01*
Y1287052D01*
X587802D01*
Y1286463D01*
X587212D01*
Y1285873D01*
X586622D01*
Y1284694D01*
X586033D01*
Y1283515D01*
X585443D01*
Y1282925D01*
X584854D01*
Y1282335D01*
X584264D01*
Y1281746D01*
X583675D01*
Y1280567D01*
X583085D01*
Y1279977D01*
X582495D01*
Y1278798D01*
X581906D01*
Y1278208D01*
X581316D01*
Y1277619D01*
X580727D01*
Y1276440D01*
X580137D01*
Y1275850D01*
X579548D01*
Y1274671D01*
X578958D01*
Y1274081D01*
X578368D01*
Y1273492D01*
X577779D01*
Y1272313D01*
X577189D01*
Y1271723D01*
X576600D01*
Y1270544D01*
X576010D01*
Y1269954D01*
X575420D01*
Y1269365D01*
X574831D01*
Y1268186D01*
X574241D01*
Y1267596D01*
X573652D01*
Y1266417D01*
X573062D01*
Y1265827D01*
X572473D01*
Y1265238D01*
X571883D01*
Y1264059D01*
X571293D01*
Y1263469D01*
X570704D01*
Y1262290D01*
X570114D01*
Y1261700D01*
X569525D01*
Y1261111D01*
X568935D01*
Y1259931D01*
X568346D01*
Y1259342D01*
X567756D01*
Y1258163D01*
X567166D01*
Y1257573D01*
X566577D01*
Y1256984D01*
X565987D01*
Y1255804D01*
X565398D01*
Y1255215D01*
X564808D01*
Y1254036D01*
X564218D01*
Y1253446D01*
X563629D01*
Y1252267D01*
X563039D01*
Y1251677D01*
X562450D01*
Y1251088D01*
X561860D01*
Y1249909D01*
X561271D01*
Y1249319D01*
X560681D01*
Y1248140D01*
X560091D01*
Y1247550D01*
X559502D01*
Y1246961D01*
X558912D01*
Y1245782D01*
X558323D01*
Y1245192D01*
X557733D01*
Y1244013D01*
X557144D01*
Y1243423D01*
X556554D01*
Y1242834D01*
X555964D01*
Y1241654D01*
X555375D01*
Y1241065D01*
X554785D01*
Y1239886D01*
X554196D01*
Y1239296D01*
X553606D01*
Y1238117D01*
X552427D01*
Y1236938D01*
X551837D01*
Y1236348D01*
X551248D01*
Y1235169D01*
X550658D01*
Y1234580D01*
X550069D01*
Y1233400D01*
X549479D01*
Y1232811D01*
X548889D01*
Y1232221D01*
X548300D01*
Y1231042D01*
X547710D01*
Y1230452D01*
X547121D01*
Y1229273D01*
X546531D01*
Y1228684D01*
X545942D01*
Y1228094D01*
X545352D01*
Y1227505D01*
X544762D01*
Y1226915D01*
X543583D01*
Y1226325D01*
X541814D01*
Y1225736D01*
X540635D01*
Y1225146D01*
X538277D01*
Y1224557D01*
X537098D01*
Y1223967D01*
X534740D01*
Y1223378D01*
X533560D01*
Y1222788D01*
X531792D01*
Y1222198D01*
X530023D01*
Y1221609D01*
X528844D01*
Y1221019D01*
X526485D01*
Y1220430D01*
X525306D01*
Y1219840D01*
X523538D01*
Y1219250D01*
X521769D01*
Y1218661D01*
X520000D01*
Y1218071D01*
X518231D01*
Y1217482D01*
X517052D01*
Y1216892D01*
X514694D01*
Y1216303D01*
X513515D01*
Y1215713D01*
X511746D01*
Y1215123D01*
X509388D01*
Y1214534D01*
X508798D01*
Y1213944D01*
X506440D01*
Y1213355D01*
X505261D01*
Y1212765D01*
X503492D01*
Y1212176D01*
X501723D01*
Y1211586D01*
X499954D01*
Y1210996D01*
X498186D01*
Y1210407D01*
X497006D01*
Y1209817D01*
X492879D01*
Y1210407D01*
X492290D01*
Y1210996D01*
X491111D01*
Y1211586D01*
X490521D01*
Y1212176D01*
X489932D01*
Y1212765D01*
X488752D01*
Y1213355D01*
X488163D01*
Y1213944D01*
X486984D01*
Y1214534D01*
X486394D01*
Y1215123D01*
X485804D01*
Y1215713D01*
X484625D01*
Y1216303D01*
X484036D01*
Y1216892D01*
X482856D01*
Y1217482D01*
X482267D01*
Y1218071D01*
X481088D01*
Y1218661D01*
X480498D01*
Y1219250D01*
X479909D01*
Y1219840D01*
X478729D01*
Y1220430D01*
X478140D01*
Y1221019D01*
X476961D01*
Y1221609D01*
X476371D01*
Y1222198D01*
X475192D01*
Y1222788D01*
X474602D01*
Y1223378D01*
X474013D01*
Y1223967D01*
X472834D01*
Y1224557D01*
X472244D01*
Y1225146D01*
X471065D01*
Y1225736D01*
X470475D01*
Y1226325D01*
X469886D01*
Y1226915D01*
X469296D01*
Y1227505D01*
X468707D01*
Y1342473D01*
X466348D01*
Y1341883D01*
X465169D01*
Y1341293D01*
X463400D01*
Y1340704D01*
X461632D01*
Y1340114D01*
X459863D01*
Y1339525D01*
X458094D01*
Y1338935D01*
X456915D01*
Y1338345D01*
X454557D01*
Y1337756D01*
X453378D01*
Y1337166D01*
X451609D01*
Y1336577D01*
X449840D01*
Y1335987D01*
X448661D01*
Y1335398D01*
X446303D01*
Y1334808D01*
X445123D01*
Y1334218D01*
X443944D01*
Y1333629D01*
X443355D01*
Y1191540D01*
X442765D01*
Y1190951D01*
X440407D01*
Y1190361D01*
X439228D01*
Y1189771D01*
X436869D01*
Y1189182D01*
X435690D01*
Y1188592D01*
X433921D01*
Y1188003D01*
X432153D01*
Y1187413D01*
X430974D01*
Y1186823D01*
X428615D01*
Y1186234D01*
X427436D01*
Y1185644D01*
X425078D01*
Y1185055D01*
X423899D01*
Y1184465D01*
X422130D01*
Y1183876D01*
X420361D01*
Y1183286D01*
X419182D01*
Y1182697D01*
X416824D01*
Y1182107D01*
X415644D01*
Y1181517D01*
X413876D01*
Y1180928D01*
X412107D01*
Y1180338D01*
X410928D01*
Y1179749D01*
X408570D01*
Y1179159D01*
X407390D01*
Y1178569D01*
X405032D01*
Y1177980D01*
X403853D01*
Y1177390D01*
X402084D01*
Y1176801D01*
X400315D01*
Y1176211D01*
X399136D01*
Y1175621D01*
X396778D01*
Y1175032D01*
X395599D01*
Y1174442D01*
X393830D01*
Y1173853D01*
X392651D01*
Y1334808D01*
X393830D01*
Y1335987D01*
X394420D01*
Y1337166D01*
X395009D01*
Y1337756D01*
X395599D01*
Y1338345D01*
X396188D01*
Y1339525D01*
X396778D01*
Y1340114D01*
X397368D01*
Y1341293D01*
X397957D01*
Y1341883D01*
X398547D01*
Y1342473D01*
X399136D01*
Y1343062D01*
X399726D01*
Y1344241D01*
X400315D01*
Y1344831D01*
X400905D01*
Y1346010D01*
X401495D01*
Y1346600D01*
X402084D01*
Y1347779D01*
X402674D01*
Y1348368D01*
X403263D01*
Y1348958D01*
X403853D01*
Y1350137D01*
X404442D01*
Y1350727D01*
X405032D01*
Y1351906D01*
X405622D01*
Y1352495D01*
X406211D01*
Y1353085D01*
X406801D01*
Y1354264D01*
X407390D01*
Y1354854D01*
X407980D01*
Y1356033D01*
X408570D01*
Y1356622D01*
X409159D01*
Y1357212D01*
X409749D01*
Y1358391D01*
X410338D01*
Y1358981D01*
X410928D01*
Y1360160D01*
X411517D01*
Y1360749D01*
X412107D01*
Y1361929D01*
X412697D01*
Y1362518D01*
X413286D01*
Y1363108D01*
X413876D01*
Y1364287D01*
X414465D01*
Y1364877D01*
X415055D01*
Y1366056D01*
X415644D01*
Y1366645D01*
X416234D01*
Y1367235D01*
X416824D01*
Y1368414D01*
X417413D01*
Y1369004D01*
X418003D01*
Y1370183D01*
X418592D01*
Y1370772D01*
X419182D01*
Y1371362D01*
X419772D01*
Y1372541D01*
X420361D01*
Y1373131D01*
X420951D01*
Y1374310D01*
X421540D01*
Y1374899D01*
X422130D01*
Y1376079D01*
X422719D01*
Y1376668D01*
X423309D01*
Y1377258D01*
X423899D01*
Y1378437D01*
X424488D01*
Y1379026D01*
X425078D01*
Y1380206D01*
X425667D01*
Y1380795D01*
X426257D01*
Y1381385D01*
X426846D01*
Y1382564D01*
X427436D01*
Y1383153D01*
X428026D01*
Y1384333D01*
X428615D01*
Y1384922D01*
X429205D01*
Y1385512D01*
X429794D01*
Y1386691D01*
X430384D01*
Y1387281D01*
X430974D01*
Y1388460D01*
X431563D01*
Y1389049D01*
X432153D01*
Y1390228D01*
X432742D01*
Y1390818D01*
X433332D01*
Y1391408D01*
X433921D01*
Y1392587D01*
X434511D01*
Y1393176D01*
X435101D01*
Y1394355D01*
X435690D01*
Y1394945D01*
X436280D01*
Y1395535D01*
X436869D01*
Y1396714D01*
X437459D01*
Y1397303D01*
X438048D01*
Y1397893D01*
X438638D01*
Y1399072D01*
X439228D01*
Y1399662D01*
X439817D01*
Y1400841D01*
X440407D01*
Y1401430D01*
X440996D01*
Y1402020D01*
X441586D01*
Y1403199D01*
X442175D01*
Y1403789D01*
X442765D01*
Y1404378D01*
X443355D01*
Y1404968D01*
X443944D01*
Y1405557D01*
X444534D01*
Y1406147D01*
X446892D01*
Y1406737D01*
X448071D01*
Y1407326D01*
X449840D01*
Y1407916D01*
X451609D01*
Y1408505D01*
X452788D01*
Y1409095D01*
X455146D01*
Y1409685D01*
X456325D01*
Y1410274D01*
X458684D01*
Y1410864D01*
X459863D01*
Y1411453D01*
X461632D01*
Y1412043D01*
X463990D01*
Y1412632D01*
X464580D01*
Y1413222D01*
X467527D01*
Y1413812D01*
X468707D01*
Y1414401D01*
X469886D01*
Y1414991D01*
X472244D01*
Y1415580D01*
X473423D01*
Y1416170D01*
X475782D01*
Y1416760D01*
X476961D01*
Y1417349D01*
X478729D01*
Y1417939D01*
X480498D01*
Y1418528D01*
X481677D01*
Y1419118D01*
X484036D01*
Y1419707D01*
X485215D01*
Y1420297D01*
X487573D01*
Y1420887D01*
X488752D01*
Y1421476D01*
X490521D01*
Y1422066D01*
X492290D01*
Y1422655D01*
X495238D01*
Y1422066D01*
X496417D01*
Y1421476D01*
X497006D01*
Y1420887D01*
X497596D01*
Y1420297D01*
X498775D01*
Y1419707D01*
X499365D01*
Y1419118D01*
X500544D01*
Y1418528D01*
X501134D01*
Y1417939D01*
X502313D01*
Y1417349D01*
X502902D01*
Y1416760D01*
X503492D01*
Y1416170D01*
X504671D01*
Y1415580D01*
X505261D01*
Y1414991D01*
X506440D01*
Y1414401D01*
X507029D01*
Y1413812D01*
X507619D01*
Y1413222D01*
X508798D01*
Y1412632D01*
X509388D01*
Y1412043D01*
X510567D01*
Y1411453D01*
X511156D01*
Y1410864D01*
X512336D01*
Y1410274D01*
X512925D01*
Y1409685D01*
X513515D01*
Y1409095D01*
X514694D01*
Y1408505D01*
X515873D01*
Y1407916D01*
X516463D01*
Y1407326D01*
X517052D01*
Y1406737D01*
X518231D01*
Y1406147D01*
X519410D01*
Y1404968D01*
X520000D01*
Y1290000D01*
X522358D01*
Y1290590D01*
X524127D01*
Y1291179D01*
X525306D01*
Y1291769D01*
X527075D01*
Y1292358D01*
X528254D01*
Y1292948D01*
X530612D01*
Y1293537D01*
X532381D01*
Y1294127D01*
X533560D01*
Y1294717D01*
X535919D01*
Y1295306D01*
X536508D01*
Y1295896D01*
X539456D01*
Y1296485D01*
X540635D01*
Y1297075D01*
X542404D01*
Y1297665D01*
X544173D01*
Y1298254D01*
X544762D01*
Y1298844D01*
X545352D01*
Y1440932D01*
X545942D01*
Y1441522D01*
X547710D01*
Y1442111D01*
X548889D01*
Y1442701D01*
X550658D01*
Y1443291D01*
X553016D01*
Y1443880D01*
X554196D01*
Y1444470D01*
X556554D01*
Y1445059D01*
X557733D01*
Y1445649D01*
X559502D01*
Y1446238D01*
X561271D01*
Y1446828D01*
X562450D01*
Y1447418D01*
X564808D01*
Y1448007D01*
X565987D01*
Y1448597D01*
X568346D01*
Y1449186D01*
X569525D01*
Y1449776D01*
X571293D01*
Y1450366D01*
X573062D01*
Y1450955D01*
X574241D01*
Y1451545D01*
X576600D01*
Y1452134D01*
X577779D01*
Y1452724D01*
X580137D01*
Y1453313D01*
X581316D01*
Y1453903D01*
X583085D01*
Y1454493D01*
X585443D01*
Y1455082D01*
X586033D01*
Y1455672D01*
X588981D01*
Y1456261D01*
X590160D01*
Y1456851D01*
X591339D01*
Y1457440D01*
X593697D01*
Y1458030D01*
X594287D01*
Y1458620D01*
X596056D01*
Y1297665D01*
D02*
G37*
G36*
Y1155576D02*
X593697D01*
Y1154986D01*
X592518D01*
Y1154397D01*
X590160D01*
Y1153807D01*
X588981D01*
Y1153217D01*
X586622D01*
Y1152628D01*
X585443D01*
Y1152038D01*
X583675D01*
Y1151449D01*
X581906D01*
Y1150859D01*
X580727D01*
Y1150270D01*
X578368D01*
Y1149680D01*
X577189D01*
Y1149090D01*
X574831D01*
Y1148501D01*
X573652D01*
Y1147911D01*
X571883D01*
Y1147322D01*
X569525D01*
Y1146732D01*
X568346D01*
Y1146143D01*
X566577D01*
Y1145553D01*
X564808D01*
Y1144963D01*
X563629D01*
Y1144374D01*
X561271D01*
Y1143784D01*
X560091D01*
Y1143195D01*
X557733D01*
Y1142605D01*
X556554D01*
Y1142015D01*
X554785D01*
Y1141426D01*
X553016D01*
Y1140836D01*
X551837D01*
Y1140247D01*
X549479D01*
Y1139657D01*
X548300D01*
Y1139068D01*
X546531D01*
Y1138478D01*
X545942D01*
Y1139068D01*
X545352D01*
Y1163830D01*
Y1164419D01*
Y1209817D01*
X547121D01*
Y1210407D01*
X548300D01*
Y1210996D01*
X550658D01*
Y1211586D01*
X551837D01*
Y1212176D01*
X553606D01*
Y1212765D01*
X555375D01*
Y1213355D01*
X556554D01*
Y1213944D01*
X558912D01*
Y1214534D01*
X560091D01*
Y1215123D01*
X562450D01*
Y1215713D01*
X563629D01*
Y1216303D01*
X565398D01*
Y1216892D01*
X567166D01*
Y1217482D01*
X568346D01*
Y1218071D01*
X570704D01*
Y1218661D01*
X571883D01*
Y1219250D01*
X573652D01*
Y1219840D01*
X576010D01*
Y1220430D01*
X577189D01*
Y1221019D01*
X579548D01*
Y1221609D01*
X580727D01*
Y1222198D01*
X582495D01*
Y1222788D01*
X584264D01*
Y1223378D01*
X585443D01*
Y1223967D01*
X587802D01*
Y1224557D01*
X588981D01*
Y1225146D01*
X590750D01*
Y1225736D01*
X592518D01*
Y1226325D01*
X594287D01*
Y1226915D01*
X596056D01*
Y1155576D01*
D02*
G37*
D50*
X750000Y1470000D02*
X690019D01*
X750000Y1430013D01*
X690019D01*
X750000Y1400023D02*
Y1380029D01*
X740003Y1370032D01*
X720010D01*
X710013Y1380029D01*
Y1400023D01*
X720010Y1410019D01*
X740003D01*
X750000Y1400023D01*
X710013Y1340042D02*
Y1320048D01*
X720010Y1310052D01*
X750000D01*
Y1340042D01*
X740003Y1350039D01*
X730006Y1340042D01*
Y1310052D01*
X690019Y1290058D02*
X750000D01*
X720010D01*
X710013Y1280061D01*
Y1260068D01*
X720010Y1250071D01*
X750000D01*
Y1170097D02*
X690019D01*
X710013Y1150103D01*
X690019Y1130110D01*
X750000D01*
Y1100120D02*
Y1080126D01*
X740003Y1070129D01*
X720010D01*
X710013Y1080126D01*
Y1100120D01*
X720010Y1110116D01*
X740003D01*
X750000Y1100120D01*
Y1050136D02*
Y1030142D01*
Y1040139D01*
X690019D01*
Y1050136D01*
X750000Y1000152D02*
Y980158D01*
Y990155D01*
X690019D01*
Y1000152D01*
X750000Y920178D02*
Y940171D01*
X740003Y950168D01*
X720010D01*
X710013Y940171D01*
Y920178D01*
X720010Y910181D01*
X730006D01*
Y950168D01*
X710013Y890188D02*
X750000D01*
X730006D01*
X720010Y880191D01*
X710013Y870194D01*
Y860197D01*
X750000Y830207D02*
Y800217D01*
X740003Y790220D01*
X730006Y800217D01*
Y820210D01*
X720010Y830207D01*
X710013Y820210D01*
Y790220D01*
X700016Y760230D02*
X710013D01*
Y770226D01*
Y750233D01*
Y760230D01*
X740003D01*
X750000Y750233D01*
X710013Y720242D02*
X740003D01*
X750000Y710246D01*
Y680255D01*
X710013D01*
X750000Y630272D02*
Y650265D01*
X740003Y660262D01*
X720010D01*
X710013Y650265D01*
Y630272D01*
X720010Y620275D01*
X730006D01*
Y660262D01*
X750000Y600281D02*
X710013D01*
Y570291D01*
X720010Y560294D01*
X750000D01*
X720010Y480320D02*
Y440333D01*
X690019Y360359D02*
X730006D01*
X750000Y340365D01*
X730006Y320372D01*
X690019D01*
X750000Y300378D02*
Y280385D01*
Y290382D01*
X690019D01*
X700016Y300378D01*
X750000Y250394D02*
X740003D01*
Y240398D01*
X750000D01*
Y250394D01*
Y200411D02*
Y180417D01*
Y190414D01*
X690019D01*
X700016Y200411D01*
%TF.MD5,ec7e9bcffad6637b94914b65017f246b*%
M02*
