%TF.GenerationSoftware,Altium Limited,Altium Designer,22.10.1 (41)*%
G04 Layer_Color=2752767*
%FSLAX26Y26*%
%MOIN*%
%TF.SameCoordinates,59CDB8F9-364B-4C5A-A8AF-F7A69B8E0267*%
%TF.FilePolarity,Positive*%
%TF.FileFunction,Drawing*%
%TF.Part,Single*%
G01*
G75*
%TA.AperFunction,NonConductor*%
%ADD50C,0.010000*%
%ADD74C,0.003333*%
%ADD75C,0.015000*%
%ADD76C,0.016000*%
D50*
X4980625Y3520833D02*
G03*
X4980625Y3520833I-20000J0D01*
G01*
X4993958D02*
G03*
X4993958Y3520833I-33333J0D01*
G01*
Y2620833D02*
G03*
X4993958Y2620833I-33333J0D01*
G01*
X4940625Y3350833D02*
X4980625D01*
Y3390833D01*
X4940625D02*
X4980625D01*
X4940625Y3350833D02*
Y3390833D01*
X4927292Y3337500D02*
X4993958D01*
Y3404167D01*
X4927292D02*
X4993958D01*
X4927292Y3337500D02*
Y3404167D01*
X4943958Y3204167D02*
X4960625Y3187500D01*
X4927292Y3204167D02*
X4943958D01*
X4927292D02*
X4943958Y3220833D01*
X4927292Y3237500D02*
X4943958Y3220833D01*
X4927292Y3237500D02*
X4943958D01*
X4960625Y3254167D01*
X4977292Y3237500D01*
X4993958D01*
X4977292Y3220833D02*
X4993958Y3237500D01*
X4977292Y3220833D02*
X4993958Y3204167D01*
X4977292D02*
X4993958D01*
X4960625Y3187500D02*
X4977292Y3204167D01*
X4927292Y3037500D02*
X4993958D01*
Y3104167D01*
X4927292D02*
X4993958D01*
X4927292Y3037500D02*
Y3104167D01*
Y2887500D02*
X4960625Y2904167D01*
X4993958Y2887500D01*
X4977292Y2920833D02*
X4993958Y2887500D01*
X4977292Y2920833D02*
X4993958Y2954167D01*
X4960625Y2937500D02*
X4993958Y2954167D01*
X4927292D02*
X4960625Y2937500D01*
X4927292Y2954167D02*
X4943958Y2920833D01*
X4927292Y2887500D02*
X4943958Y2920833D01*
X4927292Y2770833D02*
X4960625Y2737500D01*
X4993958Y2770833D01*
X4960625Y2804167D02*
X4993958Y2770833D01*
X4927292D02*
X4960625Y2804167D01*
Y2437500D02*
X4993958Y2504167D01*
X4927292D02*
X4993958D01*
X4927292D02*
X4960625Y2437500D01*
X4950625Y2310833D02*
X4960625Y2300833D01*
X4940625Y2310833D02*
X4950625D01*
X4940625D02*
X4950625Y2320833D01*
X4940625Y2330833D02*
X4950625Y2320833D01*
X4940625Y2330833D02*
X4950625D01*
X4960625Y2340833D01*
X4970625Y2330833D01*
X4980625D01*
X4970625Y2320833D02*
X4980625Y2330833D01*
X4970625Y2320833D02*
X4980625Y2310833D01*
X4970625D02*
X4980625D01*
X4960625Y2300833D02*
X4970625Y2310833D01*
X4943958Y2304167D02*
X4960625Y2287500D01*
X4927292Y2304167D02*
X4943958D01*
X4927292D02*
X4943958Y2320833D01*
X4927292Y2337500D02*
X4943958Y2320833D01*
X4927292Y2337500D02*
X4943958D01*
X4960625Y2354167D01*
X4977292Y2337500D01*
X4993958D01*
X4977292Y2320833D02*
X4993958Y2337500D01*
X4977292Y2320833D02*
X4993958Y2304167D01*
X4977292D02*
X4993958D01*
X4960625Y2287500D02*
X4977292Y2304167D01*
X4960625Y2150833D02*
X4980625Y2190833D01*
X4940625D02*
X4980625D01*
X4940625D02*
X4960625Y2150833D01*
Y2137500D02*
X4993958Y2204167D01*
X4927292D02*
X4993958D01*
X4927292D02*
X4960625Y2137500D01*
X4927292Y2004167D02*
X4943958D01*
X4927292D02*
Y2037500D01*
X4943958D01*
Y2054167D01*
X4977292D01*
Y2037500D02*
Y2054167D01*
Y2037500D02*
X4993958D01*
Y2004167D02*
Y2037500D01*
X4977292Y2004167D02*
X4993958D01*
X4977292Y1987500D02*
Y2004167D01*
X4943958Y1987500D02*
X4977292D01*
X4943958D02*
Y2004167D01*
X11277759Y3527487D02*
X11297752Y3487500D01*
X11317746Y3527487D01*
X11337739Y3547481D02*
X11377727D01*
Y3537484D01*
X11337739Y3497497D01*
Y3487500D01*
X11397720D02*
X11417714D01*
X11407717D01*
Y3547481D01*
X11397720Y3537484D01*
X11447704Y3547481D02*
Y3487500D01*
Y3517490D01*
X11457701Y3527487D01*
X11477694D01*
X11487691Y3517490D01*
Y3487500D01*
X11507684Y3537484D02*
X11517681Y3547481D01*
X11537675D01*
X11547672Y3537484D01*
Y3527487D01*
X11537675Y3517490D01*
X11527678D01*
X11537675D01*
X11547672Y3507494D01*
Y3497497D01*
X11537675Y3487500D01*
X11517681D01*
X11507684Y3497497D01*
X11567665Y3537484D02*
X11577662Y3547481D01*
X11597655D01*
X11607652Y3537484D01*
Y3497497D01*
X11597655Y3487500D01*
X11577662D01*
X11567665Y3497497D01*
Y3537484D01*
X11277759Y3377487D02*
X11297752Y3337500D01*
X11317746Y3377487D01*
X11337739Y3337500D02*
X11357733D01*
X11347736D01*
Y3397481D01*
X11337739Y3387484D01*
X11427710Y3337500D02*
X11387723D01*
X11427710Y3377487D01*
Y3387484D01*
X11417714Y3397481D01*
X11397720D01*
X11387723Y3387484D01*
X11447704Y3397481D02*
X11487691D01*
Y3387484D01*
X11447704Y3347497D01*
Y3337500D01*
X11507684Y3397481D02*
Y3337500D01*
Y3367490D01*
X11517681Y3377487D01*
X11537675D01*
X11547672Y3367490D01*
Y3337500D01*
X11567665Y3397481D02*
X11607652D01*
Y3387484D01*
X11567665Y3347497D01*
Y3337500D01*
X11627646D02*
X11647639D01*
X11637642D01*
Y3397481D01*
X11627646Y3387484D01*
X11317746Y3227487D02*
X11287756D01*
X11277759Y3217490D01*
Y3197497D01*
X11287756Y3187500D01*
X11317746D01*
X11337739D02*
X11357733D01*
X11347736D01*
Y3247481D01*
X11337739Y3237484D01*
X11427710Y3247481D02*
X11387723D01*
Y3217490D01*
X11407717Y3227487D01*
X11417714D01*
X11427710Y3217490D01*
Y3197497D01*
X11417714Y3187500D01*
X11397720D01*
X11387723Y3197497D01*
X11447704Y3237484D02*
X11457701Y3247481D01*
X11477694D01*
X11487691Y3237484D01*
Y3197497D01*
X11477694Y3187500D01*
X11457701D01*
X11447704Y3197497D01*
Y3237484D01*
X11507684Y3247481D02*
Y3187500D01*
Y3217490D01*
X11517681Y3227487D01*
X11537675D01*
X11547672Y3217490D01*
Y3187500D01*
X11567665Y3237484D02*
X11577662Y3247481D01*
X11597655D01*
X11607652Y3237484D01*
Y3227487D01*
X11597655Y3217490D01*
X11607652Y3207494D01*
Y3197497D01*
X11597655Y3187500D01*
X11577662D01*
X11567665Y3197497D01*
Y3207494D01*
X11577662Y3217490D01*
X11567665Y3227487D01*
Y3237484D01*
X11577662Y3217490D02*
X11597655D01*
X11627646Y3237484D02*
X11637642Y3247481D01*
X11657636D01*
X11667633Y3237484D01*
Y3197497D01*
X11657636Y3187500D01*
X11637642D01*
X11627646Y3197497D01*
Y3237484D01*
X11297752Y3037500D02*
X11277759Y3057494D01*
Y3077487D01*
X11297752Y3097481D01*
X11327743Y3037500D02*
Y3097481D01*
X11347736Y3077487D01*
X11367730Y3097481D01*
Y3037500D01*
X11387723D02*
X11407717D01*
X11397720D01*
Y3077487D01*
X11387723D01*
X11437707D02*
X11477694Y3037500D01*
X11457701Y3057494D01*
X11477694Y3077487D01*
X11437707Y3037500D01*
X11527678D02*
X11507684D01*
X11497688Y3047497D01*
Y3067490D01*
X11507684Y3077487D01*
X11527678D01*
X11537675Y3067490D01*
Y3057494D01*
X11497688D01*
X11597655Y3097481D02*
Y3037500D01*
X11567665D01*
X11557668Y3047497D01*
Y3067490D01*
X11567665Y3077487D01*
X11597655D01*
X11617649Y3037500D02*
X11637642Y3057494D01*
Y3077487D01*
X11617649Y3097481D01*
X11317746Y2927487D02*
X11287756D01*
X11277759Y2917490D01*
Y2897497D01*
X11287756Y2887500D01*
X11317746D01*
X11377727D02*
X11337739D01*
X11377727Y2927487D01*
Y2937484D01*
X11367730Y2947481D01*
X11347736D01*
X11337739Y2937484D01*
X11437707Y2887500D02*
X11397720D01*
X11437707Y2927487D01*
Y2937484D01*
X11427710Y2947481D01*
X11407717D01*
X11397720Y2937484D01*
X11457701Y2897497D02*
X11467698Y2887500D01*
X11487691D01*
X11497688Y2897497D01*
Y2937484D01*
X11487691Y2947481D01*
X11467698D01*
X11457701Y2937484D01*
Y2927487D01*
X11467698Y2917490D01*
X11497688D01*
X11517681Y2947481D02*
Y2887500D01*
Y2917490D01*
X11527678Y2927487D01*
X11547672D01*
X11557668Y2917490D01*
Y2887500D01*
X11577662D02*
X11597655D01*
X11587659D01*
Y2947481D01*
X11577662Y2937484D01*
X11657636Y2887500D02*
Y2947481D01*
X11627646Y2917490D01*
X11667633D01*
X11687626Y2937484D02*
X11697623Y2947481D01*
X11717617D01*
X11727613Y2937484D01*
Y2897497D01*
X11717617Y2887500D01*
X11697623D01*
X11687626Y2897497D01*
Y2937484D01*
X11317746Y2777487D02*
X11287756D01*
X11277759Y2767490D01*
Y2747497D01*
X11287756Y2737500D01*
X11317746D01*
X11337739Y2787484D02*
X11347736Y2797481D01*
X11367730D01*
X11377727Y2787484D01*
Y2747497D01*
X11367730Y2737500D01*
X11347736D01*
X11337739Y2747497D01*
Y2787484D01*
X11397720Y2797481D02*
Y2737500D01*
Y2767490D01*
X11407717Y2777487D01*
X11427710D01*
X11437707Y2767490D01*
Y2737500D01*
X11497688D02*
X11457701D01*
X11497688Y2777487D01*
Y2787484D01*
X11487691Y2797481D01*
X11467698D01*
X11457701Y2787484D01*
X11517681Y2797481D02*
X11557668D01*
Y2787484D01*
X11517681Y2747497D01*
Y2737500D01*
X11617649Y2797481D02*
X11577662D01*
Y2767490D01*
X11597655Y2777487D01*
X11607652D01*
X11617649Y2767490D01*
Y2747497D01*
X11607652Y2737500D01*
X11587659D01*
X11577662Y2747497D01*
X11297752Y2587500D02*
X11277759Y2607494D01*
Y2627487D01*
X11297752Y2647481D01*
X11327743Y2587500D02*
Y2647481D01*
X11347736Y2627487D01*
X11367730Y2647481D01*
Y2587500D01*
X11387723D02*
X11407717D01*
X11397720D01*
Y2627487D01*
X11387723D01*
X11437707D02*
X11477694Y2587500D01*
X11457701Y2607494D01*
X11477694Y2627487D01*
X11437707Y2587500D01*
X11527678D02*
X11507684D01*
X11497688Y2597497D01*
Y2617490D01*
X11507684Y2627487D01*
X11527678D01*
X11537675Y2617490D01*
Y2607494D01*
X11497688D01*
X11597655Y2647481D02*
Y2587500D01*
X11567665D01*
X11557668Y2597497D01*
Y2617490D01*
X11567665Y2627487D01*
X11597655D01*
X11617649Y2587500D02*
X11637642Y2607494D01*
Y2627487D01*
X11617649Y2647481D01*
X11297752Y2437500D02*
X11277759Y2457494D01*
Y2477487D01*
X11297752Y2497481D01*
X11327743Y2437500D02*
Y2497481D01*
X11347736Y2477487D01*
X11367730Y2497481D01*
Y2437500D01*
X11387723D02*
X11407717D01*
X11397720D01*
Y2477487D01*
X11387723D01*
X11437707D02*
X11477694Y2437500D01*
X11457701Y2457494D01*
X11477694Y2477487D01*
X11437707Y2437500D01*
X11527678D02*
X11507684D01*
X11497688Y2447497D01*
Y2467490D01*
X11507684Y2477487D01*
X11527678D01*
X11537675Y2467490D01*
Y2457494D01*
X11497688D01*
X11597655Y2497481D02*
Y2437500D01*
X11567665D01*
X11557668Y2447497D01*
Y2467490D01*
X11567665Y2477487D01*
X11597655D01*
X11617649Y2437500D02*
X11637642Y2457494D01*
Y2477487D01*
X11617649Y2497481D01*
X11277759Y2327487D02*
X11297752Y2287500D01*
X11317746Y2327487D01*
X11337739Y2287500D02*
X11357733D01*
X11347736D01*
Y2347481D01*
X11337739Y2337484D01*
X11387723Y2297497D02*
X11397720Y2287500D01*
X11417714D01*
X11427710Y2297497D01*
Y2337484D01*
X11417714Y2347481D01*
X11397720D01*
X11387723Y2337484D01*
Y2327487D01*
X11397720Y2317490D01*
X11427710D01*
X11447704Y2337484D02*
X11457701Y2347481D01*
X11477694D01*
X11487691Y2337484D01*
Y2297497D01*
X11477694Y2287500D01*
X11457701D01*
X11447704Y2297497D01*
Y2337484D01*
X11507684Y2347481D02*
Y2287500D01*
Y2317490D01*
X11517681Y2327487D01*
X11537675D01*
X11547672Y2317490D01*
Y2287500D01*
X11567665D02*
X11587659D01*
X11577662D01*
Y2347481D01*
X11567665Y2337484D01*
X11617649Y2297497D02*
X11627646Y2287500D01*
X11647639D01*
X11657636Y2297497D01*
Y2337484D01*
X11647639Y2347481D01*
X11627646D01*
X11617649Y2337484D01*
Y2327487D01*
X11627646Y2317490D01*
X11657636D01*
X11677629Y2337484D02*
X11687626Y2347481D01*
X11707620D01*
X11717617Y2337484D01*
Y2297497D01*
X11707620Y2287500D01*
X11687626D01*
X11677629Y2297497D01*
Y2337484D01*
X11737610Y2287500D02*
Y2327487D01*
X11747607D01*
X11757604Y2317490D01*
Y2287500D01*
Y2317490D01*
X11767600Y2327487D01*
X11777597Y2317490D01*
Y2287500D01*
X11797591D02*
X11817584D01*
X11807587D01*
Y2347481D01*
X11797591Y2337484D01*
X11847575Y2297497D02*
X11857571Y2287500D01*
X11877565D01*
X11887562Y2297497D01*
Y2337484D01*
X11877565Y2347481D01*
X11857571D01*
X11847575Y2337484D01*
Y2327487D01*
X11857571Y2317490D01*
X11887562D01*
X11907555Y2337484D02*
X11917552Y2347481D01*
X11937545D01*
X11947542Y2337484D01*
Y2297497D01*
X11937545Y2287500D01*
X11917552D01*
X11907555Y2297497D01*
Y2337484D01*
X11297752Y2137500D02*
X11277759Y2157494D01*
Y2177487D01*
X11297752Y2197481D01*
X11327743Y2137500D02*
Y2197481D01*
X11347736Y2177487D01*
X11367730Y2197481D01*
Y2137500D01*
X11387723D02*
X11407717D01*
X11397720D01*
Y2177487D01*
X11387723D01*
X11437707D02*
X11477694Y2137500D01*
X11457701Y2157494D01*
X11477694Y2177487D01*
X11437707Y2137500D01*
X11527678D02*
X11507684D01*
X11497688Y2147497D01*
Y2167490D01*
X11507684Y2177487D01*
X11527678D01*
X11537675Y2167490D01*
Y2157494D01*
X11497688D01*
X11597655Y2197481D02*
Y2137500D01*
X11567665D01*
X11557668Y2147497D01*
Y2167490D01*
X11567665Y2177487D01*
X11597655D01*
X11617649Y2137500D02*
X11637642Y2157494D01*
Y2177487D01*
X11617649Y2197481D01*
X11277759Y2027487D02*
X11297752Y1987500D01*
X11317746Y2027487D01*
X11377727Y1987500D02*
X11337739D01*
X11377727Y2027487D01*
Y2037484D01*
X11367730Y2047481D01*
X11347736D01*
X11337739Y2037484D01*
X11437707Y2047481D02*
X11397720D01*
Y2017490D01*
X11417714Y2027487D01*
X11427710D01*
X11437707Y2017490D01*
Y1997497D01*
X11427710Y1987500D01*
X11407717D01*
X11397720Y1997497D01*
X11457701Y2047481D02*
Y1987500D01*
Y2017490D01*
X11467698Y2027487D01*
X11487691D01*
X11497688Y2017490D01*
Y1987500D01*
X11557668D02*
X11517681D01*
X11557668Y2027487D01*
Y2037484D01*
X11547672Y2047481D01*
X11527678D01*
X11517681Y2037484D01*
X11617649Y2047481D02*
X11577662D01*
Y2017490D01*
X11597655Y2027487D01*
X11607652D01*
X11617649Y2017490D01*
Y1997497D01*
X11607652Y1987500D01*
X11587659D01*
X11577662Y1997497D01*
X11637642Y1987500D02*
Y2027487D01*
X11647639D01*
X11657636Y2017490D01*
Y1987500D01*
Y2017490D01*
X11667633Y2027487D01*
X11677630Y2017490D01*
Y1987500D01*
X11697623Y2037484D02*
X11707620Y2047481D01*
X11727613D01*
X11737610Y2037484D01*
Y1997497D01*
X11727613Y1987500D01*
X11707620D01*
X11697623Y1997497D01*
Y2037484D01*
X10531961Y3487500D02*
Y3547481D01*
X10561951D01*
X10571948Y3537484D01*
Y3517490D01*
X10561951Y3507494D01*
X10531961D01*
X10551954D02*
X10571948Y3487500D01*
X10601938D02*
X10621932D01*
X10631928Y3497497D01*
Y3517490D01*
X10621932Y3527487D01*
X10601938D01*
X10591941Y3517490D01*
Y3497497D01*
X10601938Y3487500D01*
X10651922Y3527487D02*
Y3497497D01*
X10661919Y3487500D01*
X10691909D01*
Y3527487D01*
X10711903Y3487500D02*
Y3527487D01*
X10741893D01*
X10751890Y3517490D01*
Y3487500D01*
X10811870Y3547481D02*
Y3487500D01*
X10781880D01*
X10771883Y3497497D01*
Y3517490D01*
X10781880Y3527487D01*
X10811870D01*
X10861854Y3487500D02*
X10841861D01*
X10831864Y3497497D01*
Y3517490D01*
X10841861Y3527487D01*
X10861854D01*
X10871851Y3517490D01*
Y3507494D01*
X10831864D01*
X10931832Y3547481D02*
Y3487500D01*
X10901841D01*
X10891844Y3497497D01*
Y3517490D01*
X10901841Y3527487D01*
X10931832D01*
X10531961Y3337500D02*
Y3397481D01*
X10561951D01*
X10571948Y3387484D01*
Y3367490D01*
X10561951Y3357494D01*
X10531961D01*
X10551954D02*
X10571948Y3337500D01*
X10601938D02*
X10621932D01*
X10631928Y3347497D01*
Y3367490D01*
X10621932Y3377487D01*
X10601938D01*
X10591941Y3367490D01*
Y3347497D01*
X10601938Y3337500D01*
X10651922Y3377487D02*
Y3347497D01*
X10661919Y3337500D01*
X10691909D01*
Y3377487D01*
X10711903Y3337500D02*
Y3377487D01*
X10741893D01*
X10751890Y3367490D01*
Y3337500D01*
X10811870Y3397481D02*
Y3337500D01*
X10781880D01*
X10771883Y3347497D01*
Y3367490D01*
X10781880Y3377487D01*
X10811870D01*
X10861854Y3337500D02*
X10841861D01*
X10831864Y3347497D01*
Y3367490D01*
X10841861Y3377487D01*
X10861854D01*
X10871851Y3367490D01*
Y3357494D01*
X10831864D01*
X10931832Y3397481D02*
Y3337500D01*
X10901841D01*
X10891844Y3347497D01*
Y3367490D01*
X10901841Y3377487D01*
X10931832D01*
X10531961Y3187500D02*
Y3247481D01*
X10561951D01*
X10571948Y3237484D01*
Y3217490D01*
X10561951Y3207494D01*
X10531961D01*
X10551954D02*
X10571948Y3187500D01*
X10601938D02*
X10621932D01*
X10631928Y3197497D01*
Y3217490D01*
X10621932Y3227487D01*
X10601938D01*
X10591941Y3217490D01*
Y3197497D01*
X10601938Y3187500D01*
X10651922Y3227487D02*
Y3197497D01*
X10661919Y3187500D01*
X10691909D01*
Y3227487D01*
X10711903Y3187500D02*
Y3227487D01*
X10741893D01*
X10751890Y3217490D01*
Y3187500D01*
X10811870Y3247481D02*
Y3187500D01*
X10781880D01*
X10771883Y3197497D01*
Y3217490D01*
X10781880Y3227487D01*
X10811870D01*
X10861854Y3187500D02*
X10841861D01*
X10831864Y3197497D01*
Y3217490D01*
X10841861Y3227487D01*
X10861854D01*
X10871851Y3217490D01*
Y3207494D01*
X10831864D01*
X10931832Y3247481D02*
Y3187500D01*
X10901841D01*
X10891844Y3197497D01*
Y3217490D01*
X10901841Y3227487D01*
X10931832D01*
X10551954Y3037500D02*
X10531961Y3057494D01*
Y3077487D01*
X10551954Y3097481D01*
X10581945Y3037500D02*
Y3097481D01*
X10601938Y3077487D01*
X10621932Y3097481D01*
Y3037500D01*
X10641925D02*
X10661919D01*
X10651922D01*
Y3077487D01*
X10641925D01*
X10691909D02*
X10731896Y3037500D01*
X10711903Y3057494D01*
X10731896Y3077487D01*
X10691909Y3037500D01*
X10781880D02*
X10761886D01*
X10751890Y3047497D01*
Y3067490D01*
X10761886Y3077487D01*
X10781880D01*
X10791877Y3067490D01*
Y3057494D01*
X10751890D01*
X10851857Y3097481D02*
Y3037500D01*
X10821867D01*
X10811870Y3047497D01*
Y3067490D01*
X10821867Y3077487D01*
X10851857D01*
X10871851Y3037500D02*
X10891844Y3057494D01*
Y3077487D01*
X10871851Y3097481D01*
X10531961Y2887500D02*
Y2947481D01*
X10561951D01*
X10571948Y2937484D01*
Y2917490D01*
X10561951Y2907494D01*
X10531961D01*
X10551954D02*
X10571948Y2887500D01*
X10601938D02*
X10621932D01*
X10631928Y2897497D01*
Y2917490D01*
X10621932Y2927487D01*
X10601938D01*
X10591941Y2917490D01*
Y2897497D01*
X10601938Y2887500D01*
X10651922Y2927487D02*
Y2897497D01*
X10661919Y2887500D01*
X10691909D01*
Y2927487D01*
X10711903Y2887500D02*
Y2927487D01*
X10741893D01*
X10751890Y2917490D01*
Y2887500D01*
X10811870Y2947481D02*
Y2887500D01*
X10781880D01*
X10771883Y2897497D01*
Y2917490D01*
X10781880Y2927487D01*
X10811870D01*
X10861854Y2887500D02*
X10841861D01*
X10831864Y2897497D01*
Y2917490D01*
X10841861Y2927487D01*
X10861854D01*
X10871851Y2917490D01*
Y2907494D01*
X10831864D01*
X10931832Y2947481D02*
Y2887500D01*
X10901841D01*
X10891844Y2897497D01*
Y2917490D01*
X10901841Y2927487D01*
X10931832D01*
X10531961Y2737500D02*
Y2797481D01*
X10561951D01*
X10571948Y2787484D01*
Y2767490D01*
X10561951Y2757494D01*
X10531961D01*
X10551954D02*
X10571948Y2737500D01*
X10601938D02*
X10621932D01*
X10631928Y2747497D01*
Y2767490D01*
X10621932Y2777487D01*
X10601938D01*
X10591941Y2767490D01*
Y2747497D01*
X10601938Y2737500D01*
X10651922Y2777487D02*
Y2747497D01*
X10661919Y2737500D01*
X10691909D01*
Y2777487D01*
X10711903Y2737500D02*
Y2777487D01*
X10741893D01*
X10751890Y2767490D01*
Y2737500D01*
X10811870Y2797481D02*
Y2737500D01*
X10781880D01*
X10771883Y2747497D01*
Y2767490D01*
X10781880Y2777487D01*
X10811870D01*
X10861854Y2737500D02*
X10841861D01*
X10831864Y2747497D01*
Y2767490D01*
X10841861Y2777487D01*
X10861854D01*
X10871851Y2767490D01*
Y2757494D01*
X10831864D01*
X10931832Y2797481D02*
Y2737500D01*
X10901841D01*
X10891844Y2747497D01*
Y2767490D01*
X10901841Y2777487D01*
X10931832D01*
X10551954Y2587500D02*
X10531961Y2607494D01*
Y2627487D01*
X10551954Y2647481D01*
X10581945Y2587500D02*
Y2647481D01*
X10601938Y2627487D01*
X10621932Y2647481D01*
Y2587500D01*
X10641925D02*
X10661919D01*
X10651922D01*
Y2627487D01*
X10641925D01*
X10691909D02*
X10731896Y2587500D01*
X10711903Y2607494D01*
X10731896Y2627487D01*
X10691909Y2587500D01*
X10781880D02*
X10761886D01*
X10751890Y2597497D01*
Y2617490D01*
X10761886Y2627487D01*
X10781880D01*
X10791877Y2617490D01*
Y2607494D01*
X10751890D01*
X10851857Y2647481D02*
Y2587500D01*
X10821867D01*
X10811870Y2597497D01*
Y2617490D01*
X10821867Y2627487D01*
X10851857D01*
X10871851Y2587500D02*
X10891844Y2607494D01*
Y2627487D01*
X10871851Y2647481D01*
X10551954Y2437500D02*
X10531961Y2457494D01*
Y2477487D01*
X10551954Y2497481D01*
X10581945Y2437500D02*
Y2497481D01*
X10601938Y2477487D01*
X10621932Y2497481D01*
Y2437500D01*
X10641925D02*
X10661919D01*
X10651922D01*
Y2477487D01*
X10641925D01*
X10691909D02*
X10731896Y2437500D01*
X10711903Y2457494D01*
X10731896Y2477487D01*
X10691909Y2437500D01*
X10781880D02*
X10761886D01*
X10751890Y2447497D01*
Y2467490D01*
X10761886Y2477487D01*
X10781880D01*
X10791877Y2467490D01*
Y2457494D01*
X10751890D01*
X10851857Y2497481D02*
Y2437500D01*
X10821867D01*
X10811870Y2447497D01*
Y2467490D01*
X10821867Y2477487D01*
X10851857D01*
X10871851Y2437500D02*
X10891844Y2457494D01*
Y2477487D01*
X10871851Y2497481D01*
X10531961Y2287500D02*
Y2347481D01*
X10561951D01*
X10571948Y2337484D01*
Y2317490D01*
X10561951Y2307494D01*
X10531961D01*
X10551954D02*
X10571948Y2287500D01*
X10601938D02*
X10621932D01*
X10631928Y2297497D01*
Y2317490D01*
X10621932Y2327487D01*
X10601938D01*
X10591941Y2317490D01*
Y2297497D01*
X10601938Y2287500D01*
X10651922Y2327487D02*
Y2297497D01*
X10661919Y2287500D01*
X10691909D01*
Y2327487D01*
X10711903Y2287500D02*
Y2327487D01*
X10741893D01*
X10751890Y2317490D01*
Y2287500D01*
X10811870Y2347481D02*
Y2287500D01*
X10781880D01*
X10771883Y2297497D01*
Y2317490D01*
X10781880Y2327487D01*
X10811870D01*
X10861854Y2287500D02*
X10841861D01*
X10831864Y2297497D01*
Y2317490D01*
X10841861Y2327487D01*
X10861854D01*
X10871851Y2317490D01*
Y2307494D01*
X10831864D01*
X10931832Y2347481D02*
Y2287500D01*
X10901841D01*
X10891844Y2297497D01*
Y2317490D01*
X10901841Y2327487D01*
X10931832D01*
X10551954Y2137500D02*
X10531961Y2157494D01*
Y2177487D01*
X10551954Y2197481D01*
X10581945Y2137500D02*
Y2197481D01*
X10601938Y2177487D01*
X10621932Y2197481D01*
Y2137500D01*
X10641925D02*
X10661919D01*
X10651922D01*
Y2177487D01*
X10641925D01*
X10691909D02*
X10731896Y2137500D01*
X10711903Y2157494D01*
X10731896Y2177487D01*
X10691909Y2137500D01*
X10781880D02*
X10761886D01*
X10751890Y2147497D01*
Y2167490D01*
X10761886Y2177487D01*
X10781880D01*
X10791877Y2167490D01*
Y2157494D01*
X10751890D01*
X10851857Y2197481D02*
Y2137500D01*
X10821867D01*
X10811870Y2147497D01*
Y2167490D01*
X10821867Y2177487D01*
X10851857D01*
X10871851Y2137500D02*
X10891844Y2157494D01*
Y2177487D01*
X10871851Y2197481D01*
X10531961Y1987500D02*
Y2047481D01*
X10561951D01*
X10571948Y2037484D01*
Y2017490D01*
X10561951Y2007494D01*
X10531961D01*
X10551954D02*
X10571948Y1987500D01*
X10601938D02*
X10621932D01*
X10631928Y1997497D01*
Y2017490D01*
X10621932Y2027487D01*
X10601938D01*
X10591941Y2017490D01*
Y1997497D01*
X10601938Y1987500D01*
X10651922Y2027487D02*
Y1997497D01*
X10661919Y1987500D01*
X10691909D01*
Y2027487D01*
X10711903Y1987500D02*
Y2027487D01*
X10741893D01*
X10751890Y2017490D01*
Y1987500D01*
X10811870Y2047481D02*
Y1987500D01*
X10781880D01*
X10771883Y1997497D01*
Y2017490D01*
X10781880Y2027487D01*
X10811870D01*
X10861854Y1987500D02*
X10841861D01*
X10831864Y1997497D01*
Y2017490D01*
X10841861Y2027487D01*
X10861854D01*
X10871851Y2017490D01*
Y2007494D01*
X10831864D01*
X10931832Y2047481D02*
Y1987500D01*
X10901841D01*
X10891844Y1997497D01*
Y2017490D01*
X10901841Y2027487D01*
X10931832D01*
X9942112Y3547481D02*
Y3507494D01*
X9962106Y3487500D01*
X9982099Y3507494D01*
Y3547481D01*
X10002093Y3487500D02*
X10022086D01*
X10012090D01*
Y3527487D01*
X10002093D01*
X10062073D02*
X10082067D01*
X10092064Y3517490D01*
Y3487500D01*
X10062073D01*
X10052077Y3497497D01*
X10062073Y3507494D01*
X10092064D01*
X9942112Y3397481D02*
Y3357494D01*
X9962106Y3337500D01*
X9982099Y3357494D01*
Y3397481D01*
X10002093Y3337500D02*
X10022086D01*
X10012090D01*
Y3377487D01*
X10002093D01*
X10062073D02*
X10082067D01*
X10092064Y3367490D01*
Y3337500D01*
X10062073D01*
X10052077Y3347497D01*
X10062073Y3357494D01*
X10092064D01*
X9942112Y3187500D02*
Y3247481D01*
X9972103D01*
X9982099Y3237484D01*
Y3217490D01*
X9972103Y3207494D01*
X9942112D01*
X10012090Y3227487D02*
X10032083D01*
X10042080Y3217490D01*
Y3187500D01*
X10012090D01*
X10002093Y3197497D01*
X10012090Y3207494D01*
X10042080D01*
X10102060Y3247481D02*
Y3187500D01*
X10072070D01*
X10062073Y3197497D01*
Y3217490D01*
X10072070Y3227487D01*
X10102060D01*
X9942112Y3037500D02*
Y3097481D01*
X9972103D01*
X9982099Y3087484D01*
Y3067490D01*
X9972103Y3057494D01*
X9942112D01*
X10012090Y3077487D02*
X10032083D01*
X10042080Y3067490D01*
Y3037500D01*
X10012090D01*
X10002093Y3047497D01*
X10012090Y3057494D01*
X10042080D01*
X10102060Y3097481D02*
Y3037500D01*
X10072070D01*
X10062073Y3047497D01*
Y3067490D01*
X10072070Y3077487D01*
X10102060D01*
X9942112Y2887500D02*
Y2947481D01*
X9972103D01*
X9982099Y2937484D01*
Y2917490D01*
X9972103Y2907494D01*
X9942112D01*
X10012090Y2927487D02*
X10032083D01*
X10042080Y2917490D01*
Y2887500D01*
X10012090D01*
X10002093Y2897497D01*
X10012090Y2907494D01*
X10042080D01*
X10102060Y2947481D02*
Y2887500D01*
X10072070D01*
X10062073Y2897497D01*
Y2917490D01*
X10072070Y2927487D01*
X10102060D01*
X9942112Y2737500D02*
Y2797481D01*
X9972103D01*
X9982099Y2787484D01*
Y2767490D01*
X9972103Y2757494D01*
X9942112D01*
X10012090Y2777487D02*
X10032083D01*
X10042080Y2767490D01*
Y2737500D01*
X10012090D01*
X10002093Y2747497D01*
X10012090Y2757494D01*
X10042080D01*
X10102060Y2797481D02*
Y2737500D01*
X10072070D01*
X10062073Y2747497D01*
Y2767490D01*
X10072070Y2777487D01*
X10102060D01*
X9942112Y2587500D02*
Y2647481D01*
X9972103D01*
X9982099Y2637484D01*
Y2617490D01*
X9972103Y2607494D01*
X9942112D01*
X10012090Y2627487D02*
X10032083D01*
X10042080Y2617490D01*
Y2587500D01*
X10012090D01*
X10002093Y2597497D01*
X10012090Y2607494D01*
X10042080D01*
X10102060Y2647481D02*
Y2587500D01*
X10072070D01*
X10062073Y2597497D01*
Y2617490D01*
X10072070Y2627487D01*
X10102060D01*
X9942112Y2437500D02*
Y2497481D01*
X9972103D01*
X9982099Y2487484D01*
Y2467490D01*
X9972103Y2457494D01*
X9942112D01*
X10012090Y2477487D02*
X10032083D01*
X10042080Y2467490D01*
Y2437500D01*
X10012090D01*
X10002093Y2447497D01*
X10012090Y2457494D01*
X10042080D01*
X10102060Y2497481D02*
Y2437500D01*
X10072070D01*
X10062073Y2447497D01*
Y2467490D01*
X10072070Y2477487D01*
X10102060D01*
X9942112Y2347481D02*
Y2307494D01*
X9962106Y2287500D01*
X9982099Y2307494D01*
Y2347481D01*
X10002093Y2287500D02*
X10022086D01*
X10012090D01*
Y2327487D01*
X10002093D01*
X10062073D02*
X10082067D01*
X10092064Y2317490D01*
Y2287500D01*
X10062073D01*
X10052077Y2297497D01*
X10062073Y2307494D01*
X10092064D01*
X9942112Y2137500D02*
Y2197481D01*
X9972103D01*
X9982099Y2187484D01*
Y2167490D01*
X9972103Y2157494D01*
X9942112D01*
X10012090Y2177487D02*
X10032083D01*
X10042080Y2167490D01*
Y2137500D01*
X10012090D01*
X10002093Y2147497D01*
X10012090Y2157494D01*
X10042080D01*
X10102060Y2197481D02*
Y2137500D01*
X10072070D01*
X10062073Y2147497D01*
Y2167490D01*
X10072070Y2177487D01*
X10102060D01*
X9942112Y2047481D02*
Y2007494D01*
X9962106Y1987500D01*
X9982099Y2007494D01*
Y2047481D01*
X10002093Y1987500D02*
X10022086D01*
X10012090D01*
Y2027487D01*
X10002093D01*
X10062073D02*
X10082067D01*
X10092064Y2017490D01*
Y1987500D01*
X10062073D01*
X10052077Y1997497D01*
X10062073Y2007494D01*
X10092064D01*
X8442562Y3547481D02*
X8482549D01*
X8462555D01*
Y3487500D01*
X8512539D02*
X8532533D01*
X8542529Y3497497D01*
Y3517490D01*
X8532533Y3527487D01*
X8512539D01*
X8502542Y3517490D01*
Y3497497D01*
X8512539Y3487500D01*
X8562523Y3467506D02*
Y3527487D01*
X8592513D01*
X8602510Y3517490D01*
Y3497497D01*
X8592513Y3487500D01*
X8562523D01*
X8682484Y3547481D02*
Y3487500D01*
X8722471D01*
X8752461Y3527487D02*
X8772455D01*
X8782452Y3517490D01*
Y3487500D01*
X8752461D01*
X8742465Y3497497D01*
X8752461Y3507494D01*
X8782452D01*
X8802445Y3527487D02*
Y3497497D01*
X8812442Y3487500D01*
X8842432D01*
Y3477503D01*
X8832436Y3467506D01*
X8822439D01*
X8842432Y3487500D02*
Y3527487D01*
X8892416Y3487500D02*
X8872423D01*
X8862426Y3497497D01*
Y3517490D01*
X8872423Y3527487D01*
X8892416D01*
X8902413Y3517490D01*
Y3507494D01*
X8862426D01*
X8922406Y3527487D02*
Y3487500D01*
Y3507494D01*
X8932403Y3517490D01*
X8942400Y3527487D01*
X8952397D01*
X9042368Y3517490D02*
X9082355D01*
X9162329Y3547481D02*
Y3487500D01*
X9192319D01*
X9202316Y3497497D01*
Y3507494D01*
X9192319Y3517490D01*
X9162329D01*
X9192319D01*
X9202316Y3527487D01*
Y3537484D01*
X9192319Y3547481D01*
X9162329D01*
X9232306Y3487500D02*
X9252300D01*
X9262297Y3497497D01*
Y3517490D01*
X9252300Y3527487D01*
X9232306D01*
X9222309Y3517490D01*
Y3497497D01*
X9232306Y3487500D01*
X9292287Y3537484D02*
Y3527487D01*
X9282290D01*
X9302284D01*
X9292287D01*
Y3497497D01*
X9302284Y3487500D01*
X9342271Y3537484D02*
Y3527487D01*
X9332274D01*
X9352267D01*
X9342271D01*
Y3497497D01*
X9352267Y3487500D01*
X9392254D02*
X9412248D01*
X9422245Y3497497D01*
Y3517490D01*
X9412248Y3527487D01*
X9392254D01*
X9382258Y3517490D01*
Y3497497D01*
X9392254Y3487500D01*
X9442238D02*
Y3527487D01*
X9452235D01*
X9462232Y3517490D01*
Y3487500D01*
Y3517490D01*
X9472229Y3527487D01*
X9482225Y3517490D01*
Y3487500D01*
X9562200Y3547481D02*
Y3487500D01*
X9602187D01*
X9632177Y3527487D02*
X9652170D01*
X9662167Y3517490D01*
Y3487500D01*
X9632177D01*
X9622180Y3497497D01*
X9632177Y3507494D01*
X9662167D01*
X9682161Y3527487D02*
Y3497497D01*
X9692157Y3487500D01*
X9722148D01*
Y3477503D01*
X9712151Y3467506D01*
X9702154D01*
X9722148Y3487500D02*
Y3527487D01*
X9772132Y3487500D02*
X9752138D01*
X9742141Y3497497D01*
Y3517490D01*
X9752138Y3527487D01*
X9772132D01*
X9782128Y3517490D01*
Y3507494D01*
X9742141D01*
X9802122Y3527487D02*
Y3487500D01*
Y3507494D01*
X9812119Y3517490D01*
X9822115Y3527487D01*
X9832112D01*
X8442562Y3397481D02*
X8482549D01*
X8462555D01*
Y3337500D01*
X8512539D02*
X8532533D01*
X8542529Y3347497D01*
Y3367490D01*
X8532533Y3377487D01*
X8512539D01*
X8502542Y3367490D01*
Y3347497D01*
X8512539Y3337500D01*
X8562523Y3317506D02*
Y3377487D01*
X8592513D01*
X8602510Y3367490D01*
Y3347497D01*
X8592513Y3337500D01*
X8562523D01*
X8682484Y3397481D02*
Y3337500D01*
X8722471D01*
X8752461Y3377487D02*
X8772455D01*
X8782452Y3367490D01*
Y3337500D01*
X8752461D01*
X8742465Y3347497D01*
X8752461Y3357494D01*
X8782452D01*
X8802445Y3377487D02*
Y3347497D01*
X8812442Y3337500D01*
X8842432D01*
Y3327503D01*
X8832436Y3317506D01*
X8822439D01*
X8842432Y3337500D02*
Y3377487D01*
X8892416Y3337500D02*
X8872423D01*
X8862426Y3347497D01*
Y3367490D01*
X8872423Y3377487D01*
X8892416D01*
X8902413Y3367490D01*
Y3357494D01*
X8862426D01*
X8922406Y3377487D02*
Y3337500D01*
Y3357494D01*
X8932403Y3367490D01*
X8942400Y3377487D01*
X8952397D01*
X9042368Y3367490D02*
X9082355D01*
X9162329Y3397481D02*
Y3337500D01*
X9192319D01*
X9202316Y3347497D01*
Y3357494D01*
X9192319Y3367490D01*
X9162329D01*
X9192319D01*
X9202316Y3377487D01*
Y3387484D01*
X9192319Y3397481D01*
X9162329D01*
X9232306Y3337500D02*
X9252300D01*
X9262297Y3347497D01*
Y3367490D01*
X9252300Y3377487D01*
X9232306D01*
X9222309Y3367490D01*
Y3347497D01*
X9232306Y3337500D01*
X9292287Y3387484D02*
Y3377487D01*
X9282290D01*
X9302284D01*
X9292287D01*
Y3347497D01*
X9302284Y3337500D01*
X9342271Y3387484D02*
Y3377487D01*
X9332274D01*
X9352267D01*
X9342271D01*
Y3347497D01*
X9352267Y3337500D01*
X9392254D02*
X9412248D01*
X9422245Y3347497D01*
Y3367490D01*
X9412248Y3377487D01*
X9392254D01*
X9382258Y3367490D01*
Y3347497D01*
X9392254Y3337500D01*
X9442238D02*
Y3377487D01*
X9452235D01*
X9462232Y3367490D01*
Y3337500D01*
Y3367490D01*
X9472229Y3377487D01*
X9482225Y3367490D01*
Y3337500D01*
X9562200Y3397481D02*
Y3337500D01*
X9602187D01*
X9632177Y3377487D02*
X9652170D01*
X9662167Y3367490D01*
Y3337500D01*
X9632177D01*
X9622180Y3347497D01*
X9632177Y3357494D01*
X9662167D01*
X9682161Y3377487D02*
Y3347497D01*
X9692157Y3337500D01*
X9722148D01*
Y3327503D01*
X9712151Y3317506D01*
X9702154D01*
X9722148Y3337500D02*
Y3377487D01*
X9772132Y3337500D02*
X9752138D01*
X9742141Y3347497D01*
Y3367490D01*
X9752138Y3377487D01*
X9772132D01*
X9782128Y3367490D01*
Y3357494D01*
X9742141D01*
X9802122Y3377487D02*
Y3337500D01*
Y3357494D01*
X9812119Y3367490D01*
X9822115Y3377487D01*
X9832112D01*
X8442562Y3247481D02*
X8482549D01*
X8462555D01*
Y3187500D01*
X8512539D02*
X8532533D01*
X8542529Y3197497D01*
Y3217490D01*
X8532533Y3227487D01*
X8512539D01*
X8502542Y3217490D01*
Y3197497D01*
X8512539Y3187500D01*
X8562523Y3167506D02*
Y3227487D01*
X8592513D01*
X8602510Y3217490D01*
Y3197497D01*
X8592513Y3187500D01*
X8562523D01*
X8682484Y3247481D02*
Y3187500D01*
X8722471D01*
X8752461Y3227487D02*
X8772455D01*
X8782452Y3217490D01*
Y3187500D01*
X8752461D01*
X8742465Y3197497D01*
X8752461Y3207494D01*
X8782452D01*
X8802445Y3227487D02*
Y3197497D01*
X8812442Y3187500D01*
X8842432D01*
Y3177503D01*
X8832436Y3167506D01*
X8822439D01*
X8842432Y3187500D02*
Y3227487D01*
X8892416Y3187500D02*
X8872423D01*
X8862426Y3197497D01*
Y3217490D01*
X8872423Y3227487D01*
X8892416D01*
X8902413Y3217490D01*
Y3207494D01*
X8862426D01*
X8922406Y3227487D02*
Y3187500D01*
Y3207494D01*
X8932403Y3217490D01*
X8942400Y3227487D01*
X8952397D01*
X9042368Y3217490D02*
X9082355D01*
X9162329Y3247481D02*
Y3187500D01*
X9192319D01*
X9202316Y3197497D01*
Y3207494D01*
X9192319Y3217490D01*
X9162329D01*
X9192319D01*
X9202316Y3227487D01*
Y3237484D01*
X9192319Y3247481D01*
X9162329D01*
X9232306Y3187500D02*
X9252300D01*
X9262297Y3197497D01*
Y3217490D01*
X9252300Y3227487D01*
X9232306D01*
X9222309Y3217490D01*
Y3197497D01*
X9232306Y3187500D01*
X9292287Y3237484D02*
Y3227487D01*
X9282290D01*
X9302284D01*
X9292287D01*
Y3197497D01*
X9302284Y3187500D01*
X9342271Y3237484D02*
Y3227487D01*
X9332274D01*
X9352267D01*
X9342271D01*
Y3197497D01*
X9352267Y3187500D01*
X9392254D02*
X9412248D01*
X9422245Y3197497D01*
Y3217490D01*
X9412248Y3227487D01*
X9392254D01*
X9382258Y3217490D01*
Y3197497D01*
X9392254Y3187500D01*
X9442238D02*
Y3227487D01*
X9452235D01*
X9462232Y3217490D01*
Y3187500D01*
Y3217490D01*
X9472229Y3227487D01*
X9482225Y3217490D01*
Y3187500D01*
X9562200Y3247481D02*
Y3187500D01*
X9602187D01*
X9632177Y3227487D02*
X9652170D01*
X9662167Y3217490D01*
Y3187500D01*
X9632177D01*
X9622180Y3197497D01*
X9632177Y3207494D01*
X9662167D01*
X9682161Y3227487D02*
Y3197497D01*
X9692157Y3187500D01*
X9722148D01*
Y3177503D01*
X9712151Y3167506D01*
X9702154D01*
X9722148Y3187500D02*
Y3227487D01*
X9772132Y3187500D02*
X9752138D01*
X9742141Y3197497D01*
Y3217490D01*
X9752138Y3227487D01*
X9772132D01*
X9782128Y3217490D01*
Y3207494D01*
X9742141D01*
X9802122Y3227487D02*
Y3187500D01*
Y3207494D01*
X9812119Y3217490D01*
X9822115Y3227487D01*
X9832112D01*
X8442562Y3097481D02*
X8482549D01*
X8462555D01*
Y3037500D01*
X8512539D02*
X8532533D01*
X8542529Y3047497D01*
Y3067490D01*
X8532533Y3077487D01*
X8512539D01*
X8502542Y3067490D01*
Y3047497D01*
X8512539Y3037500D01*
X8562523Y3017506D02*
Y3077487D01*
X8592513D01*
X8602510Y3067490D01*
Y3047497D01*
X8592513Y3037500D01*
X8562523D01*
X8682484Y3097481D02*
Y3037500D01*
X8722471D01*
X8752461Y3077487D02*
X8772455D01*
X8782452Y3067490D01*
Y3037500D01*
X8752461D01*
X8742465Y3047497D01*
X8752461Y3057494D01*
X8782452D01*
X8802445Y3077487D02*
Y3047497D01*
X8812442Y3037500D01*
X8842432D01*
Y3027503D01*
X8832436Y3017506D01*
X8822439D01*
X8842432Y3037500D02*
Y3077487D01*
X8892416Y3037500D02*
X8872423D01*
X8862426Y3047497D01*
Y3067490D01*
X8872423Y3077487D01*
X8892416D01*
X8902413Y3067490D01*
Y3057494D01*
X8862426D01*
X8922406Y3077487D02*
Y3037500D01*
Y3057494D01*
X8932403Y3067490D01*
X8942400Y3077487D01*
X8952397D01*
X9042368Y3067490D02*
X9082355D01*
X9162329Y3097481D02*
Y3037500D01*
X9192319D01*
X9202316Y3047497D01*
Y3057494D01*
X9192319Y3067490D01*
X9162329D01*
X9192319D01*
X9202316Y3077487D01*
Y3087484D01*
X9192319Y3097481D01*
X9162329D01*
X9232306Y3037500D02*
X9252300D01*
X9262297Y3047497D01*
Y3067490D01*
X9252300Y3077487D01*
X9232306D01*
X9222309Y3067490D01*
Y3047497D01*
X9232306Y3037500D01*
X9292287Y3087484D02*
Y3077487D01*
X9282290D01*
X9302284D01*
X9292287D01*
Y3047497D01*
X9302284Y3037500D01*
X9342271Y3087484D02*
Y3077487D01*
X9332274D01*
X9352267D01*
X9342271D01*
Y3047497D01*
X9352267Y3037500D01*
X9392254D02*
X9412248D01*
X9422245Y3047497D01*
Y3067490D01*
X9412248Y3077487D01*
X9392254D01*
X9382258Y3067490D01*
Y3047497D01*
X9392254Y3037500D01*
X9442238D02*
Y3077487D01*
X9452235D01*
X9462232Y3067490D01*
Y3037500D01*
Y3067490D01*
X9472229Y3077487D01*
X9482225Y3067490D01*
Y3037500D01*
X9562200Y3097481D02*
Y3037500D01*
X9602187D01*
X9632177Y3077487D02*
X9652170D01*
X9662167Y3067490D01*
Y3037500D01*
X9632177D01*
X9622180Y3047497D01*
X9632177Y3057494D01*
X9662167D01*
X9682161Y3077487D02*
Y3047497D01*
X9692157Y3037500D01*
X9722148D01*
Y3027503D01*
X9712151Y3017506D01*
X9702154D01*
X9722148Y3037500D02*
Y3077487D01*
X9772132Y3037500D02*
X9752138D01*
X9742141Y3047497D01*
Y3067490D01*
X9752138Y3077487D01*
X9772132D01*
X9782128Y3067490D01*
Y3057494D01*
X9742141D01*
X9802122Y3077487D02*
Y3037500D01*
Y3057494D01*
X9812119Y3067490D01*
X9822115Y3077487D01*
X9832112D01*
X8442562Y2947481D02*
X8482549D01*
X8462555D01*
Y2887500D01*
X8512539D02*
X8532533D01*
X8542529Y2897497D01*
Y2917490D01*
X8532533Y2927487D01*
X8512539D01*
X8502542Y2917490D01*
Y2897497D01*
X8512539Y2887500D01*
X8562523Y2867506D02*
Y2927487D01*
X8592513D01*
X8602510Y2917490D01*
Y2897497D01*
X8592513Y2887500D01*
X8562523D01*
X8682484Y2947481D02*
Y2887500D01*
X8722471D01*
X8752461Y2927487D02*
X8772455D01*
X8782452Y2917490D01*
Y2887500D01*
X8752461D01*
X8742465Y2897497D01*
X8752461Y2907494D01*
X8782452D01*
X8802445Y2927487D02*
Y2897497D01*
X8812442Y2887500D01*
X8842432D01*
Y2877503D01*
X8832436Y2867506D01*
X8822439D01*
X8842432Y2887500D02*
Y2927487D01*
X8892416Y2887500D02*
X8872423D01*
X8862426Y2897497D01*
Y2917490D01*
X8872423Y2927487D01*
X8892416D01*
X8902413Y2917490D01*
Y2907494D01*
X8862426D01*
X8922406Y2927487D02*
Y2887500D01*
Y2907494D01*
X8932403Y2917490D01*
X8942400Y2927487D01*
X8952397D01*
X9042368Y2917490D02*
X9082355D01*
X9162329Y2947481D02*
Y2887500D01*
X9192319D01*
X9202316Y2897497D01*
Y2907494D01*
X9192319Y2917490D01*
X9162329D01*
X9192319D01*
X9202316Y2927487D01*
Y2937484D01*
X9192319Y2947481D01*
X9162329D01*
X9232306Y2887500D02*
X9252300D01*
X9262297Y2897497D01*
Y2917490D01*
X9252300Y2927487D01*
X9232306D01*
X9222309Y2917490D01*
Y2897497D01*
X9232306Y2887500D01*
X9292287Y2937484D02*
Y2927487D01*
X9282290D01*
X9302284D01*
X9292287D01*
Y2897497D01*
X9302284Y2887500D01*
X9342271Y2937484D02*
Y2927487D01*
X9332274D01*
X9352267D01*
X9342271D01*
Y2897497D01*
X9352267Y2887500D01*
X9392254D02*
X9412248D01*
X9422245Y2897497D01*
Y2917490D01*
X9412248Y2927487D01*
X9392254D01*
X9382258Y2917490D01*
Y2897497D01*
X9392254Y2887500D01*
X9442238D02*
Y2927487D01*
X9452235D01*
X9462232Y2917490D01*
Y2887500D01*
Y2917490D01*
X9472229Y2927487D01*
X9482225Y2917490D01*
Y2887500D01*
X9562200Y2947481D02*
Y2887500D01*
X9602187D01*
X9632177Y2927487D02*
X9652170D01*
X9662167Y2917490D01*
Y2887500D01*
X9632177D01*
X9622180Y2897497D01*
X9632177Y2907494D01*
X9662167D01*
X9682161Y2927487D02*
Y2897497D01*
X9692157Y2887500D01*
X9722148D01*
Y2877503D01*
X9712151Y2867506D01*
X9702154D01*
X9722148Y2887500D02*
Y2927487D01*
X9772132Y2887500D02*
X9752138D01*
X9742141Y2897497D01*
Y2917490D01*
X9752138Y2927487D01*
X9772132D01*
X9782128Y2917490D01*
Y2907494D01*
X9742141D01*
X9802122Y2927487D02*
Y2887500D01*
Y2907494D01*
X9812119Y2917490D01*
X9822115Y2927487D01*
X9832112D01*
X8442562Y2797481D02*
X8482549D01*
X8462555D01*
Y2737500D01*
X8512539D02*
X8532533D01*
X8542529Y2747497D01*
Y2767490D01*
X8532533Y2777487D01*
X8512539D01*
X8502542Y2767490D01*
Y2747497D01*
X8512539Y2737500D01*
X8562523Y2717506D02*
Y2777487D01*
X8592513D01*
X8602510Y2767490D01*
Y2747497D01*
X8592513Y2737500D01*
X8562523D01*
X8682484Y2797481D02*
Y2737500D01*
X8722471D01*
X8752461Y2777487D02*
X8772455D01*
X8782452Y2767490D01*
Y2737500D01*
X8752461D01*
X8742465Y2747497D01*
X8752461Y2757494D01*
X8782452D01*
X8802445Y2777487D02*
Y2747497D01*
X8812442Y2737500D01*
X8842432D01*
Y2727503D01*
X8832436Y2717506D01*
X8822439D01*
X8842432Y2737500D02*
Y2777487D01*
X8892416Y2737500D02*
X8872423D01*
X8862426Y2747497D01*
Y2767490D01*
X8872423Y2777487D01*
X8892416D01*
X8902413Y2767490D01*
Y2757494D01*
X8862426D01*
X8922406Y2777487D02*
Y2737500D01*
Y2757494D01*
X8932403Y2767490D01*
X8942400Y2777487D01*
X8952397D01*
X9042368Y2767490D02*
X9082355D01*
X9162329Y2797481D02*
Y2737500D01*
X9192319D01*
X9202316Y2747497D01*
Y2757494D01*
X9192319Y2767490D01*
X9162329D01*
X9192319D01*
X9202316Y2777487D01*
Y2787484D01*
X9192319Y2797481D01*
X9162329D01*
X9232306Y2737500D02*
X9252300D01*
X9262297Y2747497D01*
Y2767490D01*
X9252300Y2777487D01*
X9232306D01*
X9222309Y2767490D01*
Y2747497D01*
X9232306Y2737500D01*
X9292287Y2787484D02*
Y2777487D01*
X9282290D01*
X9302284D01*
X9292287D01*
Y2747497D01*
X9302284Y2737500D01*
X9342271Y2787484D02*
Y2777487D01*
X9332274D01*
X9352267D01*
X9342271D01*
Y2747497D01*
X9352267Y2737500D01*
X9392254D02*
X9412248D01*
X9422245Y2747497D01*
Y2767490D01*
X9412248Y2777487D01*
X9392254D01*
X9382258Y2767490D01*
Y2747497D01*
X9392254Y2737500D01*
X9442238D02*
Y2777487D01*
X9452235D01*
X9462232Y2767490D01*
Y2737500D01*
Y2767490D01*
X9472229Y2777487D01*
X9482225Y2767490D01*
Y2737500D01*
X9562200Y2797481D02*
Y2737500D01*
X9602187D01*
X9632177Y2777487D02*
X9652170D01*
X9662167Y2767490D01*
Y2737500D01*
X9632177D01*
X9622180Y2747497D01*
X9632177Y2757494D01*
X9662167D01*
X9682161Y2777487D02*
Y2747497D01*
X9692157Y2737500D01*
X9722148D01*
Y2727503D01*
X9712151Y2717506D01*
X9702154D01*
X9722148Y2737500D02*
Y2777487D01*
X9772132Y2737500D02*
X9752138D01*
X9742141Y2747497D01*
Y2767490D01*
X9752138Y2777487D01*
X9772132D01*
X9782128Y2767490D01*
Y2757494D01*
X9742141D01*
X9802122Y2777487D02*
Y2737500D01*
Y2757494D01*
X9812119Y2767490D01*
X9822115Y2777487D01*
X9832112D01*
X8442562Y2647481D02*
X8482549D01*
X8462555D01*
Y2587500D01*
X8512539D02*
X8532533D01*
X8542529Y2597497D01*
Y2617490D01*
X8532533Y2627487D01*
X8512539D01*
X8502542Y2617490D01*
Y2597497D01*
X8512539Y2587500D01*
X8562523Y2567506D02*
Y2627487D01*
X8592513D01*
X8602510Y2617490D01*
Y2597497D01*
X8592513Y2587500D01*
X8562523D01*
X8682484Y2647481D02*
Y2587500D01*
X8722471D01*
X8752461Y2627487D02*
X8772455D01*
X8782452Y2617490D01*
Y2587500D01*
X8752461D01*
X8742465Y2597497D01*
X8752461Y2607494D01*
X8782452D01*
X8802445Y2627487D02*
Y2597497D01*
X8812442Y2587500D01*
X8842432D01*
Y2577503D01*
X8832436Y2567506D01*
X8822439D01*
X8842432Y2587500D02*
Y2627487D01*
X8892416Y2587500D02*
X8872423D01*
X8862426Y2597497D01*
Y2617490D01*
X8872423Y2627487D01*
X8892416D01*
X8902413Y2617490D01*
Y2607494D01*
X8862426D01*
X8922406Y2627487D02*
Y2587500D01*
Y2607494D01*
X8932403Y2617490D01*
X8942400Y2627487D01*
X8952397D01*
X9042368Y2617490D02*
X9082355D01*
X9162329Y2647481D02*
Y2587500D01*
X9192319D01*
X9202316Y2597497D01*
Y2607494D01*
X9192319Y2617490D01*
X9162329D01*
X9192319D01*
X9202316Y2627487D01*
Y2637484D01*
X9192319Y2647481D01*
X9162329D01*
X9232306Y2587500D02*
X9252300D01*
X9262297Y2597497D01*
Y2617490D01*
X9252300Y2627487D01*
X9232306D01*
X9222309Y2617490D01*
Y2597497D01*
X9232306Y2587500D01*
X9292287Y2637484D02*
Y2627487D01*
X9282290D01*
X9302284D01*
X9292287D01*
Y2597497D01*
X9302284Y2587500D01*
X9342271Y2637484D02*
Y2627487D01*
X9332274D01*
X9352267D01*
X9342271D01*
Y2597497D01*
X9352267Y2587500D01*
X9392254D02*
X9412248D01*
X9422245Y2597497D01*
Y2617490D01*
X9412248Y2627487D01*
X9392254D01*
X9382258Y2617490D01*
Y2597497D01*
X9392254Y2587500D01*
X9442238D02*
Y2627487D01*
X9452235D01*
X9462232Y2617490D01*
Y2587500D01*
Y2617490D01*
X9472229Y2627487D01*
X9482225Y2617490D01*
Y2587500D01*
X9562200Y2647481D02*
Y2587500D01*
X9602187D01*
X9632177Y2627487D02*
X9652170D01*
X9662167Y2617490D01*
Y2587500D01*
X9632177D01*
X9622180Y2597497D01*
X9632177Y2607494D01*
X9662167D01*
X9682161Y2627487D02*
Y2597497D01*
X9692157Y2587500D01*
X9722148D01*
Y2577503D01*
X9712151Y2567506D01*
X9702154D01*
X9722148Y2587500D02*
Y2627487D01*
X9772132Y2587500D02*
X9752138D01*
X9742141Y2597497D01*
Y2617490D01*
X9752138Y2627487D01*
X9772132D01*
X9782128Y2617490D01*
Y2607494D01*
X9742141D01*
X9802122Y2627487D02*
Y2587500D01*
Y2607494D01*
X9812119Y2617490D01*
X9822115Y2627487D01*
X9832112D01*
X8442562Y2497481D02*
X8482549D01*
X8462555D01*
Y2437500D01*
X8512539D02*
X8532533D01*
X8542529Y2447497D01*
Y2467490D01*
X8532533Y2477487D01*
X8512539D01*
X8502542Y2467490D01*
Y2447497D01*
X8512539Y2437500D01*
X8562523Y2417506D02*
Y2477487D01*
X8592513D01*
X8602510Y2467490D01*
Y2447497D01*
X8592513Y2437500D01*
X8562523D01*
X8682484Y2497481D02*
Y2437500D01*
X8722471D01*
X8752461Y2477487D02*
X8772455D01*
X8782452Y2467490D01*
Y2437500D01*
X8752461D01*
X8742465Y2447497D01*
X8752461Y2457494D01*
X8782452D01*
X8802445Y2477487D02*
Y2447497D01*
X8812442Y2437500D01*
X8842432D01*
Y2427503D01*
X8832436Y2417506D01*
X8822439D01*
X8842432Y2437500D02*
Y2477487D01*
X8892416Y2437500D02*
X8872423D01*
X8862426Y2447497D01*
Y2467490D01*
X8872423Y2477487D01*
X8892416D01*
X8902413Y2467490D01*
Y2457494D01*
X8862426D01*
X8922406Y2477487D02*
Y2437500D01*
Y2457494D01*
X8932403Y2467490D01*
X8942400Y2477487D01*
X8952397D01*
X9042368Y2467490D02*
X9082355D01*
X9162329Y2497481D02*
Y2437500D01*
X9192319D01*
X9202316Y2447497D01*
Y2457494D01*
X9192319Y2467490D01*
X9162329D01*
X9192319D01*
X9202316Y2477487D01*
Y2487484D01*
X9192319Y2497481D01*
X9162329D01*
X9232306Y2437500D02*
X9252300D01*
X9262297Y2447497D01*
Y2467490D01*
X9252300Y2477487D01*
X9232306D01*
X9222309Y2467490D01*
Y2447497D01*
X9232306Y2437500D01*
X9292287Y2487484D02*
Y2477487D01*
X9282290D01*
X9302284D01*
X9292287D01*
Y2447497D01*
X9302284Y2437500D01*
X9342271Y2487484D02*
Y2477487D01*
X9332274D01*
X9352267D01*
X9342271D01*
Y2447497D01*
X9352267Y2437500D01*
X9392254D02*
X9412248D01*
X9422245Y2447497D01*
Y2467490D01*
X9412248Y2477487D01*
X9392254D01*
X9382258Y2467490D01*
Y2447497D01*
X9392254Y2437500D01*
X9442238D02*
Y2477487D01*
X9452235D01*
X9462232Y2467490D01*
Y2437500D01*
Y2467490D01*
X9472229Y2477487D01*
X9482225Y2467490D01*
Y2437500D01*
X9562200Y2497481D02*
Y2437500D01*
X9602187D01*
X9632177Y2477487D02*
X9652170D01*
X9662167Y2467490D01*
Y2437500D01*
X9632177D01*
X9622180Y2447497D01*
X9632177Y2457494D01*
X9662167D01*
X9682161Y2477487D02*
Y2447497D01*
X9692157Y2437500D01*
X9722148D01*
Y2427503D01*
X9712151Y2417506D01*
X9702154D01*
X9722148Y2437500D02*
Y2477487D01*
X9772132Y2437500D02*
X9752138D01*
X9742141Y2447497D01*
Y2467490D01*
X9752138Y2477487D01*
X9772132D01*
X9782128Y2467490D01*
Y2457494D01*
X9742141D01*
X9802122Y2477487D02*
Y2437500D01*
Y2457494D01*
X9812119Y2467490D01*
X9822115Y2477487D01*
X9832112D01*
X8442562Y2347481D02*
X8482549D01*
X8462555D01*
Y2287500D01*
X8512539D02*
X8532533D01*
X8542529Y2297497D01*
Y2317490D01*
X8532533Y2327487D01*
X8512539D01*
X8502542Y2317490D01*
Y2297497D01*
X8512539Y2287500D01*
X8562523Y2267506D02*
Y2327487D01*
X8592513D01*
X8602510Y2317490D01*
Y2297497D01*
X8592513Y2287500D01*
X8562523D01*
X8682484Y2347481D02*
Y2287500D01*
X8722471D01*
X8752461Y2327487D02*
X8772455D01*
X8782452Y2317490D01*
Y2287500D01*
X8752461D01*
X8742465Y2297497D01*
X8752461Y2307494D01*
X8782452D01*
X8802445Y2327487D02*
Y2297497D01*
X8812442Y2287500D01*
X8842432D01*
Y2277503D01*
X8832436Y2267506D01*
X8822439D01*
X8842432Y2287500D02*
Y2327487D01*
X8892416Y2287500D02*
X8872423D01*
X8862426Y2297497D01*
Y2317490D01*
X8872423Y2327487D01*
X8892416D01*
X8902413Y2317490D01*
Y2307494D01*
X8862426D01*
X8922406Y2327487D02*
Y2287500D01*
Y2307494D01*
X8932403Y2317490D01*
X8942400Y2327487D01*
X8952397D01*
X9042368Y2317490D02*
X9082355D01*
X9162329Y2347481D02*
Y2287500D01*
X9192319D01*
X9202316Y2297497D01*
Y2307494D01*
X9192319Y2317490D01*
X9162329D01*
X9192319D01*
X9202316Y2327487D01*
Y2337484D01*
X9192319Y2347481D01*
X9162329D01*
X9232306Y2287500D02*
X9252300D01*
X9262297Y2297497D01*
Y2317490D01*
X9252300Y2327487D01*
X9232306D01*
X9222309Y2317490D01*
Y2297497D01*
X9232306Y2287500D01*
X9292287Y2337484D02*
Y2327487D01*
X9282290D01*
X9302284D01*
X9292287D01*
Y2297497D01*
X9302284Y2287500D01*
X9342271Y2337484D02*
Y2327487D01*
X9332274D01*
X9352267D01*
X9342271D01*
Y2297497D01*
X9352267Y2287500D01*
X9392254D02*
X9412248D01*
X9422245Y2297497D01*
Y2317490D01*
X9412248Y2327487D01*
X9392254D01*
X9382258Y2317490D01*
Y2297497D01*
X9392254Y2287500D01*
X9442238D02*
Y2327487D01*
X9452235D01*
X9462232Y2317490D01*
Y2287500D01*
Y2317490D01*
X9472229Y2327487D01*
X9482225Y2317490D01*
Y2287500D01*
X9562200Y2347481D02*
Y2287500D01*
X9602187D01*
X9632177Y2327487D02*
X9652170D01*
X9662167Y2317490D01*
Y2287500D01*
X9632177D01*
X9622180Y2297497D01*
X9632177Y2307494D01*
X9662167D01*
X9682161Y2327487D02*
Y2297497D01*
X9692157Y2287500D01*
X9722148D01*
Y2277503D01*
X9712151Y2267506D01*
X9702154D01*
X9722148Y2287500D02*
Y2327487D01*
X9772132Y2287500D02*
X9752138D01*
X9742141Y2297497D01*
Y2317490D01*
X9752138Y2327487D01*
X9772132D01*
X9782128Y2317490D01*
Y2307494D01*
X9742141D01*
X9802122Y2327487D02*
Y2287500D01*
Y2307494D01*
X9812119Y2317490D01*
X9822115Y2327487D01*
X9832112D01*
X8442562Y2197481D02*
X8482549D01*
X8462555D01*
Y2137500D01*
X8512539D02*
X8532533D01*
X8542529Y2147497D01*
Y2167490D01*
X8532533Y2177487D01*
X8512539D01*
X8502542Y2167490D01*
Y2147497D01*
X8512539Y2137500D01*
X8562523Y2117506D02*
Y2177487D01*
X8592513D01*
X8602510Y2167490D01*
Y2147497D01*
X8592513Y2137500D01*
X8562523D01*
X8682484Y2197481D02*
Y2137500D01*
X8722471D01*
X8752461Y2177487D02*
X8772455D01*
X8782452Y2167490D01*
Y2137500D01*
X8752461D01*
X8742465Y2147497D01*
X8752461Y2157494D01*
X8782452D01*
X8802445Y2177487D02*
Y2147497D01*
X8812442Y2137500D01*
X8842432D01*
Y2127503D01*
X8832436Y2117506D01*
X8822439D01*
X8842432Y2137500D02*
Y2177487D01*
X8892416Y2137500D02*
X8872423D01*
X8862426Y2147497D01*
Y2167490D01*
X8872423Y2177487D01*
X8892416D01*
X8902413Y2167490D01*
Y2157494D01*
X8862426D01*
X8922406Y2177487D02*
Y2137500D01*
Y2157494D01*
X8932403Y2167490D01*
X8942400Y2177487D01*
X8952397D01*
X9042368Y2167490D02*
X9082355D01*
X9162329Y2197481D02*
Y2137500D01*
X9192319D01*
X9202316Y2147497D01*
Y2157494D01*
X9192319Y2167490D01*
X9162329D01*
X9192319D01*
X9202316Y2177487D01*
Y2187484D01*
X9192319Y2197481D01*
X9162329D01*
X9232306Y2137500D02*
X9252300D01*
X9262297Y2147497D01*
Y2167490D01*
X9252300Y2177487D01*
X9232306D01*
X9222309Y2167490D01*
Y2147497D01*
X9232306Y2137500D01*
X9292287Y2187484D02*
Y2177487D01*
X9282290D01*
X9302284D01*
X9292287D01*
Y2147497D01*
X9302284Y2137500D01*
X9342271Y2187484D02*
Y2177487D01*
X9332274D01*
X9352267D01*
X9342271D01*
Y2147497D01*
X9352267Y2137500D01*
X9392254D02*
X9412248D01*
X9422245Y2147497D01*
Y2167490D01*
X9412248Y2177487D01*
X9392254D01*
X9382258Y2167490D01*
Y2147497D01*
X9392254Y2137500D01*
X9442238D02*
Y2177487D01*
X9452235D01*
X9462232Y2167490D01*
Y2137500D01*
Y2167490D01*
X9472229Y2177487D01*
X9482225Y2167490D01*
Y2137500D01*
X9562200Y2197481D02*
Y2137500D01*
X9602187D01*
X9632177Y2177487D02*
X9652170D01*
X9662167Y2167490D01*
Y2137500D01*
X9632177D01*
X9622180Y2147497D01*
X9632177Y2157494D01*
X9662167D01*
X9682161Y2177487D02*
Y2147497D01*
X9692157Y2137500D01*
X9722148D01*
Y2127503D01*
X9712151Y2117506D01*
X9702154D01*
X9722148Y2137500D02*
Y2177487D01*
X9772132Y2137500D02*
X9752138D01*
X9742141Y2147497D01*
Y2167490D01*
X9752138Y2177487D01*
X9772132D01*
X9782128Y2167490D01*
Y2157494D01*
X9742141D01*
X9802122Y2177487D02*
Y2137500D01*
Y2157494D01*
X9812119Y2167490D01*
X9822115Y2177487D01*
X9832112D01*
X8442562Y2047481D02*
X8482549D01*
X8462555D01*
Y1987500D01*
X8512539D02*
X8532533D01*
X8542529Y1997497D01*
Y2017490D01*
X8532533Y2027487D01*
X8512539D01*
X8502542Y2017490D01*
Y1997497D01*
X8512539Y1987500D01*
X8562523Y1967506D02*
Y2027487D01*
X8592513D01*
X8602510Y2017490D01*
Y1997497D01*
X8592513Y1987500D01*
X8562523D01*
X8682484Y2047481D02*
Y1987500D01*
X8722471D01*
X8752461Y2027487D02*
X8772455D01*
X8782452Y2017490D01*
Y1987500D01*
X8752461D01*
X8742465Y1997497D01*
X8752461Y2007494D01*
X8782452D01*
X8802445Y2027487D02*
Y1997497D01*
X8812442Y1987500D01*
X8842432D01*
Y1977503D01*
X8832436Y1967506D01*
X8822439D01*
X8842432Y1987500D02*
Y2027487D01*
X8892416Y1987500D02*
X8872423D01*
X8862426Y1997497D01*
Y2017490D01*
X8872423Y2027487D01*
X8892416D01*
X8902413Y2017490D01*
Y2007494D01*
X8862426D01*
X8922406Y2027487D02*
Y1987500D01*
Y2007494D01*
X8932403Y2017490D01*
X8942400Y2027487D01*
X8952397D01*
X9042368Y2017490D02*
X9082355D01*
X9162329Y2047481D02*
Y1987500D01*
X9192319D01*
X9202316Y1997497D01*
Y2007494D01*
X9192319Y2017490D01*
X9162329D01*
X9192319D01*
X9202316Y2027487D01*
Y2037484D01*
X9192319Y2047481D01*
X9162329D01*
X9232306Y1987500D02*
X9252300D01*
X9262297Y1997497D01*
Y2017490D01*
X9252300Y2027487D01*
X9232306D01*
X9222309Y2017490D01*
Y1997497D01*
X9232306Y1987500D01*
X9292287Y2037484D02*
Y2027487D01*
X9282290D01*
X9302284D01*
X9292287D01*
Y1997497D01*
X9302284Y1987500D01*
X9342271Y2037484D02*
Y2027487D01*
X9332274D01*
X9352267D01*
X9342271D01*
Y1997497D01*
X9352267Y1987500D01*
X9392254D02*
X9412248D01*
X9422245Y1997497D01*
Y2017490D01*
X9412248Y2027487D01*
X9392254D01*
X9382258Y2017490D01*
Y1997497D01*
X9392254Y1987500D01*
X9442238D02*
Y2027487D01*
X9452235D01*
X9462232Y2017490D01*
Y1987500D01*
Y2017490D01*
X9472229Y2027487D01*
X9482225Y2017490D01*
Y1987500D01*
X9562200Y2047481D02*
Y1987500D01*
X9602187D01*
X9632177Y2027487D02*
X9652170D01*
X9662167Y2017490D01*
Y1987500D01*
X9632177D01*
X9622180Y1997497D01*
X9632177Y2007494D01*
X9662167D01*
X9682161Y2027487D02*
Y1997497D01*
X9692157Y1987500D01*
X9722148D01*
Y1977503D01*
X9712151Y1967506D01*
X9702154D01*
X9722148Y1987500D02*
Y2027487D01*
X9772132Y1987500D02*
X9752138D01*
X9742141Y1997497D01*
Y2017490D01*
X9752138Y2027487D01*
X9772132D01*
X9782128Y2017490D01*
Y2007494D01*
X9742141D01*
X9802122Y2027487D02*
Y1987500D01*
Y2007494D01*
X9812119Y2017490D01*
X9822115Y2027487D01*
X9832112D01*
X7708760Y3487500D02*
Y3547481D01*
X7738750D01*
X7748747Y3537484D01*
Y3517490D01*
X7738750Y3507494D01*
X7708760D01*
X7728753D02*
X7748747Y3487500D01*
X7778737D02*
X7798731D01*
X7808727Y3497497D01*
Y3517490D01*
X7798731Y3527487D01*
X7778737D01*
X7768740Y3517490D01*
Y3497497D01*
X7778737Y3487500D01*
X7828721Y3527487D02*
Y3497497D01*
X7838718Y3487500D01*
X7868708D01*
Y3527487D01*
X7888702Y3487500D02*
Y3527487D01*
X7918692D01*
X7928689Y3517490D01*
Y3487500D01*
X7988669Y3547481D02*
Y3487500D01*
X7958679D01*
X7948682Y3497497D01*
Y3517490D01*
X7958679Y3527487D01*
X7988669D01*
X7708760Y3337500D02*
Y3397481D01*
X7738750D01*
X7748747Y3387484D01*
Y3367490D01*
X7738750Y3357494D01*
X7708760D01*
X7728753D02*
X7748747Y3337500D01*
X7778737D02*
X7798731D01*
X7808727Y3347497D01*
Y3367490D01*
X7798731Y3377487D01*
X7778737D01*
X7768740Y3367490D01*
Y3347497D01*
X7778737Y3337500D01*
X7828721Y3377487D02*
Y3347497D01*
X7838718Y3337500D01*
X7868708D01*
Y3377487D01*
X7888702Y3337500D02*
Y3377487D01*
X7918692D01*
X7928689Y3367490D01*
Y3337500D01*
X7988669Y3397481D02*
Y3337500D01*
X7958679D01*
X7948682Y3347497D01*
Y3367490D01*
X7958679Y3377487D01*
X7988669D01*
X7708760Y3187500D02*
Y3247481D01*
X7738750D01*
X7748747Y3237484D01*
Y3217490D01*
X7738750Y3207494D01*
X7708760D01*
X7728753D02*
X7748747Y3187500D01*
X7778737D02*
X7798731D01*
X7808727Y3197497D01*
Y3217490D01*
X7798731Y3227487D01*
X7778737D01*
X7768740Y3217490D01*
Y3197497D01*
X7778737Y3187500D01*
X7828721Y3227487D02*
Y3197497D01*
X7838718Y3187500D01*
X7868708D01*
Y3227487D01*
X7888702Y3187500D02*
Y3227487D01*
X7918692D01*
X7928689Y3217490D01*
Y3187500D01*
X7988669Y3247481D02*
Y3187500D01*
X7958679D01*
X7948682Y3197497D01*
Y3217490D01*
X7958679Y3227487D01*
X7988669D01*
X7708760Y3037500D02*
Y3097481D01*
X7738750D01*
X7748747Y3087484D01*
Y3067490D01*
X7738750Y3057494D01*
X7708760D01*
X7728753D02*
X7748747Y3037500D01*
X7778737D02*
X7798731D01*
X7808727Y3047497D01*
Y3067490D01*
X7798731Y3077487D01*
X7778737D01*
X7768740Y3067490D01*
Y3047497D01*
X7778737Y3037500D01*
X7828721Y3077487D02*
Y3047497D01*
X7838718Y3037500D01*
X7868708D01*
Y3077487D01*
X7888702Y3037500D02*
Y3077487D01*
X7918692D01*
X7928689Y3067490D01*
Y3037500D01*
X7988669Y3097481D02*
Y3037500D01*
X7958679D01*
X7948682Y3047497D01*
Y3067490D01*
X7958679Y3077487D01*
X7988669D01*
X7708760Y2887500D02*
Y2947481D01*
X7738750D01*
X7748747Y2937484D01*
Y2917490D01*
X7738750Y2907494D01*
X7708760D01*
X7728753D02*
X7748747Y2887500D01*
X7778737D02*
X7798731D01*
X7808727Y2897497D01*
Y2917490D01*
X7798731Y2927487D01*
X7778737D01*
X7768740Y2917490D01*
Y2897497D01*
X7778737Y2887500D01*
X7828721Y2927487D02*
Y2897497D01*
X7838718Y2887500D01*
X7868708D01*
Y2927487D01*
X7888702Y2887500D02*
Y2927487D01*
X7918692D01*
X7928689Y2917490D01*
Y2887500D01*
X7988669Y2947481D02*
Y2887500D01*
X7958679D01*
X7948682Y2897497D01*
Y2917490D01*
X7958679Y2927487D01*
X7988669D01*
X7708760Y2737500D02*
Y2797481D01*
X7738750D01*
X7748747Y2787484D01*
Y2767490D01*
X7738750Y2757494D01*
X7708760D01*
X7728753D02*
X7748747Y2737500D01*
X7778737D02*
X7798731D01*
X7808727Y2747497D01*
Y2767490D01*
X7798731Y2777487D01*
X7778737D01*
X7768740Y2767490D01*
Y2747497D01*
X7778737Y2737500D01*
X7828721Y2777487D02*
Y2747497D01*
X7838718Y2737500D01*
X7868708D01*
Y2777487D01*
X7888702Y2737500D02*
Y2777487D01*
X7918692D01*
X7928689Y2767490D01*
Y2737500D01*
X7988669Y2797481D02*
Y2737500D01*
X7958679D01*
X7948682Y2747497D01*
Y2767490D01*
X7958679Y2777487D01*
X7988669D01*
X7708760Y2587500D02*
Y2647481D01*
X7738750D01*
X7748747Y2637484D01*
Y2617490D01*
X7738750Y2607494D01*
X7708760D01*
X7728753D02*
X7748747Y2587500D01*
X7778737D02*
X7798731D01*
X7808727Y2597497D01*
Y2617490D01*
X7798731Y2627487D01*
X7778737D01*
X7768740Y2617490D01*
Y2597497D01*
X7778737Y2587500D01*
X7828721Y2627487D02*
Y2597497D01*
X7838718Y2587500D01*
X7868708D01*
Y2627487D01*
X7888702Y2587500D02*
Y2627487D01*
X7918692D01*
X7928689Y2617490D01*
Y2587500D01*
X7988669Y2647481D02*
Y2587500D01*
X7958679D01*
X7948682Y2597497D01*
Y2617490D01*
X7958679Y2627487D01*
X7988669D01*
X7708760Y2437500D02*
Y2497481D01*
X7738750D01*
X7748747Y2487484D01*
Y2467490D01*
X7738750Y2457494D01*
X7708760D01*
X7728753D02*
X7748747Y2437500D01*
X7778737D02*
X7798731D01*
X7808727Y2447497D01*
Y2467490D01*
X7798731Y2477487D01*
X7778737D01*
X7768740Y2467490D01*
Y2447497D01*
X7778737Y2437500D01*
X7828721Y2477487D02*
Y2447497D01*
X7838718Y2437500D01*
X7868708D01*
Y2477487D01*
X7888702Y2437500D02*
Y2477487D01*
X7918692D01*
X7928689Y2467490D01*
Y2437500D01*
X7988669Y2497481D02*
Y2437500D01*
X7958679D01*
X7948682Y2447497D01*
Y2467490D01*
X7958679Y2477487D01*
X7988669D01*
X7708760Y2287500D02*
Y2347481D01*
X7738750D01*
X7748747Y2337484D01*
Y2317490D01*
X7738750Y2307494D01*
X7708760D01*
X7728753D02*
X7748747Y2287500D01*
X7778737D02*
X7798731D01*
X7808727Y2297497D01*
Y2317490D01*
X7798731Y2327487D01*
X7778737D01*
X7768740Y2317490D01*
Y2297497D01*
X7778737Y2287500D01*
X7828721Y2327487D02*
Y2297497D01*
X7838718Y2287500D01*
X7868708D01*
Y2327487D01*
X7888702Y2287500D02*
Y2327487D01*
X7918692D01*
X7928689Y2317490D01*
Y2287500D01*
X7988669Y2347481D02*
Y2287500D01*
X7958679D01*
X7948682Y2297497D01*
Y2317490D01*
X7958679Y2327487D01*
X7988669D01*
X7708760Y2137500D02*
Y2197481D01*
X7738750D01*
X7748747Y2187484D01*
Y2167490D01*
X7738750Y2157494D01*
X7708760D01*
X7728753D02*
X7748747Y2137500D01*
X7778737D02*
X7798731D01*
X7808727Y2147497D01*
Y2167490D01*
X7798731Y2177487D01*
X7778737D01*
X7768740Y2167490D01*
Y2147497D01*
X7778737Y2137500D01*
X7828721Y2177487D02*
Y2147497D01*
X7838718Y2137500D01*
X7868708D01*
Y2177487D01*
X7888702Y2137500D02*
Y2177487D01*
X7918692D01*
X7928689Y2167490D01*
Y2137500D01*
X7988669Y2197481D02*
Y2137500D01*
X7958679D01*
X7948682Y2147497D01*
Y2167490D01*
X7958679Y2177487D01*
X7988669D01*
X7708760Y1987500D02*
Y2047481D01*
X7738750D01*
X7748747Y2037484D01*
Y2017490D01*
X7738750Y2007494D01*
X7708760D01*
X7728753D02*
X7748747Y1987500D01*
X7778737D02*
X7798731D01*
X7808727Y1997497D01*
Y2017490D01*
X7798731Y2027487D01*
X7778737D01*
X7768740Y2017490D01*
Y1997497D01*
X7778737Y1987500D01*
X7828721Y2027487D02*
Y1997497D01*
X7838718Y1987500D01*
X7868708D01*
Y2027487D01*
X7888702Y1987500D02*
Y2027487D01*
X7918692D01*
X7928689Y2017490D01*
Y1987500D01*
X7988669Y2047481D02*
Y1987500D01*
X7958679D01*
X7948682Y1997497D01*
Y2017490D01*
X7958679Y2027487D01*
X7988669D01*
X7202884Y3487500D02*
Y3547481D01*
X7232874D01*
X7242871Y3537484D01*
Y3517490D01*
X7232874Y3507494D01*
X7202884D01*
X7262864Y3547481D02*
X7302852D01*
X7282858D01*
Y3487500D01*
X7322845Y3547481D02*
Y3487500D01*
Y3517490D01*
X7362832D01*
Y3547481D01*
Y3487500D01*
X7202884Y3337500D02*
Y3397481D01*
X7232874D01*
X7242871Y3387484D01*
Y3367490D01*
X7232874Y3357494D01*
X7202884D01*
X7262864Y3397481D02*
X7302852D01*
X7282858D01*
Y3337500D01*
X7322845Y3397481D02*
Y3337500D01*
Y3367490D01*
X7362832D01*
Y3397481D01*
Y3337500D01*
X7202884Y3187500D02*
Y3247481D01*
X7232874D01*
X7242871Y3237484D01*
Y3217490D01*
X7232874Y3207494D01*
X7202884D01*
X7262864Y3247481D02*
X7302852D01*
X7282858D01*
Y3187500D01*
X7322845Y3247481D02*
Y3187500D01*
Y3217490D01*
X7362832D01*
Y3247481D01*
Y3187500D01*
X7202884Y3037500D02*
Y3097481D01*
X7232874D01*
X7242871Y3087484D01*
Y3067490D01*
X7232874Y3057494D01*
X7202884D01*
X7262864Y3097481D02*
X7302852D01*
X7282858D01*
Y3037500D01*
X7322845Y3097481D02*
Y3037500D01*
Y3067490D01*
X7362832D01*
Y3097481D01*
Y3037500D01*
X7202884Y2887500D02*
Y2947481D01*
X7232874D01*
X7242871Y2937484D01*
Y2917490D01*
X7232874Y2907494D01*
X7202884D01*
X7262864Y2947481D02*
X7302852D01*
X7282858D01*
Y2887500D01*
X7322845Y2947481D02*
Y2887500D01*
Y2917490D01*
X7362832D01*
Y2947481D01*
Y2887500D01*
X7202884Y2737500D02*
Y2797481D01*
X7232874D01*
X7242871Y2787484D01*
Y2767490D01*
X7232874Y2757494D01*
X7202884D01*
X7262864Y2797481D02*
X7302852D01*
X7282858D01*
Y2737500D01*
X7322845Y2797481D02*
Y2737500D01*
Y2767490D01*
X7362832D01*
Y2797481D01*
Y2737500D01*
X7202884Y2587500D02*
Y2647481D01*
X7232874D01*
X7242871Y2637484D01*
Y2617490D01*
X7232874Y2607494D01*
X7202884D01*
X7262864Y2647481D02*
X7302852D01*
X7282858D01*
Y2587500D01*
X7322845Y2647481D02*
Y2587500D01*
Y2617490D01*
X7362832D01*
Y2647481D01*
Y2587500D01*
X7202884Y2437500D02*
Y2497481D01*
X7232874D01*
X7242871Y2487484D01*
Y2467490D01*
X7232874Y2457494D01*
X7202884D01*
X7262864Y2497481D02*
X7302852D01*
X7282858D01*
Y2437500D01*
X7322845Y2497481D02*
Y2437500D01*
Y2467490D01*
X7362832D01*
Y2497481D01*
Y2437500D01*
X7202884Y2287500D02*
Y2347481D01*
X7232874D01*
X7242871Y2337484D01*
Y2317490D01*
X7232874Y2307494D01*
X7202884D01*
X7262864Y2347481D02*
X7302852D01*
X7282858D01*
Y2287500D01*
X7322845Y2347481D02*
Y2287500D01*
Y2317490D01*
X7362832D01*
Y2347481D01*
Y2287500D01*
X7202884Y2137500D02*
Y2197481D01*
X7232874D01*
X7242871Y2187484D01*
Y2167490D01*
X7232874Y2157494D01*
X7202884D01*
X7262864Y2197481D02*
X7302852D01*
X7282858D01*
Y2137500D01*
X7322845Y2197481D02*
Y2137500D01*
Y2167490D01*
X7362832D01*
Y2197481D01*
Y2137500D01*
X7202884Y1987500D02*
Y2047481D01*
X7232874D01*
X7242871Y2037484D01*
Y2017490D01*
X7232874Y2007494D01*
X7202884D01*
X7262864Y2047481D02*
X7302852D01*
X7282858D01*
Y1987500D01*
X7322845Y2047481D02*
Y1987500D01*
Y2017490D01*
X7362832D01*
Y2047481D01*
Y1987500D01*
X6053220Y3487500D02*
X6073214D01*
X6063217D01*
Y3547481D01*
X6053220Y3537484D01*
X6143191Y3487500D02*
X6103204D01*
X6143191Y3527487D01*
Y3537484D01*
X6133194Y3547481D01*
X6113201D01*
X6103204Y3537484D01*
X6163185Y3487500D02*
Y3497497D01*
X6173182D01*
Y3487500D01*
X6163185D01*
X6213169Y3537484D02*
X6223165Y3547481D01*
X6243159D01*
X6253156Y3537484D01*
Y3497497D01*
X6243159Y3487500D01*
X6223165D01*
X6213169Y3497497D01*
Y3537484D01*
X6273149D02*
X6283146Y3547481D01*
X6303140D01*
X6313136Y3537484D01*
Y3497497D01*
X6303140Y3487500D01*
X6283146D01*
X6273149Y3497497D01*
Y3537484D01*
X6333130Y3487500D02*
Y3527487D01*
X6343127D01*
X6353123Y3517490D01*
Y3487500D01*
Y3517490D01*
X6363120Y3527487D01*
X6373117Y3517490D01*
Y3487500D01*
X6393110D02*
X6413104D01*
X6403107D01*
Y3527487D01*
X6393110D01*
X6443094Y3487500D02*
X6463088D01*
X6453091D01*
Y3547481D01*
X6443094D01*
X6573052Y3487500D02*
X6553059Y3507494D01*
Y3527487D01*
X6573052Y3547481D01*
X6603042Y3537484D02*
X6613039Y3547481D01*
X6633033D01*
X6643029Y3537484D01*
Y3497497D01*
X6633033Y3487500D01*
X6613039D01*
X6603042Y3497497D01*
Y3537484D01*
X6663023Y3487500D02*
Y3497497D01*
X6673020D01*
Y3487500D01*
X6663023D01*
X6713007Y3537484D02*
X6723004Y3547481D01*
X6742997D01*
X6752994Y3537484D01*
Y3527487D01*
X6742997Y3517490D01*
X6733000D01*
X6742997D01*
X6752994Y3507494D01*
Y3497497D01*
X6742997Y3487500D01*
X6723004D01*
X6713007Y3497497D01*
X6772987Y3537484D02*
X6782984Y3547481D01*
X6802978D01*
X6812975Y3537484D01*
Y3497497D01*
X6802978Y3487500D01*
X6782984D01*
X6772987Y3497497D01*
Y3537484D01*
X6872955Y3547481D02*
X6832968D01*
Y3517490D01*
X6852962Y3527487D01*
X6862958D01*
X6872955Y3517490D01*
Y3497497D01*
X6862958Y3487500D01*
X6842965D01*
X6832968Y3497497D01*
X6892949Y3487500D02*
Y3527487D01*
X6902945D01*
X6912942Y3517490D01*
Y3487500D01*
Y3517490D01*
X6922939Y3527487D01*
X6932936Y3517490D01*
Y3487500D01*
X6952929D02*
Y3527487D01*
X6962926D01*
X6972923Y3517490D01*
Y3487500D01*
Y3517490D01*
X6982919Y3527487D01*
X6992916Y3517490D01*
Y3487500D01*
X7012910D02*
X7032903Y3507494D01*
Y3527487D01*
X7012910Y3547481D01*
X6093208Y3337500D02*
X6053220D01*
X6093208Y3377487D01*
Y3387484D01*
X6083211Y3397481D01*
X6063217D01*
X6053220Y3387484D01*
X6113201D02*
X6123198Y3397481D01*
X6143191D01*
X6153188Y3387484D01*
Y3377487D01*
X6143191Y3367490D01*
X6153188Y3357494D01*
Y3347497D01*
X6143191Y3337500D01*
X6123198D01*
X6113201Y3347497D01*
Y3357494D01*
X6123198Y3367490D01*
X6113201Y3377487D01*
Y3387484D01*
X6123198Y3367490D02*
X6143191D01*
X6173182Y3337500D02*
Y3347497D01*
X6183178D01*
Y3337500D01*
X6173182D01*
X6223165Y3387484D02*
X6233162Y3397481D01*
X6253156D01*
X6263153Y3387484D01*
Y3347497D01*
X6253156Y3337500D01*
X6233162D01*
X6223165Y3347497D01*
Y3387484D01*
X6283146D02*
X6293143Y3397481D01*
X6313136D01*
X6323133Y3387484D01*
Y3347497D01*
X6313136Y3337500D01*
X6293143D01*
X6283146Y3347497D01*
Y3387484D01*
X6343127Y3337500D02*
Y3377487D01*
X6353123D01*
X6363120Y3367490D01*
Y3337500D01*
Y3367490D01*
X6373117Y3377487D01*
X6383114Y3367490D01*
Y3337500D01*
X6403107D02*
X6423101D01*
X6413104D01*
Y3377487D01*
X6403107D01*
X6453091Y3337500D02*
X6473084D01*
X6463088D01*
Y3397481D01*
X6453091D01*
X6583049Y3337500D02*
X6563055Y3357494D01*
Y3377487D01*
X6583049Y3397481D01*
X6613039Y3387484D02*
X6623036Y3397481D01*
X6643029D01*
X6653026Y3387484D01*
Y3347497D01*
X6643029Y3337500D01*
X6623036D01*
X6613039Y3347497D01*
Y3387484D01*
X6673020Y3337500D02*
Y3347497D01*
X6683017D01*
Y3337500D01*
X6673020D01*
X6723004Y3397481D02*
X6762991D01*
Y3387484D01*
X6723004Y3347497D01*
Y3337500D01*
X6782984D02*
X6802978D01*
X6792981D01*
Y3397481D01*
X6782984Y3387484D01*
X6832968Y3337500D02*
X6852962D01*
X6842965D01*
Y3397481D01*
X6832968Y3387484D01*
X6882952Y3337500D02*
Y3377487D01*
X6892949D01*
X6902945Y3367490D01*
Y3337500D01*
Y3367490D01*
X6912942Y3377487D01*
X6922939Y3367490D01*
Y3337500D01*
X6942932D02*
Y3377487D01*
X6952929D01*
X6962926Y3367490D01*
Y3337500D01*
Y3367490D01*
X6972923Y3377487D01*
X6982919Y3367490D01*
Y3337500D01*
X7002913D02*
X7022907Y3357494D01*
Y3377487D01*
X7002913Y3397481D01*
X6053220Y3237484D02*
X6063217Y3247481D01*
X6083211D01*
X6093208Y3237484D01*
Y3227487D01*
X6083211Y3217490D01*
X6073214D01*
X6083211D01*
X6093208Y3207494D01*
Y3197497D01*
X6083211Y3187500D01*
X6063217D01*
X6053220Y3197497D01*
X6113201Y3187500D02*
X6133194D01*
X6123198D01*
Y3247481D01*
X6113201Y3237484D01*
X6163185Y3187500D02*
Y3197497D01*
X6173182D01*
Y3187500D01*
X6163185D01*
X6253156Y3247481D02*
X6213169D01*
Y3217490D01*
X6233162Y3227487D01*
X6243159D01*
X6253156Y3217490D01*
Y3197497D01*
X6243159Y3187500D01*
X6223165D01*
X6213169Y3197497D01*
X6273149Y3237484D02*
X6283146Y3247481D01*
X6303140D01*
X6313136Y3237484D01*
Y3197497D01*
X6303140Y3187500D01*
X6283146D01*
X6273149Y3197497D01*
Y3237484D01*
X6333130Y3187500D02*
Y3227487D01*
X6343127D01*
X6353123Y3217490D01*
Y3187500D01*
Y3217490D01*
X6363120Y3227487D01*
X6373117Y3217490D01*
Y3187500D01*
X6393110D02*
X6413104D01*
X6403107D01*
Y3227487D01*
X6393110D01*
X6443094Y3187500D02*
X6463088D01*
X6453091D01*
Y3247481D01*
X6443094D01*
X6573052Y3187500D02*
X6553059Y3207494D01*
Y3227487D01*
X6573052Y3247481D01*
X6603042Y3237484D02*
X6613039Y3247481D01*
X6633033D01*
X6643029Y3237484D01*
Y3197497D01*
X6633033Y3187500D01*
X6613039D01*
X6603042Y3197497D01*
Y3237484D01*
X6663023Y3187500D02*
Y3197497D01*
X6673020D01*
Y3187500D01*
X6663023D01*
X6713007Y3237484D02*
X6723004Y3247481D01*
X6742997D01*
X6752994Y3237484D01*
Y3227487D01*
X6742997Y3217490D01*
X6752994Y3207494D01*
Y3197497D01*
X6742997Y3187500D01*
X6723004D01*
X6713007Y3197497D01*
Y3207494D01*
X6723004Y3217490D01*
X6713007Y3227487D01*
Y3237484D01*
X6723004Y3217490D02*
X6742997D01*
X6772987Y3237484D02*
X6782984Y3247481D01*
X6802978D01*
X6812975Y3237484D01*
Y3197497D01*
X6802978Y3187500D01*
X6782984D01*
X6772987Y3197497D01*
Y3237484D01*
X6832968D02*
X6842965Y3247481D01*
X6862958D01*
X6872955Y3237484D01*
Y3197497D01*
X6862958Y3187500D01*
X6842965D01*
X6832968Y3197497D01*
Y3237484D01*
X6892949Y3187500D02*
Y3227487D01*
X6902945D01*
X6912942Y3217490D01*
Y3187500D01*
Y3217490D01*
X6922939Y3227487D01*
X6932936Y3217490D01*
Y3187500D01*
X6952929D02*
Y3227487D01*
X6962926D01*
X6972923Y3217490D01*
Y3187500D01*
Y3217490D01*
X6982919Y3227487D01*
X6992916Y3217490D01*
Y3187500D01*
X7012910D02*
X7032903Y3207494D01*
Y3227487D01*
X7012910Y3247481D01*
X6083211Y3037500D02*
Y3097481D01*
X6053220Y3067490D01*
X6093208D01*
X6153188Y3097481D02*
X6113201D01*
Y3067490D01*
X6133194Y3077487D01*
X6143191D01*
X6153188Y3067490D01*
Y3047497D01*
X6143191Y3037500D01*
X6123198D01*
X6113201Y3047497D01*
X6173182Y3037500D02*
Y3047497D01*
X6183178D01*
Y3037500D01*
X6173182D01*
X6263153D02*
X6223165D01*
X6263153Y3077487D01*
Y3087484D01*
X6253156Y3097481D01*
X6233162D01*
X6223165Y3087484D01*
X6283146D02*
X6293143Y3097481D01*
X6313136D01*
X6323133Y3087484D01*
Y3077487D01*
X6313136Y3067490D01*
X6323133Y3057494D01*
Y3047497D01*
X6313136Y3037500D01*
X6293143D01*
X6283146Y3047497D01*
Y3057494D01*
X6293143Y3067490D01*
X6283146Y3077487D01*
Y3087484D01*
X6293143Y3067490D02*
X6313136D01*
X6343127Y3037500D02*
Y3077487D01*
X6353123D01*
X6363120Y3067490D01*
Y3037500D01*
Y3067490D01*
X6373117Y3077487D01*
X6383114Y3067490D01*
Y3037500D01*
X6403107D02*
X6423101D01*
X6413104D01*
Y3077487D01*
X6403107D01*
X6453091Y3037500D02*
X6473084D01*
X6463088D01*
Y3097481D01*
X6453091D01*
X6583049Y3037500D02*
X6563055Y3057494D01*
Y3077487D01*
X6583049Y3097481D01*
X6613039Y3037500D02*
X6633033D01*
X6623036D01*
Y3097481D01*
X6613039Y3087484D01*
X6663023Y3037500D02*
Y3047497D01*
X6673020D01*
Y3037500D01*
X6663023D01*
X6713007D02*
X6733000D01*
X6723004D01*
Y3097481D01*
X6713007Y3087484D01*
X6802978Y3097481D02*
X6762991D01*
Y3067490D01*
X6782984Y3077487D01*
X6792981D01*
X6802978Y3067490D01*
Y3047497D01*
X6792981Y3037500D01*
X6772987D01*
X6762991Y3047497D01*
X6822971Y3087484D02*
X6832968Y3097481D01*
X6852962D01*
X6862958Y3087484D01*
Y3047497D01*
X6852962Y3037500D01*
X6832968D01*
X6822971Y3047497D01*
Y3087484D01*
X6882952Y3037500D02*
Y3077487D01*
X6892949D01*
X6902945Y3067490D01*
Y3037500D01*
Y3067490D01*
X6912942Y3077487D01*
X6922939Y3067490D01*
Y3037500D01*
X6942932D02*
Y3077487D01*
X6952929D01*
X6962926Y3067490D01*
Y3037500D01*
Y3067490D01*
X6972923Y3077487D01*
X6982919Y3067490D01*
Y3037500D01*
X7002913D02*
X7022907Y3057494D01*
Y3077487D01*
X7002913Y3097481D01*
X6093208Y2947481D02*
X6053220D01*
Y2917490D01*
X6073214Y2927487D01*
X6083211D01*
X6093208Y2917490D01*
Y2897497D01*
X6083211Y2887500D01*
X6063217D01*
X6053220Y2897497D01*
X6153188Y2947481D02*
X6113201D01*
Y2917490D01*
X6133194Y2927487D01*
X6143191D01*
X6153188Y2917490D01*
Y2897497D01*
X6143191Y2887500D01*
X6123198D01*
X6113201Y2897497D01*
X6173182Y2887500D02*
Y2897497D01*
X6183178D01*
Y2887500D01*
X6173182D01*
X6223165Y2937484D02*
X6233162Y2947481D01*
X6253156D01*
X6263153Y2937484D01*
Y2897497D01*
X6253156Y2887500D01*
X6233162D01*
X6223165Y2897497D01*
Y2937484D01*
X6283146D02*
X6293143Y2947481D01*
X6313136D01*
X6323133Y2937484D01*
Y2897497D01*
X6313136Y2887500D01*
X6293143D01*
X6283146Y2897497D01*
Y2937484D01*
X6343127Y2887500D02*
Y2927487D01*
X6353123D01*
X6363120Y2917490D01*
Y2887500D01*
Y2917490D01*
X6373117Y2927487D01*
X6383114Y2917490D01*
Y2887500D01*
X6403107D02*
X6423101D01*
X6413104D01*
Y2927487D01*
X6403107D01*
X6453091Y2887500D02*
X6473084D01*
X6463088D01*
Y2947481D01*
X6453091D01*
X6583049Y2887500D02*
X6563055Y2907494D01*
Y2927487D01*
X6583049Y2947481D01*
X6613039Y2887500D02*
X6633033D01*
X6623036D01*
Y2947481D01*
X6613039Y2937484D01*
X6663023Y2887500D02*
Y2897497D01*
X6673020D01*
Y2887500D01*
X6663023D01*
X6713007Y2937484D02*
X6723004Y2947481D01*
X6742997D01*
X6752994Y2937484D01*
Y2927487D01*
X6742997Y2917490D01*
X6733000D01*
X6742997D01*
X6752994Y2907494D01*
Y2897497D01*
X6742997Y2887500D01*
X6723004D01*
X6713007Y2897497D01*
X6772987D02*
X6782984Y2887500D01*
X6802978D01*
X6812975Y2897497D01*
Y2937484D01*
X6802978Y2947481D01*
X6782984D01*
X6772987Y2937484D01*
Y2927487D01*
X6782984Y2917490D01*
X6812975D01*
X6832968Y2947481D02*
X6872955D01*
Y2937484D01*
X6832968Y2897497D01*
Y2887500D01*
X6892949D02*
Y2927487D01*
X6902945D01*
X6912942Y2917490D01*
Y2887500D01*
Y2917490D01*
X6922939Y2927487D01*
X6932936Y2917490D01*
Y2887500D01*
X6952929D02*
Y2927487D01*
X6962926D01*
X6972923Y2917490D01*
Y2887500D01*
Y2917490D01*
X6982919Y2927487D01*
X6992916Y2917490D01*
Y2887500D01*
X7012910D02*
X7032903Y2907494D01*
Y2927487D01*
X7012910Y2947481D01*
X6053220Y2737500D02*
X6073214D01*
X6063217D01*
Y2797481D01*
X6053220Y2787484D01*
X6103204D02*
X6113201Y2797481D01*
X6133194D01*
X6143191Y2787484D01*
Y2747497D01*
X6133194Y2737500D01*
X6113201D01*
X6103204Y2747497D01*
Y2787484D01*
X6163185D02*
X6173182Y2797481D01*
X6193175D01*
X6203172Y2787484D01*
Y2777487D01*
X6193175Y2767490D01*
X6203172Y2757494D01*
Y2747497D01*
X6193175Y2737500D01*
X6173182D01*
X6163185Y2747497D01*
Y2757494D01*
X6173182Y2767490D01*
X6163185Y2777487D01*
Y2787484D01*
X6173182Y2767490D02*
X6193175D01*
X6223165Y2737500D02*
Y2747497D01*
X6233162D01*
Y2737500D01*
X6223165D01*
X6313136D02*
X6273149D01*
X6313136Y2777487D01*
Y2787484D01*
X6303140Y2797481D01*
X6283146D01*
X6273149Y2787484D01*
X6333130Y2797481D02*
X6373117D01*
Y2787484D01*
X6333130Y2747497D01*
Y2737500D01*
X6393110D02*
Y2777487D01*
X6403107D01*
X6413104Y2767490D01*
Y2737500D01*
Y2767490D01*
X6423101Y2777487D01*
X6433097Y2767490D01*
Y2737500D01*
X6453091D02*
X6473084D01*
X6463088D01*
Y2777487D01*
X6453091D01*
X6503075Y2737500D02*
X6523068D01*
X6513072D01*
Y2797481D01*
X6503075D01*
X6633033Y2737500D02*
X6613039Y2757494D01*
Y2777487D01*
X6633033Y2797481D01*
X6703010Y2737500D02*
X6663023D01*
X6703010Y2777487D01*
Y2787484D01*
X6693013Y2797481D01*
X6673020D01*
X6663023Y2787484D01*
X6723004Y2737500D02*
Y2747497D01*
X6733000D01*
Y2737500D01*
X6723004D01*
X6772987Y2797481D02*
X6812975D01*
Y2787484D01*
X6772987Y2747497D01*
Y2737500D01*
X6872955Y2797481D02*
X6832968D01*
Y2767490D01*
X6852962Y2777487D01*
X6862958D01*
X6872955Y2767490D01*
Y2747497D01*
X6862958Y2737500D01*
X6842965D01*
X6832968Y2747497D01*
X6892949Y2787484D02*
X6902945Y2797481D01*
X6922939D01*
X6932936Y2787484D01*
Y2747497D01*
X6922939Y2737500D01*
X6902945D01*
X6892949Y2747497D01*
Y2787484D01*
X6952929Y2737500D02*
Y2777487D01*
X6962926D01*
X6972923Y2767490D01*
Y2737500D01*
Y2767490D01*
X6982919Y2777487D01*
X6992916Y2767490D01*
Y2737500D01*
X7012910D02*
Y2777487D01*
X7022907D01*
X7032903Y2767490D01*
Y2737500D01*
Y2767490D01*
X7042900Y2777487D01*
X7052897Y2767490D01*
Y2737500D01*
X7072890D02*
X7092884Y2757494D01*
Y2777487D01*
X7072890Y2797481D01*
X6053220Y2637484D02*
X6063217Y2647481D01*
X6083211D01*
X6093208Y2637484D01*
Y2627487D01*
X6083211Y2617490D01*
X6073214D01*
X6083211D01*
X6093208Y2607494D01*
Y2597497D01*
X6083211Y2587500D01*
X6063217D01*
X6053220Y2597497D01*
X6153188Y2647481D02*
X6113201D01*
Y2617490D01*
X6133194Y2627487D01*
X6143191D01*
X6153188Y2617490D01*
Y2597497D01*
X6143191Y2587500D01*
X6123198D01*
X6113201Y2597497D01*
X6173182Y2587500D02*
Y2597497D01*
X6183178D01*
Y2587500D01*
X6173182D01*
X6253156D02*
Y2647481D01*
X6223165Y2617490D01*
X6263153D01*
X6283146Y2637484D02*
X6293143Y2647481D01*
X6313136D01*
X6323133Y2637484D01*
Y2627487D01*
X6313136Y2617490D01*
X6303140D01*
X6313136D01*
X6323133Y2607494D01*
Y2597497D01*
X6313136Y2587500D01*
X6293143D01*
X6283146Y2597497D01*
X6343127Y2587500D02*
Y2627487D01*
X6353123D01*
X6363120Y2617490D01*
Y2587500D01*
Y2617490D01*
X6373117Y2627487D01*
X6383114Y2617490D01*
Y2587500D01*
X6403107D02*
X6423101D01*
X6413104D01*
Y2627487D01*
X6403107D01*
X6453091Y2587500D02*
X6473084D01*
X6463088D01*
Y2647481D01*
X6453091D01*
X6583049Y2587500D02*
X6563055Y2607494D01*
Y2627487D01*
X6583049Y2647481D01*
X6613039Y2637484D02*
X6623036Y2647481D01*
X6643029D01*
X6653026Y2637484D01*
Y2597497D01*
X6643029Y2587500D01*
X6623036D01*
X6613039Y2597497D01*
Y2637484D01*
X6673020Y2587500D02*
Y2597497D01*
X6683017D01*
Y2587500D01*
X6673020D01*
X6723004Y2597497D02*
X6733000Y2587500D01*
X6752994D01*
X6762991Y2597497D01*
Y2637484D01*
X6752994Y2647481D01*
X6733000D01*
X6723004Y2637484D01*
Y2627487D01*
X6733000Y2617490D01*
X6762991D01*
X6782984Y2637484D02*
X6792981Y2647481D01*
X6812975D01*
X6822971Y2637484D01*
Y2597497D01*
X6812975Y2587500D01*
X6792981D01*
X6782984Y2597497D01*
Y2637484D01*
X6842965D02*
X6852962Y2647481D01*
X6872955D01*
X6882952Y2637484D01*
Y2597497D01*
X6872955Y2587500D01*
X6852962D01*
X6842965Y2597497D01*
Y2637484D01*
X6902945Y2587500D02*
Y2627487D01*
X6912942D01*
X6922939Y2617490D01*
Y2587500D01*
Y2617490D01*
X6932936Y2627487D01*
X6942932Y2617490D01*
Y2587500D01*
X6962926D02*
Y2627487D01*
X6972923D01*
X6982919Y2617490D01*
Y2587500D01*
Y2617490D01*
X6992916Y2627487D01*
X7002913Y2617490D01*
Y2587500D01*
X7022907D02*
X7042900Y2607494D01*
Y2627487D01*
X7022907Y2647481D01*
X6053220Y2437500D02*
X6073214D01*
X6063217D01*
Y2497481D01*
X6053220Y2487484D01*
X6103204D02*
X6113201Y2497481D01*
X6133194D01*
X6143191Y2487484D01*
Y2447497D01*
X6133194Y2437500D01*
X6113201D01*
X6103204Y2447497D01*
Y2487484D01*
X6163185D02*
X6173182Y2497481D01*
X6193175D01*
X6203172Y2487484D01*
Y2447497D01*
X6193175Y2437500D01*
X6173182D01*
X6163185Y2447497D01*
Y2487484D01*
X6223165Y2437500D02*
Y2447497D01*
X6233162D01*
Y2437500D01*
X6223165D01*
X6273149Y2487484D02*
X6283146Y2497481D01*
X6303140D01*
X6313136Y2487484D01*
Y2447497D01*
X6303140Y2437500D01*
X6283146D01*
X6273149Y2447497D01*
Y2487484D01*
X6333130D02*
X6343127Y2497481D01*
X6363120D01*
X6373117Y2487484D01*
Y2447497D01*
X6363120Y2437500D01*
X6343127D01*
X6333130Y2447497D01*
Y2487484D01*
X6393110Y2437500D02*
Y2477487D01*
X6403107D01*
X6413104Y2467490D01*
Y2437500D01*
Y2467490D01*
X6423101Y2477487D01*
X6433097Y2467490D01*
Y2437500D01*
X6453091D02*
X6473084D01*
X6463088D01*
Y2477487D01*
X6453091D01*
X6503075Y2437500D02*
X6523068D01*
X6513072D01*
Y2497481D01*
X6503075D01*
X6633033Y2437500D02*
X6613039Y2457494D01*
Y2477487D01*
X6633033Y2497481D01*
X6703010Y2437500D02*
X6663023D01*
X6703010Y2477487D01*
Y2487484D01*
X6693013Y2497481D01*
X6673020D01*
X6663023Y2487484D01*
X6723004Y2437500D02*
Y2447497D01*
X6733000D01*
Y2437500D01*
X6723004D01*
X6812975Y2497481D02*
X6772987D01*
Y2467490D01*
X6792981Y2477487D01*
X6802978D01*
X6812975Y2467490D01*
Y2447497D01*
X6802978Y2437500D01*
X6782984D01*
X6772987Y2447497D01*
X6862958Y2437500D02*
Y2497481D01*
X6832968Y2467490D01*
X6872955D01*
X6892949Y2487484D02*
X6902945Y2497481D01*
X6922939D01*
X6932936Y2487484D01*
Y2447497D01*
X6922939Y2437500D01*
X6902945D01*
X6892949Y2447497D01*
Y2487484D01*
X6952929Y2437500D02*
Y2477487D01*
X6962926D01*
X6972923Y2467490D01*
Y2437500D01*
Y2467490D01*
X6982919Y2477487D01*
X6992916Y2467490D01*
Y2437500D01*
X7012910D02*
Y2477487D01*
X7022907D01*
X7032903Y2467490D01*
Y2437500D01*
Y2467490D01*
X7042900Y2477487D01*
X7052897Y2467490D01*
Y2437500D01*
X7072890D02*
X7092884Y2457494D01*
Y2477487D01*
X7072890Y2497481D01*
X6053220Y2347481D02*
X6093208D01*
Y2337484D01*
X6053220Y2297497D01*
Y2287500D01*
X6153188Y2347481D02*
X6113201D01*
Y2317490D01*
X6133194Y2327487D01*
X6143191D01*
X6153188Y2317490D01*
Y2297497D01*
X6143191Y2287500D01*
X6123198D01*
X6113201Y2297497D01*
X6173182Y2287500D02*
Y2297497D01*
X6183178D01*
Y2287500D01*
X6173182D01*
X6223165Y2337484D02*
X6233162Y2347481D01*
X6253156D01*
X6263153Y2337484D01*
Y2297497D01*
X6253156Y2287500D01*
X6233162D01*
X6223165Y2297497D01*
Y2337484D01*
X6283146D02*
X6293143Y2347481D01*
X6313136D01*
X6323133Y2337484D01*
Y2297497D01*
X6313136Y2287500D01*
X6293143D01*
X6283146Y2297497D01*
Y2337484D01*
X6343127Y2287500D02*
Y2327487D01*
X6353123D01*
X6363120Y2317490D01*
Y2287500D01*
Y2317490D01*
X6373117Y2327487D01*
X6383114Y2317490D01*
Y2287500D01*
X6403107D02*
X6423101D01*
X6413104D01*
Y2327487D01*
X6403107D01*
X6453091Y2287500D02*
X6473084D01*
X6463088D01*
Y2347481D01*
X6453091D01*
X6583049Y2287500D02*
X6563055Y2307494D01*
Y2327487D01*
X6583049Y2347481D01*
X6613039Y2287500D02*
X6633033D01*
X6623036D01*
Y2347481D01*
X6613039Y2337484D01*
X6663023Y2287500D02*
Y2297497D01*
X6673020D01*
Y2287500D01*
X6663023D01*
X6713007Y2297497D02*
X6723004Y2287500D01*
X6742997D01*
X6752994Y2297497D01*
Y2337484D01*
X6742997Y2347481D01*
X6723004D01*
X6713007Y2337484D01*
Y2327487D01*
X6723004Y2317490D01*
X6752994D01*
X6772987Y2337484D02*
X6782984Y2347481D01*
X6802978D01*
X6812975Y2337484D01*
Y2297497D01*
X6802978Y2287500D01*
X6782984D01*
X6772987Y2297497D01*
Y2337484D01*
X6872955Y2347481D02*
X6832968D01*
Y2317490D01*
X6852962Y2327487D01*
X6862958D01*
X6872955Y2317490D01*
Y2297497D01*
X6862958Y2287500D01*
X6842965D01*
X6832968Y2297497D01*
X6892949Y2287500D02*
Y2327487D01*
X6902945D01*
X6912942Y2317490D01*
Y2287500D01*
Y2317490D01*
X6922939Y2327487D01*
X6932936Y2317490D01*
Y2287500D01*
X6952929D02*
Y2327487D01*
X6962926D01*
X6972923Y2317490D01*
Y2287500D01*
Y2317490D01*
X6982919Y2327487D01*
X6992916Y2317490D01*
Y2287500D01*
X7012910D02*
X7032903Y2307494D01*
Y2327487D01*
X7012910Y2347481D01*
X6083211Y2137500D02*
Y2197481D01*
X6053220Y2167490D01*
X6093208D01*
X6113201Y2187484D02*
X6123198Y2197481D01*
X6143191D01*
X6153188Y2187484D01*
Y2147497D01*
X6143191Y2137500D01*
X6123198D01*
X6113201Y2147497D01*
Y2187484D01*
X6173182Y2137500D02*
Y2147497D01*
X6183178D01*
Y2137500D01*
X6173182D01*
X6223165Y2187484D02*
X6233162Y2197481D01*
X6253156D01*
X6263153Y2187484D01*
Y2147497D01*
X6253156Y2137500D01*
X6233162D01*
X6223165Y2147497D01*
Y2187484D01*
X6283146D02*
X6293143Y2197481D01*
X6313136D01*
X6323133Y2187484D01*
Y2147497D01*
X6313136Y2137500D01*
X6293143D01*
X6283146Y2147497D01*
Y2187484D01*
X6343127Y2137500D02*
Y2177487D01*
X6353123D01*
X6363120Y2167490D01*
Y2137500D01*
Y2167490D01*
X6373117Y2177487D01*
X6383114Y2167490D01*
Y2137500D01*
X6403107D02*
X6423101D01*
X6413104D01*
Y2177487D01*
X6403107D01*
X6453091Y2137500D02*
X6473084D01*
X6463088D01*
Y2197481D01*
X6453091D01*
X6583049Y2137500D02*
X6563055Y2157494D01*
Y2177487D01*
X6583049Y2197481D01*
X6613039Y2137500D02*
X6633033D01*
X6623036D01*
Y2197481D01*
X6613039Y2187484D01*
X6663023Y2137500D02*
Y2147497D01*
X6673020D01*
Y2137500D01*
X6663023D01*
X6713007Y2187484D02*
X6723004Y2197481D01*
X6742997D01*
X6752994Y2187484D01*
Y2147497D01*
X6742997Y2137500D01*
X6723004D01*
X6713007Y2147497D01*
Y2187484D01*
X6772987Y2137500D02*
X6792981D01*
X6782984D01*
Y2197481D01*
X6772987Y2187484D01*
X6862958Y2197481D02*
X6842965Y2187484D01*
X6822971Y2167490D01*
Y2147497D01*
X6832968Y2137500D01*
X6852962D01*
X6862958Y2147497D01*
Y2157494D01*
X6852962Y2167490D01*
X6822971D01*
X6882952Y2137500D02*
Y2177487D01*
X6892949D01*
X6902945Y2167490D01*
Y2137500D01*
Y2167490D01*
X6912942Y2177487D01*
X6922939Y2167490D01*
Y2137500D01*
X6942932D02*
Y2177487D01*
X6952929D01*
X6962926Y2167490D01*
Y2137500D01*
Y2167490D01*
X6972923Y2177487D01*
X6982919Y2167490D01*
Y2137500D01*
X7002913D02*
X7022907Y2157494D01*
Y2177487D01*
X7002913Y2197481D01*
X6053220Y1987500D02*
X6073214D01*
X6063217D01*
Y2047481D01*
X6053220Y2037484D01*
X6103204D02*
X6113201Y2047481D01*
X6133194D01*
X6143191Y2037484D01*
Y1997497D01*
X6133194Y1987500D01*
X6113201D01*
X6103204Y1997497D01*
Y2037484D01*
X6163185Y1987500D02*
Y1997497D01*
X6173182D01*
Y1987500D01*
X6163185D01*
X6213169Y2037484D02*
X6223165Y2047481D01*
X6243159D01*
X6253156Y2037484D01*
Y1997497D01*
X6243159Y1987500D01*
X6223165D01*
X6213169Y1997497D01*
Y2037484D01*
X6273149D02*
X6283146Y2047481D01*
X6303140D01*
X6313136Y2037484D01*
Y1997497D01*
X6303140Y1987500D01*
X6283146D01*
X6273149Y1997497D01*
Y2037484D01*
X6333130Y1987500D02*
Y2027487D01*
X6343127D01*
X6353123Y2017490D01*
Y1987500D01*
Y2017490D01*
X6363120Y2027487D01*
X6373117Y2017490D01*
Y1987500D01*
X6393110D02*
X6413104D01*
X6403107D01*
Y2027487D01*
X6393110D01*
X6443094Y1987500D02*
X6463088D01*
X6453091D01*
Y2047481D01*
X6443094D01*
X6573052Y1987500D02*
X6553059Y2007494D01*
Y2027487D01*
X6573052Y2047481D01*
X6603042Y2037484D02*
X6613039Y2047481D01*
X6633033D01*
X6643029Y2037484D01*
Y1997497D01*
X6633033Y1987500D01*
X6613039D01*
X6603042Y1997497D01*
Y2037484D01*
X6663023Y1987500D02*
Y1997497D01*
X6673020D01*
Y1987500D01*
X6663023D01*
X6752994D02*
X6713007D01*
X6752994Y2027487D01*
Y2037484D01*
X6742997Y2047481D01*
X6723004D01*
X6713007Y2037484D01*
X6812975Y2047481D02*
X6772987D01*
Y2017490D01*
X6792981Y2027487D01*
X6802978D01*
X6812975Y2017490D01*
Y1997497D01*
X6802978Y1987500D01*
X6782984D01*
X6772987Y1997497D01*
X6862958Y1987500D02*
Y2047481D01*
X6832968Y2017490D01*
X6872955D01*
X6892949Y1987500D02*
Y2027487D01*
X6902945D01*
X6912942Y2017490D01*
Y1987500D01*
Y2017490D01*
X6922939Y2027487D01*
X6932936Y2017490D01*
Y1987500D01*
X6952929D02*
Y2027487D01*
X6962926D01*
X6972923Y2017490D01*
Y1987500D01*
Y2017490D01*
X6982919Y2027487D01*
X6992916Y2017490D01*
Y1987500D01*
X7012910D02*
X7032903Y2007494D01*
Y2027487D01*
X7012910Y2047481D01*
X5463376Y1837500D02*
X5483369D01*
X5473373D01*
Y1897481D01*
X5463376Y1887484D01*
X5543350Y1837500D02*
Y1897481D01*
X5513359Y1867490D01*
X5553347D01*
X5573340Y1887484D02*
X5583337Y1897481D01*
X5603330D01*
X5613327Y1887484D01*
Y1877487D01*
X5603330Y1867490D01*
X5593334D01*
X5603330D01*
X5613327Y1857494D01*
Y1847497D01*
X5603330Y1837500D01*
X5583337D01*
X5573340Y1847497D01*
X5693301Y1897481D02*
X5733288D01*
X5713295D01*
Y1837500D01*
X5763279D02*
X5783272D01*
X5793269Y1847497D01*
Y1867490D01*
X5783272Y1877487D01*
X5763279D01*
X5753282Y1867490D01*
Y1847497D01*
X5763279Y1837500D01*
X5823259Y1887484D02*
Y1877487D01*
X5813262D01*
X5833256D01*
X5823259D01*
Y1847497D01*
X5833256Y1837500D01*
X5873243Y1877487D02*
X5893237D01*
X5903233Y1867490D01*
Y1837500D01*
X5873243D01*
X5863246Y1847497D01*
X5873243Y1857494D01*
X5903233D01*
X5923227Y1837500D02*
X5943220D01*
X5933224D01*
Y1897481D01*
X5923227D01*
X5463376Y3487500D02*
X5483369D01*
X5473373D01*
Y3547481D01*
X5463376Y3537484D01*
Y3337500D02*
X5483369D01*
X5473373D01*
Y3397481D01*
X5463376Y3387484D01*
X5503363Y3187500D02*
X5463376D01*
X5503363Y3227487D01*
Y3237484D01*
X5493366Y3247481D01*
X5473373D01*
X5463376Y3237484D01*
Y3087484D02*
X5473373Y3097481D01*
X5493366D01*
X5503363Y3087484D01*
Y3077487D01*
X5493366Y3067490D01*
X5483369D01*
X5493366D01*
X5503363Y3057494D01*
Y3047497D01*
X5493366Y3037500D01*
X5473373D01*
X5463376Y3047497D01*
X5493366Y2887500D02*
Y2947481D01*
X5463376Y2917490D01*
X5503363D01*
X5493366Y2737500D02*
Y2797481D01*
X5463376Y2767490D01*
X5503363D01*
Y2647481D02*
X5483369Y2637484D01*
X5463376Y2617490D01*
Y2597497D01*
X5473373Y2587500D01*
X5493366D01*
X5503363Y2597497D01*
Y2607494D01*
X5493366Y2617490D01*
X5463376D01*
X5503363Y2497481D02*
X5483369Y2487484D01*
X5463376Y2467490D01*
Y2447497D01*
X5473373Y2437500D01*
X5493366D01*
X5503363Y2447497D01*
Y2457494D01*
X5493366Y2467490D01*
X5463376D01*
Y2337484D02*
X5473373Y2347481D01*
X5493366D01*
X5503363Y2337484D01*
Y2327487D01*
X5493366Y2317490D01*
X5503363Y2307494D01*
Y2297497D01*
X5493366Y2287500D01*
X5473373D01*
X5463376Y2297497D01*
Y2307494D01*
X5473373Y2317490D01*
X5463376Y2327487D01*
Y2337484D01*
X5473373Y2317490D02*
X5493366D01*
X5503363Y2137500D02*
X5463376D01*
X5503363Y2177487D01*
Y2187484D01*
X5493366Y2197481D01*
X5473373D01*
X5463376Y2187484D01*
X5523356Y2147497D02*
X5533353Y2137500D01*
X5553347D01*
X5563343Y2147497D01*
Y2187484D01*
X5553347Y2197481D01*
X5533353D01*
X5523356Y2187484D01*
Y2177487D01*
X5533353Y2167490D01*
X5563343D01*
X5463376Y2047481D02*
X5503363D01*
Y2037484D01*
X5463376Y1997497D01*
Y1987500D01*
X5523356Y1997497D02*
X5533353Y1987500D01*
X5553347D01*
X5563343Y1997497D01*
Y2037484D01*
X5553347Y2047481D01*
X5533353D01*
X5523356Y2037484D01*
Y2027487D01*
X5533353Y2017490D01*
X5563343D01*
D74*
X70000Y1410000D02*
G03*
X70000Y1410000I-10000J0D01*
G01*
X76667D02*
G03*
X76667Y1410000I-16667J0D01*
G01*
X1066667Y1850000D02*
G03*
X1066667Y1850000I-16667J0D01*
G01*
X1166667D02*
G03*
X1166667Y1850000I-16667J0D01*
G01*
X1266667D02*
G03*
X1266667Y1850000I-16667J0D01*
G01*
X266667Y1810000D02*
G03*
X266667Y1810000I-16667J0D01*
G01*
X366667D02*
G03*
X366667Y1810000I-16667J0D01*
G01*
X466667D02*
G03*
X466667Y1810000I-16667J0D01*
G01*
X845000Y1470000D02*
X865000D01*
Y1490000D01*
X845000D02*
X865000D01*
X845000Y1470000D02*
Y1490000D01*
X838333Y1463333D02*
X871667D01*
Y1496667D01*
X838333D02*
X871667D01*
X838333Y1463333D02*
Y1496667D01*
X423333Y1871667D02*
X431667D01*
X423333D02*
Y1888333D01*
X431667D01*
Y1896667D01*
X448333D01*
Y1888333D02*
Y1896667D01*
Y1888333D02*
X456667D01*
Y1871667D02*
Y1888333D01*
X448333Y1871667D02*
X456667D01*
X448333Y1863333D02*
Y1871667D01*
X431667Y1863333D02*
X448333D01*
X431667D02*
Y1871667D01*
X443333Y1911667D02*
X451667D01*
X443333D02*
Y1928333D01*
X451667D01*
Y1936667D01*
X468333D01*
Y1928333D02*
Y1936667D01*
Y1928333D02*
X476667D01*
Y1911667D02*
Y1928333D01*
X468333Y1911667D02*
X476667D01*
X468333Y1903333D02*
Y1911667D01*
X451667Y1903333D02*
X468333D01*
X451667D02*
Y1911667D01*
X423333Y1951667D02*
X431667D01*
X423333D02*
Y1968333D01*
X431667D01*
Y1976667D01*
X448333D01*
Y1968333D02*
Y1976667D01*
Y1968333D02*
X456667D01*
Y1951667D02*
Y1968333D01*
X448333Y1951667D02*
X456667D01*
X448333Y1943333D02*
Y1951667D01*
X431667Y1943333D02*
X448333D01*
X431667D02*
Y1951667D01*
X443333Y1991667D02*
X451667D01*
X443333D02*
Y2008333D01*
X451667D01*
Y2016667D01*
X468333D01*
Y2008333D02*
Y2016667D01*
Y2008333D02*
X476667D01*
Y1991667D02*
Y2008333D01*
X468333Y1991667D02*
X476667D01*
X468333Y1983333D02*
Y1991667D01*
X451667Y1983333D02*
X468333D01*
X451667D02*
Y1991667D01*
X483333Y1831667D02*
X491667D01*
X483333D02*
Y1848333D01*
X491667D01*
Y1856667D01*
X508333D01*
Y1848333D02*
Y1856667D01*
Y1848333D02*
X516667D01*
Y1831667D02*
Y1848333D01*
X508333Y1831667D02*
X516667D01*
X508333Y1823333D02*
Y1831667D01*
X491667Y1823333D02*
X508333D01*
X491667D02*
Y1831667D01*
X463333Y1871667D02*
X471667D01*
X463333D02*
Y1888333D01*
X471667D01*
Y1896667D01*
X488333D01*
Y1888333D02*
Y1896667D01*
Y1888333D02*
X496667D01*
Y1871667D02*
Y1888333D01*
X488333Y1871667D02*
X496667D01*
X488333Y1863333D02*
Y1871667D01*
X471667Y1863333D02*
X488333D01*
X471667D02*
Y1871667D01*
X483333Y1911667D02*
X491667D01*
X483333D02*
Y1928333D01*
X491667D01*
Y1936667D01*
X508333D01*
Y1928333D02*
Y1936667D01*
Y1928333D02*
X516667D01*
Y1911667D02*
Y1928333D01*
X508333Y1911667D02*
X516667D01*
X508333Y1903333D02*
Y1911667D01*
X491667Y1903333D02*
X508333D01*
X491667D02*
Y1911667D01*
X463333Y1951667D02*
X471667D01*
X463333D02*
Y1968333D01*
X471667D01*
Y1976667D01*
X488333D01*
Y1968333D02*
Y1976667D01*
Y1968333D02*
X496667D01*
Y1951667D02*
Y1968333D01*
X488333Y1951667D02*
X496667D01*
X488333Y1943333D02*
Y1951667D01*
X471667Y1943333D02*
X488333D01*
X471667D02*
Y1951667D01*
X483333Y1991667D02*
X491667D01*
X483333D02*
Y2008333D01*
X491667D01*
Y2016667D01*
X508333D01*
Y2008333D02*
Y2016667D01*
Y2008333D02*
X516667D01*
Y1991667D02*
Y2008333D01*
X508333Y1991667D02*
X516667D01*
X508333Y1983333D02*
Y1991667D01*
X491667Y1983333D02*
X508333D01*
X491667D02*
Y1991667D01*
X503333Y1791667D02*
X511667D01*
X503333D02*
Y1808333D01*
X511667D01*
Y1816667D01*
X528333D01*
Y1808333D02*
Y1816667D01*
Y1808333D02*
X536667D01*
Y1791667D02*
Y1808333D01*
X528333Y1791667D02*
X536667D01*
X528333Y1783333D02*
Y1791667D01*
X511667Y1783333D02*
X528333D01*
X511667D02*
Y1791667D01*
X523333Y1831667D02*
X531667D01*
X523333D02*
Y1848333D01*
X531667D01*
Y1856667D01*
X548333D01*
Y1848333D02*
Y1856667D01*
Y1848333D02*
X556667D01*
Y1831667D02*
Y1848333D01*
X548333Y1831667D02*
X556667D01*
X548333Y1823333D02*
Y1831667D01*
X531667Y1823333D02*
X548333D01*
X531667D02*
Y1831667D01*
X503333Y1871667D02*
X511667D01*
X503333D02*
Y1888333D01*
X511667D01*
Y1896667D01*
X528333D01*
Y1888333D02*
Y1896667D01*
Y1888333D02*
X536667D01*
Y1871667D02*
Y1888333D01*
X528333Y1871667D02*
X536667D01*
X528333Y1863333D02*
Y1871667D01*
X511667Y1863333D02*
X528333D01*
X511667D02*
Y1871667D01*
X523333Y1911667D02*
X531667D01*
X523333D02*
Y1928333D01*
X531667D01*
Y1936667D01*
X548333D01*
Y1928333D02*
Y1936667D01*
Y1928333D02*
X556667D01*
Y1911667D02*
Y1928333D01*
X548333Y1911667D02*
X556667D01*
X548333Y1903333D02*
Y1911667D01*
X531667Y1903333D02*
X548333D01*
X531667D02*
Y1911667D01*
X503333Y1951667D02*
X511667D01*
X503333D02*
Y1968333D01*
X511667D01*
Y1976667D01*
X528333D01*
Y1968333D02*
Y1976667D01*
Y1968333D02*
X536667D01*
Y1951667D02*
Y1968333D01*
X528333Y1951667D02*
X536667D01*
X528333Y1943333D02*
Y1951667D01*
X511667Y1943333D02*
X528333D01*
X511667D02*
Y1951667D01*
X523333Y1991667D02*
X531667D01*
X523333D02*
Y2008333D01*
X531667D01*
Y2016667D01*
X548333D01*
Y2008333D02*
Y2016667D01*
Y2008333D02*
X556667D01*
Y1991667D02*
Y2008333D01*
X548333Y1991667D02*
X556667D01*
X548333Y1983333D02*
Y1991667D01*
X531667Y1983333D02*
X548333D01*
X531667D02*
Y1991667D01*
X543333Y1791667D02*
X551667D01*
X543333D02*
Y1808333D01*
X551667D01*
Y1816667D01*
X568333D01*
Y1808333D02*
Y1816667D01*
Y1808333D02*
X576667D01*
Y1791667D02*
Y1808333D01*
X568333Y1791667D02*
X576667D01*
X568333Y1783333D02*
Y1791667D01*
X551667Y1783333D02*
X568333D01*
X551667D02*
Y1791667D01*
X563333Y1831667D02*
X571667D01*
X563333D02*
Y1848333D01*
X571667D01*
Y1856667D01*
X588333D01*
Y1848333D02*
Y1856667D01*
Y1848333D02*
X596667D01*
Y1831667D02*
Y1848333D01*
X588333Y1831667D02*
X596667D01*
X588333Y1823333D02*
Y1831667D01*
X571667Y1823333D02*
X588333D01*
X571667D02*
Y1831667D01*
X543333Y1871667D02*
X551667D01*
X543333D02*
Y1888333D01*
X551667D01*
Y1896667D01*
X568333D01*
Y1888333D02*
Y1896667D01*
Y1888333D02*
X576667D01*
Y1871667D02*
Y1888333D01*
X568333Y1871667D02*
X576667D01*
X568333Y1863333D02*
Y1871667D01*
X551667Y1863333D02*
X568333D01*
X551667D02*
Y1871667D01*
X563333Y1911667D02*
X571667D01*
X563333D02*
Y1928333D01*
X571667D01*
Y1936667D01*
X588333D01*
Y1928333D02*
Y1936667D01*
Y1928333D02*
X596667D01*
Y1911667D02*
Y1928333D01*
X588333Y1911667D02*
X596667D01*
X588333Y1903333D02*
Y1911667D01*
X571667Y1903333D02*
X588333D01*
X571667D02*
Y1911667D01*
X543333Y1951667D02*
X551667D01*
X543333D02*
Y1968333D01*
X551667D01*
Y1976667D01*
X568333D01*
Y1968333D02*
Y1976667D01*
Y1968333D02*
X576667D01*
Y1951667D02*
Y1968333D01*
X568333Y1951667D02*
X576667D01*
X568333Y1943333D02*
Y1951667D01*
X551667Y1943333D02*
X568333D01*
X551667D02*
Y1951667D01*
X563333Y1991667D02*
X571667D01*
X563333D02*
Y2008333D01*
X571667D01*
Y2016667D01*
X588333D01*
Y2008333D02*
Y2016667D01*
Y2008333D02*
X596667D01*
Y1991667D02*
Y2008333D01*
X588333Y1991667D02*
X596667D01*
X588333Y1983333D02*
Y1991667D01*
X571667Y1983333D02*
X588333D01*
X571667D02*
Y1991667D01*
X583333Y1791667D02*
X591667D01*
X583333D02*
Y1808333D01*
X591667D01*
Y1816667D01*
X608333D01*
Y1808333D02*
Y1816667D01*
Y1808333D02*
X616667D01*
Y1791667D02*
Y1808333D01*
X608333Y1791667D02*
X616667D01*
X608333Y1783333D02*
Y1791667D01*
X591667Y1783333D02*
X608333D01*
X591667D02*
Y1791667D01*
X603333Y1831667D02*
X611667D01*
X603333D02*
Y1848333D01*
X611667D01*
Y1856667D01*
X628333D01*
Y1848333D02*
Y1856667D01*
Y1848333D02*
X636667D01*
Y1831667D02*
Y1848333D01*
X628333Y1831667D02*
X636667D01*
X628333Y1823333D02*
Y1831667D01*
X611667Y1823333D02*
X628333D01*
X611667D02*
Y1831667D01*
X583333Y1871667D02*
X591667D01*
X583333D02*
Y1888333D01*
X591667D01*
Y1896667D01*
X608333D01*
Y1888333D02*
Y1896667D01*
Y1888333D02*
X616667D01*
Y1871667D02*
Y1888333D01*
X608333Y1871667D02*
X616667D01*
X608333Y1863333D02*
Y1871667D01*
X591667Y1863333D02*
X608333D01*
X591667D02*
Y1871667D01*
X603333Y1911667D02*
X611667D01*
X603333D02*
Y1928333D01*
X611667D01*
Y1936667D01*
X628333D01*
Y1928333D02*
Y1936667D01*
Y1928333D02*
X636667D01*
Y1911667D02*
Y1928333D01*
X628333Y1911667D02*
X636667D01*
X628333Y1903333D02*
Y1911667D01*
X611667Y1903333D02*
X628333D01*
X611667D02*
Y1911667D01*
X583333Y1951667D02*
X591667D01*
X583333D02*
Y1968333D01*
X591667D01*
Y1976667D01*
X608333D01*
Y1968333D02*
Y1976667D01*
Y1968333D02*
X616667D01*
Y1951667D02*
Y1968333D01*
X608333Y1951667D02*
X616667D01*
X608333Y1943333D02*
Y1951667D01*
X591667Y1943333D02*
X608333D01*
X591667D02*
Y1951667D01*
X603333Y1991667D02*
X611667D01*
X603333D02*
Y2008333D01*
X611667D01*
Y2016667D01*
X628333D01*
Y2008333D02*
Y2016667D01*
Y2008333D02*
X636667D01*
Y1991667D02*
Y2008333D01*
X628333Y1991667D02*
X636667D01*
X628333Y1983333D02*
Y1991667D01*
X611667Y1983333D02*
X628333D01*
X611667D02*
Y1991667D01*
X583333Y2031667D02*
X591667D01*
X583333D02*
Y2048333D01*
X591667D01*
Y2056667D01*
X608333D01*
Y2048333D02*
Y2056667D01*
Y2048333D02*
X616667D01*
Y2031667D02*
Y2048333D01*
X608333Y2031667D02*
X616667D01*
X608333Y2023333D02*
Y2031667D01*
X591667Y2023333D02*
X608333D01*
X591667D02*
Y2031667D01*
X623333Y1791667D02*
X631667D01*
X623333D02*
Y1808333D01*
X631667D01*
Y1816667D01*
X648333D01*
Y1808333D02*
Y1816667D01*
Y1808333D02*
X656667D01*
Y1791667D02*
Y1808333D01*
X648333Y1791667D02*
X656667D01*
X648333Y1783333D02*
Y1791667D01*
X631667Y1783333D02*
X648333D01*
X631667D02*
Y1791667D01*
X643333Y1831667D02*
X651667D01*
X643333D02*
Y1848333D01*
X651667D01*
Y1856667D01*
X668333D01*
Y1848333D02*
Y1856667D01*
Y1848333D02*
X676667D01*
Y1831667D02*
Y1848333D01*
X668333Y1831667D02*
X676667D01*
X668333Y1823333D02*
Y1831667D01*
X651667Y1823333D02*
X668333D01*
X651667D02*
Y1831667D01*
X623333Y1871667D02*
X631667D01*
X623333D02*
Y1888333D01*
X631667D01*
Y1896667D01*
X648333D01*
Y1888333D02*
Y1896667D01*
Y1888333D02*
X656667D01*
Y1871667D02*
Y1888333D01*
X648333Y1871667D02*
X656667D01*
X648333Y1863333D02*
Y1871667D01*
X631667Y1863333D02*
X648333D01*
X631667D02*
Y1871667D01*
X643333Y1911667D02*
X651667D01*
X643333D02*
Y1928333D01*
X651667D01*
Y1936667D01*
X668333D01*
Y1928333D02*
Y1936667D01*
Y1928333D02*
X676667D01*
Y1911667D02*
Y1928333D01*
X668333Y1911667D02*
X676667D01*
X668333Y1903333D02*
Y1911667D01*
X651667Y1903333D02*
X668333D01*
X651667D02*
Y1911667D01*
X623333Y1951667D02*
X631667D01*
X623333D02*
Y1968333D01*
X631667D01*
Y1976667D01*
X648333D01*
Y1968333D02*
Y1976667D01*
Y1968333D02*
X656667D01*
Y1951667D02*
Y1968333D01*
X648333Y1951667D02*
X656667D01*
X648333Y1943333D02*
Y1951667D01*
X631667Y1943333D02*
X648333D01*
X631667D02*
Y1951667D01*
X643333Y1991667D02*
X651667D01*
X643333D02*
Y2008333D01*
X651667D01*
Y2016667D01*
X668333D01*
Y2008333D02*
Y2016667D01*
Y2008333D02*
X676667D01*
Y1991667D02*
Y2008333D01*
X668333Y1991667D02*
X676667D01*
X668333Y1983333D02*
Y1991667D01*
X651667Y1983333D02*
X668333D01*
X651667D02*
Y1991667D01*
X623333Y2031667D02*
X631667D01*
X623333D02*
Y2048333D01*
X631667D01*
Y2056667D01*
X648333D01*
Y2048333D02*
Y2056667D01*
Y2048333D02*
X656667D01*
Y2031667D02*
Y2048333D01*
X648333Y2031667D02*
X656667D01*
X648333Y2023333D02*
Y2031667D01*
X631667Y2023333D02*
X648333D01*
X631667D02*
Y2031667D01*
X643333Y2071667D02*
X651667D01*
X643333D02*
Y2088333D01*
X651667D01*
Y2096667D01*
X668333D01*
Y2088333D02*
Y2096667D01*
Y2088333D02*
X676667D01*
Y2071667D02*
Y2088333D01*
X668333Y2071667D02*
X676667D01*
X668333Y2063333D02*
Y2071667D01*
X651667Y2063333D02*
X668333D01*
X651667D02*
Y2071667D01*
X663333Y1791667D02*
X671667D01*
X663333D02*
Y1808333D01*
X671667D01*
Y1816667D01*
X688333D01*
Y1808333D02*
Y1816667D01*
Y1808333D02*
X696667D01*
Y1791667D02*
Y1808333D01*
X688333Y1791667D02*
X696667D01*
X688333Y1783333D02*
Y1791667D01*
X671667Y1783333D02*
X688333D01*
X671667D02*
Y1791667D01*
X683333Y1831667D02*
X691667D01*
X683333D02*
Y1848333D01*
X691667D01*
Y1856667D01*
X708333D01*
Y1848333D02*
Y1856667D01*
Y1848333D02*
X716667D01*
Y1831667D02*
Y1848333D01*
X708333Y1831667D02*
X716667D01*
X708333Y1823333D02*
Y1831667D01*
X691667Y1823333D02*
X708333D01*
X691667D02*
Y1831667D01*
X663333Y1871667D02*
X671667D01*
X663333D02*
Y1888333D01*
X671667D01*
Y1896667D01*
X688333D01*
Y1888333D02*
Y1896667D01*
Y1888333D02*
X696667D01*
Y1871667D02*
Y1888333D01*
X688333Y1871667D02*
X696667D01*
X688333Y1863333D02*
Y1871667D01*
X671667Y1863333D02*
X688333D01*
X671667D02*
Y1871667D01*
X683333Y1911667D02*
X691667D01*
X683333D02*
Y1928333D01*
X691667D01*
Y1936667D01*
X708333D01*
Y1928333D02*
Y1936667D01*
Y1928333D02*
X716667D01*
Y1911667D02*
Y1928333D01*
X708333Y1911667D02*
X716667D01*
X708333Y1903333D02*
Y1911667D01*
X691667Y1903333D02*
X708333D01*
X691667D02*
Y1911667D01*
X663333Y1951667D02*
X671667D01*
X663333D02*
Y1968333D01*
X671667D01*
Y1976667D01*
X688333D01*
Y1968333D02*
Y1976667D01*
Y1968333D02*
X696667D01*
Y1951667D02*
Y1968333D01*
X688333Y1951667D02*
X696667D01*
X688333Y1943333D02*
Y1951667D01*
X671667Y1943333D02*
X688333D01*
X671667D02*
Y1951667D01*
X703333Y1791667D02*
X711667D01*
X703333D02*
Y1808333D01*
X711667D01*
Y1816667D01*
X728333D01*
Y1808333D02*
Y1816667D01*
Y1808333D02*
X736667D01*
Y1791667D02*
Y1808333D01*
X728333Y1791667D02*
X736667D01*
X728333Y1783333D02*
Y1791667D01*
X711667Y1783333D02*
X728333D01*
X711667D02*
Y1791667D01*
X723333Y1831667D02*
X731667D01*
X723333D02*
Y1848333D01*
X731667D01*
Y1856667D01*
X748333D01*
Y1848333D02*
Y1856667D01*
Y1848333D02*
X756667D01*
Y1831667D02*
Y1848333D01*
X748333Y1831667D02*
X756667D01*
X748333Y1823333D02*
Y1831667D01*
X731667Y1823333D02*
X748333D01*
X731667D02*
Y1831667D01*
X703333Y1871667D02*
X711667D01*
X703333D02*
Y1888333D01*
X711667D01*
Y1896667D01*
X728333D01*
Y1888333D02*
Y1896667D01*
Y1888333D02*
X736667D01*
Y1871667D02*
Y1888333D01*
X728333Y1871667D02*
X736667D01*
X728333Y1863333D02*
Y1871667D01*
X711667Y1863333D02*
X728333D01*
X711667D02*
Y1871667D01*
X723333Y1911667D02*
X731667D01*
X723333D02*
Y1928333D01*
X731667D01*
Y1936667D01*
X748333D01*
Y1928333D02*
Y1936667D01*
Y1928333D02*
X756667D01*
Y1911667D02*
Y1928333D01*
X748333Y1911667D02*
X756667D01*
X748333Y1903333D02*
Y1911667D01*
X731667Y1903333D02*
X748333D01*
X731667D02*
Y1911667D01*
X703333Y1951667D02*
X711667D01*
X703333D02*
Y1968333D01*
X711667D01*
Y1976667D01*
X728333D01*
Y1968333D02*
Y1976667D01*
Y1968333D02*
X736667D01*
Y1951667D02*
Y1968333D01*
X728333Y1951667D02*
X736667D01*
X728333Y1943333D02*
Y1951667D01*
X711667Y1943333D02*
X728333D01*
X711667D02*
Y1951667D01*
X743333Y1791667D02*
X751667D01*
X743333D02*
Y1808333D01*
X751667D01*
Y1816667D01*
X768333D01*
Y1808333D02*
Y1816667D01*
Y1808333D02*
X776667D01*
Y1791667D02*
Y1808333D01*
X768333Y1791667D02*
X776667D01*
X768333Y1783333D02*
Y1791667D01*
X751667Y1783333D02*
X768333D01*
X751667D02*
Y1791667D01*
X763333Y1831667D02*
X771667D01*
X763333D02*
Y1848333D01*
X771667D01*
Y1856667D01*
X788333D01*
Y1848333D02*
Y1856667D01*
Y1848333D02*
X796667D01*
Y1831667D02*
Y1848333D01*
X788333Y1831667D02*
X796667D01*
X788333Y1823333D02*
Y1831667D01*
X771667Y1823333D02*
X788333D01*
X771667D02*
Y1831667D01*
X743333Y1871667D02*
X751667D01*
X743333D02*
Y1888333D01*
X751667D01*
Y1896667D01*
X768333D01*
Y1888333D02*
Y1896667D01*
Y1888333D02*
X776667D01*
Y1871667D02*
Y1888333D01*
X768333Y1871667D02*
X776667D01*
X768333Y1863333D02*
Y1871667D01*
X751667Y1863333D02*
X768333D01*
X751667D02*
Y1871667D01*
X763333Y1911667D02*
X771667D01*
X763333D02*
Y1928333D01*
X771667D01*
Y1936667D01*
X788333D01*
Y1928333D02*
Y1936667D01*
Y1928333D02*
X796667D01*
Y1911667D02*
Y1928333D01*
X788333Y1911667D02*
X796667D01*
X788333Y1903333D02*
Y1911667D01*
X771667Y1903333D02*
X788333D01*
X771667D02*
Y1911667D01*
X743333Y1951667D02*
X751667D01*
X743333D02*
Y1968333D01*
X751667D01*
Y1976667D01*
X768333D01*
Y1968333D02*
Y1976667D01*
Y1968333D02*
X776667D01*
Y1951667D02*
Y1968333D01*
X768333Y1951667D02*
X776667D01*
X768333Y1943333D02*
Y1951667D01*
X751667Y1943333D02*
X768333D01*
X751667D02*
Y1951667D01*
X783333Y1791667D02*
X791667D01*
X783333D02*
Y1808333D01*
X791667D01*
Y1816667D01*
X808333D01*
Y1808333D02*
Y1816667D01*
Y1808333D02*
X816667D01*
Y1791667D02*
Y1808333D01*
X808333Y1791667D02*
X816667D01*
X808333Y1783333D02*
Y1791667D01*
X791667Y1783333D02*
X808333D01*
X791667D02*
Y1791667D01*
X803333Y1831667D02*
X811667D01*
X803333D02*
Y1848333D01*
X811667D01*
Y1856667D01*
X828333D01*
Y1848333D02*
Y1856667D01*
Y1848333D02*
X836667D01*
Y1831667D02*
Y1848333D01*
X828333Y1831667D02*
X836667D01*
X828333Y1823333D02*
Y1831667D01*
X811667Y1823333D02*
X828333D01*
X811667D02*
Y1831667D01*
X783333Y1871667D02*
X791667D01*
X783333D02*
Y1888333D01*
X791667D01*
Y1896667D01*
X808333D01*
Y1888333D02*
Y1896667D01*
Y1888333D02*
X816667D01*
Y1871667D02*
Y1888333D01*
X808333Y1871667D02*
X816667D01*
X808333Y1863333D02*
Y1871667D01*
X791667Y1863333D02*
X808333D01*
X791667D02*
Y1871667D01*
X803333Y1911667D02*
X811667D01*
X803333D02*
Y1928333D01*
X811667D01*
Y1936667D01*
X828333D01*
Y1928333D02*
Y1936667D01*
Y1928333D02*
X836667D01*
Y1911667D02*
Y1928333D01*
X828333Y1911667D02*
X836667D01*
X828333Y1903333D02*
Y1911667D01*
X811667Y1903333D02*
X828333D01*
X811667D02*
Y1911667D01*
X783333Y1951667D02*
X791667D01*
X783333D02*
Y1968333D01*
X791667D01*
Y1976667D01*
X808333D01*
Y1968333D02*
Y1976667D01*
Y1968333D02*
X816667D01*
Y1951667D02*
Y1968333D01*
X808333Y1951667D02*
X816667D01*
X808333Y1943333D02*
Y1951667D01*
X791667Y1943333D02*
X808333D01*
X791667D02*
Y1951667D01*
X823333Y1791667D02*
X831667D01*
X823333D02*
Y1808333D01*
X831667D01*
Y1816667D01*
X848333D01*
Y1808333D02*
Y1816667D01*
Y1808333D02*
X856667D01*
Y1791667D02*
Y1808333D01*
X848333Y1791667D02*
X856667D01*
X848333Y1783333D02*
Y1791667D01*
X831667Y1783333D02*
X848333D01*
X831667D02*
Y1791667D01*
X843333Y1831667D02*
X851667D01*
X843333D02*
Y1848333D01*
X851667D01*
Y1856667D01*
X868333D01*
Y1848333D02*
Y1856667D01*
Y1848333D02*
X876667D01*
Y1831667D02*
Y1848333D01*
X868333Y1831667D02*
X876667D01*
X868333Y1823333D02*
Y1831667D01*
X851667Y1823333D02*
X868333D01*
X851667D02*
Y1831667D01*
X823333Y1871667D02*
X831667D01*
X823333D02*
Y1888333D01*
X831667D01*
Y1896667D01*
X848333D01*
Y1888333D02*
Y1896667D01*
Y1888333D02*
X856667D01*
Y1871667D02*
Y1888333D01*
X848333Y1871667D02*
X856667D01*
X848333Y1863333D02*
Y1871667D01*
X831667Y1863333D02*
X848333D01*
X831667D02*
Y1871667D01*
X843333Y1911667D02*
X851667D01*
X843333D02*
Y1928333D01*
X851667D01*
Y1936667D01*
X868333D01*
Y1928333D02*
Y1936667D01*
Y1928333D02*
X876667D01*
Y1911667D02*
Y1928333D01*
X868333Y1911667D02*
X876667D01*
X868333Y1903333D02*
Y1911667D01*
X851667Y1903333D02*
X868333D01*
X851667D02*
Y1911667D01*
X823333Y1951667D02*
X831667D01*
X823333D02*
Y1968333D01*
X831667D01*
Y1976667D01*
X848333D01*
Y1968333D02*
Y1976667D01*
Y1968333D02*
X856667D01*
Y1951667D02*
Y1968333D01*
X848333Y1951667D02*
X856667D01*
X848333Y1943333D02*
Y1951667D01*
X831667Y1943333D02*
X848333D01*
X831667D02*
Y1951667D01*
X843333Y1991667D02*
X851667D01*
X843333D02*
Y2008333D01*
X851667D01*
Y2016667D01*
X868333D01*
Y2008333D02*
Y2016667D01*
Y2008333D02*
X876667D01*
Y1991667D02*
Y2008333D01*
X868333Y1991667D02*
X876667D01*
X868333Y1983333D02*
Y1991667D01*
X851667Y1983333D02*
X868333D01*
X851667D02*
Y1991667D01*
X823333Y2031667D02*
X831667D01*
X823333D02*
Y2048333D01*
X831667D01*
Y2056667D01*
X848333D01*
Y2048333D02*
Y2056667D01*
Y2048333D02*
X856667D01*
Y2031667D02*
Y2048333D01*
X848333Y2031667D02*
X856667D01*
X848333Y2023333D02*
Y2031667D01*
X831667Y2023333D02*
X848333D01*
X831667D02*
Y2031667D01*
X863333Y1791667D02*
X871667D01*
X863333D02*
Y1808333D01*
X871667D01*
Y1816667D01*
X888333D01*
Y1808333D02*
Y1816667D01*
Y1808333D02*
X896667D01*
Y1791667D02*
Y1808333D01*
X888333Y1791667D02*
X896667D01*
X888333Y1783333D02*
Y1791667D01*
X871667Y1783333D02*
X888333D01*
X871667D02*
Y1791667D01*
X863333Y1871667D02*
X871667D01*
X863333D02*
Y1888333D01*
X871667D01*
Y1896667D01*
X888333D01*
Y1888333D02*
Y1896667D01*
Y1888333D02*
X896667D01*
Y1871667D02*
Y1888333D01*
X888333Y1871667D02*
X896667D01*
X888333Y1863333D02*
Y1871667D01*
X871667Y1863333D02*
X888333D01*
X871667D02*
Y1871667D01*
X863333Y1951667D02*
X871667D01*
X863333D02*
Y1968333D01*
X871667D01*
Y1976667D01*
X888333D01*
Y1968333D02*
Y1976667D01*
Y1968333D02*
X896667D01*
Y1951667D02*
Y1968333D01*
X888333Y1951667D02*
X896667D01*
X888333Y1943333D02*
Y1951667D01*
X871667Y1943333D02*
X888333D01*
X871667D02*
Y1951667D01*
X863333Y2031667D02*
X871667D01*
X863333D02*
Y2048333D01*
X871667D01*
Y2056667D01*
X888333D01*
Y2048333D02*
Y2056667D01*
Y2048333D02*
X896667D01*
Y2031667D02*
Y2048333D01*
X888333Y2031667D02*
X896667D01*
X888333Y2023333D02*
Y2031667D01*
X871667Y2023333D02*
X888333D01*
X871667D02*
Y2031667D01*
X963333Y1831667D02*
X971667D01*
X963333D02*
Y1848333D01*
X971667D01*
Y1856667D01*
X988333D01*
Y1848333D02*
Y1856667D01*
Y1848333D02*
X996667D01*
Y1831667D02*
Y1848333D01*
X988333Y1831667D02*
X996667D01*
X988333Y1823333D02*
Y1831667D01*
X971667Y1823333D02*
X988333D01*
X971667D02*
Y1831667D01*
X963333Y1911667D02*
X971667D01*
X963333D02*
Y1928333D01*
X971667D01*
Y1936667D01*
X988333D01*
Y1928333D02*
Y1936667D01*
Y1928333D02*
X996667D01*
Y1911667D02*
Y1928333D01*
X988333Y1911667D02*
X996667D01*
X988333Y1903333D02*
Y1911667D01*
X971667Y1903333D02*
X988333D01*
X971667D02*
Y1911667D01*
X963333Y1991667D02*
X971667D01*
X963333D02*
Y2008333D01*
X971667D01*
Y2016667D01*
X988333D01*
Y2008333D02*
Y2016667D01*
Y2008333D02*
X996667D01*
Y1991667D02*
Y2008333D01*
X988333Y1991667D02*
X996667D01*
X988333Y1983333D02*
Y1991667D01*
X971667Y1983333D02*
X988333D01*
X971667D02*
Y1991667D01*
X983333Y1791667D02*
X991667D01*
X983333D02*
Y1808333D01*
X991667D01*
Y1816667D01*
X1008333D01*
Y1808333D02*
Y1816667D01*
Y1808333D02*
X1016667D01*
Y1791667D02*
Y1808333D01*
X1008333Y1791667D02*
X1016667D01*
X1008333Y1783333D02*
Y1791667D01*
X991667Y1783333D02*
X1008333D01*
X991667D02*
Y1791667D01*
X983333Y1871667D02*
X991667D01*
X983333D02*
Y1888333D01*
X991667D01*
Y1896667D01*
X1008333D01*
Y1888333D02*
Y1896667D01*
Y1888333D02*
X1016667D01*
Y1871667D02*
Y1888333D01*
X1008333Y1871667D02*
X1016667D01*
X1008333Y1863333D02*
Y1871667D01*
X991667Y1863333D02*
X1008333D01*
X991667D02*
Y1871667D01*
X1003333Y1911667D02*
X1011667D01*
X1003333D02*
Y1928333D01*
X1011667D01*
Y1936667D01*
X1028333D01*
Y1928333D02*
Y1936667D01*
Y1928333D02*
X1036667D01*
Y1911667D02*
Y1928333D01*
X1028333Y1911667D02*
X1036667D01*
X1028333Y1903333D02*
Y1911667D01*
X1011667Y1903333D02*
X1028333D01*
X1011667D02*
Y1911667D01*
X983333Y1951667D02*
X991667D01*
X983333D02*
Y1968333D01*
X991667D01*
Y1976667D01*
X1008333D01*
Y1968333D02*
Y1976667D01*
Y1968333D02*
X1016667D01*
Y1951667D02*
Y1968333D01*
X1008333Y1951667D02*
X1016667D01*
X1008333Y1943333D02*
Y1951667D01*
X991667Y1943333D02*
X1008333D01*
X991667D02*
Y1951667D01*
X1003333Y1991667D02*
X1011667D01*
X1003333D02*
Y2008333D01*
X1011667D01*
Y2016667D01*
X1028333D01*
Y2008333D02*
Y2016667D01*
Y2008333D02*
X1036667D01*
Y1991667D02*
Y2008333D01*
X1028333Y1991667D02*
X1036667D01*
X1028333Y1983333D02*
Y1991667D01*
X1011667Y1983333D02*
X1028333D01*
X1011667D02*
Y1991667D01*
X1023333Y1791667D02*
X1031667D01*
X1023333D02*
Y1808333D01*
X1031667D01*
Y1816667D01*
X1048333D01*
Y1808333D02*
Y1816667D01*
Y1808333D02*
X1056667D01*
Y1791667D02*
Y1808333D01*
X1048333Y1791667D02*
X1056667D01*
X1048333Y1783333D02*
Y1791667D01*
X1031667Y1783333D02*
X1048333D01*
X1031667D02*
Y1791667D01*
X1043333Y1911667D02*
X1051667D01*
X1043333D02*
Y1928333D01*
X1051667D01*
Y1936667D01*
X1068333D01*
Y1928333D02*
Y1936667D01*
Y1928333D02*
X1076667D01*
Y1911667D02*
Y1928333D01*
X1068333Y1911667D02*
X1076667D01*
X1068333Y1903333D02*
Y1911667D01*
X1051667Y1903333D02*
X1068333D01*
X1051667D02*
Y1911667D01*
X1023333Y1951667D02*
X1031667D01*
X1023333D02*
Y1968333D01*
X1031667D01*
Y1976667D01*
X1048333D01*
Y1968333D02*
Y1976667D01*
Y1968333D02*
X1056667D01*
Y1951667D02*
Y1968333D01*
X1048333Y1951667D02*
X1056667D01*
X1048333Y1943333D02*
Y1951667D01*
X1031667Y1943333D02*
X1048333D01*
X1031667D02*
Y1951667D01*
X1043333Y1991667D02*
X1051667D01*
X1043333D02*
Y2008333D01*
X1051667D01*
Y2016667D01*
X1068333D01*
Y2008333D02*
Y2016667D01*
Y2008333D02*
X1076667D01*
Y1991667D02*
Y2008333D01*
X1068333Y1991667D02*
X1076667D01*
X1068333Y1983333D02*
Y1991667D01*
X1051667Y1983333D02*
X1068333D01*
X1051667D02*
Y1991667D01*
X695000Y1666000D02*
X700000Y1661000D01*
X690000Y1666000D02*
X695000D01*
X690000D02*
X695000Y1671000D01*
X690000Y1676000D02*
X695000Y1671000D01*
X690000Y1676000D02*
X695000D01*
X700000Y1681000D01*
X705000Y1676000D01*
X710000D01*
X705000Y1671000D02*
X710000Y1676000D01*
X705000Y1671000D02*
X710000Y1666000D01*
X705000D02*
X710000D01*
X700000Y1661000D02*
X705000Y1666000D01*
X691667Y1662667D02*
X700000Y1654333D01*
X683333Y1662667D02*
X691667D01*
X683333D02*
X691667Y1671000D01*
X683333Y1679333D02*
X691667Y1671000D01*
X683333Y1679333D02*
X691667D01*
X700000Y1687667D01*
X708333Y1679333D01*
X716667D01*
X708333Y1671000D02*
X716667Y1679333D01*
X708333Y1671000D02*
X716667Y1662667D01*
X708333D02*
X716667D01*
X700000Y1654333D02*
X708333Y1662667D01*
X695000Y1566000D02*
X700000Y1561000D01*
X690000Y1566000D02*
X695000D01*
X690000D02*
X695000Y1571000D01*
X690000Y1576000D02*
X695000Y1571000D01*
X690000Y1576000D02*
X695000D01*
X700000Y1581000D01*
X705000Y1576000D01*
X710000D01*
X705000Y1571000D02*
X710000Y1576000D01*
X705000Y1571000D02*
X710000Y1566000D01*
X705000D02*
X710000D01*
X700000Y1561000D02*
X705000Y1566000D01*
X691667Y1562667D02*
X700000Y1554333D01*
X683333Y1562667D02*
X691667D01*
X683333D02*
X691667Y1571000D01*
X683333Y1579333D02*
X691667Y1571000D01*
X683333Y1579333D02*
X691667D01*
X700000Y1587667D01*
X708333Y1579333D01*
X716667D01*
X708333Y1571000D02*
X716667Y1579333D01*
X708333Y1571000D02*
X716667Y1562667D01*
X708333D02*
X716667D01*
X700000Y1554333D02*
X708333Y1562667D01*
X595000Y1666000D02*
X600000Y1661000D01*
X590000Y1666000D02*
X595000D01*
X590000D02*
X595000Y1671000D01*
X590000Y1676000D02*
X595000Y1671000D01*
X590000Y1676000D02*
X595000D01*
X600000Y1681000D01*
X605000Y1676000D01*
X610000D01*
X605000Y1671000D02*
X610000Y1676000D01*
X605000Y1671000D02*
X610000Y1666000D01*
X605000D02*
X610000D01*
X600000Y1661000D02*
X605000Y1666000D01*
X591667Y1662667D02*
X600000Y1654333D01*
X583333Y1662667D02*
X591667D01*
X583333D02*
X591667Y1671000D01*
X583333Y1679333D02*
X591667Y1671000D01*
X583333Y1679333D02*
X591667D01*
X600000Y1687667D01*
X608333Y1679333D01*
X616667D01*
X608333Y1671000D02*
X616667Y1679333D01*
X608333Y1671000D02*
X616667Y1662667D01*
X608333D02*
X616667D01*
X600000Y1654333D02*
X608333Y1662667D01*
X595000Y1566000D02*
X600000Y1561000D01*
X590000Y1566000D02*
X595000D01*
X590000D02*
X595000Y1571000D01*
X590000Y1576000D02*
X595000Y1571000D01*
X590000Y1576000D02*
X595000D01*
X600000Y1581000D01*
X605000Y1576000D01*
X610000D01*
X605000Y1571000D02*
X610000Y1576000D01*
X605000Y1571000D02*
X610000Y1566000D01*
X605000D02*
X610000D01*
X600000Y1561000D02*
X605000Y1566000D01*
X591667Y1562667D02*
X600000Y1554333D01*
X583333Y1562667D02*
X591667D01*
X583333D02*
X591667Y1571000D01*
X583333Y1579333D02*
X591667Y1571000D01*
X583333Y1579333D02*
X591667D01*
X600000Y1587667D01*
X608333Y1579333D01*
X616667D01*
X608333Y1571000D02*
X616667Y1579333D01*
X608333Y1571000D02*
X616667Y1562667D01*
X608333D02*
X616667D01*
X600000Y1554333D02*
X608333Y1562667D01*
X495000Y1666000D02*
X500000Y1661000D01*
X490000Y1666000D02*
X495000D01*
X490000D02*
X495000Y1671000D01*
X490000Y1676000D02*
X495000Y1671000D01*
X490000Y1676000D02*
X495000D01*
X500000Y1681000D01*
X505000Y1676000D01*
X510000D01*
X505000Y1671000D02*
X510000Y1676000D01*
X505000Y1671000D02*
X510000Y1666000D01*
X505000D02*
X510000D01*
X500000Y1661000D02*
X505000Y1666000D01*
X491667Y1662667D02*
X500000Y1654333D01*
X483333Y1662667D02*
X491667D01*
X483333D02*
X491667Y1671000D01*
X483333Y1679333D02*
X491667Y1671000D01*
X483333Y1679333D02*
X491667D01*
X500000Y1687667D01*
X508333Y1679333D01*
X516667D01*
X508333Y1671000D02*
X516667Y1679333D01*
X508333Y1671000D02*
X516667Y1662667D01*
X508333D02*
X516667D01*
X500000Y1654333D02*
X508333Y1662667D01*
X495000Y1566000D02*
X500000Y1561000D01*
X490000Y1566000D02*
X495000D01*
X490000D02*
X495000Y1571000D01*
X490000Y1576000D02*
X495000Y1571000D01*
X490000Y1576000D02*
X495000D01*
X500000Y1581000D01*
X505000Y1576000D01*
X510000D01*
X505000Y1571000D02*
X510000Y1576000D01*
X505000Y1571000D02*
X510000Y1566000D01*
X505000D02*
X510000D01*
X500000Y1561000D02*
X505000Y1566000D01*
X491667Y1562667D02*
X500000Y1554333D01*
X483333Y1562667D02*
X491667D01*
X483333D02*
X491667Y1571000D01*
X483333Y1579333D02*
X491667Y1571000D01*
X483333Y1579333D02*
X491667D01*
X500000Y1587667D01*
X508333Y1579333D01*
X516667D01*
X508333Y1571000D02*
X516667Y1579333D01*
X508333Y1571000D02*
X516667Y1562667D01*
X508333D02*
X516667D01*
X500000Y1554333D02*
X508333Y1562667D01*
X380000Y90000D02*
X385000Y85000D01*
X375000Y90000D02*
X380000D01*
X375000D02*
X380000Y95000D01*
X375000Y100000D02*
X380000Y95000D01*
X375000Y100000D02*
X380000D01*
X385000Y105000D01*
X390000Y100000D01*
X395000D01*
X390000Y95000D02*
X395000Y100000D01*
X390000Y95000D02*
X395000Y90000D01*
X390000D02*
X395000D01*
X385000Y85000D02*
X390000Y90000D01*
X376667Y86667D02*
X385000Y78333D01*
X368333Y86667D02*
X376667D01*
X368333D02*
X376667Y95000D01*
X368333Y103333D02*
X376667Y95000D01*
X368333Y103333D02*
X376667D01*
X385000Y111667D01*
X393333Y103333D01*
X401667D01*
X393333Y95000D02*
X401667Y103333D01*
X393333Y95000D02*
X401667Y86667D01*
X393333D02*
X401667D01*
X385000Y78333D02*
X393333Y86667D01*
X480000Y90000D02*
X485000Y85000D01*
X475000Y90000D02*
X480000D01*
X475000D02*
X480000Y95000D01*
X475000Y100000D02*
X480000Y95000D01*
X475000Y100000D02*
X480000D01*
X485000Y105000D01*
X490000Y100000D01*
X495000D01*
X490000Y95000D02*
X495000Y100000D01*
X490000Y95000D02*
X495000Y90000D01*
X490000D02*
X495000D01*
X485000Y85000D02*
X490000Y90000D01*
X476667Y86667D02*
X485000Y78333D01*
X468333Y86667D02*
X476667D01*
X468333D02*
X476667Y95000D01*
X468333Y103333D02*
X476667Y95000D01*
X468333Y103333D02*
X476667D01*
X485000Y111667D01*
X493333Y103333D01*
X501667D01*
X493333Y95000D02*
X501667Y103333D01*
X493333Y95000D02*
X501667Y86667D01*
X493333D02*
X501667D01*
X485000Y78333D02*
X493333Y86667D01*
X1136667Y111667D02*
X1145000Y103333D01*
X1128333Y111667D02*
X1136667D01*
X1128333D02*
X1136667Y120000D01*
X1128333Y128333D02*
X1136667Y120000D01*
X1128333Y128333D02*
X1136667D01*
X1145000Y136667D01*
X1153333Y128333D01*
X1161667D01*
X1153333Y120000D02*
X1161667Y128333D01*
X1153333Y120000D02*
X1161667Y111667D01*
X1153333D02*
X1161667D01*
X1145000Y103333D02*
X1153333Y111667D01*
X1136667Y411667D02*
X1145000Y403333D01*
X1128333Y411667D02*
X1136667D01*
X1128333D02*
X1136667Y420000D01*
X1128333Y428333D02*
X1136667Y420000D01*
X1128333Y428333D02*
X1136667D01*
X1145000Y436667D01*
X1153333Y428333D01*
X1161667D01*
X1153333Y420000D02*
X1161667Y428333D01*
X1153333Y420000D02*
X1161667Y411667D01*
X1153333D02*
X1161667D01*
X1145000Y403333D02*
X1153333Y411667D01*
X1123333Y1243333D02*
X1156667D01*
Y1276667D01*
X1123333D02*
X1156667D01*
X1123333Y1243333D02*
Y1276667D01*
X1223333Y1243333D02*
X1256667D01*
Y1276667D01*
X1223333D02*
X1256667D01*
X1223333Y1243333D02*
Y1276667D01*
X1323333Y1243333D02*
X1356667D01*
Y1276667D01*
X1323333D02*
X1356667D01*
X1323333Y1243333D02*
Y1276667D01*
X1413333Y2093333D02*
X1430000Y2101667D01*
X1446667Y2093333D01*
X1438333Y2110000D02*
X1446667Y2093333D01*
X1438333Y2110000D02*
X1446667Y2126667D01*
X1430000Y2118333D02*
X1446667Y2126667D01*
X1413333D02*
X1430000Y2118333D01*
X1413333Y2126667D02*
X1421667Y2110000D01*
X1413333Y2093333D02*
X1421667Y2110000D01*
X913333Y2093333D02*
X930000Y2101667D01*
X946667Y2093333D01*
X938333Y2110000D02*
X946667Y2093333D01*
X938333Y2110000D02*
X946667Y2126667D01*
X930000Y2118333D02*
X946667Y2126667D01*
X913333D02*
X930000Y2118333D01*
X913333Y2126667D02*
X921667Y2110000D01*
X913333Y2093333D02*
X921667Y2110000D01*
X53333Y2093333D02*
X70000Y2101667D01*
X86667Y2093333D01*
X78333Y2110000D02*
X86667Y2093333D01*
X78333Y2110000D02*
X86667Y2126667D01*
X70000Y2118333D02*
X86667Y2126667D01*
X53333D02*
X70000Y2118333D01*
X53333Y2126667D02*
X61667Y2110000D01*
X53333Y2093333D02*
X61667Y2110000D01*
X553333Y2093333D02*
X570000Y2101667D01*
X586667Y2093333D01*
X578333Y2110000D02*
X586667Y2093333D01*
X578333Y2110000D02*
X586667Y2126667D01*
X570000Y2118333D02*
X586667Y2126667D01*
X553333D02*
X570000Y2118333D01*
X553333Y2126667D02*
X561667Y2110000D01*
X553333Y2093333D02*
X561667Y2110000D01*
X140000Y540000D02*
X150000Y560000D01*
X130000D02*
X150000D01*
X130000D02*
X140000Y540000D01*
Y533333D02*
X156667Y566667D01*
X123333D02*
X156667D01*
X123333D02*
X140000Y533333D01*
Y440000D02*
X150000Y460000D01*
X130000D02*
X150000D01*
X130000D02*
X140000Y440000D01*
Y433333D02*
X156667Y466667D01*
X123333D02*
X156667D01*
X123333D02*
X140000Y433333D01*
Y940000D02*
X150000Y960000D01*
X130000D02*
X150000D01*
X130000D02*
X140000Y940000D01*
Y933333D02*
X156667Y966667D01*
X123333D02*
X156667D01*
X123333D02*
X140000Y933333D01*
Y840000D02*
X150000Y860000D01*
X130000D02*
X150000D01*
X130000D02*
X140000Y840000D01*
Y833333D02*
X156667Y866667D01*
X123333D02*
X156667D01*
X123333D02*
X140000Y833333D01*
X1050000Y300000D02*
X1060000Y320000D01*
X1040000D02*
X1060000D01*
X1040000D02*
X1050000Y300000D01*
Y293333D02*
X1066667Y326667D01*
X1033333D02*
X1066667D01*
X1033333D02*
X1050000Y293333D01*
Y200000D02*
X1060000Y220000D01*
X1040000D02*
X1060000D01*
X1040000D02*
X1050000Y200000D01*
Y193333D02*
X1066667Y226667D01*
X1033333D02*
X1066667D01*
X1033333D02*
X1050000Y193333D01*
X140000Y340000D02*
X150000Y360000D01*
X130000D02*
X150000D01*
X130000D02*
X140000Y340000D01*
Y333333D02*
X156667Y366667D01*
X123333D02*
X156667D01*
X123333D02*
X140000Y333333D01*
Y240000D02*
X150000Y260000D01*
X130000D02*
X150000D01*
X130000D02*
X140000Y240000D01*
Y233333D02*
X156667Y266667D01*
X123333D02*
X156667D01*
X123333D02*
X140000Y233333D01*
Y740000D02*
X150000Y760000D01*
X130000D02*
X150000D01*
X130000D02*
X140000Y740000D01*
Y733333D02*
X156667Y766667D01*
X123333D02*
X156667D01*
X123333D02*
X140000Y733333D01*
Y640000D02*
X150000Y660000D01*
X130000D02*
X150000D01*
X130000D02*
X140000Y640000D01*
Y633333D02*
X156667Y666667D01*
X123333D02*
X156667D01*
X123333D02*
X140000Y633333D01*
X1050000Y400000D02*
X1060000Y420000D01*
X1040000D02*
X1060000D01*
X1040000D02*
X1050000Y400000D01*
Y393333D02*
X1066667Y426667D01*
X1033333D02*
X1066667D01*
X1033333D02*
X1050000Y393333D01*
Y500000D02*
X1060000Y520000D01*
X1040000D02*
X1060000D01*
X1040000D02*
X1050000Y500000D01*
Y493333D02*
X1066667Y526667D01*
X1033333D02*
X1066667D01*
X1033333D02*
X1050000Y493333D01*
X140000Y1140000D02*
X150000Y1160000D01*
X130000D02*
X150000D01*
X130000D02*
X140000Y1140000D01*
Y1133333D02*
X156667Y1166667D01*
X123333D02*
X156667D01*
X123333D02*
X140000Y1133333D01*
Y1040000D02*
X150000Y1060000D01*
X130000D02*
X150000D01*
X130000D02*
X140000Y1040000D01*
Y1033333D02*
X156667Y1066667D01*
X123333D02*
X156667D01*
X123333D02*
X140000Y1033333D01*
X1390000Y815000D02*
X1400000Y835000D01*
X1380000D02*
X1400000D01*
X1380000D02*
X1390000Y815000D01*
Y808333D02*
X1406667Y841667D01*
X1373333D02*
X1406667D01*
X1373333D02*
X1390000Y808333D01*
Y915000D02*
X1400000Y935000D01*
X1380000D02*
X1400000D01*
X1380000D02*
X1390000Y915000D01*
Y908333D02*
X1406667Y941667D01*
X1373333D02*
X1406667D01*
X1373333D02*
X1390000Y908333D01*
X1415000Y235000D02*
X1425000Y255000D01*
X1405000D02*
X1425000D01*
X1405000D02*
X1415000Y235000D01*
Y228333D02*
X1431667Y261667D01*
X1398333D02*
X1431667D01*
X1398333D02*
X1415000Y228333D01*
X1315000Y235000D02*
X1325000Y255000D01*
X1305000D02*
X1325000D01*
X1305000D02*
X1315000Y235000D01*
Y228333D02*
X1331667Y261667D01*
X1298333D02*
X1331667D01*
X1298333D02*
X1315000Y228333D01*
X1240000Y595000D02*
X1250000Y615000D01*
X1230000D02*
X1250000D01*
X1230000D02*
X1240000Y595000D01*
Y588333D02*
X1256667Y621667D01*
X1223333D02*
X1256667D01*
X1223333D02*
X1240000Y588333D01*
Y395000D02*
X1250000Y415000D01*
X1230000D02*
X1250000D01*
X1230000D02*
X1240000Y395000D01*
Y388333D02*
X1256667Y421667D01*
X1223333D02*
X1256667D01*
X1223333D02*
X1240000Y388333D01*
Y495000D02*
X1250000Y515000D01*
X1230000D02*
X1250000D01*
X1230000D02*
X1240000Y495000D01*
Y488333D02*
X1256667Y521667D01*
X1223333D02*
X1256667D01*
X1223333D02*
X1240000Y488333D01*
X1350000Y1015000D02*
X1360000Y1035000D01*
X1340000D02*
X1360000D01*
X1340000D02*
X1350000Y1015000D01*
Y1008333D02*
X1366667Y1041667D01*
X1333333D02*
X1366667D01*
X1333333D02*
X1350000Y1008333D01*
X1150000Y1015000D02*
X1160000Y1035000D01*
X1140000D02*
X1160000D01*
X1140000D02*
X1150000Y1015000D01*
Y1008333D02*
X1166667Y1041667D01*
X1133333D02*
X1166667D01*
X1133333D02*
X1150000Y1008333D01*
X1050000Y1015000D02*
X1060000Y1035000D01*
X1040000D02*
X1060000D01*
X1040000D02*
X1050000Y1015000D01*
Y1008333D02*
X1066667Y1041667D01*
X1033333D02*
X1066667D01*
X1033333D02*
X1050000Y1008333D01*
X1250000Y1015000D02*
X1260000Y1035000D01*
X1240000D02*
X1260000D01*
X1240000D02*
X1250000Y1015000D01*
Y1008333D02*
X1266667Y1041667D01*
X1233333D02*
X1266667D01*
X1233333D02*
X1250000Y1008333D01*
X1050000Y800000D02*
X1060000Y820000D01*
X1040000D02*
X1060000D01*
X1040000D02*
X1050000Y800000D01*
Y793333D02*
X1066667Y826667D01*
X1033333D02*
X1066667D01*
X1033333D02*
X1050000Y793333D01*
Y600000D02*
X1060000Y620000D01*
X1040000D02*
X1060000D01*
X1040000D02*
X1050000Y600000D01*
Y593333D02*
X1066667Y626667D01*
X1033333D02*
X1066667D01*
X1033333D02*
X1050000Y593333D01*
Y700000D02*
X1060000Y720000D01*
X1040000D02*
X1060000D01*
X1040000D02*
X1050000Y700000D01*
Y693333D02*
X1066667Y726667D01*
X1033333D02*
X1066667D01*
X1033333D02*
X1050000Y693333D01*
Y900000D02*
X1060000Y920000D01*
X1040000D02*
X1060000D01*
X1040000D02*
X1050000Y900000D01*
Y893333D02*
X1066667Y926667D01*
X1033333D02*
X1066667D01*
X1033333D02*
X1050000Y893333D01*
X1010000Y2373333D02*
X1026667Y2406667D01*
X993333D02*
X1026667D01*
X993333D02*
X1010000Y2373333D01*
X1210000D02*
X1226667Y2406667D01*
X1193333D02*
X1226667D01*
X1193333D02*
X1210000Y2373333D01*
X490000D02*
X506667Y2406667D01*
X473333D02*
X506667D01*
X473333D02*
X490000Y2373333D01*
X290000D02*
X306667Y2406667D01*
X273333D02*
X306667D01*
X273333D02*
X290000Y2373333D01*
X1383333Y100000D02*
X1400000Y83333D01*
X1416667Y100000D01*
X1400000Y116667D02*
X1416667Y100000D01*
X1383333D02*
X1400000Y116667D01*
X83333Y100000D02*
X100000Y83333D01*
X116667Y100000D01*
X100000Y116667D02*
X116667Y100000D01*
X83333D02*
X100000Y116667D01*
X1383333Y2400000D02*
X1400000Y2383333D01*
X1416667Y2400000D01*
X1400000Y2416667D02*
X1416667Y2400000D01*
X1383333D02*
X1400000Y2416667D01*
X83333Y2400000D02*
X100000Y2383333D01*
X116667Y2400000D01*
X100000Y2416667D02*
X116667Y2400000D01*
X83333D02*
X100000Y2416667D01*
X750000Y2323333D02*
X766667Y2356667D01*
X733333D02*
X766667D01*
X733333D02*
X750000Y2323333D01*
Y2023333D02*
X766667Y2056667D01*
X733333D02*
X766667D01*
X733333D02*
X750000Y2023333D01*
D75*
X4867500Y3592500D02*
X15578521D01*
X4867500Y1942500D02*
X15578521D01*
X4867500Y1792500D02*
X15578521D01*
Y3742500D01*
X4867500D02*
X15578521D01*
X4867500Y1792500D02*
Y3742500D01*
X14199913Y1792500D02*
Y3742500D01*
X12866305Y1792500D02*
Y3742500D01*
X12012542Y1792500D02*
Y3742500D01*
X11232759Y1792500D02*
Y3742500D01*
X10486961Y1792500D02*
Y3742500D01*
X9897112Y1792500D02*
Y3742500D01*
X8397562Y1792500D02*
Y3742500D01*
X7663760Y1792500D02*
Y3742500D01*
X7157884Y1792500D02*
Y3742500D01*
X6008220Y1792500D02*
Y3742500D01*
X5418376Y1792500D02*
Y3742500D01*
D76*
X14244913Y3709477D02*
Y3637500D01*
Y3673488D01*
X14292898D01*
Y3709477D01*
Y3637500D01*
X14328886D02*
X14352878D01*
X14364874Y3649496D01*
Y3673488D01*
X14352878Y3685485D01*
X14328886D01*
X14316890Y3673488D01*
Y3649496D01*
X14328886Y3637500D01*
X14388867D02*
X14412859D01*
X14400863D01*
Y3709477D01*
X14388867D01*
X14484836Y3637500D02*
X14460843D01*
X14448847Y3649496D01*
Y3673488D01*
X14460843Y3685485D01*
X14484836D01*
X14496832Y3673488D01*
Y3661492D01*
X14448847D01*
X14592801Y3709477D02*
X14640785D01*
X14616793D01*
Y3637500D01*
X14676773D02*
X14700766D01*
X14712762Y3649496D01*
Y3673488D01*
X14700766Y3685485D01*
X14676773D01*
X14664777Y3673488D01*
Y3649496D01*
X14676773Y3637500D01*
X14736754D02*
X14760746D01*
X14748750D01*
Y3709477D01*
X14736754D01*
X14832723Y3637500D02*
X14808731D01*
X14796735Y3649496D01*
Y3673488D01*
X14808731Y3685485D01*
X14832723D01*
X14844719Y3673488D01*
Y3661492D01*
X14796735D01*
X14868711Y3685485D02*
Y3637500D01*
Y3661492D01*
X14880707Y3673488D01*
X14892703Y3685485D01*
X14904700D01*
X14952684D02*
X14976676D01*
X14988673Y3673488D01*
Y3637500D01*
X14952684D01*
X14940688Y3649496D01*
X14952684Y3661492D01*
X14988673D01*
X15012665Y3637500D02*
Y3685485D01*
X15048653D01*
X15060649Y3673488D01*
Y3637500D01*
X15132626Y3685485D02*
X15096638D01*
X15084641Y3673488D01*
Y3649496D01*
X15096638Y3637500D01*
X15132626D01*
X15192606D02*
X15168614D01*
X15156618Y3649496D01*
Y3673488D01*
X15168614Y3685485D01*
X15192606D01*
X15204603Y3673488D01*
Y3661492D01*
X15156618D01*
X15324564Y3637500D02*
X15300572Y3661492D01*
Y3685485D01*
X15324564Y3709477D01*
X15360552Y3673488D02*
X15408537D01*
X15432529Y3637500D02*
X15456521Y3661492D01*
Y3685485D01*
X15432529Y3709477D01*
X12911305D02*
Y3637500D01*
Y3673488D01*
X12959290D01*
Y3709477D01*
Y3637500D01*
X12995278D02*
X13019271D01*
X13031267Y3649496D01*
Y3673488D01*
X13019271Y3685485D01*
X12995278D01*
X12983282Y3673488D01*
Y3649496D01*
X12995278Y3637500D01*
X13055259D02*
X13079251D01*
X13067255D01*
Y3709477D01*
X13055259D01*
X13151228Y3637500D02*
X13127236D01*
X13115239Y3649496D01*
Y3673488D01*
X13127236Y3685485D01*
X13151228D01*
X13163224Y3673488D01*
Y3661492D01*
X13115239D01*
X13259193Y3709477D02*
X13307177D01*
X13283185D01*
Y3637500D01*
X13343166D02*
X13367158D01*
X13379154Y3649496D01*
Y3673488D01*
X13367158Y3685485D01*
X13343166D01*
X13331169Y3673488D01*
Y3649496D01*
X13343166Y3637500D01*
X13403146D02*
X13427138D01*
X13415142D01*
Y3709477D01*
X13403146D01*
X13499115Y3637500D02*
X13475123D01*
X13463127Y3649496D01*
Y3673488D01*
X13475123Y3685485D01*
X13499115D01*
X13511111Y3673488D01*
Y3661492D01*
X13463127D01*
X13535103Y3685485D02*
Y3637500D01*
Y3661492D01*
X13547100Y3673488D01*
X13559096Y3685485D01*
X13571092D01*
X13619076D02*
X13643069D01*
X13655065Y3673488D01*
Y3637500D01*
X13619076D01*
X13607080Y3649496D01*
X13619076Y3661492D01*
X13655065D01*
X13679057Y3637500D02*
Y3685485D01*
X13715045D01*
X13727041Y3673488D01*
Y3637500D01*
X13799018Y3685485D02*
X13763030D01*
X13751034Y3673488D01*
Y3649496D01*
X13763030Y3637500D01*
X13799018D01*
X13858999D02*
X13835006D01*
X13823010Y3649496D01*
Y3673488D01*
X13835006Y3685485D01*
X13858999D01*
X13870995Y3673488D01*
Y3661492D01*
X13823010D01*
X13990956Y3637500D02*
X13966964Y3661492D01*
Y3685485D01*
X13990956Y3709477D01*
X14026944Y3673488D02*
X14074929D01*
X14050936Y3697481D02*
Y3649496D01*
X14098921Y3637500D02*
X14122913Y3661492D01*
Y3685485D01*
X14098921Y3709477D01*
X12057542D02*
Y3637500D01*
X12093531D01*
X12105527Y3649496D01*
Y3697481D01*
X12093531Y3709477D01*
X12057542D01*
X12165507Y3637500D02*
X12141515D01*
X12129519Y3649496D01*
Y3673488D01*
X12141515Y3685485D01*
X12165507D01*
X12177503Y3673488D01*
Y3661492D01*
X12129519D01*
X12201496Y3637500D02*
X12237484D01*
X12249480Y3649496D01*
X12237484Y3661492D01*
X12213492D01*
X12201496Y3673488D01*
X12213492Y3685485D01*
X12249480D01*
X12321457D02*
X12285468D01*
X12273472Y3673488D01*
Y3649496D01*
X12285468Y3637500D01*
X12321457D01*
X12345449Y3685485D02*
Y3637500D01*
Y3661492D01*
X12357445Y3673488D01*
X12369441Y3685485D01*
X12381437D01*
X12417426Y3637500D02*
X12441418D01*
X12429422D01*
Y3685485D01*
X12417426D01*
X12477406Y3613508D02*
Y3685485D01*
X12513395D01*
X12525391Y3673488D01*
Y3649496D01*
X12513395Y3637500D01*
X12477406D01*
X12561379Y3697481D02*
Y3685485D01*
X12549383D01*
X12573375D01*
X12561379D01*
Y3649496D01*
X12573375Y3637500D01*
X12609364D02*
X12633356D01*
X12621360D01*
Y3685485D01*
X12609364D01*
X12681340Y3637500D02*
X12705333D01*
X12717329Y3649496D01*
Y3673488D01*
X12705333Y3685485D01*
X12681340D01*
X12669344Y3673488D01*
Y3649496D01*
X12681340Y3637500D01*
X12741321D02*
Y3685485D01*
X12777309D01*
X12789305Y3673488D01*
Y3637500D01*
X11277759Y3709477D02*
X11325743D01*
X11301751D01*
Y3637500D01*
X11385724D02*
X11361732D01*
X11349736Y3649496D01*
Y3673488D01*
X11361732Y3685485D01*
X11385724D01*
X11397720Y3673488D01*
Y3661492D01*
X11349736D01*
X11421712Y3637500D02*
Y3685485D01*
X11433708D01*
X11445704Y3673488D01*
Y3637500D01*
Y3673488D01*
X11457701Y3685485D01*
X11469697Y3673488D01*
Y3637500D01*
X11493689Y3613508D02*
Y3685485D01*
X11529677D01*
X11541674Y3673488D01*
Y3649496D01*
X11529677Y3637500D01*
X11493689D01*
X11565666D02*
X11589658D01*
X11577662D01*
Y3709477D01*
X11565666D01*
X11637642Y3685485D02*
X11661635D01*
X11673631Y3673488D01*
Y3637500D01*
X11637642D01*
X11625646Y3649496D01*
X11637642Y3661492D01*
X11673631D01*
X11709619Y3697481D02*
Y3685485D01*
X11697623D01*
X11721615D01*
X11709619D01*
Y3649496D01*
X11721615Y3637500D01*
X11793592D02*
X11769600D01*
X11757604Y3649496D01*
Y3673488D01*
X11769600Y3685485D01*
X11793592D01*
X11805588Y3673488D01*
Y3661492D01*
X11757604D01*
X10531961Y3637500D02*
Y3709477D01*
X10567949D01*
X10579945Y3697481D01*
Y3673488D01*
X10567949Y3661492D01*
X10531961D01*
X10615934Y3685485D02*
X10639926D01*
X10651922Y3673488D01*
Y3637500D01*
X10615934D01*
X10603938Y3649496D01*
X10615934Y3661492D01*
X10651922D01*
X10723899Y3709477D02*
Y3637500D01*
X10687910D01*
X10675914Y3649496D01*
Y3673488D01*
X10687910Y3685485D01*
X10723899D01*
X10867852Y3697481D02*
X10855856Y3709477D01*
X10831864D01*
X10819868Y3697481D01*
Y3685485D01*
X10831864Y3673488D01*
X10855856D01*
X10867852Y3661492D01*
Y3649496D01*
X10855856Y3637500D01*
X10831864D01*
X10819868Y3649496D01*
X10891844Y3709477D02*
Y3637500D01*
Y3673488D01*
X10903840Y3685485D01*
X10927833D01*
X10939829Y3673488D01*
Y3637500D01*
X10975817Y3685485D02*
X10999809D01*
X11011806Y3673488D01*
Y3637500D01*
X10975817D01*
X10963821Y3649496D01*
X10975817Y3661492D01*
X11011806D01*
X11035798Y3613508D02*
Y3685485D01*
X11071786D01*
X11083782Y3673488D01*
Y3649496D01*
X11071786Y3637500D01*
X11035798D01*
X11143763D02*
X11119771D01*
X11107774Y3649496D01*
Y3673488D01*
X11119771Y3685485D01*
X11143763D01*
X11155759Y3673488D01*
Y3661492D01*
X11107774D01*
X9942112Y3709477D02*
Y3661492D01*
X9966104Y3637500D01*
X9990097Y3661492D01*
Y3709477D01*
X10014089Y3637500D02*
X10038081D01*
X10026085D01*
Y3685485D01*
X10014089D01*
X10086066D02*
X10110058D01*
X10122054Y3673488D01*
Y3637500D01*
X10086066D01*
X10074069Y3649496D01*
X10086066Y3661492D01*
X10122054D01*
X10146046Y3637500D02*
X10194031Y3685485D01*
X10218023Y3637500D02*
Y3709477D01*
X10254011D01*
X10266007Y3697481D01*
Y3673488D01*
X10254011Y3661492D01*
X10218023D01*
X10301996Y3685485D02*
X10325988D01*
X10337984Y3673488D01*
Y3637500D01*
X10301996D01*
X10290000Y3649496D01*
X10301996Y3661492D01*
X10337984D01*
X10409961Y3709477D02*
Y3637500D01*
X10373972D01*
X10361976Y3649496D01*
Y3673488D01*
X10373972Y3685485D01*
X10409961D01*
X8442562Y3709477D02*
Y3637500D01*
X8478550D01*
X8490546Y3649496D01*
Y3697481D01*
X8478550Y3709477D01*
X8442562D01*
X8514538Y3685485D02*
Y3637500D01*
Y3661492D01*
X8526534Y3673488D01*
X8538531Y3685485D01*
X8550527D01*
X8586515Y3637500D02*
X8610507D01*
X8598511D01*
Y3685485D01*
X8586515D01*
X8646496Y3637500D02*
X8670488D01*
X8658492D01*
Y3709477D01*
X8646496D01*
X8706476Y3637500D02*
X8730469D01*
X8718472D01*
Y3709477D01*
X8706476D01*
X8838434D02*
Y3637500D01*
X8886418D01*
X8922406Y3685485D02*
X8946399D01*
X8958395Y3673488D01*
Y3637500D01*
X8922406D01*
X8910410Y3649496D01*
X8922406Y3661492D01*
X8958395D01*
X8982387Y3685485D02*
Y3649496D01*
X8994383Y3637500D01*
X9030371D01*
Y3625504D01*
X9018375Y3613508D01*
X9006379D01*
X9030371Y3637500D02*
Y3685485D01*
X9090352Y3637500D02*
X9066360D01*
X9054364Y3649496D01*
Y3673488D01*
X9066360Y3685485D01*
X9090352D01*
X9102348Y3673488D01*
Y3661492D01*
X9054364D01*
X9126340Y3685485D02*
Y3637500D01*
Y3661492D01*
X9138336Y3673488D01*
X9150333Y3685485D01*
X9162329D01*
X9270294Y3637500D02*
Y3709477D01*
X9306282D01*
X9318278Y3697481D01*
Y3673488D01*
X9306282Y3661492D01*
X9270294D01*
X9354267Y3685485D02*
X9378259D01*
X9390255Y3673488D01*
Y3637500D01*
X9354267D01*
X9342271Y3649496D01*
X9354267Y3661492D01*
X9390255D01*
X9414247Y3637500D02*
X9438239D01*
X9426243D01*
Y3685485D01*
X9414247D01*
X9474228D02*
Y3637500D01*
Y3661492D01*
X9486224Y3673488D01*
X9498220Y3685485D01*
X9510216D01*
X7708760Y3709477D02*
Y3637500D01*
Y3673488D01*
X7756744D01*
Y3709477D01*
Y3637500D01*
X7792733D02*
X7816725D01*
X7828721Y3649496D01*
Y3673488D01*
X7816725Y3685485D01*
X7792733D01*
X7780736Y3673488D01*
Y3649496D01*
X7792733Y3637500D01*
X7852713D02*
X7876705D01*
X7864709D01*
Y3709477D01*
X7852713D01*
X7948682Y3637500D02*
X7924690D01*
X7912694Y3649496D01*
Y3673488D01*
X7924690Y3685485D01*
X7948682D01*
X7960678Y3673488D01*
Y3661492D01*
X7912694D01*
X8056647Y3709477D02*
X8104632D01*
X8080639D01*
Y3637500D01*
X8128624Y3685485D02*
Y3649496D01*
X8140620Y3637500D01*
X8176608D01*
Y3625504D01*
X8164612Y3613508D01*
X8152616D01*
X8176608Y3637500D02*
Y3685485D01*
X8200601Y3613508D02*
Y3685485D01*
X8236589D01*
X8248585Y3673488D01*
Y3649496D01*
X8236589Y3637500D01*
X8200601D01*
X8308566D02*
X8284573D01*
X8272577Y3649496D01*
Y3673488D01*
X8284573Y3685485D01*
X8308566D01*
X8320562Y3673488D01*
Y3661492D01*
X8272577D01*
X7202884Y3637500D02*
Y3709477D01*
X7238872D01*
X7250868Y3697481D01*
Y3673488D01*
X7238872Y3661492D01*
X7202884D01*
X7274861Y3637500D02*
X7298853D01*
X7286857D01*
Y3709477D01*
X7274861D01*
X7346837Y3685485D02*
X7370830D01*
X7382826Y3673488D01*
Y3637500D01*
X7346837D01*
X7334841Y3649496D01*
X7346837Y3661492D01*
X7382826D01*
X7418814Y3697481D02*
Y3685485D01*
X7406818D01*
X7430810D01*
X7418814D01*
Y3649496D01*
X7430810Y3637500D01*
X7502787D02*
X7478795D01*
X7466798Y3649496D01*
Y3673488D01*
X7478795Y3685485D01*
X7502787D01*
X7514783Y3673488D01*
Y3661492D01*
X7466798D01*
X7586760Y3709477D02*
Y3637500D01*
X7550771D01*
X7538775Y3649496D01*
Y3673488D01*
X7550771Y3685485D01*
X7586760D01*
X6053220Y3709477D02*
Y3637500D01*
Y3673488D01*
X6101205D01*
Y3709477D01*
Y3637500D01*
X6137193D02*
X6161185D01*
X6173182Y3649496D01*
Y3673488D01*
X6161185Y3685485D01*
X6137193D01*
X6125197Y3673488D01*
Y3649496D01*
X6137193Y3637500D01*
X6197174D02*
X6221166D01*
X6209170D01*
Y3709477D01*
X6197174D01*
X6293143Y3637500D02*
X6269150D01*
X6257154Y3649496D01*
Y3673488D01*
X6269150Y3685485D01*
X6293143D01*
X6305139Y3673488D01*
Y3661492D01*
X6257154D01*
X6449092Y3697481D02*
X6437096Y3709477D01*
X6413104D01*
X6401108Y3697481D01*
Y3685485D01*
X6413104Y3673488D01*
X6437096D01*
X6449092Y3661492D01*
Y3649496D01*
X6437096Y3637500D01*
X6413104D01*
X6401108Y3649496D01*
X6473084Y3637500D02*
X6497077D01*
X6485081D01*
Y3685485D01*
X6473084D01*
X6533065D02*
X6581050D01*
X6533065Y3637500D01*
X6581050D01*
X6641030D02*
X6617038D01*
X6605042Y3649496D01*
Y3673488D01*
X6617038Y3685485D01*
X6641030D01*
X6653026Y3673488D01*
Y3661492D01*
X6605042D01*
X5511360Y3697481D02*
X5499364Y3709477D01*
X5475372D01*
X5463376Y3697481D01*
Y3649496D01*
X5475372Y3637500D01*
X5499364D01*
X5511360Y3649496D01*
X5547349Y3637500D02*
X5571341D01*
X5583337Y3649496D01*
Y3673488D01*
X5571341Y3685485D01*
X5547349D01*
X5535352Y3673488D01*
Y3649496D01*
X5547349Y3637500D01*
X5607329Y3685485D02*
Y3649496D01*
X5619325Y3637500D01*
X5655314D01*
Y3685485D01*
X5679306Y3637500D02*
Y3685485D01*
X5715294D01*
X5727290Y3673488D01*
Y3637500D01*
X5763279Y3697481D02*
Y3685485D01*
X5751283D01*
X5775275D01*
X5763279D01*
Y3649496D01*
X5775275Y3637500D01*
X5005484Y3697481D02*
X4993488Y3709477D01*
X4969496D01*
X4957500Y3697481D01*
Y3685485D01*
X4969496Y3673488D01*
X4993488D01*
X5005484Y3661492D01*
Y3649496D01*
X4993488Y3637500D01*
X4969496D01*
X4957500Y3649496D01*
X5029477Y3685485D02*
Y3649496D01*
X5041473Y3637500D01*
X5077461D01*
Y3625504D01*
X5065465Y3613508D01*
X5053469D01*
X5077461Y3637500D02*
Y3685485D01*
X5101453Y3637500D02*
Y3685485D01*
X5113449D01*
X5125446Y3673488D01*
Y3637500D01*
Y3673488D01*
X5137442Y3685485D01*
X5149438Y3673488D01*
Y3637500D01*
X5173430Y3709477D02*
Y3637500D01*
X5209418D01*
X5221415Y3649496D01*
Y3661492D01*
Y3673488D01*
X5209418Y3685485D01*
X5173430D01*
X5257403Y3637500D02*
X5281395D01*
X5293391Y3649496D01*
Y3673488D01*
X5281395Y3685485D01*
X5257403D01*
X5245407Y3673488D01*
Y3649496D01*
X5257403Y3637500D01*
X5317383D02*
X5341376D01*
X5329380D01*
Y3709477D01*
X5317383D01*
%TF.MD5,a727e9bbf2d0622fa22ded39fce84251*%
M02*
