%TF.GenerationSoftware,Altium Limited,Altium Designer,22.5.1 (42)*%
G04 Layer_Color=0*
%FSLAX26Y26*%
%MOIN*%
%TF.SameCoordinates,CF75AC15-3A71-4360-887B-83ED2C6183BC*%
%TF.FilePolarity,Positive*%
%TF.FileFunction,Plated,1,2,PTH,Drill*%
%TF.Part,Single*%
G01*
G75*
%TA.AperFunction,ComponentDrill*%
%ADD60C,0.035433*%
%ADD61C,0.090000*%
%ADD62C,0.108268*%
%ADD63C,0.090000*%
%ADD64C,0.025000*%
%ADD65C,0.025000*%
%ADD66C,0.055000*%
%ADD67C,0.031496*%
%ADD68C,0.045276*%
%TA.AperFunction,ViaDrill,NotFilled*%
%ADD69C,0.050000*%
%ADD70C,0.010000*%
%ADD71C,0.025000*%
D60*
X450000Y1810000D02*
D03*
X350000D02*
D03*
X250000D02*
D03*
X1250000Y1850000D02*
D03*
X1150000D02*
D03*
X1050000D02*
D03*
D61*
X750000Y2040000D02*
D03*
Y2340000D02*
D03*
D62*
X100000Y2400000D02*
D03*
X1400000D02*
D03*
X100000Y100000D02*
D03*
X1400000D02*
D03*
D63*
X290000Y2390000D02*
D03*
X490000D02*
D03*
X1210000D02*
D03*
X1010000D02*
D03*
D64*
X670000Y1772500D02*
D03*
X790000D02*
D03*
X730000D02*
D03*
X610000D02*
D03*
X1400000Y440000D02*
D03*
X1340000D02*
D03*
X130000Y860000D02*
D03*
X70000D02*
D03*
X1120000Y440000D02*
D03*
X1060000D02*
D03*
X70000Y580000D02*
D03*
X130000D02*
D03*
X70000Y300000D02*
D03*
X130000D02*
D03*
X1060000Y580000D02*
D03*
X1120000D02*
D03*
X70000Y720000D02*
D03*
X130000D02*
D03*
X70000Y440000D02*
D03*
X130000D02*
D03*
D65*
X1110000Y1040000D02*
D03*
Y1160000D02*
D03*
Y1100000D02*
D03*
Y980000D02*
D03*
X90000Y1240000D02*
D03*
Y1300000D02*
D03*
Y1180000D02*
D03*
X1430000Y790000D02*
D03*
Y730000D02*
D03*
Y850000D02*
D03*
X1440000Y1180000D02*
D03*
Y1240000D02*
D03*
D66*
X570000Y2110000D02*
D03*
X70000D02*
D03*
X930000D02*
D03*
X1430000D02*
D03*
D67*
X1050000Y690000D02*
D03*
X1350000D02*
D03*
D68*
X1340000Y1380000D02*
D03*
X1240000D02*
D03*
X1140000D02*
D03*
D69*
X700000Y1671000D02*
D03*
Y1571000D02*
D03*
X600000Y1671000D02*
D03*
Y1571000D02*
D03*
X500000Y1671000D02*
D03*
Y1571000D02*
D03*
D70*
X525000Y1620000D02*
D03*
X725000D02*
D03*
X985000Y1645000D02*
D03*
X890000D02*
D03*
X525000Y1525000D02*
D03*
X770000D02*
D03*
X872000Y1797000D02*
D03*
X972000D02*
D03*
Y1997000D02*
D03*
Y1947000D02*
D03*
Y1897000D02*
D03*
Y1847000D02*
D03*
X1045000Y815000D02*
D03*
X790000Y385000D02*
D03*
X1025000D02*
D03*
X1072000Y1997000D02*
D03*
Y1947000D02*
D03*
Y1897000D02*
D03*
Y1797000D02*
D03*
X1022000Y1997000D02*
D03*
Y1947000D02*
D03*
Y1897000D02*
D03*
Y1797000D02*
D03*
X872000Y2047000D02*
D03*
Y1997000D02*
D03*
Y1947000D02*
D03*
Y1897000D02*
D03*
Y1847000D02*
D03*
X822000Y1947000D02*
D03*
Y1897000D02*
D03*
Y1847000D02*
D03*
X772000Y1947000D02*
D03*
Y1897000D02*
D03*
Y1847000D02*
D03*
X722000Y1947000D02*
D03*
Y1897000D02*
D03*
Y1847000D02*
D03*
X672000Y1947000D02*
D03*
Y1897000D02*
D03*
Y1847000D02*
D03*
X622000Y2047000D02*
D03*
Y1997000D02*
D03*
Y1947000D02*
D03*
Y1897000D02*
D03*
Y1847000D02*
D03*
X572000Y1997000D02*
D03*
Y1947000D02*
D03*
Y1897000D02*
D03*
Y1847000D02*
D03*
Y1797000D02*
D03*
X522000Y1997000D02*
D03*
Y1947000D02*
D03*
Y1897000D02*
D03*
Y1847000D02*
D03*
Y1797000D02*
D03*
X472000Y1997000D02*
D03*
Y1947000D02*
D03*
Y1897000D02*
D03*
X975000Y1050000D02*
D03*
X160000Y1110000D02*
D03*
X100000Y1450000D02*
D03*
D71*
X865000Y1475000D02*
D03*
%TF.MD5,ea93b7f9bb65183094b3f94a3f185cc5*%
M02*
