%TF.GenerationSoftware,Altium Limited,Altium Designer,22.10.1 (41)*%
G04 Layer_Physical_Order=2*
G04 Layer_Color=16711680*
%FSLAX26Y26*%
%MOIN*%
%TF.SameCoordinates,59CDB8F9-364B-4C5A-A8AF-F7A69B8E0267*%
%TF.FilePolarity,Positive*%
%TF.FileFunction,Copper,L2,Bot,Signal*%
%TF.Part,Single*%
G01*
G75*
%TA.AperFunction,ComponentPad*%
%ADD18R,0.140000X0.140000*%
%ADD19C,0.140000*%
%ADD20R,0.140000X0.140000*%
%ADD21C,0.060000*%
%ADD22R,0.060000X0.060000*%
%ADD23R,0.060000X0.060000*%
%ADD24C,0.090000*%
%ADD25C,0.064961*%
%ADD26R,0.064961X0.064961*%
%ADD27C,0.059055*%
%ADD28R,0.059055X0.059055*%
%TA.AperFunction,ViaPad*%
%ADD29C,0.075000*%
%ADD30C,0.010000*%
%ADD31C,0.050000*%
%ADD32C,0.028000*%
%TA.AperFunction,Conductor*%
%ADD33C,0.050000*%
G36*
X1084804Y2056500D02*
X965302D01*
Y2110000D01*
X964099Y2119137D01*
X960572Y2127651D01*
X954962Y2134962D01*
X947651Y2140572D01*
X939137Y2144099D01*
X930000Y2145302D01*
X920863Y2144099D01*
X912349Y2140572D01*
X905038Y2134962D01*
X899428Y2127651D01*
X895901Y2119137D01*
X894698Y2110000D01*
Y2072518D01*
X890079Y2070605D01*
X830683Y2130000D01*
X667684D01*
X594183Y2056500D01*
X415196D01*
Y2484707D01*
X1084804D01*
Y2056500D01*
D02*
G37*
G36*
X1485000Y2485000D02*
X1485000Y1890000D01*
X1294332D01*
X1290000Y1890000D01*
X1285196Y1889527D01*
X1210473D01*
X1210472Y1810473D01*
X1205668Y1810000D01*
X1095000D01*
Y2485000D01*
X1485000Y2485000D01*
D02*
G37*
G36*
X405000Y1770000D02*
X294332D01*
X289528Y1770473D01*
X289527Y1775000D01*
Y1849527D01*
X214804D01*
X210000Y1850000D01*
X205668Y1850000D01*
X15000D01*
X15000Y2485000D01*
X405000Y2485000D01*
Y1770000D01*
D02*
G37*
G36*
X882869Y2063395D02*
X886177Y2061185D01*
X890079Y2060409D01*
X893425Y2058093D01*
X894698Y2056230D01*
Y1486393D01*
X889698Y1485735D01*
X887615Y1493509D01*
X883007Y1501491D01*
X876490Y1508007D01*
X868510Y1512615D01*
X860000Y1514895D01*
Y1480000D01*
Y1445105D01*
X868510Y1447385D01*
X876490Y1451993D01*
X883007Y1458509D01*
X887615Y1466491D01*
X889698Y1474265D01*
X894698Y1473607D01*
Y1470000D01*
X895901Y1460863D01*
X899428Y1452349D01*
X905038Y1445038D01*
X1097520Y1252556D01*
Y1217520D01*
X1182480D01*
Y1302480D01*
X1147444D01*
X965302Y1484623D01*
Y2046304D01*
X1084804D01*
Y1810000D01*
X1085580Y1806098D01*
X1087790Y1802790D01*
X1091098Y1800580D01*
X1095000Y1799804D01*
X1205668D01*
X1206164Y1799903D01*
X1206667Y1799853D01*
X1211471Y1800326D01*
X1212905Y1800761D01*
X1214374Y1801053D01*
X1214794Y1801333D01*
X1215278Y1801480D01*
X1216436Y1802431D01*
X1217682Y1803263D01*
X1217963Y1803683D01*
X1218353Y1804004D01*
X1219060Y1805325D01*
X1219892Y1806571D01*
X1219991Y1807066D01*
X1220229Y1807512D01*
X1220376Y1809003D01*
X1220668Y1810473D01*
X1289527D01*
Y1875207D01*
X1294332Y1879804D01*
X1484707D01*
Y15293D01*
X15293D01*
Y1839804D01*
X205668D01*
X210472Y1835207D01*
Y1770473D01*
X279332D01*
X279624Y1769003D01*
X279771Y1767512D01*
X280009Y1767066D01*
X280108Y1766571D01*
X280940Y1765325D01*
X281647Y1764004D01*
X282037Y1763683D01*
X282318Y1763263D01*
X283564Y1762430D01*
X284722Y1761480D01*
X285206Y1761333D01*
X285626Y1761053D01*
X287096Y1760760D01*
X288529Y1760326D01*
X293334Y1759853D01*
X293836Y1759903D01*
X294332Y1759804D01*
X405000D01*
X408902Y1760580D01*
X412210Y1762790D01*
X414420Y1766098D01*
X415196Y1770000D01*
Y2046304D01*
X594183D01*
X598085Y2047080D01*
X601393Y2049290D01*
X671908Y2119804D01*
X826460D01*
X882869Y2063395D01*
D02*
G37*
%LPC*%
G36*
X1406317Y2464134D02*
X1393683D01*
X1381293Y2461669D01*
X1369621Y2456835D01*
X1359117Y2449816D01*
X1350184Y2440883D01*
X1343165Y2430379D01*
X1338331Y2418707D01*
X1335866Y2406317D01*
Y2393683D01*
X1338331Y2381293D01*
X1343165Y2369621D01*
X1350184Y2359117D01*
X1359117Y2350184D01*
X1369621Y2343165D01*
X1381293Y2338331D01*
X1393683Y2335866D01*
X1406317D01*
X1418707Y2338331D01*
X1430379Y2343165D01*
X1440883Y2350184D01*
X1449816Y2359117D01*
X1456835Y2369621D01*
X1461669Y2381293D01*
X1464134Y2393683D01*
Y2406317D01*
X1461669Y2418707D01*
X1456835Y2430379D01*
X1449816Y2440883D01*
X1440883Y2449816D01*
X1430379Y2456835D01*
X1418707Y2461669D01*
X1406317Y2464134D01*
D02*
G37*
G36*
X106317D02*
X93683D01*
X81293Y2461669D01*
X69621Y2456835D01*
X59117Y2449816D01*
X50184Y2440883D01*
X43165Y2430379D01*
X38331Y2418707D01*
X35866Y2406317D01*
Y2393683D01*
X38331Y2381293D01*
X43165Y2369621D01*
X50184Y2359117D01*
X59117Y2350184D01*
X69621Y2343165D01*
X81293Y2338331D01*
X93683Y2335866D01*
X106317D01*
X118707Y2338331D01*
X130379Y2343165D01*
X140883Y2350184D01*
X149816Y2359117D01*
X156835Y2369621D01*
X161669Y2381293D01*
X164134Y2393683D01*
Y2406317D01*
X161669Y2418707D01*
X156835Y2430379D01*
X149816Y2440883D01*
X140883Y2449816D01*
X130379Y2456835D01*
X118707Y2461669D01*
X106317Y2464134D01*
D02*
G37*
G36*
X706254Y1718500D02*
X693746D01*
X681666Y1715263D01*
X670834Y1709009D01*
X661990Y1700166D01*
X655737Y1689334D01*
X652500Y1677254D01*
Y1664746D01*
X655737Y1652666D01*
X661990Y1641834D01*
X670834Y1632991D01*
X681666Y1626737D01*
X693746Y1623500D01*
X706254D01*
X718334Y1626737D01*
X729166Y1632991D01*
X738010Y1641834D01*
X744263Y1652666D01*
X747500Y1664746D01*
Y1677254D01*
X744263Y1689334D01*
X738010Y1700166D01*
X729166Y1709009D01*
X718334Y1715263D01*
X706254Y1718500D01*
D02*
G37*
G36*
X606254D02*
X593746D01*
X581666Y1715263D01*
X570834Y1709009D01*
X561990Y1700166D01*
X555737Y1689334D01*
X552500Y1677254D01*
Y1664746D01*
X555737Y1652666D01*
X561990Y1641834D01*
X570834Y1632991D01*
X581666Y1626737D01*
X593746Y1623500D01*
X606254D01*
X618334Y1626737D01*
X629166Y1632991D01*
X638010Y1641834D01*
X644263Y1652666D01*
X647500Y1664746D01*
Y1677254D01*
X644263Y1689334D01*
X638010Y1700166D01*
X629166Y1709009D01*
X618334Y1715263D01*
X606254Y1718500D01*
D02*
G37*
G36*
X506253D02*
X493747D01*
X481666Y1715263D01*
X470834Y1709009D01*
X461990Y1700166D01*
X455737Y1689334D01*
X452500Y1677254D01*
Y1664746D01*
X455737Y1652666D01*
X461990Y1641834D01*
X470834Y1632991D01*
X481666Y1626737D01*
X493747Y1623500D01*
X506253D01*
X518334Y1626737D01*
X529166Y1632991D01*
X538010Y1641834D01*
X544263Y1652666D01*
X547500Y1664746D01*
Y1677254D01*
X544263Y1689334D01*
X538010Y1700166D01*
X529166Y1709009D01*
X518334Y1715263D01*
X506253Y1718500D01*
D02*
G37*
G36*
X706254Y1618500D02*
X693746D01*
X681666Y1615263D01*
X670834Y1609009D01*
X661990Y1600166D01*
X655737Y1589334D01*
X652500Y1577254D01*
Y1564746D01*
X655737Y1552666D01*
X661990Y1541834D01*
X670834Y1532991D01*
X681666Y1526737D01*
X693746Y1523500D01*
X706254D01*
X718334Y1526737D01*
X729166Y1532991D01*
X738010Y1541834D01*
X744263Y1552666D01*
X747500Y1564746D01*
Y1577254D01*
X744263Y1589334D01*
X738010Y1600166D01*
X729166Y1609009D01*
X718334Y1615263D01*
X706254Y1618500D01*
D02*
G37*
G36*
X606254D02*
X593746D01*
X581666Y1615263D01*
X570834Y1609009D01*
X561990Y1600166D01*
X555737Y1589334D01*
X552500Y1577254D01*
Y1564746D01*
X555737Y1552666D01*
X561990Y1541834D01*
X570834Y1532991D01*
X581666Y1526737D01*
X593746Y1523500D01*
X606254D01*
X618334Y1526737D01*
X629166Y1532991D01*
X638010Y1541834D01*
X644263Y1552666D01*
X647500Y1564746D01*
Y1577254D01*
X644263Y1589334D01*
X638010Y1600166D01*
X629166Y1609009D01*
X618334Y1615263D01*
X606254Y1618500D01*
D02*
G37*
G36*
X506253D02*
X493747D01*
X481666Y1615263D01*
X470834Y1609009D01*
X461990Y1600166D01*
X455737Y1589334D01*
X452500Y1577254D01*
Y1564746D01*
X455737Y1552666D01*
X461990Y1541834D01*
X470834Y1532991D01*
X481666Y1526737D01*
X493747Y1523500D01*
X506253D01*
X518334Y1526737D01*
X529166Y1532991D01*
X538010Y1541834D01*
X544263Y1552666D01*
X547500Y1564746D01*
Y1577254D01*
X544263Y1589334D01*
X538010Y1600166D01*
X529166Y1609009D01*
X518334Y1615263D01*
X506253Y1618500D01*
D02*
G37*
G36*
X850000Y1514895D02*
X841490Y1512615D01*
X833510Y1508007D01*
X826993Y1501491D01*
X822385Y1493509D01*
X820105Y1485000D01*
X850000D01*
Y1514895D01*
D02*
G37*
G36*
Y1475000D02*
X820105D01*
X822385Y1466491D01*
X826993Y1458509D01*
X833510Y1451993D01*
X841490Y1447385D01*
X850000Y1445105D01*
Y1475000D01*
D02*
G37*
G36*
X65000Y1433906D02*
Y1415000D01*
X83906D01*
X80346Y1423595D01*
X73595Y1430346D01*
X65000Y1433906D01*
D02*
G37*
G36*
X55000D02*
X46405Y1430346D01*
X39654Y1423595D01*
X36094Y1415000D01*
X55000D01*
Y1433906D01*
D02*
G37*
G36*
X83906Y1405000D02*
X65000D01*
Y1386094D01*
X73595Y1389654D01*
X80346Y1396405D01*
X83906Y1405000D01*
D02*
G37*
G36*
X55000D02*
X36094D01*
X39654Y1396405D01*
X46405Y1389654D01*
X55000Y1386094D01*
Y1405000D01*
D02*
G37*
G36*
X1250000Y1311652D02*
Y1270000D01*
X1291652D01*
X1288904Y1280257D01*
X1281995Y1292224D01*
X1272224Y1301995D01*
X1260257Y1308904D01*
X1250000Y1311652D01*
D02*
G37*
G36*
X1230000D02*
X1219743Y1308904D01*
X1207776Y1301995D01*
X1198005Y1292224D01*
X1191096Y1280257D01*
X1188348Y1270000D01*
X1230000D01*
Y1311652D01*
D02*
G37*
G36*
X1345593Y1302480D02*
X1334407D01*
X1323603Y1299585D01*
X1313917Y1293993D01*
X1306007Y1286083D01*
X1300415Y1276397D01*
X1297520Y1265593D01*
Y1254407D01*
X1300415Y1243603D01*
X1306007Y1233917D01*
X1313917Y1226007D01*
X1323603Y1220415D01*
X1334407Y1217520D01*
X1345593D01*
X1356397Y1220415D01*
X1366083Y1226007D01*
X1373993Y1233917D01*
X1379585Y1243603D01*
X1382480Y1254407D01*
Y1265593D01*
X1379585Y1276397D01*
X1373993Y1286083D01*
X1366083Y1293993D01*
X1356397Y1299585D01*
X1345593Y1302480D01*
D02*
G37*
G36*
X1291652Y1250000D02*
X1250000D01*
Y1208348D01*
X1260257Y1211096D01*
X1272224Y1218005D01*
X1281995Y1227776D01*
X1288904Y1239743D01*
X1291652Y1250000D01*
D02*
G37*
G36*
X1230000D02*
X1188348D01*
X1191096Y1239743D01*
X1198005Y1227776D01*
X1207776Y1218005D01*
X1219743Y1211096D01*
X1230000Y1208348D01*
Y1250000D01*
D02*
G37*
G36*
X180000Y1190000D02*
X100000D01*
Y1110000D01*
X180000D01*
Y1190000D01*
D02*
G37*
G36*
X1355266Y1065000D02*
X1355000D01*
Y1030000D01*
X1390000D01*
Y1030266D01*
X1387274Y1040439D01*
X1382008Y1049561D01*
X1374561Y1057008D01*
X1365439Y1062274D01*
X1355266Y1065000D01*
D02*
G37*
G36*
X1345000D02*
X1344734D01*
X1334561Y1062274D01*
X1325439Y1057008D01*
X1317992Y1049561D01*
X1312726Y1040439D01*
X1310000Y1030266D01*
Y1030000D01*
X1345000D01*
Y1065000D01*
D02*
G37*
G36*
X145266Y1090000D02*
X134734D01*
X124561Y1087274D01*
X115439Y1082008D01*
X107992Y1074561D01*
X102726Y1065439D01*
X100000Y1055266D01*
Y1044734D01*
X102726Y1034561D01*
X107992Y1025439D01*
X115439Y1017992D01*
X124561Y1012726D01*
X134734Y1010000D01*
X145266D01*
X155439Y1012726D01*
X164561Y1017992D01*
X172008Y1025439D01*
X177274Y1034561D01*
X180000Y1044734D01*
Y1055266D01*
X177274Y1065439D01*
X172008Y1074561D01*
X164561Y1082008D01*
X155439Y1087274D01*
X145266Y1090000D01*
D02*
G37*
G36*
X1390000Y1020000D02*
X1355000D01*
Y985000D01*
X1355266D01*
X1365439Y987726D01*
X1374561Y992992D01*
X1382008Y1000439D01*
X1387274Y1009561D01*
X1390000Y1019734D01*
Y1020000D01*
D02*
G37*
G36*
X1345000D02*
X1310000D01*
Y1019734D01*
X1312726Y1009561D01*
X1317992Y1000439D01*
X1325439Y992992D01*
X1334561Y987726D01*
X1344734Y985000D01*
X1345000D01*
Y1020000D01*
D02*
G37*
G36*
X1255266Y1065000D02*
X1244734D01*
X1234561Y1062274D01*
X1225439Y1057008D01*
X1217992Y1049561D01*
X1212726Y1040439D01*
X1210000Y1030266D01*
Y1019734D01*
X1212726Y1009561D01*
X1217992Y1000439D01*
X1225439Y992992D01*
X1234561Y987726D01*
X1244734Y985000D01*
X1255266D01*
X1265439Y987726D01*
X1274561Y992992D01*
X1282008Y1000439D01*
X1287274Y1009561D01*
X1290000Y1019734D01*
Y1030266D01*
X1287274Y1040439D01*
X1282008Y1049561D01*
X1274561Y1057008D01*
X1265439Y1062274D01*
X1255266Y1065000D01*
D02*
G37*
G36*
X1155266D02*
X1144734D01*
X1134561Y1062274D01*
X1125439Y1057008D01*
X1117992Y1049561D01*
X1112726Y1040439D01*
X1110000Y1030266D01*
Y1019734D01*
X1112726Y1009561D01*
X1117992Y1000439D01*
X1125439Y992992D01*
X1134561Y987726D01*
X1144734Y985000D01*
X1155266D01*
X1165439Y987726D01*
X1174561Y992992D01*
X1182008Y1000439D01*
X1187274Y1009561D01*
X1190000Y1019734D01*
Y1030266D01*
X1187274Y1040439D01*
X1182008Y1049561D01*
X1174561Y1057008D01*
X1165439Y1062274D01*
X1155266Y1065000D01*
D02*
G37*
G36*
X1090000D02*
X1010000D01*
Y985000D01*
X1090000D01*
Y1065000D01*
D02*
G37*
G36*
X180000Y990000D02*
X145000D01*
Y955000D01*
X180000D01*
Y990000D01*
D02*
G37*
G36*
X135000D02*
X100000D01*
Y955000D01*
X135000D01*
Y990000D01*
D02*
G37*
G36*
X180000Y945000D02*
X145000D01*
Y910000D01*
X180000D01*
Y945000D01*
D02*
G37*
G36*
X135000D02*
X100000D01*
Y910000D01*
X135000D01*
Y945000D01*
D02*
G37*
G36*
X1395266Y965000D02*
X1384734D01*
X1374561Y962274D01*
X1365439Y957008D01*
X1357992Y949561D01*
X1352726Y940439D01*
X1350000Y930266D01*
Y919734D01*
X1352726Y909561D01*
X1357992Y900439D01*
X1365439Y892992D01*
X1374561Y887726D01*
X1384734Y885000D01*
X1395266D01*
X1405439Y887726D01*
X1414561Y892992D01*
X1422008Y900439D01*
X1427274Y909561D01*
X1430000Y919734D01*
Y930266D01*
X1427274Y940439D01*
X1422008Y949561D01*
X1414561Y957008D01*
X1405439Y962274D01*
X1395266Y965000D01*
D02*
G37*
G36*
X1055266Y950000D02*
X1044734D01*
X1034561Y947274D01*
X1025439Y942008D01*
X1017992Y934561D01*
X1012726Y925439D01*
X1010000Y915266D01*
Y904734D01*
X1012726Y894561D01*
X1017992Y885439D01*
X1025439Y877992D01*
X1034561Y872726D01*
X1044734Y870000D01*
X1055266D01*
X1065439Y872726D01*
X1074561Y877992D01*
X1082008Y885439D01*
X1087274Y894561D01*
X1090000Y904734D01*
Y915266D01*
X1087274Y925439D01*
X1082008Y934561D01*
X1074561Y942008D01*
X1065439Y947274D01*
X1055266Y950000D01*
D02*
G37*
G36*
X1440000Y875000D02*
X1400000D01*
Y835000D01*
X1440000D01*
Y875000D01*
D02*
G37*
G36*
X1380000D02*
X1340000D01*
Y835000D01*
X1380000D01*
Y875000D01*
D02*
G37*
G36*
X145266Y890000D02*
X134734D01*
X124561Y887274D01*
X115439Y882008D01*
X107992Y874561D01*
X102726Y865439D01*
X100000Y855266D01*
Y844734D01*
X102726Y834561D01*
X107992Y825439D01*
X115439Y817992D01*
X124561Y812726D01*
X134734Y810000D01*
X145266D01*
X155439Y812726D01*
X164561Y817992D01*
X172008Y825439D01*
X177274Y834561D01*
X180000Y844734D01*
Y855266D01*
X177274Y865439D01*
X172008Y874561D01*
X164561Y882008D01*
X155439Y887274D01*
X145266Y890000D01*
D02*
G37*
G36*
X1440000Y815000D02*
X1400000D01*
Y775000D01*
X1440000D01*
Y815000D01*
D02*
G37*
G36*
X1380000D02*
X1340000D01*
Y775000D01*
X1380000D01*
Y815000D01*
D02*
G37*
G36*
X1055266Y850000D02*
X1044734D01*
X1034561Y847274D01*
X1025439Y842008D01*
X1017992Y834561D01*
X1012726Y825439D01*
X1010000Y815266D01*
Y804734D01*
X1012726Y794561D01*
X1017992Y785439D01*
X1025439Y777992D01*
X1034561Y772726D01*
X1044734Y770000D01*
X1055266D01*
X1065439Y772726D01*
X1074561Y777992D01*
X1082008Y785439D01*
X1087274Y794561D01*
X1090000Y804734D01*
Y815266D01*
X1087274Y825439D01*
X1082008Y834561D01*
X1074561Y842008D01*
X1065439Y847274D01*
X1055266Y850000D01*
D02*
G37*
G36*
X180000Y790000D02*
X145000D01*
Y755000D01*
X180000D01*
Y790000D01*
D02*
G37*
G36*
X135000D02*
X100000D01*
Y755000D01*
X135000D01*
Y790000D01*
D02*
G37*
G36*
X180000Y745000D02*
X145000D01*
Y710000D01*
X180000D01*
Y745000D01*
D02*
G37*
G36*
X135000D02*
X100000D01*
Y710000D01*
X135000D01*
Y745000D01*
D02*
G37*
G36*
X1055266Y750000D02*
X1044734D01*
X1034561Y747274D01*
X1025439Y742008D01*
X1017992Y734561D01*
X1012726Y725439D01*
X1010000Y715266D01*
Y704734D01*
X1012726Y694561D01*
X1017992Y685439D01*
X1025439Y677992D01*
X1034561Y672726D01*
X1044734Y670000D01*
X1055266D01*
X1065439Y672726D01*
X1074561Y677992D01*
X1082008Y685439D01*
X1087274Y694561D01*
X1090000Y704734D01*
Y715266D01*
X1087274Y725439D01*
X1082008Y734561D01*
X1074561Y742008D01*
X1065439Y747274D01*
X1055266Y750000D01*
D02*
G37*
G36*
X1090000Y650000D02*
X1055000D01*
Y615000D01*
X1090000D01*
Y650000D01*
D02*
G37*
G36*
X1045000D02*
X1010000D01*
Y615000D01*
X1045000D01*
Y650000D01*
D02*
G37*
G36*
X145266Y690000D02*
X134734D01*
X124561Y687274D01*
X115439Y682008D01*
X107992Y674561D01*
X102726Y665439D01*
X100000Y655266D01*
Y644734D01*
X102726Y634561D01*
X107992Y625439D01*
X115439Y617992D01*
X124561Y612726D01*
X134734Y610000D01*
X145266D01*
X155439Y612726D01*
X164561Y617992D01*
X172008Y625439D01*
X177274Y634561D01*
X180000Y644734D01*
Y655266D01*
X177274Y665439D01*
X172008Y674561D01*
X164561Y682008D01*
X155439Y687274D01*
X145266Y690000D01*
D02*
G37*
G36*
X1090000Y605000D02*
X1055000D01*
Y570000D01*
X1090000D01*
Y605000D01*
D02*
G37*
G36*
X1045000D02*
X1010000D01*
Y570000D01*
X1045000D01*
Y605000D01*
D02*
G37*
G36*
X1245266Y645000D02*
X1234734D01*
X1224561Y642274D01*
X1215439Y637008D01*
X1207992Y629561D01*
X1202726Y620439D01*
X1200000Y610266D01*
Y599734D01*
X1202726Y589561D01*
X1207992Y580439D01*
X1215439Y572992D01*
X1224561Y567726D01*
X1234734Y565000D01*
X1245266D01*
X1255439Y567726D01*
X1264561Y572992D01*
X1272008Y580439D01*
X1277274Y589561D01*
X1280000Y599734D01*
Y610266D01*
X1277274Y620439D01*
X1272008Y629561D01*
X1264561Y637008D01*
X1255439Y642274D01*
X1245266Y645000D01*
D02*
G37*
G36*
X180000Y590000D02*
X145000D01*
Y555000D01*
X180000D01*
Y590000D01*
D02*
G37*
G36*
X135000D02*
X100000D01*
Y555000D01*
X135000D01*
Y590000D01*
D02*
G37*
G36*
X180000Y545000D02*
X145000D01*
Y510000D01*
X180000D01*
Y545000D01*
D02*
G37*
G36*
X135000D02*
X100000D01*
Y510000D01*
X135000D01*
Y545000D01*
D02*
G37*
G36*
X1055266Y550000D02*
X1044734D01*
X1034561Y547274D01*
X1025439Y542008D01*
X1017992Y534561D01*
X1012726Y525439D01*
X1010000Y515266D01*
Y504734D01*
X1012726Y494561D01*
X1017992Y485439D01*
X1025439Y477992D01*
X1034561Y472726D01*
X1044734Y470000D01*
X1055266D01*
X1065439Y472726D01*
X1074561Y477992D01*
X1082008Y485439D01*
X1087274Y494561D01*
X1090000Y504734D01*
Y515266D01*
X1087274Y525439D01*
X1082008Y534561D01*
X1074561Y542008D01*
X1065439Y547274D01*
X1055266Y550000D01*
D02*
G37*
G36*
X1245266Y545000D02*
X1234734D01*
X1224561Y542274D01*
X1215439Y537008D01*
X1207992Y529561D01*
X1202726Y520439D01*
X1200000Y510266D01*
Y499734D01*
X1202726Y489561D01*
X1207992Y480439D01*
X1215439Y472992D01*
X1224561Y467726D01*
X1234734Y465000D01*
X1245266D01*
X1255439Y467726D01*
X1264561Y472992D01*
X1272008Y480439D01*
X1277274Y489561D01*
X1280000Y499734D01*
Y510266D01*
X1277274Y520439D01*
X1272008Y529561D01*
X1264561Y537008D01*
X1255439Y542274D01*
X1245266Y545000D01*
D02*
G37*
G36*
X1090000Y450000D02*
X1055000D01*
Y415000D01*
X1090000D01*
Y450000D01*
D02*
G37*
G36*
X1045000D02*
X1010000D01*
Y415000D01*
X1045000D01*
Y450000D01*
D02*
G37*
G36*
X1280000Y445000D02*
X1245000D01*
Y410000D01*
X1280000D01*
Y445000D01*
D02*
G37*
G36*
X145266Y490000D02*
X134734D01*
X124561Y487274D01*
X115439Y482008D01*
X107992Y474561D01*
X102726Y465439D01*
X100000Y455266D01*
Y444734D01*
X102726Y434561D01*
X107992Y425439D01*
X115439Y417992D01*
X124561Y412726D01*
X134734Y410000D01*
X145266D01*
X155439Y412726D01*
X164561Y417992D01*
X172008Y425439D01*
X177274Y434561D01*
X180000Y444734D01*
Y455266D01*
X177274Y465439D01*
X172008Y474561D01*
X164561Y482008D01*
X155439Y487274D01*
X145266Y490000D01*
D02*
G37*
G36*
X1235000Y445000D02*
X1200000D01*
Y410000D01*
X1235000D01*
Y445000D01*
D02*
G37*
G36*
X1150204Y459527D02*
X1139796D01*
X1129743Y456834D01*
X1120729Y451630D01*
X1113370Y444271D01*
X1108166Y435257D01*
X1105473Y425204D01*
Y414796D01*
X1108166Y404743D01*
X1113370Y395729D01*
X1120729Y388370D01*
X1129743Y383166D01*
X1139796Y380473D01*
X1150204D01*
X1160257Y383166D01*
X1169271Y388370D01*
X1176630Y395729D01*
X1181834Y404743D01*
X1184527Y414796D01*
Y425204D01*
X1181834Y435257D01*
X1176630Y444271D01*
X1169271Y451630D01*
X1160257Y456834D01*
X1150204Y459527D01*
D02*
G37*
G36*
X1090000Y405000D02*
X1055000D01*
Y370000D01*
X1090000D01*
Y405000D01*
D02*
G37*
G36*
X1045000D02*
X1010000D01*
Y370000D01*
X1045000D01*
Y405000D01*
D02*
G37*
G36*
X1280000Y400000D02*
X1245000D01*
Y365000D01*
X1280000D01*
Y400000D01*
D02*
G37*
G36*
X1235000D02*
X1200000D01*
Y365000D01*
X1235000D01*
Y400000D01*
D02*
G37*
G36*
X180000Y390000D02*
X145000D01*
Y355000D01*
X180000D01*
Y390000D01*
D02*
G37*
G36*
X135000D02*
X100000D01*
Y355000D01*
X135000D01*
Y390000D01*
D02*
G37*
G36*
X180000Y345000D02*
X145000D01*
Y310000D01*
X180000D01*
Y345000D01*
D02*
G37*
G36*
X135000D02*
X100000D01*
Y310000D01*
X135000D01*
Y345000D01*
D02*
G37*
G36*
X1090000Y350000D02*
X1010000D01*
Y270000D01*
X1090000D01*
Y350000D01*
D02*
G37*
G36*
X1455000Y285000D02*
X1420000D01*
Y250000D01*
X1455000D01*
Y285000D01*
D02*
G37*
G36*
X1410000D02*
X1375000D01*
Y250000D01*
X1410000D01*
Y285000D01*
D02*
G37*
G36*
X1055266Y250000D02*
X1055000D01*
Y215000D01*
X1090000D01*
Y215266D01*
X1087274Y225439D01*
X1082008Y234561D01*
X1074561Y242008D01*
X1065439Y247274D01*
X1055266Y250000D01*
D02*
G37*
G36*
X1045000D02*
X1044734D01*
X1034561Y247274D01*
X1025439Y242008D01*
X1017992Y234561D01*
X1012726Y225439D01*
X1010000Y215266D01*
Y215000D01*
X1045000D01*
Y250000D01*
D02*
G37*
G36*
X145266Y290000D02*
X134734D01*
X124561Y287274D01*
X115439Y282008D01*
X107992Y274561D01*
X102726Y265439D01*
X100000Y255266D01*
Y244734D01*
X102726Y234561D01*
X107992Y225439D01*
X115439Y217992D01*
X124561Y212726D01*
X134734Y210000D01*
X145266D01*
X155439Y212726D01*
X164561Y217992D01*
X172008Y225439D01*
X177274Y234561D01*
X180000Y244734D01*
Y255266D01*
X177274Y265439D01*
X172008Y274561D01*
X164561Y282008D01*
X155439Y287274D01*
X145266Y290000D01*
D02*
G37*
G36*
X1455000Y240000D02*
X1420000D01*
Y205000D01*
X1455000D01*
Y240000D01*
D02*
G37*
G36*
X1410000D02*
X1375000D01*
Y205000D01*
X1410000D01*
Y240000D01*
D02*
G37*
G36*
X1320266Y285000D02*
X1309734D01*
X1299561Y282274D01*
X1290439Y277008D01*
X1282992Y269561D01*
X1277726Y260439D01*
X1275000Y250266D01*
Y239734D01*
X1277726Y229561D01*
X1282992Y220439D01*
X1290439Y212992D01*
X1299561Y207726D01*
X1309734Y205000D01*
X1320266D01*
X1330439Y207726D01*
X1339561Y212992D01*
X1347008Y220439D01*
X1352274Y229561D01*
X1355000Y239734D01*
Y250266D01*
X1352274Y260439D01*
X1347008Y269561D01*
X1339561Y277008D01*
X1330439Y282274D01*
X1320266Y285000D01*
D02*
G37*
G36*
X1090000Y205000D02*
X1055000D01*
Y170000D01*
X1055266D01*
X1065439Y172726D01*
X1074561Y177992D01*
X1082008Y185439D01*
X1087274Y194561D01*
X1090000Y204734D01*
Y205000D01*
D02*
G37*
G36*
X1045000D02*
X1010000D01*
Y204734D01*
X1012726Y194561D01*
X1017992Y185439D01*
X1025439Y177992D01*
X1034561Y172726D01*
X1044734Y170000D01*
X1045000D01*
Y205000D01*
D02*
G37*
G36*
X1150204Y159528D02*
X1139796D01*
X1129743Y156834D01*
X1120729Y151630D01*
X1113370Y144270D01*
X1108166Y135257D01*
X1105473Y125204D01*
Y114796D01*
X1108166Y104743D01*
X1113370Y95730D01*
X1120729Y88370D01*
X1129743Y83166D01*
X1139796Y80472D01*
X1150204D01*
X1160257Y83166D01*
X1169271Y88370D01*
X1176630Y95730D01*
X1181834Y104743D01*
X1184527Y114796D01*
Y125204D01*
X1181834Y135257D01*
X1176630Y144270D01*
X1169271Y151630D01*
X1160257Y156834D01*
X1150204Y159528D01*
D02*
G37*
G36*
X491253Y142500D02*
X478747D01*
X466666Y139263D01*
X455834Y133010D01*
X446990Y124166D01*
X440737Y113334D01*
X437500Y101254D01*
Y88746D01*
X440737Y76666D01*
X446990Y65834D01*
X455834Y56990D01*
X466666Y50737D01*
X478747Y47500D01*
X491253D01*
X503334Y50737D01*
X514166Y56990D01*
X523010Y65834D01*
X529263Y76666D01*
X532500Y88746D01*
Y101254D01*
X529263Y113334D01*
X523010Y124166D01*
X514166Y133010D01*
X503334Y139263D01*
X491253Y142500D01*
D02*
G37*
G36*
X391253D02*
X378747D01*
X366666Y139263D01*
X355834Y133010D01*
X346990Y124166D01*
X340737Y113334D01*
X337500Y101254D01*
Y88746D01*
X340737Y76666D01*
X346990Y65834D01*
X355834Y56990D01*
X366666Y50737D01*
X378747Y47500D01*
X391253D01*
X403334Y50737D01*
X414166Y56990D01*
X423010Y65834D01*
X429263Y76666D01*
X432500Y88746D01*
Y101254D01*
X429263Y113334D01*
X423010Y124166D01*
X414166Y133010D01*
X403334Y139263D01*
X391253Y142500D01*
D02*
G37*
G36*
X1406317Y164134D02*
X1393683D01*
X1381293Y161669D01*
X1369621Y156835D01*
X1359117Y149816D01*
X1350184Y140883D01*
X1343165Y130379D01*
X1338331Y118707D01*
X1335866Y106317D01*
Y93683D01*
X1338331Y81293D01*
X1343165Y69621D01*
X1350184Y59117D01*
X1359117Y50184D01*
X1369621Y43165D01*
X1381293Y38331D01*
X1393683Y35866D01*
X1406317D01*
X1418707Y38331D01*
X1430379Y43165D01*
X1440883Y50184D01*
X1449816Y59117D01*
X1456835Y69621D01*
X1461669Y81293D01*
X1464134Y93683D01*
Y106317D01*
X1461669Y118707D01*
X1456835Y130379D01*
X1449816Y140883D01*
X1440883Y149816D01*
X1430379Y156835D01*
X1418707Y161669D01*
X1406317Y164134D01*
D02*
G37*
G36*
X106317D02*
X93683D01*
X81293Y161669D01*
X69621Y156835D01*
X59117Y149816D01*
X50184Y140883D01*
X43165Y130379D01*
X38331Y118707D01*
X35866Y106317D01*
Y93683D01*
X38331Y81293D01*
X43165Y69621D01*
X50184Y59117D01*
X59117Y50184D01*
X69621Y43165D01*
X81293Y38331D01*
X93683Y35866D01*
X106317D01*
X118707Y38331D01*
X130379Y43165D01*
X140883Y50184D01*
X149816Y59117D01*
X156835Y69621D01*
X161669Y81293D01*
X164134Y93683D01*
Y106317D01*
X161669Y118707D01*
X156835Y130379D01*
X149816Y140883D01*
X140883Y149816D01*
X130379Y156835D01*
X118707Y161669D01*
X106317Y164134D01*
D02*
G37*
%LPD*%
D18*
X750000Y2040000D02*
D03*
D19*
Y2340000D02*
D03*
X490000Y2390000D02*
D03*
X1010000D02*
D03*
D20*
X290000D02*
D03*
X1210000D02*
D03*
D21*
X1050000Y910000D02*
D03*
Y710000D02*
D03*
Y810000D02*
D03*
X1250000Y1025000D02*
D03*
X1150000D02*
D03*
X1350000D02*
D03*
X1240000Y505000D02*
D03*
Y605000D02*
D03*
X1315000Y245000D02*
D03*
X1390000Y925000D02*
D03*
X140000Y1050000D02*
D03*
X1050000Y510000D02*
D03*
X140000Y650000D02*
D03*
Y250000D02*
D03*
X1050000Y210000D02*
D03*
X140000Y850000D02*
D03*
Y450000D02*
D03*
D22*
X1050000Y610000D02*
D03*
X1240000Y405000D02*
D03*
X1390000Y825000D02*
D03*
X140000Y1150000D02*
D03*
X1050000Y410000D02*
D03*
X140000Y750000D02*
D03*
Y350000D02*
D03*
X1050000Y310000D02*
D03*
X140000Y950000D02*
D03*
Y550000D02*
D03*
D23*
X1050000Y1025000D02*
D03*
X1415000Y245000D02*
D03*
D24*
X570000Y2110000D02*
D03*
X70000D02*
D03*
X930000D02*
D03*
X1430000D02*
D03*
D25*
X1340000Y1260000D02*
D03*
X1240000D02*
D03*
D26*
X1140000D02*
D03*
D27*
X450000Y1810000D02*
D03*
X350000D02*
D03*
X1145000Y420000D02*
D03*
Y120000D02*
D03*
X1150000Y1850000D02*
D03*
X1050000D02*
D03*
D28*
X250000Y1810000D02*
D03*
X1250000Y1850000D02*
D03*
D29*
X485000Y95000D02*
D03*
X385000D02*
D03*
X500000Y1571000D02*
D03*
Y1671000D02*
D03*
X600000Y1571000D02*
D03*
Y1671000D02*
D03*
X700000Y1571000D02*
D03*
Y1671000D02*
D03*
D30*
X1060000Y2000000D02*
D03*
X1040000Y1960000D02*
D03*
X1060000Y1920000D02*
D03*
X1040000Y1800000D02*
D03*
X1020000Y2000000D02*
D03*
X1000000Y1960000D02*
D03*
X1020000Y1920000D02*
D03*
X1000000Y1880000D02*
D03*
Y1800000D02*
D03*
X980000Y2000000D02*
D03*
Y1920000D02*
D03*
Y1840000D02*
D03*
X880000Y2040000D02*
D03*
Y1960000D02*
D03*
Y1880000D02*
D03*
Y1800000D02*
D03*
X840000Y2040000D02*
D03*
X860000Y2000000D02*
D03*
X840000Y1960000D02*
D03*
X860000Y1920000D02*
D03*
X840000Y1880000D02*
D03*
X860000Y1840000D02*
D03*
X840000Y1800000D02*
D03*
X800000Y1960000D02*
D03*
X820000Y1920000D02*
D03*
X800000Y1880000D02*
D03*
X820000Y1840000D02*
D03*
X800000Y1800000D02*
D03*
X760000Y1960000D02*
D03*
X780000Y1920000D02*
D03*
X760000Y1880000D02*
D03*
X780000Y1840000D02*
D03*
X760000Y1800000D02*
D03*
X720000Y1960000D02*
D03*
X740000Y1920000D02*
D03*
X720000Y1880000D02*
D03*
X740000Y1840000D02*
D03*
X720000Y1800000D02*
D03*
X680000Y1960000D02*
D03*
X700000Y1920000D02*
D03*
X680000Y1880000D02*
D03*
X700000Y1840000D02*
D03*
X680000Y1800000D02*
D03*
X660000Y2080000D02*
D03*
X640000Y2040000D02*
D03*
X660000Y2000000D02*
D03*
X640000Y1960000D02*
D03*
X660000Y1920000D02*
D03*
X640000Y1880000D02*
D03*
X660000Y1840000D02*
D03*
X640000Y1800000D02*
D03*
X600000Y2040000D02*
D03*
X620000Y2000000D02*
D03*
X600000Y1960000D02*
D03*
X620000Y1920000D02*
D03*
X600000Y1880000D02*
D03*
X620000Y1840000D02*
D03*
X600000Y1800000D02*
D03*
X580000Y2000000D02*
D03*
X560000Y1960000D02*
D03*
X580000Y1920000D02*
D03*
X560000Y1880000D02*
D03*
X580000Y1840000D02*
D03*
X560000Y1800000D02*
D03*
X540000Y2000000D02*
D03*
X520000Y1960000D02*
D03*
X540000Y1920000D02*
D03*
X520000Y1880000D02*
D03*
X540000Y1840000D02*
D03*
X520000Y1800000D02*
D03*
X500000Y2000000D02*
D03*
X480000Y1960000D02*
D03*
X500000Y1920000D02*
D03*
X480000Y1880000D02*
D03*
X500000Y1840000D02*
D03*
X460000Y2000000D02*
D03*
X440000Y1960000D02*
D03*
X460000Y1920000D02*
D03*
X440000Y1880000D02*
D03*
D31*
X855000Y1480000D02*
D03*
D32*
X60000Y1410000D02*
D03*
D33*
X930000Y1470000D02*
Y2110000D01*
Y1470000D02*
X1140000Y1260000D01*
%TF.MD5,2fcecd434b52e9a4562fbb966a190cb2*%
M02*
