%TF.GenerationSoftware,Altium Limited,Altium Designer,22.10.1 (41)*%
G04 Layer_Color=255*
%FSLAX26Y26*%
%MOIN*%
%TF.SameCoordinates,59CDB8F9-364B-4C5A-A8AF-F7A69B8E0267*%
%TF.FilePolarity,Positive*%
%TF.FileFunction,Pads,Top*%
%TF.Part,Single*%
G01*
G75*
%TA.AperFunction,BGAPad,CuDef*%
%ADD10R,0.080000X0.080000*%
%TA.AperFunction,SMDPad,CuDef*%
%ADD11R,0.051181X0.037402*%
%ADD12R,0.047244X0.043307*%
%ADD13R,0.037402X0.051181*%
%ADD14R,0.084646X0.064961*%
%TA.AperFunction,ComponentPad*%
%ADD18R,0.140000X0.140000*%
%ADD19C,0.140000*%
%ADD20R,0.140000X0.140000*%
%ADD21C,0.060000*%
%ADD22R,0.060000X0.060000*%
%ADD23R,0.060000X0.060000*%
%ADD24C,0.090000*%
%ADD25C,0.064961*%
%ADD26R,0.064961X0.064961*%
%ADD27C,0.059055*%
%ADD28R,0.059055X0.059055*%
D10*
X250000Y1475000D02*
D03*
Y1375000D02*
D03*
Y1275000D02*
D03*
Y1175000D02*
D03*
Y1075000D02*
D03*
Y975000D02*
D03*
Y875000D02*
D03*
Y775000D02*
D03*
Y675000D02*
D03*
Y575000D02*
D03*
Y475000D02*
D03*
Y375000D02*
D03*
Y275000D02*
D03*
Y175000D02*
D03*
X950000Y1575000D02*
D03*
Y1475000D02*
D03*
Y1375000D02*
D03*
Y1275000D02*
D03*
Y1175000D02*
D03*
Y1075000D02*
D03*
Y975000D02*
D03*
Y875000D02*
D03*
Y775000D02*
D03*
Y175000D02*
D03*
Y275000D02*
D03*
Y375000D02*
D03*
Y475000D02*
D03*
Y575000D02*
D03*
Y675000D02*
D03*
X250000Y1575000D02*
D03*
D11*
X1380000Y411417D02*
D03*
Y338583D02*
D03*
X120000Y1333583D02*
D03*
Y1406417D02*
D03*
Y1530000D02*
D03*
Y1602835D02*
D03*
X1235000Y143583D02*
D03*
Y216417D02*
D03*
D12*
X1380000Y473661D02*
D03*
Y556339D02*
D03*
D13*
X1196417Y775000D02*
D03*
X1123583D02*
D03*
X1343583Y690000D02*
D03*
X1416417D02*
D03*
X1196417Y705000D02*
D03*
X1123583D02*
D03*
Y845000D02*
D03*
X1196417D02*
D03*
X1123583Y915000D02*
D03*
X1196417D02*
D03*
X993583Y1700000D02*
D03*
X1066417D02*
D03*
X1213583D02*
D03*
X1286417D02*
D03*
X1331417Y1115000D02*
D03*
X1258583D02*
D03*
X1128583D02*
D03*
X1201417D02*
D03*
D14*
X1216772Y1585000D02*
D03*
X1063228D02*
D03*
D18*
X750000Y2040000D02*
D03*
D19*
Y2340000D02*
D03*
X490000Y2390000D02*
D03*
X1010000D02*
D03*
D20*
X290000D02*
D03*
X1210000D02*
D03*
D21*
X1050000Y910000D02*
D03*
Y710000D02*
D03*
Y810000D02*
D03*
X1250000Y1025000D02*
D03*
X1150000D02*
D03*
X1350000D02*
D03*
X1240000Y505000D02*
D03*
Y605000D02*
D03*
X1315000Y245000D02*
D03*
X1390000Y925000D02*
D03*
X140000Y1050000D02*
D03*
X1050000Y510000D02*
D03*
X140000Y650000D02*
D03*
Y250000D02*
D03*
X1050000Y210000D02*
D03*
X140000Y850000D02*
D03*
Y450000D02*
D03*
D22*
X1050000Y610000D02*
D03*
X1240000Y405000D02*
D03*
X1390000Y825000D02*
D03*
X140000Y1150000D02*
D03*
X1050000Y410000D02*
D03*
X140000Y750000D02*
D03*
Y350000D02*
D03*
X1050000Y310000D02*
D03*
X140000Y950000D02*
D03*
Y550000D02*
D03*
D23*
X1050000Y1025000D02*
D03*
X1415000Y245000D02*
D03*
D24*
X570000Y2110000D02*
D03*
X70000D02*
D03*
X930000D02*
D03*
X1430000D02*
D03*
D25*
X1340000Y1260000D02*
D03*
X1240000D02*
D03*
D26*
X1140000D02*
D03*
D27*
X450000Y1810000D02*
D03*
X350000D02*
D03*
X1145000Y420000D02*
D03*
Y120000D02*
D03*
X1150000Y1850000D02*
D03*
X1050000D02*
D03*
D28*
X250000Y1810000D02*
D03*
X1250000Y1850000D02*
D03*
%TF.MD5,f892cb9e1681391d9de34312219fd8ab*%
M02*
