%TF.GenerationSoftware,Altium Limited,Altium Designer,22.10.1 (41)*%
G04 Layer_Physical_Order=1*
G04 Layer_Color=255*
%FSLAX26Y26*%
%MOIN*%
%TF.SameCoordinates,59CDB8F9-364B-4C5A-A8AF-F7A69B8E0267*%
%TF.FilePolarity,Positive*%
%TF.FileFunction,Copper,L1,Top,Signal*%
%TF.Part,Single*%
G01*
G75*
%TA.AperFunction,BGAPad,CuDef*%
%ADD10R,0.080000X0.080000*%
%TA.AperFunction,SMDPad,CuDef*%
%ADD11R,0.051181X0.037402*%
%ADD12R,0.047244X0.043307*%
%ADD13R,0.037402X0.051181*%
%ADD14R,0.084646X0.064961*%
%TA.AperFunction,Conductor*%
%ADD15C,0.010000*%
%ADD16C,0.020000*%
%ADD17C,0.025000*%
%TA.AperFunction,ComponentPad*%
%ADD18R,0.140000X0.140000*%
%ADD19C,0.140000*%
%ADD20R,0.140000X0.140000*%
%ADD21C,0.060000*%
%ADD22R,0.060000X0.060000*%
%ADD23R,0.060000X0.060000*%
%ADD24C,0.090000*%
%ADD25C,0.064961*%
%ADD26R,0.064961X0.064961*%
%ADD27C,0.059055*%
%ADD28R,0.059055X0.059055*%
%TA.AperFunction,ViaPad*%
%ADD29C,0.075000*%
%ADD30C,0.010000*%
%ADD31C,0.050000*%
%ADD32C,0.028000*%
G36*
X1084804Y2055000D02*
X905000D01*
X830000Y2130000D01*
X670000D01*
X595000Y2055000D01*
X415196D01*
Y2484707D01*
X1084804D01*
Y2055000D01*
D02*
G37*
G36*
X1485000Y2485000D02*
X1485000Y1890000D01*
X1290000D01*
X1290000Y1890000D01*
Y1890000D01*
X1285213Y1889527D01*
X1210473D01*
Y1810473D01*
X1205668Y1810000D01*
X1095000D01*
Y2485000D01*
X1485000Y2485000D01*
D02*
G37*
G36*
X897790Y2047790D02*
X901098Y2045580D01*
X905000Y2044804D01*
X1084804D01*
Y1810000D01*
X1085000Y1809015D01*
Y1772500D01*
X415196D01*
Y1965575D01*
X415950Y2044804D01*
X595000D01*
X598902Y2045580D01*
X602210Y2047790D01*
X674224Y2119804D01*
X825777D01*
X897790Y2047790D01*
D02*
G37*
G36*
X405000Y1770000D02*
X294332D01*
X289527Y1770473D01*
Y1849527D01*
X210473D01*
X210000Y1850000D01*
X205391Y1850000D01*
X15000D01*
X15000Y2485000D01*
X405000Y2485000D01*
Y1770000D01*
D02*
G37*
G36*
X1470000Y1180000D02*
X1356100D01*
Y1220335D01*
X1356397Y1220415D01*
X1366083Y1226007D01*
X1373993Y1233917D01*
X1379585Y1243603D01*
X1382480Y1254407D01*
Y1265593D01*
X1379585Y1276397D01*
X1373993Y1286083D01*
X1366083Y1293993D01*
X1356397Y1299585D01*
X1345593Y1302480D01*
X1334407D01*
X1323603Y1299585D01*
X1313917Y1293993D01*
X1306007Y1286083D01*
X1300415Y1276397D01*
X1297520Y1265593D01*
Y1254407D01*
X1300415Y1243603D01*
X1306007Y1233917D01*
X1313917Y1226007D01*
X1315317Y1225199D01*
Y1180000D01*
X1260392D01*
Y1222721D01*
X1266083Y1226007D01*
X1273993Y1233917D01*
X1279585Y1243603D01*
X1282480Y1254407D01*
Y1265593D01*
X1279585Y1276397D01*
X1273993Y1286083D01*
X1266083Y1293993D01*
X1256397Y1299585D01*
X1245593Y1302480D01*
X1234407D01*
X1223603Y1299585D01*
X1213917Y1293993D01*
X1206007Y1286083D01*
X1200415Y1276397D01*
X1197520Y1265593D01*
Y1254407D01*
X1200415Y1243603D01*
X1206007Y1233917D01*
X1213917Y1226007D01*
X1219608Y1222721D01*
Y1180000D01*
X1067842D01*
X1015000Y1232842D01*
Y1542520D01*
X1115551D01*
Y1615000D01*
X1154449D01*
Y1595000D01*
X1216772D01*
X1279094D01*
Y1615000D01*
X1470000D01*
Y1180000D01*
D02*
G37*
%LPC*%
G36*
X1406317Y2464134D02*
X1393683D01*
X1381293Y2461669D01*
X1369621Y2456835D01*
X1359117Y2449816D01*
X1350184Y2440883D01*
X1343165Y2430379D01*
X1338331Y2418707D01*
X1335866Y2406317D01*
Y2393683D01*
X1338331Y2381293D01*
X1343165Y2369621D01*
X1350184Y2359117D01*
X1359117Y2350184D01*
X1369621Y2343165D01*
X1381293Y2338331D01*
X1393683Y2335866D01*
X1406317D01*
X1418707Y2338331D01*
X1430379Y2343165D01*
X1440883Y2350184D01*
X1449816Y2359117D01*
X1456835Y2369621D01*
X1461669Y2381293D01*
X1464134Y2393683D01*
Y2406317D01*
X1461669Y2418707D01*
X1456835Y2430379D01*
X1449816Y2440883D01*
X1440883Y2449816D01*
X1430379Y2456835D01*
X1418707Y2461669D01*
X1406317Y2464134D01*
D02*
G37*
G36*
X106317D02*
X93683D01*
X81293Y2461669D01*
X69621Y2456835D01*
X59117Y2449816D01*
X50184Y2440883D01*
X43165Y2430379D01*
X38331Y2418707D01*
X35866Y2406317D01*
Y2393683D01*
X38331Y2381293D01*
X43165Y2369621D01*
X50184Y2359117D01*
X59117Y2350184D01*
X69621Y2343165D01*
X81293Y2338331D01*
X93683Y2335866D01*
X106317D01*
X118707Y2338331D01*
X130379Y2343165D01*
X140883Y2350184D01*
X149816Y2359117D01*
X156835Y2369621D01*
X161669Y2381293D01*
X164134Y2393683D01*
Y2406317D01*
X161669Y2418707D01*
X156835Y2430379D01*
X149816Y2440883D01*
X140883Y2449816D01*
X130379Y2456835D01*
X118707Y2461669D01*
X106317Y2464134D01*
D02*
G37*
G36*
X1279094Y1575000D02*
X1226772D01*
Y1532520D01*
X1279094D01*
Y1575000D01*
D02*
G37*
G36*
X1206772D02*
X1154449D01*
Y1532520D01*
X1206772D01*
Y1575000D01*
D02*
G37*
G36*
X1192480Y1312480D02*
X1150000D01*
Y1270000D01*
X1192480D01*
Y1312480D01*
D02*
G37*
G36*
X1130000D02*
X1087520D01*
Y1270000D01*
X1130000D01*
Y1312480D01*
D02*
G37*
G36*
X1192480Y1250000D02*
X1150000D01*
Y1207520D01*
X1192480D01*
Y1250000D01*
D02*
G37*
G36*
X1130000D02*
X1087520D01*
Y1207520D01*
X1130000D01*
Y1250000D01*
D02*
G37*
%LPD*%
D10*
X250000Y1475000D02*
D03*
Y1375000D02*
D03*
Y1275000D02*
D03*
Y1175000D02*
D03*
Y1075000D02*
D03*
Y975000D02*
D03*
Y875000D02*
D03*
Y775000D02*
D03*
Y675000D02*
D03*
Y575000D02*
D03*
Y475000D02*
D03*
Y375000D02*
D03*
Y275000D02*
D03*
Y175000D02*
D03*
X950000Y1575000D02*
D03*
Y1475000D02*
D03*
Y1375000D02*
D03*
Y1275000D02*
D03*
Y1175000D02*
D03*
Y1075000D02*
D03*
Y975000D02*
D03*
Y875000D02*
D03*
Y775000D02*
D03*
Y175000D02*
D03*
Y275000D02*
D03*
Y375000D02*
D03*
Y475000D02*
D03*
Y575000D02*
D03*
Y675000D02*
D03*
X250000Y1575000D02*
D03*
D11*
X1380000Y411417D02*
D03*
Y338583D02*
D03*
X120000Y1333583D02*
D03*
Y1406417D02*
D03*
Y1530000D02*
D03*
Y1602835D02*
D03*
X1235000Y143583D02*
D03*
Y216417D02*
D03*
D12*
X1380000Y473661D02*
D03*
Y556339D02*
D03*
D13*
X1196417Y775000D02*
D03*
X1123583D02*
D03*
X1343583Y690000D02*
D03*
X1416417D02*
D03*
X1196417Y705000D02*
D03*
X1123583D02*
D03*
Y845000D02*
D03*
X1196417D02*
D03*
X1123583Y915000D02*
D03*
X1196417D02*
D03*
X993583Y1700000D02*
D03*
X1066417D02*
D03*
X1213583D02*
D03*
X1286417D02*
D03*
X1331417Y1115000D02*
D03*
X1258583D02*
D03*
X1128583D02*
D03*
X1201417D02*
D03*
D14*
X1216772Y1585000D02*
D03*
X1063228D02*
D03*
D15*
X1158461Y664409D02*
X1189896D01*
X250000Y1175000D02*
X448787D01*
X903787Y1630000D02*
X1003307D01*
X448787Y1175000D02*
X903787Y1630000D01*
X60000Y1410000D02*
X116417D01*
X120000Y1406417D01*
X1390000Y825000D02*
X1416417Y798583D01*
X1246922Y690000D02*
X1343583D01*
X1416417D02*
Y798583D01*
X1316417Y825000D02*
X1390000D01*
X1217008Y725591D02*
X1316417Y825000D01*
X1196417Y705000D02*
Y711890D01*
X1210118Y725591D01*
X1217008D01*
X993583Y1793583D02*
X1050000Y1850000D01*
X993583Y1700000D02*
Y1793583D01*
X1240000Y505000D02*
X1305555Y439445D01*
Y322625D02*
Y439445D01*
Y322625D02*
X1362500Y265680D01*
Y202043D02*
Y265680D01*
X1233430Y72972D02*
X1362500Y202043D01*
X924504Y72972D02*
X1233430D01*
X522476Y475000D02*
X924504Y72972D01*
X250000Y475000D02*
X522476D01*
X1095000Y373787D02*
Y420000D01*
X1189896Y164896D02*
Y664409D01*
X1085607Y364394D02*
X1095000Y373787D01*
X1050000Y355000D02*
X1059393Y364394D01*
X1095000Y420000D02*
Y528640D01*
X1059393Y364394D02*
X1085607D01*
X1050000Y310000D02*
Y355000D01*
X1095000Y420000D02*
X1145000D01*
Y120000D02*
X1189896Y164896D01*
X1197509Y157284D01*
X1221299D01*
X245000Y480000D02*
X250000Y475000D01*
X1380000Y280000D02*
X1415000Y245000D01*
X1380000Y280000D02*
Y338583D01*
Y411417D02*
Y473661D01*
X1308526Y245000D02*
X1315000D01*
X1235000Y216417D02*
X1279943D01*
X1308526Y245000D01*
X1221299Y157284D02*
X1235000Y143583D01*
X1189896Y664409D02*
X1221331D01*
X950000Y675000D02*
X995000Y630000D01*
X996213D01*
X1005000Y573787D02*
Y621213D01*
X996213Y630000D02*
X1005000Y621213D01*
Y573787D02*
X1023787Y555000D01*
X1068640D02*
X1095000Y528640D01*
X1023787Y555000D02*
X1068640D01*
X1006646Y519567D02*
X1040433D01*
X996213Y530000D02*
X1006646Y519567D01*
X1040433D02*
X1050000Y510000D01*
X995000Y530000D02*
X996213D01*
X950000Y575000D02*
X995000Y530000D01*
X120000Y1602835D02*
Y1680000D01*
X250000Y1810000D01*
X133701Y1347284D02*
X142284D01*
X120000Y1333583D02*
X133701Y1347284D01*
X142284D02*
X160591Y1365591D01*
Y1431331D01*
X120000Y1471922D02*
X160591Y1431331D01*
X120000Y1471922D02*
Y1530000D01*
X215000Y1110000D02*
X250000Y1075000D01*
X187500Y1132751D02*
X210251Y1110000D01*
X215000D01*
X185000Y730000D02*
X205000Y710000D01*
X185000Y730000D02*
Y803432D01*
X215000Y710000D02*
X250000Y675000D01*
X205000Y710000D02*
X215000D01*
X174567Y640433D02*
X205000Y610000D01*
X215000D01*
X250000Y575000D01*
X149567Y640433D02*
X174567D01*
Y240433D02*
X205000Y210000D01*
X215000D02*
X250000Y175000D01*
X149567Y240433D02*
X174567D01*
X205000Y210000D02*
X215000D01*
X140000Y250000D02*
X149567Y240433D01*
X213787Y310000D02*
X215000D01*
X250000Y275000D01*
X140000Y450000D02*
X185000Y405000D01*
Y338787D02*
Y405000D01*
Y338787D02*
X213787Y310000D01*
X140000Y650000D02*
X149567Y640433D01*
X140000Y848432D02*
X185000Y803432D01*
X140000Y848432D02*
Y850000D01*
X217500Y807500D02*
X250000Y775000D01*
X212751Y807500D02*
X217500D01*
X187500Y832751D02*
X212751Y807500D01*
X187500Y832751D02*
Y869675D01*
X159675Y897500D02*
X187500Y869675D01*
X107751Y897500D02*
X159675D01*
X92500Y912751D02*
X107751Y897500D01*
X92500Y1002500D02*
X140000Y1050000D01*
X92500Y912751D02*
Y1002500D01*
X187500Y1132751D02*
Y1193817D01*
X212751Y907500D02*
X217500D01*
X187500Y932751D02*
X212751Y907500D01*
X187500Y932751D02*
Y1069675D01*
X162500Y1094675D02*
Y1127500D01*
X140000Y1150000D02*
X162500Y1127500D01*
X217500Y907500D02*
X250000Y875000D01*
X162500Y1094675D02*
X187500Y1069675D01*
X120000Y1261317D02*
X187500Y1193817D01*
X120000Y1261317D02*
Y1333583D01*
X1050000Y710000D02*
X1095591Y664409D01*
X1158461D01*
X1196417Y781890D02*
X1210118Y795591D01*
X1345000Y921188D02*
Y956360D01*
X1210118Y795591D02*
X1219402D01*
X1345000Y921188D01*
X1196417Y775000D02*
Y781890D01*
X1158461Y664409D02*
X1162716Y668665D01*
Y806803D01*
X1221331Y664409D02*
X1246922Y690000D01*
X1162716Y806803D02*
X1171504Y815591D01*
X1173898D01*
X1196417Y838110D01*
X1295000Y1085913D02*
Y1195000D01*
Y1085913D02*
X1310913Y1070000D01*
X1368640D02*
X1395000Y1043640D01*
X1345000Y956360D02*
X1395000Y1006360D01*
X1295000D02*
Y1043640D01*
X1395000Y1006360D02*
Y1043640D01*
X1268640Y1070000D02*
X1295000Y1043640D01*
X1224230Y935591D02*
X1295000Y1006360D01*
X1310913Y1070000D02*
X1368640D01*
X1105000D02*
X1268640D01*
X1210118Y935591D02*
X1224230D01*
X1196417Y915000D02*
Y921890D01*
Y845000D02*
Y915000D01*
Y921890D02*
X1210118Y935591D01*
X1123583Y705000D02*
Y775000D01*
X1003307Y1630000D02*
X1066417Y1693110D01*
Y1700000D01*
X996213Y1230000D02*
X1065710Y1160503D01*
Y1109290D02*
X1105000Y1070000D01*
X950000Y1275000D02*
X995000Y1230000D01*
X1065710Y1109290D02*
Y1160503D01*
X995000Y1230000D02*
X996213D01*
X1105000Y1070000D02*
X1150000Y1025000D01*
X1113583Y765000D02*
X1123583Y775000D01*
X960000Y765000D02*
X1113583D01*
X950000Y775000D02*
X960000Y765000D01*
X1013787Y980000D02*
X1205000D01*
X1250000Y1025000D01*
X950000Y1175000D02*
X995000Y1130000D01*
X1050000Y1025000D02*
Y1076213D01*
X995000Y1130000D02*
X996213D01*
X1050000Y1076213D01*
X1196417Y838110D02*
Y845000D01*
X969409Y955591D02*
X1148497D01*
X1157284Y946804D01*
X1137284Y865591D02*
X1139678D01*
X1123583Y845000D02*
Y851890D01*
X1005000Y988787D02*
X1013787Y980000D01*
X1157284Y883196D02*
Y946804D01*
X1139678Y865591D02*
X1157284Y883196D01*
X986213Y1040000D02*
X1005000Y1021213D01*
X1123583Y851890D02*
X1137284Y865591D01*
X950000Y1075000D02*
X985000Y1040000D01*
X986213D01*
X1250000Y1743307D02*
X1286417Y1706890D01*
X1250000Y1743307D02*
Y1850000D01*
X1286417Y1700000D02*
Y1706890D01*
X1066417Y1700000D02*
X1213583D01*
X1050000Y810000D02*
X1085000Y845000D01*
X1123583D01*
X950000Y975000D02*
X969409Y955591D01*
X1050000Y910000D02*
X1118583D01*
X1123583Y915000D01*
X950000Y875000D02*
X1015000D01*
X1050000Y910000D01*
X1005000Y988787D02*
Y1021213D01*
D16*
X1128583Y1121890D02*
X1140000Y1133307D01*
Y1260000D01*
X1128583Y1115000D02*
Y1121890D01*
X855000Y1480000D02*
X945000D01*
X950000Y1475000D01*
X1380000Y640938D02*
X1439931D01*
X1286762D02*
X1380000D01*
Y556339D02*
Y640938D01*
X1420000Y965824D02*
X1455118Y930706D01*
Y656125D02*
Y930706D01*
X1439931Y640938D02*
X1455118Y656125D01*
X1250824Y605000D02*
X1286762Y640938D01*
X1240000Y605000D02*
X1250824D01*
X1374585Y1099409D02*
X1420000Y1053995D01*
Y965824D02*
Y1053995D01*
X1390000Y925000D02*
Y935824D01*
X1340118Y1099409D02*
X1374585D01*
X1331417Y1108110D02*
X1340118Y1099409D01*
X1390000Y935824D02*
X1420000Y965824D01*
X1331417Y1108110D02*
Y1115000D01*
X1201417D02*
X1240000D01*
Y1260000D01*
Y1115000D02*
X1258583D01*
X1335709Y1255709D02*
X1340000Y1260000D01*
X1335709Y1119291D02*
Y1255709D01*
X1331417Y1115000D02*
X1335709Y1119291D01*
D17*
X960000Y1585000D02*
X1063228D01*
X950000Y1575000D02*
X960000Y1585000D01*
D18*
X750000Y2040000D02*
D03*
D19*
Y2340000D02*
D03*
X490000Y2390000D02*
D03*
X1010000D02*
D03*
D20*
X290000D02*
D03*
X1210000D02*
D03*
D21*
X1050000Y910000D02*
D03*
Y710000D02*
D03*
Y810000D02*
D03*
X1250000Y1025000D02*
D03*
X1150000D02*
D03*
X1350000D02*
D03*
X1240000Y505000D02*
D03*
Y605000D02*
D03*
X1315000Y245000D02*
D03*
X1390000Y925000D02*
D03*
X140000Y1050000D02*
D03*
X1050000Y510000D02*
D03*
X140000Y650000D02*
D03*
Y250000D02*
D03*
X1050000Y210000D02*
D03*
X140000Y850000D02*
D03*
Y450000D02*
D03*
D22*
X1050000Y610000D02*
D03*
X1240000Y405000D02*
D03*
X1390000Y825000D02*
D03*
X140000Y1150000D02*
D03*
X1050000Y410000D02*
D03*
X140000Y750000D02*
D03*
Y350000D02*
D03*
X1050000Y310000D02*
D03*
X140000Y950000D02*
D03*
Y550000D02*
D03*
D23*
X1050000Y1025000D02*
D03*
X1415000Y245000D02*
D03*
D24*
X570000Y2110000D02*
D03*
X70000D02*
D03*
X930000D02*
D03*
X1430000D02*
D03*
D25*
X1340000Y1260000D02*
D03*
X1240000D02*
D03*
D26*
X1140000D02*
D03*
D27*
X450000Y1810000D02*
D03*
X350000D02*
D03*
X1145000Y420000D02*
D03*
Y120000D02*
D03*
X1150000Y1850000D02*
D03*
X1050000D02*
D03*
D28*
X250000Y1810000D02*
D03*
X1250000Y1850000D02*
D03*
D29*
X485000Y95000D02*
D03*
X385000D02*
D03*
X500000Y1571000D02*
D03*
Y1671000D02*
D03*
X600000Y1571000D02*
D03*
Y1671000D02*
D03*
X700000Y1571000D02*
D03*
Y1671000D02*
D03*
D30*
X1060000Y2000000D02*
D03*
X1040000Y1960000D02*
D03*
X1060000Y1920000D02*
D03*
X1040000Y1800000D02*
D03*
X1020000Y2000000D02*
D03*
X1000000Y1960000D02*
D03*
X1020000Y1920000D02*
D03*
X1000000Y1880000D02*
D03*
Y1800000D02*
D03*
X980000Y2000000D02*
D03*
Y1920000D02*
D03*
Y1840000D02*
D03*
X880000Y2040000D02*
D03*
Y1960000D02*
D03*
Y1880000D02*
D03*
Y1800000D02*
D03*
X840000Y2040000D02*
D03*
X860000Y2000000D02*
D03*
X840000Y1960000D02*
D03*
X860000Y1920000D02*
D03*
X840000Y1880000D02*
D03*
X860000Y1840000D02*
D03*
X840000Y1800000D02*
D03*
X800000Y1960000D02*
D03*
X820000Y1920000D02*
D03*
X800000Y1880000D02*
D03*
X820000Y1840000D02*
D03*
X800000Y1800000D02*
D03*
X760000Y1960000D02*
D03*
X780000Y1920000D02*
D03*
X760000Y1880000D02*
D03*
X780000Y1840000D02*
D03*
X760000Y1800000D02*
D03*
X720000Y1960000D02*
D03*
X740000Y1920000D02*
D03*
X720000Y1880000D02*
D03*
X740000Y1840000D02*
D03*
X720000Y1800000D02*
D03*
X680000Y1960000D02*
D03*
X700000Y1920000D02*
D03*
X680000Y1880000D02*
D03*
X700000Y1840000D02*
D03*
X680000Y1800000D02*
D03*
X660000Y2080000D02*
D03*
X640000Y2040000D02*
D03*
X660000Y2000000D02*
D03*
X640000Y1960000D02*
D03*
X660000Y1920000D02*
D03*
X640000Y1880000D02*
D03*
X660000Y1840000D02*
D03*
X640000Y1800000D02*
D03*
X600000Y2040000D02*
D03*
X620000Y2000000D02*
D03*
X600000Y1960000D02*
D03*
X620000Y1920000D02*
D03*
X600000Y1880000D02*
D03*
X620000Y1840000D02*
D03*
X600000Y1800000D02*
D03*
X580000Y2000000D02*
D03*
X560000Y1960000D02*
D03*
X580000Y1920000D02*
D03*
X560000Y1880000D02*
D03*
X580000Y1840000D02*
D03*
X560000Y1800000D02*
D03*
X540000Y2000000D02*
D03*
X520000Y1960000D02*
D03*
X540000Y1920000D02*
D03*
X520000Y1880000D02*
D03*
X540000Y1840000D02*
D03*
X520000Y1800000D02*
D03*
X500000Y2000000D02*
D03*
X480000Y1960000D02*
D03*
X500000Y1920000D02*
D03*
X480000Y1880000D02*
D03*
X500000Y1840000D02*
D03*
X460000Y2000000D02*
D03*
X440000Y1960000D02*
D03*
X460000Y1920000D02*
D03*
X440000Y1880000D02*
D03*
D31*
X855000Y1480000D02*
D03*
D32*
X60000Y1410000D02*
D03*
%TF.MD5,779a1f2991ffc14dfe8b589e28464b1d*%
M02*
