%TF.GenerationSoftware,Altium Limited,Altium Designer,22.5.1 (42)*%
G04 Layer_Color=65535*
%FSLAX26Y26*%
%MOIN*%
%TF.SameCoordinates,CF75AC15-3A71-4360-887B-83ED2C6183BC*%
%TF.FilePolarity,Positive*%
%TF.FileFunction,Legend,Top*%
%TF.Part,Single*%
G01*
G75*
%TA.AperFunction,NonConductor*%
%ADD47C,0.009842*%
%ADD48C,0.015748*%
%ADD49C,0.010000*%
%ADD50C,0.007874*%
%ADD51C,0.005000*%
%ADD52C,0.007000*%
G36*
X1143638Y233656D02*
X1143821D01*
Y233474D01*
X1143638D01*
Y232925D01*
X1143455D01*
Y232559D01*
X1143272D01*
Y231828D01*
X1143090D01*
Y231463D01*
X1142907D01*
Y230914D01*
X1142724D01*
Y230366D01*
X1142541D01*
Y230000D01*
X1142358D01*
Y229269D01*
X1142176D01*
Y228903D01*
X1141993D01*
Y228172D01*
X1141810D01*
Y227806D01*
X1141627D01*
Y227258D01*
X1141444D01*
Y226709D01*
X1141261D01*
Y226344D01*
X1141079D01*
Y225612D01*
X1140896D01*
Y225064D01*
X1140713D01*
Y224698D01*
X1140530D01*
Y223967D01*
X1140347D01*
Y223601D01*
X1140165D01*
Y222870D01*
X1139982D01*
Y222505D01*
X1139799D01*
Y221956D01*
X1139616D01*
Y221408D01*
X1139433D01*
Y221042D01*
X1139251D01*
Y220311D01*
X1139068D01*
Y219945D01*
X1138885D01*
Y219214D01*
X1138702D01*
Y218848D01*
X1138519D01*
Y218117D01*
X1116399D01*
Y218665D01*
X1116581D01*
Y219214D01*
X1116764D01*
Y219762D01*
X1116947D01*
Y220311D01*
X1117130D01*
Y220676D01*
X1117313D01*
Y221408D01*
X1117495D01*
Y221773D01*
X1117678D01*
Y222322D01*
X1117861D01*
Y222870D01*
X1118044D01*
Y223236D01*
X1118227D01*
Y223967D01*
X1118409D01*
Y224333D01*
X1118592D01*
Y225064D01*
X1118775D01*
Y225612D01*
X1118958D01*
Y225978D01*
X1119141D01*
Y226709D01*
X1119324D01*
Y227075D01*
X1119506D01*
Y227623D01*
X1119689D01*
Y228172D01*
X1119872D01*
Y228537D01*
X1120055D01*
Y229269D01*
X1120238D01*
Y229634D01*
X1120420D01*
Y230366D01*
X1120603D01*
Y230731D01*
X1120786D01*
Y231280D01*
X1120969D01*
Y231828D01*
X1121152D01*
Y232194D01*
X1121334D01*
Y232925D01*
X1121517D01*
Y233291D01*
X1121700D01*
Y233839D01*
X1143638D01*
Y233656D01*
D02*
G37*
G36*
X1132852Y280823D02*
X1132669D01*
Y280274D01*
X1132486D01*
Y279909D01*
X1132303D01*
Y279177D01*
X1132121D01*
Y278812D01*
X1131938D01*
Y278263D01*
X1131755D01*
Y277715D01*
X1131572D01*
Y277349D01*
X1131389D01*
Y276618D01*
X1131207D01*
Y276252D01*
X1131024D01*
Y275521D01*
X1130841D01*
Y275155D01*
X1130658D01*
Y274607D01*
X1130475D01*
Y274058D01*
X1130293D01*
Y273693D01*
X1130110D01*
Y272962D01*
X1129927D01*
Y272596D01*
X1129744D01*
Y272048D01*
X1129561D01*
Y271499D01*
X1129378D01*
Y271134D01*
X1129196D01*
Y270402D01*
X1129013D01*
Y270037D01*
X1128830D01*
Y269305D01*
X1128647D01*
Y268940D01*
X1128464D01*
Y268391D01*
X1128282D01*
Y267843D01*
X1128099D01*
Y267477D01*
X1127916D01*
Y266746D01*
X1127733D01*
Y266380D01*
X1127550D01*
Y265649D01*
X1127368D01*
Y265466D01*
X1083309D01*
Y265283D01*
X1083126D01*
Y264918D01*
X1082943D01*
Y264552D01*
X1082761D01*
Y263821D01*
X1082578D01*
Y263455D01*
X1082395D01*
Y262907D01*
X1082212D01*
Y262358D01*
X1082029D01*
Y261993D01*
X1081846D01*
Y261261D01*
X1081664D01*
Y260896D01*
X1081481D01*
Y260347D01*
X1081298D01*
Y259799D01*
X1081115D01*
Y259250D01*
X1080932D01*
Y258702D01*
X1080749D01*
Y258336D01*
X1080567D01*
Y257605D01*
X1116216D01*
Y257422D01*
X1116399D01*
Y257240D01*
X1116581D01*
Y257057D01*
X1116764D01*
Y256874D01*
X1116947D01*
Y256508D01*
X1117130D01*
Y256325D01*
X1117313D01*
Y255960D01*
X1117495D01*
Y255777D01*
X1117678D01*
Y255594D01*
X1117861D01*
Y255228D01*
X1118044D01*
Y255046D01*
X1118227D01*
Y254680D01*
X1118409D01*
Y254497D01*
X1118592D01*
Y254132D01*
X1118775D01*
Y253949D01*
X1118958D01*
Y253766D01*
X1119141D01*
Y253400D01*
X1119324D01*
Y253218D01*
X1119506D01*
Y252852D01*
X1119689D01*
Y252669D01*
X1119872D01*
Y252304D01*
X1120055D01*
Y252121D01*
X1120238D01*
Y251938D01*
X1120420D01*
Y251572D01*
X1120603D01*
Y251389D01*
X1120786D01*
Y251024D01*
X1120969D01*
Y250841D01*
X1121152D01*
Y250658D01*
X1121334D01*
Y250292D01*
X1121517D01*
Y250110D01*
X1121700D01*
Y248830D01*
X1121517D01*
Y248464D01*
X1121334D01*
Y247916D01*
X1121152D01*
Y247368D01*
X1120969D01*
Y246819D01*
X1120786D01*
Y246271D01*
X1120603D01*
Y245905D01*
X1120420D01*
Y245174D01*
X1120238D01*
Y244991D01*
X1120055D01*
Y244260D01*
X1119872D01*
Y243711D01*
X1119689D01*
Y243345D01*
X1119506D01*
Y242614D01*
X1119324D01*
Y242249D01*
X1119141D01*
Y241700D01*
X1118958D01*
Y241152D01*
X1118775D01*
Y240603D01*
X1118592D01*
Y240055D01*
X1118409D01*
Y239689D01*
X1118227D01*
Y238958D01*
X1118044D01*
Y238592D01*
X1117861D01*
Y238044D01*
X1117678D01*
Y237495D01*
X1117495D01*
Y237130D01*
X1117313D01*
Y236399D01*
X1117130D01*
Y236033D01*
X1116947D01*
Y235302D01*
X1116764D01*
Y234936D01*
X1116581D01*
Y234388D01*
X1116399D01*
Y234022D01*
X1116216D01*
Y233839D01*
X1116033D01*
Y233656D01*
X1115850D01*
Y233474D01*
X1115667D01*
Y233291D01*
X1115302D01*
Y233108D01*
X1115119D01*
Y232925D01*
X1114753D01*
Y232742D01*
X1114570D01*
Y232559D01*
X1114388D01*
Y232377D01*
X1114022D01*
Y232194D01*
X1113839D01*
Y232011D01*
X1113474D01*
Y231828D01*
X1113291D01*
Y231645D01*
X1112925D01*
Y231280D01*
X1112559D01*
Y231097D01*
X1112377D01*
Y230914D01*
X1112011D01*
Y230731D01*
X1111828D01*
Y230548D01*
X1111463D01*
Y230366D01*
X1111280D01*
Y230183D01*
X1111097D01*
Y230000D01*
X1110731D01*
Y229817D01*
X1110548D01*
Y229634D01*
X1110183D01*
Y229452D01*
X1110000D01*
Y229269D01*
X1109817D01*
Y229086D01*
X1109452D01*
Y228903D01*
X1109269D01*
Y228720D01*
X1108903D01*
Y228537D01*
X1108720D01*
Y228355D01*
X1108537D01*
Y228172D01*
X1108172D01*
Y227989D01*
X1107989D01*
Y227806D01*
X1107623D01*
Y227623D01*
X1107441D01*
Y227441D01*
X1107075D01*
Y227258D01*
X1106892D01*
Y227075D01*
X1106709D01*
Y226892D01*
X1106344D01*
Y226709D01*
X1106161D01*
Y226526D01*
X1105795D01*
Y226344D01*
X1105612D01*
Y226161D01*
X1105430D01*
Y225978D01*
X1105064D01*
Y225795D01*
X1104881D01*
Y225612D01*
X1104515D01*
Y225430D01*
X1104333D01*
Y225247D01*
X1104150D01*
Y225064D01*
X1103784D01*
Y224881D01*
X1103601D01*
Y224698D01*
X1103236D01*
Y224516D01*
X1103053D01*
Y224333D01*
X1102870D01*
Y224150D01*
X1102505D01*
Y223967D01*
X1102322D01*
Y223784D01*
X1101956D01*
Y223601D01*
X1101773D01*
Y223419D01*
X1101591D01*
Y223236D01*
X1101225D01*
Y223053D01*
X1101042D01*
Y222870D01*
X1100676D01*
Y222687D01*
X1100494D01*
Y222505D01*
X1100311D01*
Y222322D01*
X1099945D01*
Y222139D01*
X1099762D01*
Y221956D01*
X1099397D01*
Y221773D01*
X1099214D01*
Y221590D01*
X1099031D01*
Y221408D01*
X1098848D01*
Y221225D01*
X1098483D01*
Y221042D01*
X1098117D01*
Y220859D01*
X1097934D01*
Y220676D01*
X1097751D01*
Y220494D01*
X1097569D01*
Y220311D01*
X1097203D01*
Y220128D01*
X1097020D01*
Y219945D01*
X1096655D01*
Y219762D01*
X1096472D01*
Y219579D01*
X1096106D01*
Y219397D01*
X1095923D01*
Y219214D01*
X1095740D01*
Y219031D01*
X1095375D01*
Y218848D01*
X1095192D01*
Y218665D01*
X1094826D01*
Y218483D01*
X1094643D01*
Y218300D01*
X1094461D01*
Y218117D01*
X1044552D01*
Y218665D01*
X1044735D01*
Y218848D01*
X1044918D01*
Y219579D01*
X1045101D01*
Y219945D01*
X1045283D01*
Y220311D01*
X1045466D01*
Y221225D01*
X1045649D01*
Y221408D01*
X1045832D01*
Y222139D01*
X1046015D01*
Y222687D01*
X1046197D01*
Y223053D01*
X1046380D01*
Y223784D01*
X1046563D01*
Y224150D01*
X1046746D01*
Y224881D01*
X1046929D01*
Y225247D01*
X1047111D01*
Y225795D01*
X1047294D01*
Y226344D01*
X1047477D01*
Y226709D01*
X1047660D01*
Y227441D01*
X1047843D01*
Y227806D01*
X1048026D01*
Y228537D01*
X1048208D01*
Y228903D01*
X1048391D01*
Y229452D01*
X1048574D01*
Y230000D01*
X1048757D01*
Y230366D01*
X1048940D01*
Y231097D01*
X1049122D01*
Y231463D01*
X1049305D01*
Y232194D01*
X1049488D01*
Y232742D01*
X1049671D01*
Y233108D01*
X1049854D01*
Y233656D01*
X1050037D01*
Y233839D01*
X1094095D01*
Y234022D01*
X1094278D01*
Y234205D01*
X1094461D01*
Y234753D01*
X1094643D01*
Y235302D01*
X1094826D01*
Y235667D01*
X1095009D01*
Y236581D01*
X1095192D01*
Y236764D01*
X1095375D01*
Y237495D01*
X1095558D01*
Y237861D01*
X1095740D01*
Y238410D01*
X1095923D01*
Y239141D01*
X1096106D01*
Y239506D01*
X1096289D01*
Y240055D01*
X1096472D01*
Y240421D01*
X1096655D01*
Y240969D01*
X1096837D01*
Y241700D01*
X1061188D01*
Y241883D01*
X1060823D01*
Y242249D01*
X1060640D01*
Y242614D01*
X1060457D01*
Y242797D01*
X1060274D01*
Y242980D01*
X1060091D01*
Y243345D01*
X1059909D01*
Y243711D01*
X1059726D01*
Y243894D01*
X1059543D01*
Y244077D01*
X1059360D01*
Y244442D01*
X1059177D01*
Y244625D01*
X1058995D01*
Y244991D01*
X1058812D01*
Y245174D01*
X1058629D01*
Y245539D01*
X1058446D01*
Y245722D01*
X1058263D01*
Y245905D01*
X1058080D01*
Y246271D01*
X1057898D01*
Y246453D01*
X1057715D01*
Y246819D01*
X1057532D01*
Y247002D01*
X1057349D01*
Y247185D01*
X1057166D01*
Y247550D01*
X1056984D01*
Y247733D01*
X1056801D01*
Y248099D01*
X1056618D01*
Y248281D01*
X1056435D01*
Y248647D01*
X1056252D01*
Y248830D01*
X1056070D01*
Y249013D01*
X1055887D01*
Y249378D01*
X1055704D01*
Y250292D01*
X1055887D01*
Y250841D01*
X1056070D01*
Y251389D01*
X1056252D01*
Y251755D01*
X1056435D01*
Y252486D01*
X1056618D01*
Y252852D01*
X1056801D01*
Y253583D01*
X1056984D01*
Y253949D01*
X1057166D01*
Y254497D01*
X1057349D01*
Y255046D01*
X1057532D01*
Y255411D01*
X1057715D01*
Y256143D01*
X1057898D01*
Y256508D01*
X1058080D01*
Y257240D01*
X1058263D01*
Y257605D01*
X1058446D01*
Y257971D01*
X1058629D01*
Y258885D01*
X1058812D01*
Y259068D01*
X1058995D01*
Y259799D01*
X1059177D01*
Y260347D01*
X1059360D01*
Y260713D01*
X1059543D01*
Y261444D01*
X1059726D01*
Y261810D01*
X1059909D01*
Y262541D01*
X1060091D01*
Y262907D01*
X1060274D01*
Y263455D01*
X1060457D01*
Y264004D01*
X1060640D01*
Y264369D01*
X1060823D01*
Y265101D01*
X1061005D01*
Y265283D01*
X1061188D01*
Y265466D01*
X1061371D01*
Y265649D01*
X1061554D01*
Y265832D01*
X1061737D01*
Y266015D01*
X1062102D01*
Y266197D01*
X1062285D01*
Y266380D01*
X1062468D01*
Y266563D01*
X1062834D01*
Y266746D01*
X1063016D01*
Y266929D01*
X1063382D01*
Y267111D01*
X1063565D01*
Y267294D01*
X1063748D01*
Y267477D01*
X1064113D01*
Y267660D01*
X1064296D01*
Y267843D01*
X1064479D01*
Y268026D01*
X1064845D01*
Y268208D01*
X1065027D01*
Y268391D01*
X1065393D01*
Y268574D01*
X1065576D01*
Y268757D01*
X1065759D01*
Y268940D01*
X1066124D01*
Y269123D01*
X1066307D01*
Y269305D01*
X1066673D01*
Y269488D01*
X1066856D01*
Y269671D01*
X1067221D01*
Y269854D01*
X1067404D01*
Y270037D01*
X1067587D01*
Y270219D01*
X1067953D01*
Y270402D01*
X1068135D01*
Y270585D01*
X1068501D01*
Y270768D01*
X1068684D01*
Y270951D01*
X1068867D01*
Y271134D01*
X1069232D01*
Y271316D01*
X1069415D01*
Y271499D01*
X1069781D01*
Y271682D01*
X1069963D01*
Y271865D01*
X1070146D01*
Y272048D01*
X1070512D01*
Y272230D01*
X1070695D01*
Y272413D01*
X1071060D01*
Y272596D01*
X1071243D01*
Y272779D01*
X1071609D01*
Y272962D01*
X1071792D01*
Y273144D01*
X1071974D01*
Y273327D01*
X1072340D01*
Y273510D01*
X1072523D01*
Y273693D01*
X1072889D01*
Y273876D01*
X1073071D01*
Y274058D01*
X1073254D01*
Y274241D01*
X1073620D01*
Y274424D01*
X1073803D01*
Y274607D01*
X1074168D01*
Y274790D01*
X1074351D01*
Y274973D01*
X1074534D01*
Y275155D01*
X1074899D01*
Y275338D01*
X1075082D01*
Y275521D01*
X1075448D01*
Y275704D01*
X1075631D01*
Y275887D01*
X1075996D01*
Y276070D01*
X1076179D01*
Y276252D01*
X1076362D01*
Y276435D01*
X1076728D01*
Y276618D01*
X1076910D01*
Y276801D01*
X1077276D01*
Y276983D01*
X1077459D01*
Y277166D01*
X1077642D01*
Y277349D01*
X1078007D01*
Y277532D01*
X1078190D01*
Y277715D01*
X1078556D01*
Y277898D01*
X1078739D01*
Y278080D01*
X1078921D01*
Y278263D01*
X1079287D01*
Y278446D01*
X1079470D01*
Y278629D01*
X1079835D01*
Y278812D01*
X1080018D01*
Y278995D01*
X1080384D01*
Y279177D01*
X1080567D01*
Y279360D01*
X1080749D01*
Y279543D01*
X1080932D01*
Y279726D01*
X1081298D01*
Y279909D01*
X1081481D01*
Y280091D01*
X1081846D01*
Y280274D01*
X1082029D01*
Y280457D01*
X1082212D01*
Y280640D01*
X1082578D01*
Y280823D01*
X1082943D01*
Y281188D01*
X1132852D01*
Y280823D01*
D02*
G37*
G36*
X1215667Y281005D02*
X1215850D01*
Y280823D01*
X1216033D01*
Y280457D01*
X1216216D01*
Y280274D01*
X1216399D01*
Y279909D01*
X1216581D01*
Y279726D01*
X1216764D01*
Y279543D01*
X1216947D01*
Y279177D01*
X1217130D01*
Y278995D01*
X1217313D01*
Y278629D01*
X1217495D01*
Y278446D01*
X1217678D01*
Y278080D01*
X1217861D01*
Y277898D01*
X1218044D01*
Y277715D01*
X1218227D01*
Y277349D01*
X1218409D01*
Y277166D01*
X1218592D01*
Y276801D01*
X1218775D01*
Y276618D01*
X1218958D01*
Y276252D01*
X1219141D01*
Y276070D01*
X1219324D01*
Y275887D01*
X1219506D01*
Y275521D01*
X1219689D01*
Y275338D01*
X1219872D01*
Y274973D01*
X1220055D01*
Y274607D01*
X1220238D01*
Y274424D01*
X1220420D01*
Y274241D01*
X1220603D01*
Y274058D01*
X1220786D01*
Y273693D01*
X1220969D01*
Y273327D01*
X1221152D01*
Y273144D01*
X1221334D01*
Y272962D01*
X1221517D01*
Y272596D01*
X1221700D01*
Y272413D01*
X1221883D01*
Y272048D01*
X1222066D01*
Y271865D01*
X1222249D01*
Y271499D01*
X1222431D01*
Y271316D01*
X1222614D01*
Y271134D01*
X1222797D01*
Y270768D01*
X1222980D01*
Y270585D01*
X1223163D01*
Y270402D01*
Y270219D01*
X1223345D01*
Y270037D01*
X1223528D01*
Y269671D01*
X1223711D01*
Y269488D01*
X1223894D01*
Y269305D01*
X1224077D01*
Y268940D01*
X1224260D01*
Y268757D01*
X1224442D01*
Y268391D01*
X1224625D01*
Y268208D01*
X1224808D01*
Y267843D01*
X1224991D01*
Y267660D01*
X1225174D01*
Y267477D01*
X1225357D01*
Y267111D01*
X1225539D01*
Y266929D01*
X1225722D01*
Y266563D01*
X1225905D01*
Y266380D01*
X1226088D01*
Y266015D01*
X1226271D01*
Y265832D01*
X1226453D01*
Y265649D01*
X1226636D01*
Y265101D01*
X1226453D01*
Y264552D01*
X1226271D01*
Y264187D01*
X1226088D01*
Y263455D01*
X1225905D01*
Y263090D01*
X1225722D01*
Y262358D01*
X1225539D01*
Y261993D01*
X1225357D01*
Y261444D01*
X1225174D01*
Y260896D01*
X1224991D01*
Y260530D01*
X1224808D01*
Y259799D01*
X1224625D01*
Y259433D01*
X1224442D01*
Y258885D01*
X1224260D01*
Y258336D01*
X1224077D01*
Y257788D01*
X1223894D01*
Y257240D01*
X1223711D01*
Y256874D01*
X1223528D01*
Y256143D01*
X1223345D01*
Y255777D01*
X1223163D01*
Y255228D01*
X1222980D01*
Y254680D01*
X1222797D01*
Y254132D01*
X1222614D01*
Y253583D01*
X1222431D01*
Y253218D01*
X1222249D01*
Y252486D01*
X1222066D01*
Y252121D01*
X1221883D01*
Y251572D01*
X1221700D01*
Y250841D01*
X1221517D01*
Y250475D01*
X1221334D01*
Y249927D01*
X1221152D01*
Y249378D01*
X1220969D01*
Y248830D01*
X1220786D01*
Y248281D01*
X1220603D01*
Y247916D01*
X1220420D01*
Y247185D01*
X1220238D01*
Y246819D01*
X1220055D01*
Y246271D01*
X1219872D01*
Y245722D01*
X1219689D01*
Y245357D01*
X1219506D01*
Y244625D01*
X1219324D01*
Y244260D01*
X1219141D01*
Y243528D01*
X1218958D01*
Y243163D01*
X1218775D01*
Y242614D01*
X1218592D01*
Y242066D01*
X1218409D01*
Y241883D01*
X1218227D01*
Y241700D01*
X1185503D01*
Y241883D01*
X1185320D01*
Y242431D01*
X1185503D01*
Y242797D01*
X1185686D01*
Y243345D01*
X1185868D01*
Y243894D01*
X1186051D01*
Y244260D01*
X1186234D01*
Y244991D01*
X1186417D01*
Y245357D01*
X1186600D01*
Y246088D01*
X1186782D01*
Y246453D01*
X1186965D01*
Y247002D01*
X1187148D01*
Y247550D01*
X1187331D01*
Y247916D01*
X1187514D01*
Y248647D01*
X1187697D01*
Y249013D01*
X1187879D01*
Y249561D01*
X1188062D01*
Y250110D01*
X1188245D01*
Y250475D01*
X1188428D01*
Y251207D01*
X1188611D01*
Y251572D01*
X1188793D01*
Y252304D01*
X1188976D01*
Y252669D01*
X1189159D01*
Y253218D01*
X1189342D01*
Y253766D01*
X1189525D01*
Y254132D01*
X1189707D01*
Y254863D01*
X1189890D01*
Y255228D01*
X1190073D01*
Y255777D01*
X1190256D01*
Y256325D01*
X1190439D01*
Y256691D01*
X1190622D01*
Y257422D01*
X1190987D01*
Y257605D01*
X1201956D01*
Y258336D01*
X1202139D01*
Y258702D01*
X1202322D01*
Y259250D01*
X1202505D01*
Y259799D01*
X1202687D01*
Y260164D01*
X1202870D01*
Y260896D01*
X1203053D01*
Y261261D01*
X1203236D01*
Y261810D01*
X1203419D01*
Y262358D01*
X1203601D01*
Y262724D01*
X1203784D01*
Y263455D01*
X1203967D01*
Y263821D01*
X1204150D01*
Y264552D01*
X1204333D01*
Y264918D01*
X1204515D01*
Y265283D01*
X1204333D01*
Y265466D01*
X1182761D01*
Y265283D01*
X1182395D01*
Y264918D01*
X1182212D01*
Y264369D01*
X1182029D01*
Y263821D01*
X1181846D01*
Y263090D01*
X1181664D01*
Y262907D01*
X1181481D01*
Y262175D01*
X1181298D01*
Y261627D01*
X1181115D01*
Y261261D01*
X1180932D01*
Y260530D01*
X1180749D01*
Y260164D01*
X1180567D01*
Y259616D01*
X1180384D01*
Y259068D01*
X1180201D01*
Y258702D01*
X1180018D01*
Y257971D01*
X1179835D01*
Y257605D01*
X1179653D01*
Y256874D01*
X1179470D01*
Y256508D01*
X1179287D01*
Y255960D01*
X1179104D01*
Y255411D01*
X1178921D01*
Y255046D01*
X1178739D01*
Y254314D01*
X1178556D01*
Y253949D01*
X1178373D01*
Y253400D01*
X1178190D01*
Y252852D01*
X1178007D01*
Y252486D01*
X1177824D01*
Y251755D01*
X1177642D01*
Y251389D01*
X1177459D01*
Y250658D01*
X1177276D01*
Y250292D01*
X1177093D01*
Y249744D01*
X1176910D01*
Y249196D01*
X1176728D01*
Y248830D01*
X1176545D01*
Y248099D01*
X1176362D01*
Y247733D01*
X1176179D01*
Y247002D01*
X1175996D01*
Y246636D01*
X1175813D01*
Y246271D01*
X1175631D01*
Y245539D01*
X1175448D01*
Y245174D01*
X1175265D01*
Y244442D01*
X1175082D01*
Y244077D01*
X1174899D01*
Y243528D01*
X1174717D01*
Y242980D01*
X1174534D01*
Y242614D01*
X1174351D01*
Y241883D01*
X1174168D01*
Y241517D01*
X1173985D01*
Y240786D01*
X1173803D01*
Y240421D01*
X1173620D01*
Y239872D01*
X1173437D01*
Y239324D01*
X1173254D01*
Y238958D01*
X1173071D01*
Y238227D01*
X1172889D01*
Y237861D01*
X1172706D01*
Y237313D01*
X1172523D01*
Y236764D01*
X1172340D01*
Y236399D01*
X1172157D01*
Y235667D01*
X1171974D01*
Y235302D01*
X1171792D01*
Y234570D01*
X1171609D01*
Y234205D01*
X1171426D01*
Y233656D01*
X1171243D01*
Y232925D01*
X1171060D01*
Y232559D01*
X1170878D01*
Y232011D01*
X1170695D01*
Y231645D01*
X1170512D01*
Y230914D01*
X1170329D01*
Y230366D01*
X1170146D01*
Y230000D01*
X1169963D01*
Y229269D01*
X1169781D01*
Y228903D01*
X1169598D01*
Y228355D01*
X1169415D01*
Y227806D01*
X1169232D01*
Y227258D01*
X1169049D01*
Y226709D01*
X1168867D01*
Y226344D01*
X1168684D01*
Y225612D01*
X1168501D01*
Y225247D01*
X1168318D01*
Y224698D01*
X1168135D01*
Y224150D01*
X1167953D01*
Y223784D01*
X1167770D01*
Y223053D01*
X1167587D01*
Y222687D01*
X1167404D01*
Y221956D01*
X1167221D01*
Y221590D01*
X1167038D01*
Y221042D01*
X1166856D01*
Y220494D01*
X1166673D01*
Y220128D01*
X1166490D01*
Y219397D01*
X1166307D01*
Y219031D01*
X1166124D01*
Y218483D01*
X1165941D01*
Y218117D01*
X1144004D01*
Y218665D01*
X1144187D01*
Y219397D01*
X1144369D01*
Y219762D01*
X1144552D01*
Y220494D01*
X1144735D01*
Y220859D01*
X1144918D01*
Y221408D01*
X1145101D01*
Y221956D01*
X1145283D01*
Y222322D01*
X1145466D01*
Y223053D01*
X1145649D01*
Y223419D01*
X1145832D01*
Y224150D01*
X1146015D01*
Y224516D01*
X1146197D01*
Y225064D01*
X1146380D01*
Y225612D01*
X1146563D01*
Y225978D01*
X1146746D01*
Y226709D01*
X1146929D01*
Y227075D01*
X1147111D01*
Y227806D01*
X1147294D01*
Y228172D01*
X1147477D01*
Y228537D01*
X1147660D01*
Y229452D01*
X1147843D01*
Y229634D01*
X1148026D01*
Y230366D01*
X1148208D01*
Y230731D01*
X1148391D01*
Y231280D01*
X1148574D01*
Y231828D01*
X1148757D01*
Y232194D01*
X1148940D01*
Y233108D01*
X1149122D01*
Y233291D01*
X1149305D01*
Y234022D01*
X1149488D01*
Y234570D01*
X1149671D01*
Y234936D01*
X1149854D01*
Y235667D01*
X1150037D01*
Y236033D01*
X1150219D01*
Y236764D01*
X1150402D01*
Y237130D01*
X1150585D01*
Y237495D01*
X1150768D01*
Y238227D01*
X1150951D01*
Y238592D01*
X1151133D01*
Y239324D01*
X1151316D01*
Y239689D01*
X1151499D01*
Y240238D01*
X1151682D01*
Y240786D01*
X1151865D01*
Y241152D01*
X1152047D01*
Y241883D01*
X1152230D01*
Y242249D01*
X1152413D01*
Y242980D01*
X1152596D01*
Y243345D01*
X1152779D01*
Y243894D01*
X1152962D01*
Y244442D01*
X1153144D01*
Y244808D01*
X1153327D01*
Y245539D01*
X1153510D01*
Y245905D01*
X1153693D01*
Y246453D01*
X1153876D01*
Y247002D01*
X1154059D01*
Y247368D01*
X1154241D01*
Y248099D01*
X1154424D01*
Y248464D01*
X1154607D01*
Y249196D01*
X1154790D01*
Y249561D01*
X1154973D01*
Y250110D01*
X1155155D01*
Y250658D01*
X1155338D01*
Y251207D01*
X1155521D01*
Y251755D01*
X1155704D01*
Y252121D01*
X1155887D01*
Y252852D01*
X1156070D01*
Y253400D01*
X1156252D01*
Y253766D01*
X1156435D01*
Y254497D01*
X1156618D01*
Y254863D01*
X1156801D01*
Y255411D01*
X1156984D01*
Y255960D01*
X1157166D01*
Y256325D01*
X1157349D01*
Y257057D01*
X1157532D01*
Y257422D01*
X1157715D01*
Y258154D01*
X1157898D01*
Y258519D01*
X1158080D01*
Y259068D01*
X1158263D01*
Y259616D01*
X1158446D01*
Y259982D01*
X1158629D01*
Y260713D01*
X1158812D01*
Y261079D01*
X1158995D01*
Y261810D01*
X1159177D01*
Y262175D01*
X1159360D01*
Y262724D01*
X1159543D01*
Y263272D01*
X1159726D01*
Y263638D01*
X1159909D01*
Y264369D01*
X1160091D01*
Y264735D01*
X1160274D01*
Y265283D01*
X1160457D01*
Y265832D01*
X1160640D01*
Y266197D01*
X1160823D01*
Y266929D01*
X1161005D01*
Y267294D01*
X1161188D01*
Y268026D01*
X1161371D01*
Y268391D01*
X1161554D01*
Y268940D01*
X1161737D01*
Y269488D01*
X1161920D01*
Y269854D01*
X1162102D01*
Y270585D01*
X1162285D01*
Y270951D01*
X1162468D01*
Y271682D01*
X1162651D01*
Y272048D01*
X1162834D01*
Y272596D01*
X1163016D01*
Y273144D01*
X1163199D01*
Y273510D01*
X1163382D01*
Y274241D01*
X1163565D01*
Y274790D01*
X1163748D01*
Y275155D01*
X1163930D01*
Y275887D01*
X1164113D01*
Y276252D01*
X1164296D01*
Y276983D01*
X1164479D01*
Y277166D01*
X1164662D01*
Y277898D01*
X1164845D01*
Y278446D01*
X1165027D01*
Y278812D01*
X1165210D01*
Y279543D01*
X1165393D01*
Y279909D01*
X1165576D01*
Y280457D01*
X1165759D01*
Y280823D01*
X1165941D01*
Y281188D01*
X1215667D01*
Y281005D01*
D02*
G37*
G36*
X1243090Y233291D02*
X1242907D01*
Y232925D01*
X1242724D01*
Y232194D01*
X1242541D01*
Y231828D01*
X1242358D01*
Y231280D01*
X1242176D01*
Y230914D01*
X1241993D01*
Y230183D01*
X1241810D01*
Y229634D01*
X1241627D01*
Y229269D01*
X1241444D01*
Y228537D01*
X1241261D01*
Y228172D01*
X1241079D01*
Y227441D01*
X1240896D01*
Y227075D01*
X1240713D01*
Y226526D01*
X1240530D01*
Y225978D01*
X1240347D01*
Y225612D01*
X1240165D01*
Y224881D01*
X1239982D01*
Y224516D01*
X1239799D01*
Y223784D01*
X1239616D01*
Y223419D01*
X1239433D01*
Y223053D01*
X1239251D01*
Y222322D01*
X1239068D01*
Y221956D01*
X1238885D01*
Y221225D01*
X1238702D01*
Y220859D01*
X1238519D01*
Y220311D01*
X1238336D01*
Y219579D01*
X1238154D01*
Y219397D01*
X1237971D01*
Y218483D01*
X1237788D01*
Y218117D01*
X1215667D01*
Y218665D01*
X1215850D01*
Y218848D01*
X1216033D01*
Y219762D01*
X1216216D01*
Y220128D01*
X1216399D01*
Y220676D01*
X1216581D01*
Y221225D01*
X1216764D01*
Y221590D01*
X1216947D01*
Y222322D01*
X1217130D01*
Y222687D01*
X1217313D01*
Y223419D01*
X1217495D01*
Y223784D01*
X1217678D01*
Y224333D01*
X1217861D01*
Y224881D01*
X1218044D01*
Y225247D01*
X1218227D01*
Y225978D01*
X1218409D01*
Y226344D01*
X1218592D01*
Y226892D01*
X1218775D01*
Y227441D01*
X1218958D01*
Y227806D01*
X1219141D01*
Y228720D01*
X1219324D01*
Y228903D01*
X1219506D01*
Y229634D01*
X1219689D01*
Y230183D01*
X1219872D01*
Y230548D01*
X1220055D01*
Y231280D01*
X1220238D01*
Y231645D01*
X1220420D01*
Y232377D01*
X1220603D01*
Y232742D01*
X1220786D01*
Y233291D01*
X1220969D01*
Y233656D01*
X1221152D01*
Y233839D01*
X1243090D01*
Y233291D01*
D02*
G37*
G36*
X1315119Y280823D02*
X1315302D01*
Y280640D01*
X1315485D01*
Y280274D01*
X1315667D01*
Y279909D01*
X1315850D01*
Y279726D01*
X1316033D01*
Y279543D01*
X1316216D01*
Y279360D01*
X1316399D01*
Y278995D01*
X1316581D01*
Y278629D01*
X1316764D01*
Y278446D01*
X1316947D01*
Y278080D01*
X1317130D01*
Y277898D01*
X1317313D01*
Y277715D01*
X1317495D01*
Y277349D01*
X1317678D01*
Y277166D01*
X1317861D01*
Y276801D01*
X1318044D01*
Y276618D01*
X1318227D01*
Y276435D01*
X1318409D01*
Y276070D01*
X1318592D01*
Y275887D01*
X1318775D01*
Y275521D01*
X1318958D01*
Y275338D01*
X1319141D01*
Y274973D01*
X1319324D01*
Y274790D01*
X1319506D01*
Y274424D01*
X1319689D01*
Y274241D01*
X1319872D01*
Y274058D01*
X1320055D01*
Y273693D01*
X1320238D01*
Y273510D01*
X1320420D01*
Y273144D01*
X1320603D01*
Y272962D01*
X1320786D01*
Y272779D01*
X1320969D01*
Y272413D01*
X1321152D01*
Y272230D01*
X1321334D01*
Y271865D01*
X1321517D01*
Y271682D01*
X1321700D01*
Y271316D01*
X1321883D01*
Y271134D01*
X1322066D01*
Y270951D01*
X1322249D01*
Y270585D01*
X1322431D01*
Y270402D01*
X1322614D01*
Y270037D01*
X1322797D01*
Y269854D01*
X1322980D01*
Y269488D01*
X1323163D01*
Y269305D01*
X1323345D01*
Y269123D01*
X1323528D01*
Y268757D01*
X1323711D01*
Y268574D01*
X1323894D01*
Y268208D01*
X1324077D01*
Y268026D01*
X1324260D01*
Y267843D01*
X1324442D01*
Y267477D01*
X1324625D01*
Y267294D01*
X1324808D01*
Y266929D01*
X1324991D01*
Y266746D01*
X1325174D01*
Y266380D01*
X1325357D01*
Y266197D01*
X1325539D01*
Y266015D01*
X1325722D01*
Y265649D01*
X1325905D01*
Y264918D01*
X1325722D01*
Y264369D01*
X1325539D01*
Y264004D01*
X1325357D01*
Y263455D01*
X1325174D01*
Y262907D01*
X1324991D01*
Y262358D01*
X1324808D01*
Y261810D01*
X1324625D01*
Y261444D01*
X1324442D01*
Y260713D01*
X1324260D01*
Y260347D01*
X1324077D01*
Y259799D01*
X1323894D01*
Y259068D01*
X1323711D01*
Y258885D01*
X1323528D01*
Y258154D01*
X1323345D01*
Y257788D01*
X1323163D01*
Y257057D01*
X1322980D01*
Y256508D01*
X1322797D01*
Y256143D01*
X1322614D01*
Y255411D01*
X1322431D01*
Y255046D01*
X1322249D01*
Y254497D01*
X1322066D01*
Y253949D01*
X1321883D01*
Y253583D01*
X1321700D01*
Y252852D01*
X1321517D01*
Y252486D01*
X1321334D01*
Y251755D01*
X1321152D01*
Y251389D01*
X1320969D01*
Y250841D01*
X1320786D01*
Y250292D01*
X1320603D01*
Y249927D01*
X1320420D01*
Y249196D01*
X1320238D01*
Y248830D01*
X1320055D01*
Y248099D01*
X1319872D01*
Y247733D01*
X1319689D01*
Y247185D01*
X1319506D01*
Y246636D01*
X1319324D01*
Y246271D01*
X1319141D01*
Y245539D01*
X1318958D01*
Y245174D01*
X1318775D01*
Y244625D01*
X1318592D01*
Y244077D01*
X1318409D01*
Y243528D01*
X1318227D01*
Y242980D01*
X1318044D01*
Y242614D01*
X1317861D01*
Y241883D01*
X1317678D01*
Y241517D01*
X1317495D01*
Y240969D01*
X1317313D01*
Y240238D01*
X1317130D01*
Y240055D01*
X1316947D01*
Y239324D01*
X1316764D01*
Y238958D01*
X1316581D01*
Y238227D01*
X1316399D01*
Y237678D01*
X1316216D01*
Y237313D01*
X1316033D01*
Y236581D01*
X1315850D01*
Y236216D01*
X1315667D01*
Y235667D01*
X1315485D01*
Y235119D01*
X1315302D01*
Y234753D01*
X1315119D01*
Y234022D01*
X1314936D01*
Y233656D01*
X1314753D01*
Y232925D01*
X1314570D01*
Y232559D01*
X1314388D01*
Y232011D01*
X1314205D01*
Y231463D01*
X1314022D01*
Y231097D01*
X1313839D01*
Y230366D01*
X1313656D01*
Y230000D01*
X1313474D01*
Y229269D01*
X1313291D01*
Y228903D01*
X1313108D01*
Y228355D01*
X1312925D01*
Y227806D01*
X1312742D01*
Y227441D01*
X1312559D01*
Y226709D01*
X1312377D01*
Y226344D01*
X1312194D01*
Y225795D01*
X1312011D01*
Y225064D01*
X1311828D01*
Y224698D01*
X1311645D01*
Y224150D01*
X1311463D01*
Y223784D01*
X1311280D01*
Y223053D01*
X1311097D01*
Y222687D01*
X1310914D01*
Y222139D01*
X1310731D01*
Y221408D01*
X1310548D01*
Y221042D01*
X1310366D01*
Y220311D01*
X1310183D01*
Y219945D01*
X1310000D01*
Y219397D01*
X1309817D01*
Y218848D01*
X1309634D01*
Y218483D01*
X1309452D01*
Y218117D01*
X1287331D01*
Y218300D01*
X1287514D01*
Y219031D01*
X1287697D01*
Y219397D01*
X1287879D01*
Y219945D01*
X1288062D01*
Y220494D01*
X1288245D01*
Y220859D01*
X1288428D01*
Y221590D01*
X1288611D01*
Y221956D01*
X1288793D01*
Y222687D01*
X1288976D01*
Y223236D01*
X1289159D01*
Y223601D01*
X1289342D01*
Y224333D01*
X1289525D01*
Y224516D01*
X1289707D01*
Y225247D01*
X1289890D01*
Y225612D01*
X1290073D01*
Y226161D01*
X1290256D01*
Y226709D01*
X1290439D01*
Y227075D01*
X1290622D01*
Y227989D01*
X1290804D01*
Y228172D01*
X1290987D01*
Y228903D01*
X1291170D01*
Y229452D01*
X1291353D01*
Y229817D01*
X1291536D01*
Y230548D01*
X1291718D01*
Y230731D01*
X1291901D01*
Y231463D01*
X1292084D01*
Y231828D01*
X1292267D01*
Y232377D01*
X1292450D01*
Y233108D01*
X1292632D01*
Y233291D01*
X1292815D01*
Y233839D01*
X1282029D01*
Y234022D01*
X1281846D01*
Y234570D01*
X1282029D01*
Y234753D01*
X1282212D01*
Y235484D01*
X1282395D01*
Y235850D01*
X1282578D01*
Y236399D01*
X1282761D01*
Y237130D01*
X1282943D01*
Y237313D01*
X1283126D01*
Y238227D01*
X1283309D01*
Y238592D01*
X1283492D01*
Y239141D01*
X1283675D01*
Y239689D01*
X1283857D01*
Y240055D01*
X1284040D01*
Y240786D01*
X1284223D01*
Y241152D01*
X1284406D01*
Y241700D01*
X1284589D01*
Y242249D01*
X1284772D01*
Y242614D01*
X1284954D01*
Y243345D01*
X1285137D01*
Y243711D01*
X1285320D01*
Y244442D01*
X1285503D01*
Y244808D01*
X1285686D01*
Y245357D01*
X1285868D01*
Y245905D01*
X1286051D01*
Y246271D01*
X1286234D01*
Y247002D01*
X1286417D01*
Y247368D01*
X1286600D01*
Y247916D01*
X1286782D01*
Y248464D01*
X1286965D01*
Y248830D01*
X1287148D01*
Y249378D01*
X1287331D01*
Y249561D01*
X1287697D01*
Y249744D01*
X1288245D01*
Y249561D01*
X1288428D01*
Y249744D01*
X1298483D01*
Y250475D01*
X1298665D01*
Y250841D01*
X1298848D01*
Y251389D01*
X1299031D01*
Y251938D01*
X1299214D01*
Y252304D01*
X1299397D01*
Y253035D01*
X1299580D01*
Y253400D01*
X1299762D01*
Y253949D01*
X1299945D01*
Y254497D01*
X1300128D01*
Y254863D01*
X1300311D01*
Y255594D01*
X1300494D01*
Y255960D01*
X1300676D01*
Y256691D01*
X1300859D01*
Y257057D01*
X1301042D01*
Y257605D01*
X1301225D01*
Y258154D01*
X1301408D01*
Y258519D01*
X1301591D01*
Y259250D01*
X1301773D01*
Y259616D01*
X1301956D01*
Y260347D01*
X1302139D01*
Y260713D01*
X1302322D01*
Y261079D01*
X1302505D01*
Y261810D01*
X1302687D01*
Y262175D01*
X1302870D01*
Y262907D01*
X1303053D01*
Y263272D01*
X1303236D01*
Y263821D01*
X1303419D01*
Y264369D01*
X1303601D01*
Y264735D01*
X1303784D01*
Y265283D01*
X1303601D01*
Y265466D01*
X1281846D01*
Y265101D01*
X1281664D01*
Y264735D01*
X1281481D01*
Y264187D01*
X1281298D01*
Y263638D01*
X1281115D01*
Y263272D01*
X1280932D01*
Y262541D01*
X1280749D01*
Y262175D01*
X1280567D01*
Y261444D01*
X1280384D01*
Y261079D01*
X1280201D01*
Y260530D01*
X1280018D01*
Y259982D01*
X1279835D01*
Y259616D01*
X1279653D01*
Y258885D01*
X1279470D01*
Y258519D01*
X1279287D01*
Y257971D01*
X1279104D01*
Y257422D01*
X1278921D01*
Y257057D01*
X1278739D01*
Y256325D01*
X1278556D01*
Y255960D01*
X1278373D01*
Y255228D01*
X1278190D01*
Y254863D01*
X1278007D01*
Y254314D01*
X1277824D01*
Y253766D01*
X1277642D01*
Y253400D01*
X1277459D01*
Y252669D01*
X1277276D01*
Y252304D01*
X1277093D01*
Y251755D01*
X1276910D01*
Y251207D01*
X1276728D01*
Y250841D01*
X1276545D01*
Y250110D01*
X1276362D01*
Y249744D01*
X1276179D01*
Y249013D01*
X1275996D01*
Y248647D01*
X1275813D01*
Y248099D01*
X1275631D01*
Y247550D01*
X1275448D01*
Y247185D01*
X1275265D01*
Y246453D01*
X1275082D01*
Y246088D01*
X1274899D01*
Y245357D01*
X1274717D01*
Y244991D01*
X1274534D01*
Y244442D01*
X1274351D01*
Y243894D01*
X1274168D01*
Y243528D01*
X1273985D01*
Y242797D01*
X1273803D01*
Y242431D01*
X1273620D01*
Y241883D01*
X1273437D01*
Y241335D01*
X1273254D01*
Y240969D01*
X1273071D01*
Y240238D01*
X1272889D01*
Y239872D01*
X1272706D01*
Y239141D01*
X1272523D01*
Y238775D01*
X1272340D01*
Y238227D01*
X1272157D01*
Y237678D01*
X1271974D01*
Y237313D01*
X1271792D01*
Y236581D01*
X1271609D01*
Y236216D01*
X1271426D01*
Y235667D01*
X1271243D01*
Y234936D01*
X1271060D01*
Y234753D01*
X1270878D01*
Y233839D01*
X1270695D01*
Y233474D01*
X1270512D01*
Y232925D01*
X1270329D01*
Y232559D01*
X1270146D01*
Y232011D01*
X1269963D01*
Y231280D01*
X1269781D01*
Y230914D01*
X1269598D01*
Y230366D01*
X1269415D01*
Y229817D01*
X1269232D01*
Y229452D01*
X1269049D01*
Y228720D01*
X1268867D01*
Y228355D01*
X1268684D01*
Y227623D01*
X1268501D01*
Y227258D01*
X1268318D01*
Y226709D01*
X1268135D01*
Y226161D01*
X1267953D01*
Y225795D01*
X1267770D01*
Y225064D01*
X1267587D01*
Y224698D01*
X1267404D01*
Y223967D01*
X1267221D01*
Y223601D01*
X1267038D01*
Y223053D01*
X1266856D01*
Y222322D01*
X1266673D01*
Y222139D01*
X1266490D01*
Y221408D01*
X1266307D01*
Y221042D01*
X1266124D01*
Y220311D01*
X1265941D01*
Y219945D01*
X1265759D01*
Y219397D01*
X1265576D01*
Y218665D01*
X1265393D01*
Y218300D01*
X1265210D01*
Y218117D01*
X1243272D01*
Y218848D01*
X1243455D01*
Y219214D01*
X1243638D01*
Y219762D01*
X1243821D01*
Y220128D01*
X1244004D01*
Y220676D01*
X1244187D01*
Y221408D01*
X1244369D01*
Y221773D01*
X1244552D01*
Y222505D01*
X1244735D01*
Y222870D01*
X1244918D01*
Y223419D01*
X1245101D01*
Y223967D01*
X1245283D01*
Y224333D01*
X1245466D01*
Y225064D01*
X1245649D01*
Y225430D01*
X1245832D01*
Y226161D01*
X1246015D01*
Y226526D01*
X1246197D01*
Y227075D01*
X1246380D01*
Y227623D01*
X1246563D01*
Y227989D01*
X1246746D01*
Y228720D01*
X1246929D01*
Y229086D01*
X1247111D01*
Y229634D01*
X1247294D01*
Y230183D01*
X1247477D01*
Y230731D01*
X1247660D01*
Y231280D01*
X1247843D01*
Y231645D01*
X1248026D01*
Y232377D01*
X1248208D01*
Y232742D01*
X1248391D01*
Y233291D01*
X1248574D01*
Y234022D01*
X1248757D01*
Y234205D01*
X1248940D01*
Y234936D01*
X1249122D01*
Y235302D01*
X1249305D01*
Y236033D01*
X1249488D01*
Y236581D01*
X1249671D01*
Y236947D01*
X1249854D01*
Y237678D01*
X1250037D01*
Y238044D01*
X1250219D01*
Y238592D01*
X1250402D01*
Y238958D01*
X1250585D01*
Y239506D01*
X1250768D01*
Y240238D01*
X1250951D01*
Y240603D01*
X1251133D01*
Y241335D01*
X1251316D01*
Y241700D01*
X1251499D01*
Y242249D01*
X1251682D01*
Y242797D01*
X1251865D01*
Y243163D01*
X1252047D01*
Y243894D01*
X1252230D01*
Y244260D01*
X1252413D01*
Y244991D01*
X1252596D01*
Y245357D01*
X1252779D01*
Y245905D01*
X1252962D01*
Y246453D01*
X1253144D01*
Y246819D01*
X1253327D01*
Y247550D01*
X1253510D01*
Y247916D01*
X1253693D01*
Y248464D01*
X1253876D01*
Y249013D01*
X1254059D01*
Y249561D01*
X1254241D01*
Y250110D01*
X1254424D01*
Y250475D01*
X1254607D01*
Y251207D01*
X1254790D01*
Y251572D01*
X1254973D01*
Y252121D01*
X1255155D01*
Y252852D01*
X1255338D01*
Y253035D01*
X1255521D01*
Y253766D01*
X1255704D01*
Y254132D01*
X1255887D01*
Y254863D01*
X1256070D01*
Y255411D01*
X1256252D01*
Y255777D01*
X1256435D01*
Y256508D01*
X1256618D01*
Y256874D01*
X1256801D01*
Y257422D01*
X1256984D01*
Y257971D01*
X1257166D01*
Y258336D01*
X1257349D01*
Y259068D01*
X1257532D01*
Y259433D01*
X1257715D01*
Y260164D01*
X1257898D01*
Y260530D01*
X1258080D01*
Y261079D01*
X1258263D01*
Y261627D01*
X1258446D01*
Y261993D01*
X1258629D01*
Y262724D01*
X1258812D01*
Y263090D01*
X1258995D01*
Y263821D01*
X1259177D01*
Y264187D01*
X1259360D01*
Y264735D01*
X1259543D01*
Y265283D01*
X1259726D01*
Y265466D01*
X1259909D01*
Y265649D01*
X1260091D01*
Y265832D01*
X1260457D01*
Y266015D01*
X1260640D01*
Y266197D01*
X1261005D01*
Y266380D01*
X1261188D01*
Y266563D01*
X1261371D01*
Y266746D01*
X1261737D01*
Y266929D01*
X1261920D01*
Y267111D01*
X1262285D01*
Y267294D01*
X1262468D01*
Y267477D01*
X1262651D01*
Y267660D01*
X1263016D01*
Y267843D01*
X1263199D01*
Y268026D01*
X1263565D01*
Y268208D01*
X1263748D01*
Y268391D01*
X1263930D01*
Y268574D01*
X1264296D01*
Y268757D01*
X1264479D01*
Y268940D01*
X1264845D01*
Y269123D01*
X1265027D01*
Y269305D01*
X1265393D01*
Y269488D01*
X1265576D01*
Y269671D01*
X1265759D01*
Y269854D01*
X1266124D01*
Y270037D01*
X1266307D01*
Y270219D01*
X1266673D01*
Y270402D01*
X1266856D01*
Y270585D01*
X1267038D01*
Y270768D01*
X1267404D01*
Y270951D01*
X1267587D01*
Y271134D01*
X1267953D01*
Y271316D01*
X1268135D01*
Y271499D01*
X1268318D01*
Y271682D01*
X1268684D01*
Y271865D01*
X1268867D01*
Y272048D01*
X1269232D01*
Y272230D01*
X1269415D01*
Y272413D01*
X1269598D01*
Y272596D01*
X1269963D01*
Y272779D01*
X1270146D01*
Y272962D01*
X1270512D01*
Y273144D01*
X1270695D01*
Y273327D01*
X1270878D01*
Y273510D01*
X1271243D01*
Y273693D01*
X1271426D01*
Y273876D01*
X1271609D01*
Y274058D01*
X1271974D01*
Y274241D01*
X1272157D01*
Y274424D01*
X1272340D01*
Y274607D01*
X1272706D01*
Y274790D01*
X1272889D01*
Y274973D01*
X1273254D01*
Y275155D01*
X1273437D01*
Y275338D01*
X1273620D01*
Y275521D01*
X1273985D01*
Y275704D01*
X1274168D01*
Y275887D01*
X1274534D01*
Y276070D01*
X1274717D01*
Y276252D01*
X1275082D01*
Y276435D01*
X1275265D01*
Y276618D01*
X1275448D01*
Y276801D01*
X1275813D01*
Y276983D01*
X1275996D01*
Y277166D01*
X1276362D01*
Y277349D01*
X1276545D01*
Y277532D01*
X1276728D01*
Y277715D01*
X1277093D01*
Y277898D01*
X1277276D01*
Y278080D01*
X1277642D01*
Y278263D01*
X1277824D01*
Y278446D01*
X1278007D01*
Y278629D01*
X1278373D01*
Y278812D01*
X1278556D01*
Y278995D01*
X1278921D01*
Y279177D01*
X1279104D01*
Y279360D01*
X1279470D01*
Y279543D01*
X1279653D01*
Y279726D01*
X1279835D01*
Y279909D01*
X1280201D01*
Y280091D01*
X1280384D01*
Y280274D01*
X1280749D01*
Y280457D01*
X1280932D01*
Y280640D01*
X1281115D01*
Y280823D01*
X1281481D01*
Y281188D01*
X1315119D01*
Y280823D01*
D02*
G37*
G36*
X1342358Y233108D02*
X1342176D01*
Y232742D01*
X1341993D01*
Y232194D01*
X1341810D01*
Y231645D01*
X1341627D01*
Y231280D01*
X1341444D01*
Y230548D01*
X1341261D01*
Y230183D01*
X1341079D01*
Y229452D01*
X1340896D01*
Y229086D01*
X1340713D01*
Y228537D01*
X1340530D01*
Y227989D01*
X1340347D01*
Y227623D01*
X1340165D01*
Y226892D01*
X1339982D01*
Y226526D01*
X1339799D01*
Y225795D01*
X1339616D01*
Y225430D01*
X1339433D01*
Y224881D01*
X1339251D01*
Y224150D01*
X1339068D01*
Y223967D01*
X1338885D01*
Y223236D01*
X1338702D01*
Y222687D01*
X1338519D01*
Y222139D01*
X1338336D01*
Y221590D01*
X1338154D01*
Y221225D01*
X1337971D01*
Y220494D01*
X1337788D01*
Y220128D01*
X1337605D01*
Y219579D01*
X1337422D01*
Y219031D01*
X1337239D01*
Y218665D01*
X1337057D01*
Y218117D01*
X1314936D01*
Y218300D01*
X1315119D01*
Y219031D01*
X1315302D01*
Y219397D01*
X1315485D01*
Y219945D01*
X1315667D01*
Y220494D01*
X1315850D01*
Y221042D01*
X1316033D01*
Y221590D01*
X1316216D01*
Y221956D01*
X1316399D01*
Y222687D01*
X1316581D01*
Y223236D01*
X1316764D01*
Y223601D01*
X1316947D01*
Y224333D01*
X1317130D01*
Y224698D01*
X1317313D01*
Y225430D01*
X1317495D01*
Y225795D01*
X1317678D01*
Y226161D01*
X1317861D01*
Y226892D01*
X1318044D01*
Y227258D01*
X1318227D01*
Y227989D01*
X1318409D01*
Y228355D01*
X1318592D01*
Y228903D01*
X1318775D01*
Y229452D01*
X1318958D01*
Y229817D01*
X1319141D01*
Y230548D01*
X1319324D01*
Y230914D01*
X1319506D01*
Y231645D01*
X1319689D01*
Y232011D01*
X1319872D01*
Y232559D01*
X1320055D01*
Y233108D01*
X1320238D01*
Y233656D01*
X1320420D01*
Y233839D01*
X1342358D01*
Y233108D01*
D02*
G37*
G36*
X1444552Y233291D02*
X1444187D01*
Y232559D01*
X1444004D01*
Y232011D01*
X1443821D01*
Y231645D01*
X1443638D01*
Y230914D01*
X1443455D01*
Y230548D01*
X1443272D01*
Y229817D01*
X1443090D01*
Y229452D01*
X1442907D01*
Y228903D01*
X1442724D01*
Y228355D01*
X1442541D01*
Y227989D01*
X1442358D01*
Y227258D01*
X1442176D01*
Y226892D01*
X1441993D01*
Y226161D01*
X1441810D01*
Y225795D01*
X1441627D01*
Y225430D01*
X1441444D01*
Y224698D01*
X1441261D01*
Y224333D01*
X1441079D01*
Y223601D01*
X1440896D01*
Y223236D01*
X1440713D01*
Y222687D01*
X1440530D01*
Y221956D01*
X1440347D01*
Y221590D01*
X1440165D01*
Y221042D01*
X1439982D01*
Y220676D01*
X1439799D01*
Y219945D01*
X1439616D01*
Y219397D01*
X1439433D01*
Y219031D01*
X1439251D01*
Y218117D01*
X1416947D01*
Y218300D01*
X1417130D01*
Y218665D01*
X1417313D01*
Y219397D01*
X1417495D01*
Y219762D01*
X1417678D01*
Y220311D01*
X1417861D01*
Y221042D01*
X1418044D01*
Y221225D01*
X1418227D01*
Y222139D01*
X1418409D01*
Y222505D01*
X1418592D01*
Y223053D01*
X1418775D01*
Y223601D01*
X1418958D01*
Y223967D01*
X1419141D01*
Y224698D01*
X1419324D01*
Y225064D01*
X1419506D01*
Y225612D01*
X1419689D01*
Y226161D01*
X1419872D01*
Y226526D01*
X1420055D01*
Y227258D01*
X1420238D01*
Y227623D01*
X1420420D01*
Y228355D01*
X1420603D01*
Y228720D01*
X1420786D01*
Y229269D01*
X1420969D01*
Y229817D01*
X1421152D01*
Y230183D01*
X1421334D01*
Y231097D01*
X1421517D01*
Y231280D01*
X1421700D01*
Y232011D01*
X1421883D01*
Y232377D01*
X1422066D01*
Y232925D01*
X1422249D01*
Y233656D01*
X1422431D01*
Y233839D01*
X1444552D01*
Y233291D01*
D02*
G37*
G36*
X1414388Y280823D02*
X1414570D01*
Y280640D01*
X1414753D01*
Y280274D01*
X1414936D01*
Y280091D01*
X1415119D01*
Y279909D01*
X1415302D01*
Y279543D01*
X1415485D01*
Y279360D01*
X1415667D01*
Y278995D01*
X1415850D01*
Y278812D01*
X1416033D01*
Y278446D01*
X1416216D01*
Y278263D01*
X1416399D01*
Y278080D01*
X1416581D01*
Y277715D01*
X1416764D01*
Y277532D01*
X1416947D01*
Y277166D01*
X1417130D01*
Y276983D01*
X1417313D01*
Y276618D01*
X1417495D01*
Y276435D01*
X1417678D01*
Y276252D01*
X1417861D01*
Y275887D01*
X1418044D01*
Y275704D01*
X1418227D01*
Y275338D01*
X1418409D01*
Y275155D01*
X1418592D01*
Y274790D01*
X1418775D01*
Y274607D01*
X1418958D01*
Y274424D01*
X1419141D01*
Y274058D01*
X1419324D01*
Y273876D01*
X1419506D01*
Y273510D01*
X1419689D01*
Y273327D01*
X1419872D01*
Y273144D01*
X1420055D01*
Y272779D01*
X1420238D01*
Y272596D01*
X1420420D01*
Y272230D01*
X1420603D01*
Y272048D01*
X1420786D01*
Y271682D01*
X1420969D01*
Y271499D01*
X1421152D01*
Y271316D01*
X1421334D01*
Y270951D01*
X1421517D01*
Y270768D01*
X1421700D01*
Y270402D01*
X1421883D01*
Y270219D01*
X1422066D01*
Y269854D01*
X1422249D01*
Y269671D01*
X1422431D01*
Y269488D01*
X1422614D01*
Y269123D01*
X1422797D01*
Y268940D01*
X1422980D01*
Y268574D01*
X1423163D01*
Y268391D01*
X1423345D01*
Y268026D01*
X1423528D01*
Y267843D01*
X1423711D01*
Y267660D01*
X1423894D01*
Y267294D01*
X1424077D01*
Y267111D01*
X1424260D01*
Y266746D01*
X1424442D01*
Y266563D01*
X1424625D01*
Y266197D01*
X1424808D01*
Y266015D01*
X1424991D01*
Y265832D01*
X1425174D01*
Y264735D01*
X1424991D01*
Y264552D01*
X1424808D01*
Y263638D01*
X1424625D01*
Y263272D01*
X1424442D01*
Y262724D01*
X1424260D01*
Y262175D01*
X1424077D01*
Y261810D01*
X1423894D01*
Y261079D01*
X1423711D01*
Y260713D01*
X1423528D01*
Y259982D01*
X1423345D01*
Y259616D01*
X1423163D01*
Y259068D01*
X1422980D01*
Y258519D01*
X1422797D01*
Y258154D01*
X1422614D01*
Y257422D01*
X1422431D01*
Y257057D01*
X1422249D01*
Y256325D01*
X1422066D01*
Y255960D01*
X1421883D01*
Y255594D01*
X1421700D01*
Y254863D01*
X1421517D01*
Y254497D01*
X1421334D01*
Y253766D01*
X1421152D01*
Y253400D01*
X1420969D01*
Y252852D01*
X1420786D01*
Y252304D01*
X1420603D01*
Y251938D01*
X1420420D01*
Y251207D01*
X1420238D01*
Y250841D01*
X1420055D01*
Y250110D01*
X1419872D01*
Y249744D01*
X1419689D01*
Y249196D01*
X1419506D01*
Y248464D01*
X1419324D01*
Y248281D01*
X1419141D01*
Y247550D01*
X1418958D01*
Y247185D01*
X1418775D01*
Y246453D01*
X1418592D01*
Y245905D01*
X1418409D01*
Y245539D01*
X1418227D01*
Y244808D01*
X1418044D01*
Y244442D01*
X1417861D01*
Y243894D01*
X1417678D01*
Y243345D01*
X1417495D01*
Y242980D01*
X1417313D01*
Y242249D01*
X1417130D01*
Y241883D01*
X1416764D01*
Y241700D01*
X1405978D01*
Y241335D01*
X1406161D01*
Y241152D01*
X1406344D01*
Y240421D01*
X1406526D01*
Y240055D01*
X1406709D01*
Y239506D01*
X1406892D01*
Y238958D01*
X1407075D01*
Y238592D01*
X1407258D01*
Y237861D01*
X1407441D01*
Y237495D01*
X1407623D01*
Y236947D01*
X1407806D01*
Y236399D01*
X1407989D01*
Y236033D01*
X1408172D01*
Y235119D01*
X1408355D01*
Y234936D01*
X1408537D01*
Y234205D01*
X1408720D01*
Y233839D01*
X1408903D01*
Y233291D01*
X1409086D01*
Y232559D01*
X1409269D01*
Y232377D01*
X1409452D01*
Y231463D01*
X1409634D01*
Y231097D01*
X1409817D01*
Y230548D01*
X1410000D01*
Y230000D01*
X1410183D01*
Y229634D01*
X1410366D01*
Y228903D01*
X1410548D01*
Y228720D01*
X1410731D01*
Y227806D01*
X1410914D01*
Y227441D01*
X1411097D01*
Y227075D01*
X1411280D01*
Y226344D01*
X1411463D01*
Y225978D01*
X1411645D01*
Y225247D01*
X1411828D01*
Y224881D01*
X1412011D01*
Y224333D01*
X1412194D01*
Y223784D01*
X1412377D01*
Y223419D01*
X1412559D01*
Y222687D01*
X1412742D01*
Y222322D01*
X1412925D01*
Y221590D01*
X1413108D01*
Y221225D01*
X1413291D01*
Y220676D01*
X1413474D01*
Y220128D01*
X1413656D01*
Y219762D01*
X1413839D01*
Y218848D01*
X1414022D01*
Y218665D01*
X1414205D01*
Y218117D01*
X1392084D01*
Y218665D01*
X1391901D01*
Y219397D01*
X1391718D01*
Y219579D01*
X1391536D01*
Y220311D01*
X1391353D01*
Y220859D01*
X1391170D01*
Y221225D01*
X1390987D01*
Y221956D01*
X1390804D01*
Y222322D01*
X1390622D01*
Y223053D01*
X1390439D01*
Y223419D01*
X1390256D01*
Y223967D01*
X1390073D01*
Y224516D01*
X1389890D01*
Y224881D01*
X1389707D01*
Y225612D01*
X1389525D01*
Y225795D01*
X1389342D01*
Y226526D01*
X1389159D01*
Y227075D01*
X1388976D01*
Y227441D01*
X1388793D01*
Y228172D01*
X1388611D01*
Y228537D01*
X1388428D01*
Y229269D01*
X1388245D01*
Y229634D01*
X1388062D01*
Y230183D01*
X1387879D01*
Y230731D01*
X1387697D01*
Y231097D01*
X1387514D01*
Y231828D01*
X1387331D01*
Y232194D01*
X1387148D01*
Y232742D01*
X1386965D01*
Y233291D01*
X1386782D01*
Y233656D01*
X1386600D01*
Y234388D01*
X1386417D01*
Y234753D01*
X1386234D01*
Y235484D01*
X1386051D01*
Y235850D01*
X1385868D01*
Y236399D01*
X1385686D01*
Y236947D01*
X1385503D01*
Y237313D01*
X1385320D01*
Y238044D01*
X1385137D01*
Y238410D01*
X1384954D01*
Y239141D01*
X1384772D01*
Y239506D01*
X1384589D01*
Y239872D01*
X1384406D01*
Y240603D01*
X1384223D01*
Y240969D01*
X1384040D01*
Y242614D01*
X1384223D01*
Y242980D01*
X1384406D01*
Y243711D01*
X1384589D01*
Y244077D01*
X1384772D01*
Y244625D01*
X1384954D01*
Y245357D01*
X1385137D01*
Y245539D01*
X1385320D01*
Y246271D01*
X1385503D01*
Y246636D01*
X1385686D01*
Y247185D01*
X1385868D01*
Y247733D01*
X1386051D01*
Y248099D01*
X1386234D01*
Y248830D01*
X1386417D01*
Y249196D01*
X1386600D01*
Y249927D01*
X1386782D01*
Y250475D01*
X1386965D01*
Y250841D01*
X1387148D01*
Y251572D01*
X1387331D01*
Y251755D01*
X1387514D01*
Y252486D01*
X1387697D01*
Y252852D01*
X1387879D01*
Y253400D01*
X1388062D01*
Y254132D01*
X1388245D01*
Y254497D01*
X1388428D01*
Y255228D01*
X1388611D01*
Y255411D01*
X1388793D01*
Y256143D01*
X1388976D01*
Y256691D01*
X1389159D01*
Y257057D01*
X1389342D01*
Y257422D01*
X1389525D01*
Y257605D01*
X1400494D01*
Y257788D01*
X1400676D01*
Y258519D01*
X1400859D01*
Y259068D01*
X1401042D01*
Y259616D01*
X1401225D01*
Y260164D01*
X1401408D01*
Y260530D01*
X1401591D01*
Y261261D01*
X1401773D01*
Y261627D01*
X1401956D01*
Y262175D01*
X1402139D01*
Y262724D01*
X1402322D01*
Y263090D01*
X1402505D01*
Y263821D01*
X1402687D01*
Y264004D01*
X1402870D01*
Y264735D01*
X1403053D01*
Y265101D01*
X1403236D01*
Y265283D01*
X1403053D01*
Y265466D01*
X1381298D01*
Y265283D01*
X1381115D01*
Y265101D01*
X1380932D01*
Y264552D01*
X1380749D01*
Y264187D01*
X1380567D01*
Y263455D01*
X1380384D01*
Y262907D01*
X1380201D01*
Y262541D01*
X1380018D01*
Y261993D01*
X1379835D01*
Y261627D01*
X1379653D01*
Y260896D01*
X1379470D01*
Y260530D01*
X1379287D01*
Y259799D01*
X1379104D01*
Y259433D01*
X1378921D01*
Y258885D01*
X1378739D01*
Y258154D01*
X1378556D01*
Y257788D01*
X1378373D01*
Y257240D01*
X1378190D01*
Y256874D01*
X1378007D01*
Y256325D01*
X1377824D01*
Y255594D01*
X1377642D01*
Y255411D01*
X1377459D01*
Y254680D01*
X1377276D01*
Y254314D01*
X1377093D01*
Y253583D01*
X1376910D01*
Y253035D01*
X1376728D01*
Y252669D01*
X1376545D01*
Y251938D01*
X1376362D01*
Y251755D01*
X1376179D01*
Y251024D01*
X1375996D01*
Y250475D01*
X1375813D01*
Y250110D01*
X1375631D01*
Y249378D01*
X1375448D01*
Y249013D01*
X1375265D01*
Y248281D01*
X1375082D01*
Y248099D01*
X1374899D01*
Y247368D01*
X1374717D01*
Y246819D01*
X1374534D01*
Y246453D01*
X1374351D01*
Y245722D01*
X1374168D01*
Y245357D01*
X1373985D01*
Y244808D01*
X1373803D01*
Y244260D01*
X1373620D01*
Y243894D01*
X1373437D01*
Y243163D01*
X1373254D01*
Y242797D01*
X1373071D01*
Y242066D01*
X1372889D01*
Y241700D01*
X1372706D01*
Y241152D01*
X1372523D01*
Y240603D01*
X1372340D01*
Y240238D01*
X1372157D01*
Y239506D01*
X1371974D01*
Y239141D01*
X1371792D01*
Y238410D01*
X1371609D01*
Y238044D01*
X1371426D01*
Y237495D01*
X1371243D01*
Y236947D01*
X1371060D01*
Y236581D01*
X1370878D01*
Y235850D01*
X1370695D01*
Y235484D01*
X1370512D01*
Y234936D01*
X1370329D01*
Y234388D01*
X1370146D01*
Y234022D01*
X1369963D01*
Y233291D01*
X1369781D01*
Y232925D01*
X1369598D01*
Y232194D01*
X1369415D01*
Y231828D01*
X1369232D01*
Y231280D01*
X1369049D01*
Y230731D01*
X1368867D01*
Y230366D01*
X1368684D01*
Y229634D01*
X1368501D01*
Y229269D01*
X1368318D01*
Y228537D01*
X1368135D01*
Y228172D01*
X1367953D01*
Y227623D01*
X1367770D01*
Y226892D01*
X1367587D01*
Y226709D01*
X1367404D01*
Y225978D01*
X1367221D01*
Y225430D01*
X1367038D01*
Y225064D01*
X1366856D01*
Y224333D01*
X1366673D01*
Y223967D01*
X1366490D01*
Y223236D01*
X1366307D01*
Y222870D01*
X1366124D01*
Y222322D01*
X1365941D01*
Y221773D01*
X1365759D01*
Y221408D01*
X1365576D01*
Y220676D01*
X1365393D01*
Y220311D01*
X1365210D01*
Y219579D01*
X1365027D01*
Y219214D01*
X1364845D01*
Y218665D01*
X1364662D01*
Y218117D01*
X1342541D01*
Y218483D01*
X1342724D01*
Y219031D01*
X1342907D01*
Y219579D01*
X1343090D01*
Y219945D01*
X1343272D01*
Y220676D01*
X1343455D01*
Y221042D01*
X1343638D01*
Y221773D01*
X1343821D01*
Y222139D01*
X1344004D01*
Y222687D01*
X1344187D01*
Y223419D01*
X1344369D01*
Y223601D01*
X1344552D01*
Y224333D01*
X1344735D01*
Y224698D01*
X1344918D01*
Y225430D01*
X1345101D01*
Y225795D01*
X1345283D01*
Y226344D01*
X1345466D01*
Y227075D01*
X1345649D01*
Y227258D01*
X1345832D01*
Y227989D01*
X1346015D01*
Y228537D01*
X1346197D01*
Y228903D01*
X1346380D01*
Y229634D01*
X1346563D01*
Y230000D01*
X1346746D01*
Y230731D01*
X1346929D01*
Y231097D01*
X1347111D01*
Y231645D01*
X1347294D01*
Y232194D01*
X1347477D01*
Y232559D01*
X1347660D01*
Y233291D01*
X1347843D01*
Y233656D01*
X1348026D01*
Y234388D01*
X1348208D01*
Y234753D01*
X1348391D01*
Y235119D01*
X1348574D01*
Y235850D01*
X1348757D01*
Y236216D01*
X1348940D01*
Y236947D01*
X1349122D01*
Y237313D01*
X1349305D01*
Y237861D01*
X1349488D01*
Y238410D01*
X1349671D01*
Y238775D01*
X1349854D01*
Y239506D01*
X1350037D01*
Y239872D01*
X1350219D01*
Y240603D01*
X1350402D01*
Y240969D01*
X1350585D01*
Y241517D01*
X1350768D01*
Y242066D01*
X1350951D01*
Y242431D01*
X1351133D01*
Y243163D01*
X1351316D01*
Y243528D01*
X1351499D01*
Y244260D01*
X1351682D01*
Y244625D01*
X1351865D01*
Y245174D01*
X1352047D01*
Y245905D01*
X1352230D01*
Y246088D01*
X1352413D01*
Y246819D01*
X1352596D01*
Y247368D01*
X1352779D01*
Y247733D01*
X1352962D01*
Y248464D01*
X1353144D01*
Y248830D01*
X1353327D01*
Y249561D01*
X1353510D01*
Y249744D01*
X1353693D01*
Y250475D01*
X1353876D01*
Y251024D01*
X1354059D01*
Y251389D01*
X1354241D01*
Y252121D01*
X1354424D01*
Y252486D01*
X1354607D01*
Y253035D01*
X1354790D01*
Y253583D01*
X1354973D01*
Y253949D01*
X1355155D01*
Y254680D01*
X1355338D01*
Y255046D01*
X1355521D01*
Y255777D01*
X1355704D01*
Y256143D01*
X1355887D01*
Y256691D01*
X1356070D01*
Y257240D01*
X1356252D01*
Y257605D01*
X1356435D01*
Y258336D01*
X1356618D01*
Y258702D01*
X1356801D01*
Y259433D01*
X1356984D01*
Y259799D01*
X1357166D01*
Y260347D01*
X1357349D01*
Y260896D01*
X1357532D01*
Y261261D01*
X1357715D01*
Y261993D01*
X1357898D01*
Y262358D01*
X1358080D01*
Y262907D01*
X1358263D01*
Y263455D01*
X1358446D01*
Y263821D01*
X1358629D01*
Y264552D01*
X1358812D01*
Y264918D01*
X1358995D01*
Y265649D01*
X1359177D01*
Y266015D01*
X1359360D01*
Y266563D01*
X1359543D01*
Y267294D01*
X1359726D01*
Y267660D01*
X1359909D01*
Y268208D01*
X1360091D01*
Y268574D01*
X1360274D01*
Y269305D01*
X1360457D01*
Y269854D01*
X1360640D01*
Y270219D01*
X1360823D01*
Y270951D01*
X1361005D01*
Y271316D01*
X1361188D01*
Y271865D01*
X1361371D01*
Y272413D01*
X1361554D01*
Y272779D01*
X1361737D01*
Y273510D01*
X1361920D01*
Y273876D01*
X1362102D01*
Y274607D01*
X1362285D01*
Y274973D01*
X1362468D01*
Y275521D01*
X1362651D01*
Y276070D01*
X1362834D01*
Y276435D01*
X1363016D01*
Y277166D01*
X1363199D01*
Y277532D01*
X1363382D01*
Y278263D01*
X1363565D01*
Y278629D01*
X1363748D01*
Y279177D01*
X1363930D01*
Y279726D01*
X1364113D01*
Y280091D01*
X1364296D01*
Y280823D01*
X1364479D01*
Y281188D01*
X1414388D01*
Y280823D01*
D02*
G37*
D47*
X134449Y1810000D02*
G03*
X134449Y1810000I-4921J0D01*
G01*
X1144921Y1275669D02*
G03*
X1144921Y1275669I-4921J0D01*
G01*
X37008Y1376181D02*
G03*
X37008Y1376181I-4921J0D01*
G01*
X1375394Y1850000D02*
G03*
X1375394Y1850000I-4921J0D01*
G01*
D48*
X67874Y1435000D02*
G03*
X67874Y1435000I-7874J0D01*
G01*
D49*
X950000Y1650000D02*
Y1725000D01*
Y25000D02*
Y100000D01*
X250000Y1650000D02*
Y1725000D01*
Y25000D02*
Y100000D01*
X750000Y25000D02*
Y275000D01*
X450000D02*
X750000D01*
X450000Y25000D02*
Y275000D01*
X250000Y25000D02*
X950000D01*
X250000Y1725000D02*
X950000D01*
X662000Y1952000D02*
X838000D01*
X662000Y2428000D02*
X838000D01*
X662000Y1952000D02*
Y2428000D01*
X838000Y1952000D02*
Y2428000D01*
X202000Y2302000D02*
Y2478000D01*
X578000Y2302000D02*
Y2478000D01*
X202000D02*
X578000D01*
X202000Y2302000D02*
X578000D01*
X1298000D02*
Y2478000D01*
X922000Y2302000D02*
Y2478000D01*
Y2302000D02*
X1298000D01*
X922000Y2478000D02*
X1298000D01*
X270000Y2160000D02*
X370000Y2110000D01*
X270000Y2060000D02*
Y2160000D01*
Y2060000D02*
X370000Y2110000D01*
Y2060000D02*
Y2160000D01*
X220000Y2110000D02*
X270000D01*
X370000D02*
X420000D01*
X145000Y1935000D02*
X495000D01*
X145000Y2285000D02*
X495000D01*
X145000Y1935000D02*
Y2285000D01*
X495000Y1935000D02*
Y2285000D01*
X1130000Y2110000D02*
X1230000Y2060000D01*
Y2160000D01*
X1130000Y2110000D02*
X1230000Y2160000D01*
X1130000Y2060000D02*
Y2160000D01*
X1230000Y2110000D02*
X1280000D01*
X1080000D02*
X1130000D01*
X1005000Y2285000D02*
X1355000D01*
X1005000Y1935000D02*
X1355000D01*
Y2285000D01*
X1005000Y1935000D02*
Y2285000D01*
D50*
X1025000Y1726000D02*
X1035000D01*
X1025000Y1674000D02*
X1035000D01*
X155118Y1894646D02*
X544882D01*
X155118Y1914331D02*
X544882D01*
X155118Y1741102D02*
X544882D01*
Y1914331D01*
X155118Y1741102D02*
Y1914331D01*
X1009000Y905000D02*
Y915000D01*
X1061000Y905000D02*
Y915000D01*
X1265000Y814000D02*
X1275000D01*
X1265000Y866000D02*
X1275000D01*
X1009000Y1136417D02*
Y1146417D01*
X1061000Y1136417D02*
Y1146417D01*
X1135000Y814000D02*
X1145000D01*
X1135000Y866000D02*
X1145000D01*
X1246000Y455000D02*
Y465000D01*
X1194000Y455000D02*
Y465000D01*
X1245000Y1726000D02*
X1255000D01*
X1245000Y1674000D02*
X1255000D01*
X1013622Y1301260D02*
X1470315D01*
Y1635906D01*
X1013622D02*
X1470315D01*
X1013622Y1301260D02*
Y1635906D01*
X1356000Y1215000D02*
Y1225000D01*
X1304000Y1215000D02*
Y1225000D01*
X1246000Y1215000D02*
Y1225000D01*
X1194000Y1215000D02*
Y1225000D01*
X1350315Y974095D02*
Y985905D01*
X1389685Y974095D02*
Y985905D01*
X1350315Y974095D02*
X1389685D01*
X1256000Y971417D02*
Y981417D01*
X1204000Y971417D02*
Y981417D01*
X37008Y1408661D02*
X162992D01*
X37008Y1491339D02*
X162992D01*
X37008Y1408661D02*
Y1491339D01*
X162992Y1408661D02*
Y1491339D01*
X165000Y1654000D02*
X175000D01*
X165000Y1706000D02*
X175000D01*
X96000Y1015000D02*
Y1025000D01*
X44000Y1015000D02*
Y1025000D01*
X176000Y1015000D02*
Y1025000D01*
X124000Y1015000D02*
Y1025000D01*
X1344882Y1745669D02*
Y1918898D01*
X955118D02*
X1344882D01*
X955118Y1765354D02*
X1344882D01*
X955118Y1745669D02*
X1344882D01*
X955118D02*
Y1918898D01*
D51*
X823000Y1739500D02*
Y1805500D01*
X577000Y1739500D02*
Y1805500D01*
Y1739500D02*
X823000D01*
X577000Y1805500D02*
X823000D01*
X1077000Y1193000D02*
X1143000D01*
X1077000Y947000D02*
X1143000D01*
Y1193000D01*
X1077000Y947000D02*
Y1193000D01*
X57000Y1333000D02*
X123000D01*
X57000Y1147000D02*
X123000D01*
Y1333000D01*
X57000Y1147000D02*
Y1333000D01*
X1397000Y697000D02*
X1463000D01*
X1397000Y883000D02*
X1463000D01*
X1397000Y697000D02*
Y883000D01*
X1463000Y697000D02*
Y883000D01*
X1433000Y407000D02*
Y473000D01*
X1307000Y407000D02*
Y473000D01*
Y407000D02*
X1433000D01*
X1307000Y473000D02*
X1433000D01*
X1407000Y1147000D02*
X1473000D01*
X1407000Y1273000D02*
X1473000D01*
X1407000Y1147000D02*
Y1273000D01*
X1473000Y1147000D02*
Y1273000D01*
X163000Y827000D02*
Y893000D01*
X37000Y827000D02*
Y893000D01*
Y827000D02*
X163000D01*
X37000Y893000D02*
X163000D01*
X1153000Y407000D02*
Y473000D01*
X1027000Y407000D02*
Y473000D01*
Y407000D02*
X1153000D01*
X1027000Y473000D02*
X1153000D01*
X37000Y547000D02*
Y613000D01*
X163000Y547000D02*
Y613000D01*
X37000D02*
X163000D01*
X37000Y547000D02*
X163000D01*
X37000Y267000D02*
Y333000D01*
X163000Y267000D02*
Y333000D01*
X37000D02*
X163000D01*
X37000Y267000D02*
X163000D01*
X1027000Y547000D02*
Y613000D01*
X1153000Y547000D02*
Y613000D01*
X1027000D02*
X1153000D01*
X1027000Y547000D02*
X1153000D01*
X37000Y687000D02*
Y753000D01*
X163000Y687000D02*
Y753000D01*
X37000D02*
X163000D01*
X37000Y687000D02*
X163000D01*
X37000Y407000D02*
Y473000D01*
X163000Y407000D02*
Y473000D01*
X37000D02*
X163000D01*
X37000Y407000D02*
X163000D01*
X1105000Y646693D02*
X1295000D01*
X1105000D02*
Y733307D01*
X1295000D01*
Y646693D02*
Y733307D01*
D52*
X1167000Y176987D02*
Y150329D01*
X1180329Y137000D01*
X1193658Y150329D01*
Y176987D01*
X1206987Y137000D02*
X1220316D01*
X1213652D01*
Y176987D01*
X1206987Y170323D01*
X1240310Y137000D02*
Y143665D01*
X1246974D01*
Y137000D01*
X1240310D01*
X1273632Y170323D02*
X1280297Y176987D01*
X1293626D01*
X1300290Y170323D01*
Y143665D01*
X1293626Y137000D01*
X1280297D01*
X1273632Y143665D01*
Y170323D01*
X1417000Y1033000D02*
X1456987D01*
Y1013006D01*
X1450323Y1006342D01*
X1436994D01*
X1430329Y1013006D01*
Y1033000D01*
X1456987Y993013D02*
X1417000D01*
X1430329Y979684D01*
X1417000Y966355D01*
X1456987D01*
X1417000Y953026D02*
X1456987D01*
Y933032D01*
X1450323Y926368D01*
X1436994D01*
X1430329Y933032D01*
Y953026D01*
Y939697D02*
X1417000Y926368D01*
X1010016Y1215006D02*
Y1254994D01*
X1030010D01*
X1036674Y1248329D01*
Y1235000D01*
X1030010Y1228335D01*
X1010016D01*
X1023345D02*
X1036674Y1215006D01*
X1050003D02*
X1063332D01*
X1056668D01*
Y1254994D01*
X1050003Y1248329D01*
X1109984Y1215006D02*
X1083326D01*
X1109984Y1241665D01*
Y1248329D01*
X1103319Y1254994D01*
X1089990D01*
X1083326Y1248329D01*
X1015006Y1068319D02*
X1054994D01*
Y1048326D01*
X1048329Y1041661D01*
X1035000D01*
X1028335Y1048326D01*
Y1068319D01*
Y1054990D02*
X1015006Y1041661D01*
Y1028332D02*
Y1015003D01*
Y1021668D01*
X1054994D01*
X1048329Y1028332D01*
X1015006Y995010D02*
Y981681D01*
Y988345D01*
X1054994D01*
X1048329Y995010D01*
X1160016Y1050006D02*
Y1089994D01*
X1180010D01*
X1186674Y1083329D01*
Y1070000D01*
X1180010Y1063335D01*
X1160016D01*
X1173345D02*
X1186674Y1050006D01*
X1200003D02*
X1213332D01*
X1206668D01*
Y1089994D01*
X1200003Y1083329D01*
X1233326D02*
X1239990Y1089994D01*
X1253319D01*
X1259984Y1083329D01*
Y1056671D01*
X1253319Y1050006D01*
X1239990D01*
X1233326Y1056671D01*
Y1083329D01*
X1319994Y1046645D02*
X1280006D01*
Y1019987D01*
X1319994Y980000D02*
Y1006658D01*
X1280006D01*
Y980000D01*
X1300000Y1006658D02*
Y993329D01*
X1319994Y966671D02*
X1280006D01*
Y946677D01*
X1286671Y940013D01*
X1313329D01*
X1319994Y946677D01*
Y966671D01*
X1280006Y926684D02*
Y913355D01*
Y920019D01*
X1319994D01*
X1313329Y926684D01*
X1449994Y646664D02*
Y659994D01*
Y653329D01*
X1416671D01*
X1410006Y659994D01*
Y666658D01*
X1416671Y673322D01*
X1449994Y606677D02*
X1443329Y620006D01*
X1430000Y633335D01*
X1416671D01*
X1410006Y626671D01*
Y613342D01*
X1416671Y606677D01*
X1423335D01*
X1430000Y613342D01*
Y633335D01*
X63336Y383329D02*
X56671Y389994D01*
X43342D01*
X36678Y383329D01*
Y376664D01*
X43342Y370000D01*
X56671D01*
X63336Y363336D01*
Y356671D01*
X56671Y350007D01*
X43342D01*
X36678Y356671D01*
X96658Y350007D02*
Y389994D01*
X76665Y370000D01*
X103323D01*
X63336Y663329D02*
X56671Y669994D01*
X43342D01*
X36678Y663329D01*
Y656664D01*
X43342Y650000D01*
X56671D01*
X63336Y643336D01*
Y636671D01*
X56671Y630006D01*
X43342D01*
X36678Y636671D01*
X103323Y630006D02*
X76665D01*
X103323Y656664D01*
Y663329D01*
X96658Y669994D01*
X83329D01*
X76665Y663329D01*
X1406678Y1694994D02*
Y1661671D01*
X1413342Y1655006D01*
X1426671D01*
X1433335Y1661671D01*
Y1694994D01*
X1446665Y1688329D02*
X1453329Y1694994D01*
X1466658D01*
X1473323Y1688329D01*
Y1681665D01*
X1466658Y1675000D01*
X1459994D01*
X1466658D01*
X1473323Y1668335D01*
Y1661671D01*
X1466658Y1655006D01*
X1453329D01*
X1446665Y1661671D01*
X26677Y1599994D02*
Y1566671D01*
X33342Y1560006D01*
X46671D01*
X53336Y1566671D01*
Y1599994D01*
X93323Y1560006D02*
X66665D01*
X93323Y1586665D01*
Y1593329D01*
X86658Y1599994D01*
X73329D01*
X66665Y1593329D01*
X893336Y1876671D02*
Y1903329D01*
X886671Y1909994D01*
X873342D01*
X866678Y1903329D01*
Y1876671D01*
X873342Y1870006D01*
X886671D01*
X880006Y1883335D02*
X893336Y1870006D01*
X886671D02*
X893336Y1876671D01*
X933323Y1870006D02*
X906665D01*
X933323Y1896665D01*
Y1903329D01*
X926658Y1909994D01*
X913329D01*
X906665Y1903329D01*
X1033348Y529994D02*
Y503336D01*
X1046677Y490007D01*
X1060006Y503336D01*
Y529994D01*
X1073335Y490007D02*
Y529994D01*
X1093329D01*
X1099994Y523329D01*
Y510000D01*
X1093329Y503336D01*
X1073335D01*
X1086665D02*
X1099994Y490007D01*
X1113323D02*
X1126652D01*
X1119987D01*
Y529994D01*
X1113323Y523329D01*
X63336Y243329D02*
X56671Y249994D01*
X43342D01*
X36678Y243329D01*
Y236665D01*
X43342Y230000D01*
X56671D01*
X63336Y223335D01*
Y216671D01*
X56671Y210006D01*
X43342D01*
X36678Y216671D01*
X103323Y249994D02*
X76665D01*
Y230000D01*
X89994Y236665D01*
X96658D01*
X103323Y230000D01*
Y216671D01*
X96658Y210006D01*
X83329D01*
X76665Y216671D01*
X63336Y523329D02*
X56671Y529994D01*
X43342D01*
X36678Y523329D01*
Y516664D01*
X43342Y510000D01*
X56671D01*
X63336Y503336D01*
Y496671D01*
X56671Y490007D01*
X43342D01*
X36678Y496671D01*
X76665Y523329D02*
X83329Y529994D01*
X96658D01*
X103323Y523329D01*
Y516664D01*
X96658Y510000D01*
X89994D01*
X96658D01*
X103323Y503336D01*
Y496671D01*
X96658Y490007D01*
X83329D01*
X76665Y496671D01*
X1110000Y923329D02*
X1103335Y929994D01*
X1090006D01*
X1083342Y923329D01*
Y916664D01*
X1090006Y910000D01*
X1103335D01*
X1110000Y903336D01*
Y896671D01*
X1103335Y890006D01*
X1090006D01*
X1083342Y896671D01*
X1123329Y890006D02*
X1136658D01*
X1129994D01*
Y929994D01*
X1123329Y923329D01*
X26677Y1660006D02*
Y1699994D01*
X46671D01*
X53336Y1693329D01*
Y1680000D01*
X46671Y1673335D01*
X26677D01*
X40007D02*
X53336Y1660006D01*
X66665Y1666671D02*
X73329Y1660006D01*
X86658D01*
X93323Y1666671D01*
Y1693329D01*
X86658Y1699994D01*
X73329D01*
X66665Y1693329D01*
Y1686665D01*
X73329Y1680000D01*
X93323D01*
X1186678Y350007D02*
Y389994D01*
X1206671D01*
X1213335Y383329D01*
Y370000D01*
X1206671Y363336D01*
X1186678D01*
X1200006D02*
X1213335Y350007D01*
X1226665Y383329D02*
X1233329Y389994D01*
X1246658D01*
X1253323Y383329D01*
Y376664D01*
X1246658Y370000D01*
X1253323Y363336D01*
Y356671D01*
X1246658Y350007D01*
X1233329D01*
X1226665Y356671D01*
Y363336D01*
X1233329Y370000D01*
X1226665Y376664D01*
Y383329D01*
X1233329Y370000D02*
X1246658D01*
X1221678Y590006D02*
Y629994D01*
X1241671D01*
X1248335Y623329D01*
Y610000D01*
X1241671Y603336D01*
X1221678D01*
X1235006D02*
X1248335Y590006D01*
X1261665Y629994D02*
X1288323D01*
Y623329D01*
X1261665Y596671D01*
Y590006D01*
X1241678Y750006D02*
Y789994D01*
X1261671D01*
X1268335Y783329D01*
Y770000D01*
X1261671Y763336D01*
X1241678D01*
X1255006D02*
X1268335Y750006D01*
X1308323Y789994D02*
X1294994Y783329D01*
X1281665Y770000D01*
Y756671D01*
X1288329Y750006D01*
X1301658D01*
X1308323Y756671D01*
Y763336D01*
X1301658Y770000D01*
X1281665D01*
X1106678Y750006D02*
Y789994D01*
X1126671D01*
X1133335Y783329D01*
Y770000D01*
X1126671Y763336D01*
X1106678D01*
X1120006D02*
X1133335Y750006D01*
X1173323Y789994D02*
X1146665D01*
Y770000D01*
X1159994Y776664D01*
X1166658D01*
X1173323Y770000D01*
Y756671D01*
X1166658Y750006D01*
X1153329D01*
X1146665Y756671D01*
X1106678Y1680006D02*
Y1719994D01*
X1126671D01*
X1133335Y1713329D01*
Y1700000D01*
X1126671Y1693335D01*
X1106678D01*
X1120006D02*
X1133335Y1680006D01*
X1166658D02*
Y1719994D01*
X1146665Y1700000D01*
X1173323D01*
X1321678Y1680006D02*
Y1719994D01*
X1341671D01*
X1348335Y1713329D01*
Y1700000D01*
X1341671Y1693335D01*
X1321678D01*
X1335006D02*
X1348335Y1680006D01*
X1361665Y1713329D02*
X1368329Y1719994D01*
X1381658D01*
X1388323Y1713329D01*
Y1706665D01*
X1381658Y1700000D01*
X1374994D01*
X1381658D01*
X1388323Y1693335D01*
Y1686671D01*
X1381658Y1680006D01*
X1368329D01*
X1361665Y1686671D01*
X116677Y910006D02*
Y949994D01*
X136671D01*
X143335Y943329D01*
Y930000D01*
X136671Y923336D01*
X116677D01*
X130006D02*
X143335Y910006D01*
X183323D02*
X156665D01*
X183323Y936664D01*
Y943329D01*
X176658Y949994D01*
X163329D01*
X156665Y943329D01*
X43342Y910006D02*
Y949994D01*
X63336D01*
X70000Y943329D01*
Y930000D01*
X63336Y923336D01*
X43342D01*
X56671D02*
X70000Y910006D01*
X83329D02*
X96658D01*
X89994D01*
Y949994D01*
X83329Y943329D01*
X1083335Y356671D02*
Y383329D01*
X1076671Y389994D01*
X1063342D01*
X1056678Y383329D01*
Y356671D01*
X1063342Y350007D01*
X1076671D01*
X1070006Y363336D02*
X1083335Y350007D01*
X1076671D02*
X1083335Y356671D01*
X1096665Y383329D02*
X1103329Y389994D01*
X1116658D01*
X1123323Y383329D01*
Y376664D01*
X1116658Y370000D01*
X1109994D01*
X1116658D01*
X1123323Y363336D01*
Y356671D01*
X1116658Y350007D01*
X1103329D01*
X1096665Y356671D01*
X43348Y809994D02*
Y770006D01*
X70006D01*
X109993Y803329D02*
X103329Y809994D01*
X90000D01*
X83335Y803329D01*
Y796664D01*
X90000Y790000D01*
X103329D01*
X109993Y783336D01*
Y776671D01*
X103329Y770006D01*
X90000D01*
X83335Y776671D01*
X123323Y770006D02*
X136652D01*
X129987D01*
Y809994D01*
X123323Y803329D01*
X1459994Y1101665D02*
Y1114994D01*
Y1108329D01*
X1426671D01*
X1420006Y1114994D01*
Y1121658D01*
X1426671Y1128322D01*
X1459994Y1061677D02*
Y1088335D01*
X1440000D01*
X1446665Y1075006D01*
Y1068342D01*
X1440000Y1061677D01*
X1426671D01*
X1420006Y1068342D01*
Y1081671D01*
X1426671Y1088335D01*
X83335Y1129994D02*
X70007D01*
X76671D01*
Y1096671D01*
X70007Y1090006D01*
X63342D01*
X56678Y1096671D01*
X116658Y1090006D02*
Y1129994D01*
X96665Y1110000D01*
X123323D01*
X698348Y1864994D02*
Y1825006D01*
X718342D01*
X725006Y1831671D01*
Y1858329D01*
X718342Y1864994D01*
X698348D01*
X764994Y1858329D02*
X758329Y1864994D01*
X745000D01*
X738336Y1858329D01*
Y1851665D01*
X745000Y1845000D01*
X758329D01*
X764994Y1838335D01*
Y1831671D01*
X758329Y1825006D01*
X745000D01*
X738336Y1831671D01*
X778323Y1825006D02*
X791652D01*
X784987D01*
Y1864994D01*
X778323Y1858329D01*
X1296690Y389994D02*
Y350007D01*
X1323348D01*
X1363335Y389994D02*
X1336678D01*
Y350007D01*
X1363335D01*
X1336678Y370000D02*
X1350006D01*
X1376665Y389994D02*
Y350007D01*
X1396658D01*
X1403323Y356671D01*
Y383329D01*
X1396658Y389994D01*
X1376665D01*
X1443310Y350007D02*
X1416652D01*
X1443310Y376664D01*
Y383329D01*
X1436645Y389994D01*
X1423316D01*
X1416652Y383329D01*
X1323335Y1143329D02*
X1316671Y1149994D01*
X1303342D01*
X1296678Y1143329D01*
Y1116671D01*
X1303342Y1110006D01*
X1316671D01*
X1323335Y1116671D01*
X1363323Y1110006D02*
X1336665D01*
X1363323Y1136665D01*
Y1143329D01*
X1356658Y1149994D01*
X1343329D01*
X1336665Y1143329D01*
X1220000D02*
X1213335Y1149994D01*
X1200006D01*
X1193342Y1143329D01*
Y1116671D01*
X1200006Y1110006D01*
X1213335D01*
X1220000Y1116671D01*
X1233329Y1110006D02*
X1246658D01*
X1239994D01*
Y1149994D01*
X1233329Y1143329D01*
X868342Y1784994D02*
Y1751671D01*
X875006Y1745006D01*
X888336D01*
X895000Y1751671D01*
Y1784994D01*
X908329Y1745006D02*
X921658D01*
X914994D01*
Y1784994D01*
X908329Y1778329D01*
X860006Y2383336D02*
Y2370006D01*
Y2376671D01*
X893329D01*
X899994Y2370006D01*
Y2363342D01*
X893329Y2356677D01*
X866671Y2396665D02*
X860006Y2403329D01*
Y2416658D01*
X866671Y2423323D01*
X873336D01*
X880000Y2416658D01*
Y2409994D01*
Y2416658D01*
X886664Y2423323D01*
X893329D01*
X899994Y2416658D01*
Y2403329D01*
X893329Y2396665D01*
X639994Y2396664D02*
Y2409994D01*
Y2403329D01*
X606671D01*
X600006Y2409994D01*
Y2416658D01*
X606671Y2423323D01*
X600006Y2356677D02*
Y2383335D01*
X626664Y2356677D01*
X633329D01*
X639994Y2363342D01*
Y2376671D01*
X633329Y2383335D01*
X750000Y1929994D02*
X736671D01*
X743336D01*
Y1896671D01*
X736671Y1890006D01*
X730006D01*
X723342Y1896671D01*
X763329Y1890006D02*
X776658D01*
X769994D01*
Y1929994D01*
X763329Y1923329D01*
X916678Y2279994D02*
Y2240006D01*
X936671D01*
X943336Y2246671D01*
Y2273329D01*
X936671Y2279994D01*
X916678D01*
X983323Y2240006D02*
X956665D01*
X983323Y2266664D01*
Y2273329D01*
X976658Y2279994D01*
X963329D01*
X956665Y2273329D01*
X518342Y2279994D02*
Y2240006D01*
X538336D01*
X545000Y2246671D01*
Y2273329D01*
X538336Y2279994D01*
X518342D01*
X558329Y2240006D02*
X571658D01*
X564994D01*
Y2279994D01*
X558329Y2273329D01*
X590000Y1876671D02*
Y1903329D01*
X583336Y1909994D01*
X570006D01*
X563342Y1903329D01*
Y1876671D01*
X570006Y1870006D01*
X583336D01*
X576671Y1883335D02*
X590000Y1870006D01*
X583336D02*
X590000Y1876671D01*
X603329Y1870006D02*
X616658D01*
X609994D01*
Y1909994D01*
X603329Y1903329D01*
%TF.MD5,7c5a739e96e5b01c7f62e7926a2e1521*%
M02*
