%TF.GenerationSoftware,Altium Limited,Altium Designer,22.5.1 (42)*%
G04 Layer_Color=16711935*
%FSLAX26Y26*%
%MOIN*%
%TF.SameCoordinates,CF75AC15-3A71-4360-887B-83ED2C6183BC*%
%TF.FilePolarity,Negative*%
%TF.FileFunction,Soldermask,Bot*%
%TF.Part,Single*%
G01*
G75*
%TA.AperFunction,ViaPad*%
%ADD29C,0.050000*%
%TA.AperFunction,ComponentPad*%
%ADD32C,0.067055*%
%ADD33R,0.067055X0.067055*%
%ADD34R,0.148000X0.148000*%
%ADD35C,0.148000*%
%ADD36C,0.008000*%
%ADD37R,0.148000X0.148000*%
%ADD38C,0.048000*%
%ADD39R,0.048000X0.048000*%
%ADD40R,0.048000X0.048000*%
%ADD41C,0.098000*%
%ADD42C,0.072961*%
%ADD43R,0.072961X0.072961*%
%TA.AperFunction,ViaPad*%
%ADD44C,0.028000*%
%ADD45C,0.018000*%
%ADD46C,0.058000*%
D29*
X700000Y1671000D02*
D03*
Y1571000D02*
D03*
X600000Y1671000D02*
D03*
Y1571000D02*
D03*
X500000Y1671000D02*
D03*
Y1571000D02*
D03*
D32*
X450000Y1810000D02*
D03*
X350000D02*
D03*
X1050000Y690000D02*
D03*
X1350000D02*
D03*
X1150000Y1850000D02*
D03*
X1050000D02*
D03*
D33*
X250000Y1810000D02*
D03*
X1250000Y1850000D02*
D03*
D34*
X750000Y2040000D02*
D03*
D35*
Y2340000D02*
D03*
X490000Y2390000D02*
D03*
X1010000D02*
D03*
D36*
X100000Y2400000D02*
D03*
X1400000D02*
D03*
X100000Y100000D02*
D03*
X1400000D02*
D03*
D37*
X290000Y2390000D02*
D03*
X1210000D02*
D03*
D38*
X670000Y1772500D02*
D03*
X730000D02*
D03*
X610000D02*
D03*
X1110000Y1040000D02*
D03*
Y1100000D02*
D03*
Y980000D02*
D03*
X90000Y1240000D02*
D03*
Y1180000D02*
D03*
X1430000Y790000D02*
D03*
Y850000D02*
D03*
X1340000Y440000D02*
D03*
X1440000Y1240000D02*
D03*
X70000Y860000D02*
D03*
X1060000Y440000D02*
D03*
X130000Y580000D02*
D03*
Y300000D02*
D03*
X1120000Y580000D02*
D03*
X130000Y720000D02*
D03*
Y440000D02*
D03*
D39*
X790000Y1772500D02*
D03*
X1400000Y440000D02*
D03*
X130000Y860000D02*
D03*
X1120000Y440000D02*
D03*
X70000Y580000D02*
D03*
Y300000D02*
D03*
X1060000Y580000D02*
D03*
X70000Y720000D02*
D03*
Y440000D02*
D03*
D40*
X1110000Y1160000D02*
D03*
X90000Y1300000D02*
D03*
X1430000Y730000D02*
D03*
X1440000Y1180000D02*
D03*
D41*
X570000Y2110000D02*
D03*
X70000D02*
D03*
X930000D02*
D03*
X1430000D02*
D03*
D42*
X1340000Y1380000D02*
D03*
X1240000D02*
D03*
D43*
X1140000D02*
D03*
D44*
X525000Y1620000D02*
D03*
X725000D02*
D03*
X985000Y1645000D02*
D03*
X890000D02*
D03*
X525000Y1525000D02*
D03*
X770000D02*
D03*
X1045000Y815000D02*
D03*
X790000Y385000D02*
D03*
X1025000D02*
D03*
X975000Y1050000D02*
D03*
X160000Y1110000D02*
D03*
X100000Y1450000D02*
D03*
D45*
X872000Y1797000D02*
D03*
X972000D02*
D03*
Y1997000D02*
D03*
Y1947000D02*
D03*
Y1897000D02*
D03*
Y1847000D02*
D03*
X1072000Y1997000D02*
D03*
Y1947000D02*
D03*
Y1897000D02*
D03*
Y1797000D02*
D03*
X1022000Y1997000D02*
D03*
Y1947000D02*
D03*
Y1897000D02*
D03*
Y1797000D02*
D03*
X872000Y2047000D02*
D03*
Y1997000D02*
D03*
Y1947000D02*
D03*
Y1897000D02*
D03*
Y1847000D02*
D03*
X822000Y1947000D02*
D03*
Y1897000D02*
D03*
Y1847000D02*
D03*
X772000Y1947000D02*
D03*
Y1897000D02*
D03*
Y1847000D02*
D03*
X722000Y1947000D02*
D03*
Y1897000D02*
D03*
Y1847000D02*
D03*
X672000Y1947000D02*
D03*
Y1897000D02*
D03*
Y1847000D02*
D03*
X622000Y2047000D02*
D03*
Y1997000D02*
D03*
Y1947000D02*
D03*
Y1897000D02*
D03*
Y1847000D02*
D03*
X572000Y1997000D02*
D03*
Y1947000D02*
D03*
Y1897000D02*
D03*
Y1847000D02*
D03*
Y1797000D02*
D03*
X522000Y1997000D02*
D03*
Y1947000D02*
D03*
Y1897000D02*
D03*
Y1847000D02*
D03*
Y1797000D02*
D03*
X472000Y1997000D02*
D03*
Y1947000D02*
D03*
Y1897000D02*
D03*
D46*
X865000Y1475000D02*
D03*
%TF.MD5,c04c4fe12284dfb04c5f839eceed8d7c*%
M02*
