%TF.GenerationSoftware,Altium Limited,Altium Designer,22.10.1 (41)*%
G04 Layer_Color=0*
%FSLAX26Y26*%
%MOIN*%
%TF.SameCoordinates,59CDB8F9-364B-4C5A-A8AF-F7A69B8E0267*%
%TF.FilePolarity,Positive*%
%TF.FileFunction,Plated,1,2,PTH,Drill*%
%TF.Part,Single*%
G01*
G75*
%TA.AperFunction,ComponentDrill*%
%ADD61C,0.100000*%
%ADD62C,0.108268*%
%ADD63C,0.100000*%
%ADD64C,0.040000*%
%ADD65C,0.040000*%
%ADD66C,0.055000*%
%ADD67C,0.045276*%
%ADD68C,0.035433*%
%ADD69C,0.031496*%
%TA.AperFunction,ViaDrill,NotFilled*%
%ADD70C,0.075000*%
%ADD71C,0.010000*%
%ADD72C,0.028000*%
%ADD73C,0.012000*%
D61*
X750000Y2040000D02*
D03*
Y2340000D02*
D03*
D62*
X100000Y2400000D02*
D03*
X1400000D02*
D03*
X100000Y100000D02*
D03*
X1400000D02*
D03*
D63*
X290000Y2390000D02*
D03*
X490000D02*
D03*
X1210000D02*
D03*
X1010000D02*
D03*
D64*
X1050000Y910000D02*
D03*
Y710000D02*
D03*
Y610000D02*
D03*
Y810000D02*
D03*
X1240000Y505000D02*
D03*
Y405000D02*
D03*
Y605000D02*
D03*
X1390000Y925000D02*
D03*
Y825000D02*
D03*
X140000Y1050000D02*
D03*
Y1150000D02*
D03*
X1050000Y510000D02*
D03*
Y410000D02*
D03*
X140000Y650000D02*
D03*
Y750000D02*
D03*
Y250000D02*
D03*
Y350000D02*
D03*
X1050000Y210000D02*
D03*
Y310000D02*
D03*
X140000Y850000D02*
D03*
Y950000D02*
D03*
Y450000D02*
D03*
Y550000D02*
D03*
D65*
X1250000Y1025000D02*
D03*
X1050000D02*
D03*
X1150000D02*
D03*
X1350000D02*
D03*
X1315000Y245000D02*
D03*
X1415000D02*
D03*
D66*
X570000Y2110000D02*
D03*
X70000D02*
D03*
X930000D02*
D03*
X1430000D02*
D03*
D67*
X1340000Y1260000D02*
D03*
X1240000D02*
D03*
X1140000D02*
D03*
D68*
X450000Y1810000D02*
D03*
X350000D02*
D03*
X250000D02*
D03*
X1250000Y1850000D02*
D03*
X1150000D02*
D03*
X1050000D02*
D03*
D69*
X1145000Y420000D02*
D03*
Y120000D02*
D03*
D70*
X485000Y95000D02*
D03*
X385000D02*
D03*
X500000Y1571000D02*
D03*
Y1671000D02*
D03*
X600000Y1571000D02*
D03*
Y1671000D02*
D03*
X700000Y1571000D02*
D03*
Y1671000D02*
D03*
D71*
X1060000Y2000000D02*
D03*
X1040000Y1960000D02*
D03*
X1060000Y1920000D02*
D03*
X1040000Y1800000D02*
D03*
X1020000Y2000000D02*
D03*
X1000000Y1960000D02*
D03*
X1020000Y1920000D02*
D03*
X1000000Y1880000D02*
D03*
Y1800000D02*
D03*
X980000Y2000000D02*
D03*
Y1920000D02*
D03*
Y1840000D02*
D03*
X880000Y2040000D02*
D03*
Y1960000D02*
D03*
Y1880000D02*
D03*
Y1800000D02*
D03*
X840000Y2040000D02*
D03*
X860000Y2000000D02*
D03*
X840000Y1960000D02*
D03*
X860000Y1920000D02*
D03*
X840000Y1880000D02*
D03*
X860000Y1840000D02*
D03*
X840000Y1800000D02*
D03*
X800000Y1960000D02*
D03*
X820000Y1920000D02*
D03*
X800000Y1880000D02*
D03*
X820000Y1840000D02*
D03*
X800000Y1800000D02*
D03*
X760000Y1960000D02*
D03*
X780000Y1920000D02*
D03*
X760000Y1880000D02*
D03*
X780000Y1840000D02*
D03*
X760000Y1800000D02*
D03*
X720000Y1960000D02*
D03*
X740000Y1920000D02*
D03*
X720000Y1880000D02*
D03*
X740000Y1840000D02*
D03*
X720000Y1800000D02*
D03*
X680000Y1960000D02*
D03*
X700000Y1920000D02*
D03*
X680000Y1880000D02*
D03*
X700000Y1840000D02*
D03*
X680000Y1800000D02*
D03*
X660000Y2080000D02*
D03*
X640000Y2040000D02*
D03*
X660000Y2000000D02*
D03*
X640000Y1960000D02*
D03*
X660000Y1920000D02*
D03*
X640000Y1880000D02*
D03*
X660000Y1840000D02*
D03*
X640000Y1800000D02*
D03*
X600000Y2040000D02*
D03*
X620000Y2000000D02*
D03*
X600000Y1960000D02*
D03*
X620000Y1920000D02*
D03*
X600000Y1880000D02*
D03*
X620000Y1840000D02*
D03*
X600000Y1800000D02*
D03*
X580000Y2000000D02*
D03*
X560000Y1960000D02*
D03*
X580000Y1920000D02*
D03*
X560000Y1880000D02*
D03*
X580000Y1840000D02*
D03*
X560000Y1800000D02*
D03*
X540000Y2000000D02*
D03*
X520000Y1960000D02*
D03*
X540000Y1920000D02*
D03*
X520000Y1880000D02*
D03*
X540000Y1840000D02*
D03*
X520000Y1800000D02*
D03*
X500000Y2000000D02*
D03*
X480000Y1960000D02*
D03*
X500000Y1920000D02*
D03*
X480000Y1880000D02*
D03*
X500000Y1840000D02*
D03*
X460000Y2000000D02*
D03*
X440000Y1960000D02*
D03*
X460000Y1920000D02*
D03*
X440000Y1880000D02*
D03*
D72*
X855000Y1480000D02*
D03*
D73*
X60000Y1410000D02*
D03*
%TF.MD5,1ffaabf2333d37dd892a374ff9dd0e59*%
M02*
