%TF.GenerationSoftware,Altium Limited,Altium Designer,22.5.1 (42)*%
G04 Layer_Physical_Order=2*
G04 Layer_Color=16711680*
%FSLAX26Y26*%
%MOIN*%
%TF.SameCoordinates,CF75AC15-3A71-4360-887B-83ED2C6183BC*%
%TF.FilePolarity,Positive*%
%TF.FileFunction,Copper,L2,Bot,Signal*%
%TF.Part,Single*%
G01*
G75*
%TA.AperFunction,Conductor*%
%ADD16C,0.010000*%
%TA.AperFunction,ComponentPad*%
%ADD18C,0.059055*%
%ADD19R,0.059055X0.059055*%
%ADD20R,0.140000X0.140000*%
%ADD21C,0.140000*%
%ADD22R,0.140000X0.140000*%
%ADD23C,0.040000*%
%ADD24R,0.040000X0.040000*%
%ADD25R,0.040000X0.040000*%
%ADD26C,0.090000*%
%ADD27C,0.064961*%
%ADD28R,0.064961X0.064961*%
%TA.AperFunction,ViaPad*%
%ADD29C,0.050000*%
%ADD30C,0.020000*%
%ADD31C,0.010000*%
G36*
X1084804Y2056500D02*
X904184D01*
X830683Y2130000D01*
X667684D01*
X594183Y2056500D01*
X415196D01*
Y2484707D01*
X1084804D01*
Y2056500D01*
D02*
G37*
G36*
X1485000Y2485000D02*
X1485000Y1890000D01*
X1294332D01*
X1290000Y1890000D01*
X1285196Y1889527D01*
X1210473D01*
X1210472Y1810473D01*
X1205668Y1810000D01*
X1095000D01*
Y2485000D01*
X1485000Y2485000D01*
D02*
G37*
G36*
X405000Y1770000D02*
X294332D01*
X289528Y1770473D01*
X289527Y1775000D01*
Y1849527D01*
X214804D01*
X210000Y1850000D01*
X205668Y1850000D01*
X15000D01*
X15000Y2485000D01*
X405000Y2485000D01*
Y1770000D01*
D02*
G37*
G36*
X896974Y2049290D02*
X900282Y2047080D01*
X904184Y2046304D01*
X1084804D01*
Y1810000D01*
X1085580Y1806098D01*
X1087790Y1802790D01*
X1091098Y1800580D01*
X1095000Y1799804D01*
X1205668D01*
X1206164Y1799903D01*
X1206667Y1799853D01*
X1211471Y1800326D01*
X1212905Y1800761D01*
X1214374Y1801053D01*
X1214794Y1801333D01*
X1215278Y1801480D01*
X1216436Y1802431D01*
X1217682Y1803263D01*
X1217963Y1803683D01*
X1218353Y1804004D01*
X1219060Y1805325D01*
X1219892Y1806571D01*
X1219991Y1807066D01*
X1220229Y1807512D01*
X1220376Y1809003D01*
X1220668Y1810473D01*
X1289527D01*
Y1875207D01*
X1294332Y1879804D01*
X1484707D01*
Y1220708D01*
X1480000Y1220000D01*
X1479707Y1220000D01*
X1468868D01*
X1465981Y1225000D01*
X1467956Y1228420D01*
X1470000Y1236050D01*
Y1243950D01*
X1467956Y1251580D01*
X1464006Y1258420D01*
X1458420Y1264006D01*
X1451580Y1267956D01*
X1443950Y1270000D01*
X1436050D01*
X1428420Y1267956D01*
X1421580Y1264006D01*
X1415994Y1258420D01*
X1412044Y1251580D01*
X1410000Y1243950D01*
Y1236050D01*
X1412044Y1228420D01*
X1414019Y1225000D01*
X1411132Y1220000D01*
X1400000D01*
Y1190000D01*
X1440000D01*
Y1180000D01*
X1450000D01*
Y1140000D01*
X1479707D01*
X1480000Y1140000D01*
X1484707Y1139292D01*
Y15293D01*
X15293D01*
Y1839804D01*
X205668D01*
X210472Y1835207D01*
Y1770473D01*
X279332D01*
X279624Y1769003D01*
X279771Y1767512D01*
X280009Y1767066D01*
X280108Y1766571D01*
X280940Y1765325D01*
X281647Y1764004D01*
X282037Y1763683D01*
X282318Y1763263D01*
X283564Y1762430D01*
X284722Y1761480D01*
X285206Y1761333D01*
X285626Y1761053D01*
X287096Y1760760D01*
X288529Y1760326D01*
X293334Y1759853D01*
X293836Y1759903D01*
X294332Y1759804D01*
X405000D01*
X408902Y1760580D01*
X412210Y1762790D01*
X414420Y1766098D01*
X415196Y1770000D01*
Y2046304D01*
X594183D01*
X598085Y2047080D01*
X601393Y2049290D01*
X671908Y2119804D01*
X826460D01*
X896974Y2049290D01*
D02*
G37*
%LPC*%
G36*
X1406317Y2464134D02*
X1393683D01*
X1381293Y2461669D01*
X1369621Y2456835D01*
X1359117Y2449816D01*
X1350184Y2440883D01*
X1343165Y2430379D01*
X1338331Y2418707D01*
X1335866Y2406317D01*
Y2393683D01*
X1338331Y2381293D01*
X1343165Y2369621D01*
X1350184Y2359117D01*
X1359117Y2350184D01*
X1369621Y2343165D01*
X1381293Y2338331D01*
X1393683Y2335866D01*
X1406317D01*
X1418707Y2338331D01*
X1430379Y2343165D01*
X1440883Y2350184D01*
X1449816Y2359117D01*
X1456835Y2369621D01*
X1461669Y2381293D01*
X1464134Y2393683D01*
Y2406317D01*
X1461669Y2418707D01*
X1456835Y2430379D01*
X1449816Y2440883D01*
X1440883Y2449816D01*
X1430379Y2456835D01*
X1418707Y2461669D01*
X1406317Y2464134D01*
D02*
G37*
G36*
X106317D02*
X93683D01*
X81293Y2461669D01*
X69621Y2456835D01*
X59117Y2449816D01*
X50184Y2440883D01*
X43165Y2430379D01*
X38331Y2418707D01*
X35866Y2406317D01*
Y2393683D01*
X38331Y2381293D01*
X43165Y2369621D01*
X50184Y2359117D01*
X59117Y2350184D01*
X69621Y2343165D01*
X81293Y2338331D01*
X93683Y2335866D01*
X106317D01*
X118707Y2338331D01*
X130379Y2343165D01*
X140883Y2350184D01*
X149816Y2359117D01*
X156835Y2369621D01*
X161669Y2381293D01*
X164134Y2393683D01*
Y2406317D01*
X161669Y2418707D01*
X156835Y2430379D01*
X149816Y2440883D01*
X140883Y2449816D01*
X130379Y2456835D01*
X118707Y2461669D01*
X106317Y2464134D01*
D02*
G37*
G36*
X785000Y1802500D02*
X760000D01*
Y1790539D01*
X755000Y1789199D01*
X754006Y1790920D01*
X748420Y1796506D01*
X741580Y1800456D01*
X733950Y1802500D01*
X726050D01*
X718420Y1800456D01*
X711580Y1796506D01*
X705994Y1790920D01*
X702787Y1785366D01*
X700977Y1784884D01*
X699023D01*
X697213Y1785366D01*
X694006Y1790920D01*
X688420Y1796506D01*
X681580Y1800456D01*
X673950Y1802500D01*
X666050D01*
X658420Y1800456D01*
X651580Y1796506D01*
X645994Y1790920D01*
X642787Y1785366D01*
X640977Y1784884D01*
X639023D01*
X637213Y1785366D01*
X634006Y1790920D01*
X628420Y1796506D01*
X621580Y1800456D01*
X613950Y1802500D01*
X606050D01*
X598420Y1800456D01*
X591580Y1796506D01*
X585994Y1790920D01*
X582044Y1784080D01*
X580000Y1776450D01*
Y1768550D01*
X582044Y1760920D01*
X585994Y1754080D01*
X591580Y1748494D01*
X598420Y1744544D01*
X606050Y1742500D01*
X613950D01*
X621580Y1744544D01*
X628420Y1748494D01*
X634006Y1754080D01*
X637213Y1759634D01*
X639023Y1760116D01*
X640977D01*
X642787Y1759634D01*
X645994Y1754080D01*
X651580Y1748494D01*
X658420Y1744544D01*
X666050Y1742500D01*
X673950D01*
X681580Y1744544D01*
X688420Y1748494D01*
X694006Y1754080D01*
X697213Y1759634D01*
X699023Y1760116D01*
X700977D01*
X702787Y1759634D01*
X705994Y1754080D01*
X711580Y1748494D01*
X718420Y1744544D01*
X726050Y1742500D01*
X733950D01*
X741580Y1744544D01*
X748420Y1748494D01*
X754006Y1754080D01*
X755000Y1755801D01*
X760000Y1754461D01*
Y1742500D01*
X785000D01*
Y1772500D01*
Y1802500D01*
D02*
G37*
G36*
X820000D02*
X795000D01*
Y1777500D01*
X820000D01*
Y1802500D01*
D02*
G37*
G36*
Y1767500D02*
X795000D01*
Y1742500D01*
X820000D01*
Y1767500D01*
D02*
G37*
G36*
X988978Y1665000D02*
X981022D01*
X973671Y1661955D01*
X972010Y1660294D01*
X902990D01*
X901329Y1661955D01*
X893978Y1665000D01*
X886022D01*
X878671Y1661955D01*
X873045Y1656329D01*
X870000Y1648978D01*
Y1641022D01*
X873045Y1633671D01*
X878671Y1628045D01*
X886022Y1625000D01*
X893978D01*
X901329Y1628045D01*
X902990Y1629706D01*
X972010D01*
X973671Y1628045D01*
X981022Y1625000D01*
X988978D01*
X996329Y1628045D01*
X1001955Y1633671D01*
X1005000Y1641022D01*
Y1648978D01*
X1001955Y1656329D01*
X996329Y1661955D01*
X988978Y1665000D01*
D02*
G37*
G36*
X704608Y1706000D02*
X695392D01*
X686490Y1703615D01*
X678510Y1699007D01*
X671993Y1692491D01*
X667385Y1684509D01*
X665000Y1675608D01*
Y1666392D01*
X667385Y1657491D01*
X671993Y1649509D01*
X678510Y1642993D01*
X683184Y1640294D01*
X681845Y1635294D01*
X618155D01*
X616816Y1640294D01*
X621490Y1642993D01*
X628007Y1649509D01*
X632615Y1657491D01*
X635000Y1666392D01*
Y1675608D01*
X632615Y1684509D01*
X628007Y1692491D01*
X621490Y1699007D01*
X613510Y1703615D01*
X604608Y1706000D01*
X595392D01*
X586490Y1703615D01*
X578510Y1699007D01*
X571993Y1692491D01*
X567385Y1684509D01*
X565000Y1675608D01*
Y1666392D01*
X567385Y1657491D01*
X571993Y1649509D01*
X578510Y1642993D01*
X583184Y1640294D01*
X581845Y1635294D01*
X537990D01*
X536329Y1636955D01*
X528978Y1640000D01*
X525569D01*
X523497Y1645000D01*
X528007Y1649509D01*
X532615Y1657491D01*
X535000Y1666392D01*
Y1675608D01*
X532615Y1684509D01*
X528007Y1692491D01*
X521490Y1699007D01*
X513510Y1703615D01*
X504608Y1706000D01*
X495392D01*
X486490Y1703615D01*
X478510Y1699007D01*
X471993Y1692491D01*
X467385Y1684509D01*
X465000Y1675608D01*
Y1666392D01*
X467385Y1657491D01*
X471993Y1649509D01*
X478510Y1642993D01*
X486490Y1638385D01*
X495392Y1636000D01*
X504608D01*
X506024Y1636380D01*
X508612Y1631897D01*
X508045Y1631329D01*
X505000Y1623978D01*
Y1616022D01*
X507307Y1610453D01*
X505467Y1607418D01*
X504235Y1606057D01*
X504151Y1606000D01*
X495392D01*
X486490Y1603615D01*
X478510Y1599007D01*
X471993Y1592491D01*
X467385Y1584509D01*
X465000Y1575608D01*
Y1566392D01*
X467385Y1557491D01*
X471993Y1549509D01*
X478510Y1542993D01*
X486490Y1538385D01*
X495392Y1536000D01*
X502497D01*
X505641Y1532165D01*
X505909Y1531172D01*
X505000Y1528978D01*
Y1521022D01*
X508045Y1513671D01*
X513671Y1508045D01*
X521022Y1505000D01*
X528978D01*
X536329Y1508045D01*
X537990Y1509706D01*
X757010D01*
X758671Y1508045D01*
X766022Y1505000D01*
X773978D01*
X781329Y1508045D01*
X786955Y1513671D01*
X790000Y1521022D01*
Y1528978D01*
X786955Y1536329D01*
X781329Y1541955D01*
X773978Y1545000D01*
X766022D01*
X758671Y1541955D01*
X757010Y1540294D01*
X725862D01*
X723791Y1545294D01*
X728007Y1549509D01*
X732615Y1557491D01*
X735000Y1566392D01*
Y1575608D01*
X732615Y1584509D01*
X728007Y1592491D01*
X725497Y1595000D01*
X727569Y1600000D01*
X728978D01*
X736329Y1603045D01*
X741955Y1608671D01*
X745000Y1616022D01*
Y1623978D01*
X741955Y1631329D01*
X736329Y1636955D01*
X728978Y1640000D01*
X725569D01*
X723497Y1645000D01*
X728007Y1649509D01*
X732615Y1657491D01*
X735000Y1666392D01*
Y1675608D01*
X732615Y1684509D01*
X728007Y1692491D01*
X721490Y1699007D01*
X713510Y1703615D01*
X704608Y1706000D01*
D02*
G37*
G36*
X870000Y1509895D02*
Y1480000D01*
X899895D01*
X897615Y1488509D01*
X893007Y1496491D01*
X886490Y1503007D01*
X878510Y1507615D01*
X870000Y1509895D01*
D02*
G37*
G36*
X860000D02*
X851490Y1507615D01*
X843510Y1503007D01*
X836993Y1496491D01*
X832385Y1488509D01*
X830105Y1480000D01*
X860000D01*
Y1509895D01*
D02*
G37*
G36*
X105000Y1469577D02*
Y1455000D01*
X119577D01*
X116955Y1461329D01*
X111329Y1466955D01*
X105000Y1469577D01*
D02*
G37*
G36*
X95000D02*
X88671Y1466955D01*
X83045Y1461329D01*
X80423Y1455000D01*
X95000D01*
Y1469577D01*
D02*
G37*
G36*
X899895Y1470000D02*
X870000D01*
Y1440105D01*
X878510Y1442385D01*
X886490Y1446993D01*
X893007Y1453509D01*
X897615Y1461491D01*
X899895Y1470000D01*
D02*
G37*
G36*
X860000D02*
X830105D01*
X832385Y1461491D01*
X836993Y1453509D01*
X843510Y1446993D01*
X851490Y1442385D01*
X860000Y1440105D01*
Y1470000D01*
D02*
G37*
G36*
X119577Y1445000D02*
X105000D01*
Y1430423D01*
X111329Y1433045D01*
X116955Y1438671D01*
X119577Y1445000D01*
D02*
G37*
G36*
X95000D02*
X80423D01*
X83045Y1438671D01*
X88671Y1433045D01*
X95000Y1430423D01*
Y1445000D01*
D02*
G37*
G36*
X1345593Y1422480D02*
X1334407D01*
X1323603Y1419585D01*
X1313917Y1413993D01*
X1306007Y1406083D01*
X1300415Y1396397D01*
X1297520Y1385593D01*
Y1374407D01*
X1300415Y1363603D01*
X1306007Y1353917D01*
X1313917Y1346007D01*
X1323603Y1340415D01*
X1334407Y1337520D01*
X1345593D01*
X1356397Y1340415D01*
X1366083Y1346007D01*
X1373993Y1353917D01*
X1379585Y1363603D01*
X1382480Y1374407D01*
Y1385593D01*
X1379585Y1396397D01*
X1373993Y1406083D01*
X1366083Y1413993D01*
X1356397Y1419585D01*
X1345593Y1422480D01*
D02*
G37*
G36*
X1182480D02*
X1097520D01*
Y1337520D01*
X1182480D01*
Y1422480D01*
D02*
G37*
G36*
X120000Y1330000D02*
X60000D01*
Y1270000D01*
X71961D01*
X73301Y1265000D01*
X71579Y1264006D01*
X65994Y1258420D01*
X62044Y1251580D01*
X60000Y1243950D01*
Y1236050D01*
X62044Y1228420D01*
X65994Y1221580D01*
X71579Y1215994D01*
X77134Y1212787D01*
X77616Y1210977D01*
Y1209023D01*
X77134Y1207213D01*
X71579Y1204006D01*
X65994Y1198420D01*
X62044Y1191580D01*
X60000Y1183950D01*
Y1176050D01*
X62044Y1168420D01*
X65994Y1161580D01*
X71579Y1155994D01*
X78420Y1152044D01*
X86050Y1150000D01*
X93950D01*
X101580Y1152044D01*
X108421Y1155994D01*
X114006Y1161580D01*
X117956Y1168420D01*
X120000Y1176050D01*
Y1183950D01*
X117956Y1191580D01*
X114006Y1198420D01*
X108421Y1204006D01*
X102866Y1207213D01*
X102384Y1209023D01*
Y1210977D01*
X102866Y1212787D01*
X108421Y1215994D01*
X114006Y1221580D01*
X117956Y1228420D01*
X120000Y1236050D01*
Y1243950D01*
X117956Y1251580D01*
X114006Y1258420D01*
X108421Y1264006D01*
X106699Y1265000D01*
X108039Y1270000D01*
X120000D01*
Y1330000D01*
D02*
G37*
G36*
X1430000Y1170000D02*
X1400000D01*
Y1140000D01*
X1430000D01*
Y1170000D01*
D02*
G37*
G36*
X165000Y1129577D02*
Y1115000D01*
X179577D01*
X176955Y1121329D01*
X171329Y1126955D01*
X165000Y1129577D01*
D02*
G37*
G36*
X155000D02*
X148671Y1126955D01*
X143045Y1121329D01*
X140423Y1115000D01*
X155000D01*
Y1129577D01*
D02*
G37*
G36*
X179577Y1105000D02*
X165000D01*
Y1090423D01*
X171329Y1093045D01*
X176955Y1098671D01*
X179577Y1105000D01*
D02*
G37*
G36*
X155000D02*
X140423D01*
X143045Y1098671D01*
X148671Y1093045D01*
X155000Y1090423D01*
Y1105000D01*
D02*
G37*
G36*
X1140000Y1190000D02*
X1080000D01*
Y1130000D01*
X1091961D01*
X1093301Y1125000D01*
X1091580Y1124006D01*
X1085994Y1118420D01*
X1082044Y1111580D01*
X1080000Y1103950D01*
Y1096050D01*
X1082044Y1088420D01*
X1085994Y1081580D01*
X1091580Y1075994D01*
X1097134Y1072787D01*
X1097616Y1070977D01*
Y1069023D01*
X1097134Y1067213D01*
X1091580Y1064006D01*
X1085994Y1058420D01*
X1084189Y1055294D01*
X994455D01*
X991955Y1061329D01*
X986329Y1066955D01*
X978978Y1070000D01*
X971022D01*
X963671Y1066955D01*
X958045Y1061329D01*
X955000Y1053978D01*
Y1046022D01*
X958045Y1038671D01*
X963671Y1033045D01*
X971022Y1030000D01*
X976077D01*
X976892Y1029186D01*
X981853Y1025870D01*
X987706Y1024706D01*
X1084189D01*
X1085994Y1021580D01*
X1091580Y1015994D01*
X1097134Y1012787D01*
X1097616Y1010977D01*
Y1009023D01*
X1097134Y1007213D01*
X1091580Y1004006D01*
X1085994Y998420D01*
X1082044Y991580D01*
X1080281Y985000D01*
X1110000D01*
X1139719D01*
X1137956Y991580D01*
X1134006Y998420D01*
X1128420Y1004006D01*
X1122866Y1007213D01*
X1122384Y1009023D01*
Y1010977D01*
X1122866Y1012787D01*
X1128420Y1015994D01*
X1134006Y1021580D01*
X1137956Y1028420D01*
X1140000Y1036050D01*
Y1043950D01*
X1137956Y1051580D01*
X1134006Y1058420D01*
X1128420Y1064006D01*
X1122866Y1067213D01*
X1122384Y1069023D01*
Y1070977D01*
X1122866Y1072787D01*
X1128420Y1075994D01*
X1134006Y1081580D01*
X1137956Y1088420D01*
X1140000Y1096050D01*
Y1103950D01*
X1137956Y1111580D01*
X1134006Y1118420D01*
X1128420Y1124006D01*
X1126699Y1125000D01*
X1128039Y1130000D01*
X1140000D01*
Y1190000D01*
D02*
G37*
G36*
X1139719Y975000D02*
X1115000D01*
Y950281D01*
X1121580Y952044D01*
X1128420Y955994D01*
X1134006Y961580D01*
X1137956Y968420D01*
X1139719Y975000D01*
D02*
G37*
G36*
X1105000D02*
X1080281D01*
X1082044Y968420D01*
X1085994Y961580D01*
X1091580Y955994D01*
X1098420Y952044D01*
X1105000Y950281D01*
Y975000D01*
D02*
G37*
G36*
X160000Y890000D02*
X100000D01*
Y878039D01*
X95000Y876699D01*
X94006Y878420D01*
X88421Y884006D01*
X81580Y887956D01*
X73950Y890000D01*
X66050D01*
X58420Y887956D01*
X51580Y884006D01*
X45994Y878420D01*
X42044Y871580D01*
X40000Y863950D01*
Y856050D01*
X42044Y848420D01*
X45994Y841580D01*
X51580Y835994D01*
X58420Y832044D01*
X66050Y830000D01*
X73950D01*
X81580Y832044D01*
X88421Y835994D01*
X94006Y841580D01*
X95000Y843301D01*
X100000Y841961D01*
Y830000D01*
X160000D01*
Y890000D01*
D02*
G37*
G36*
X1050000Y834577D02*
Y820000D01*
X1064577D01*
X1061955Y826329D01*
X1056329Y831955D01*
X1050000Y834577D01*
D02*
G37*
G36*
X1040000D02*
X1033671Y831955D01*
X1028045Y826329D01*
X1025423Y820000D01*
X1040000D01*
Y834577D01*
D02*
G37*
G36*
X1064577Y810000D02*
X1050000D01*
Y795423D01*
X1056329Y798045D01*
X1061955Y803671D01*
X1064577Y810000D01*
D02*
G37*
G36*
X1040000D02*
X1025423D01*
X1028045Y803671D01*
X1033671Y798045D01*
X1040000Y795423D01*
Y810000D01*
D02*
G37*
G36*
X133950Y750000D02*
X126050D01*
X118420Y747956D01*
X111579Y744006D01*
X105994Y738420D01*
X105000Y736699D01*
X100000Y738039D01*
Y750000D01*
X75000D01*
Y720000D01*
Y690000D01*
X100000D01*
Y701961D01*
X105000Y703301D01*
X105994Y701580D01*
X111579Y695994D01*
X118420Y692044D01*
X126050Y690000D01*
X133950D01*
X141580Y692044D01*
X148421Y695994D01*
X154006Y701580D01*
X157956Y708420D01*
X160000Y716050D01*
Y723950D01*
X157956Y731580D01*
X154006Y738420D01*
X148421Y744006D01*
X141580Y747956D01*
X133950Y750000D01*
D02*
G37*
G36*
X1433950Y880000D02*
X1426050D01*
X1418420Y877956D01*
X1411580Y874006D01*
X1405994Y868420D01*
X1402044Y861580D01*
X1400000Y853950D01*
Y846050D01*
X1402044Y838420D01*
X1405994Y831580D01*
X1411580Y825994D01*
X1417134Y822787D01*
X1417616Y820977D01*
Y819023D01*
X1417134Y817213D01*
X1411580Y814006D01*
X1405994Y808420D01*
X1402044Y801580D01*
X1400000Y793950D01*
Y786050D01*
X1402044Y778420D01*
X1405994Y771580D01*
X1411580Y765994D01*
X1413301Y765000D01*
X1411961Y760000D01*
X1400000D01*
Y735000D01*
X1430000D01*
X1460000D01*
Y760000D01*
X1448039D01*
X1446699Y765000D01*
X1448420Y765994D01*
X1454006Y771580D01*
X1457956Y778420D01*
X1460000Y786050D01*
Y793950D01*
X1457956Y801580D01*
X1454006Y808420D01*
X1448420Y814006D01*
X1442866Y817213D01*
X1442384Y819023D01*
Y820977D01*
X1442866Y822787D01*
X1448420Y825994D01*
X1454006Y831580D01*
X1457956Y838420D01*
X1460000Y846050D01*
Y853950D01*
X1457956Y861580D01*
X1454006Y868420D01*
X1448420Y874006D01*
X1441580Y877956D01*
X1433950Y880000D01*
D02*
G37*
G36*
X65000Y750000D02*
X40000D01*
Y725000D01*
X65000D01*
Y750000D01*
D02*
G37*
G36*
X1460000Y725000D02*
X1435000D01*
Y700000D01*
X1460000D01*
Y725000D01*
D02*
G37*
G36*
X1425000D02*
X1400000D01*
Y700000D01*
X1425000D01*
Y725000D01*
D02*
G37*
G36*
X65000Y715000D02*
X40000D01*
Y690000D01*
X65000D01*
Y715000D01*
D02*
G37*
G36*
X1355204Y729528D02*
X1344796D01*
X1334743Y726834D01*
X1325729Y721630D01*
X1318370Y714270D01*
X1313166Y705257D01*
X1310473Y695204D01*
Y684796D01*
X1313166Y674743D01*
X1318370Y665730D01*
X1325729Y658370D01*
X1334743Y653166D01*
X1344796Y650472D01*
X1355204D01*
X1365257Y653166D01*
X1374271Y658370D01*
X1381630Y665730D01*
X1386834Y674743D01*
X1389527Y684796D01*
Y695204D01*
X1386834Y705257D01*
X1381630Y714270D01*
X1374271Y721630D01*
X1365257Y726834D01*
X1355204Y729528D01*
D02*
G37*
G36*
X1055204D02*
X1044796D01*
X1034743Y726834D01*
X1025729Y721630D01*
X1018370Y714270D01*
X1013166Y705257D01*
X1010472Y695204D01*
Y684796D01*
X1013166Y674743D01*
X1018370Y665730D01*
X1025729Y658370D01*
X1034743Y653166D01*
X1044796Y650472D01*
X1055204D01*
X1065257Y653166D01*
X1074271Y658370D01*
X1081630Y665730D01*
X1086834Y674743D01*
X1089527Y684796D01*
Y695204D01*
X1086834Y705257D01*
X1081630Y714270D01*
X1074271Y721630D01*
X1065257Y726834D01*
X1055204Y729528D01*
D02*
G37*
G36*
X133950Y610000D02*
X126050D01*
X118420Y607956D01*
X111579Y604006D01*
X105994Y598420D01*
X105000Y596699D01*
X100000Y598039D01*
Y610000D01*
X75000D01*
Y580000D01*
Y550000D01*
X100000D01*
Y561961D01*
X105000Y563301D01*
X105994Y561580D01*
X111579Y555994D01*
X118420Y552044D01*
X126050Y550000D01*
X133950D01*
X141580Y552044D01*
X148421Y555994D01*
X154006Y561580D01*
X157956Y568420D01*
X160000Y576050D01*
Y583950D01*
X157956Y591580D01*
X154006Y598420D01*
X148421Y604006D01*
X141580Y607956D01*
X133950Y610000D01*
D02*
G37*
G36*
X1125000Y609719D02*
Y585000D01*
X1149719D01*
X1147956Y591580D01*
X1144006Y598420D01*
X1138420Y604006D01*
X1131580Y607956D01*
X1125000Y609719D01*
D02*
G37*
G36*
X65000Y610000D02*
X40000D01*
Y585000D01*
X65000D01*
Y610000D01*
D02*
G37*
G36*
X1149719Y575000D02*
X1125000D01*
Y550281D01*
X1131580Y552044D01*
X1138420Y555994D01*
X1144006Y561580D01*
X1147956Y568420D01*
X1149719Y575000D01*
D02*
G37*
G36*
X1090000Y610000D02*
X1030000D01*
Y550000D01*
X1090000D01*
Y561961D01*
X1095000Y563301D01*
X1095994Y561580D01*
X1101580Y555994D01*
X1108420Y552044D01*
X1115000Y550281D01*
Y580000D01*
Y609719D01*
X1108420Y607956D01*
X1101580Y604006D01*
X1095994Y598420D01*
X1095000Y596699D01*
X1090000Y598039D01*
Y610000D01*
D02*
G37*
G36*
X65000Y575000D02*
X40000D01*
Y550000D01*
X65000D01*
Y575000D01*
D02*
G37*
G36*
X133950Y470000D02*
X126050D01*
X118420Y467956D01*
X111579Y464006D01*
X105994Y458421D01*
X105000Y456699D01*
X100000Y458039D01*
Y470000D01*
X75000D01*
Y440000D01*
Y410000D01*
X100000D01*
Y421961D01*
X105000Y423301D01*
X105994Y421579D01*
X111579Y415994D01*
X118420Y412044D01*
X126050Y410000D01*
X133950D01*
X141580Y412044D01*
X148421Y415994D01*
X154006Y421579D01*
X157956Y428420D01*
X160000Y436050D01*
Y443950D01*
X157956Y451580D01*
X154006Y458421D01*
X148421Y464006D01*
X141580Y467956D01*
X133950Y470000D01*
D02*
G37*
G36*
X1395000D02*
X1370000D01*
Y458039D01*
X1365000Y456699D01*
X1364006Y458421D01*
X1358420Y464006D01*
X1351580Y467956D01*
X1343950Y470000D01*
X1336050D01*
X1328420Y467956D01*
X1321580Y464006D01*
X1315994Y458421D01*
X1312044Y451580D01*
X1310000Y443950D01*
Y436050D01*
X1312044Y428420D01*
X1315994Y421579D01*
X1321580Y415994D01*
X1328420Y412044D01*
X1336050Y410000D01*
X1343950D01*
X1351580Y412044D01*
X1358420Y415994D01*
X1364006Y421579D01*
X1365000Y423301D01*
X1370000Y421961D01*
Y410000D01*
X1395000D01*
Y440000D01*
Y470000D01*
D02*
G37*
G36*
X1115000D02*
X1090000D01*
Y458039D01*
X1085000Y456699D01*
X1084006Y458421D01*
X1078420Y464006D01*
X1071580Y467956D01*
X1063950Y470000D01*
X1056050D01*
X1048420Y467956D01*
X1041580Y464006D01*
X1035994Y458421D01*
X1032044Y451580D01*
X1030000Y443950D01*
Y436050D01*
X1032044Y428420D01*
X1035994Y421579D01*
X1041580Y415994D01*
X1048420Y412044D01*
X1056050Y410000D01*
X1063950D01*
X1071580Y412044D01*
X1078420Y415994D01*
X1084006Y421579D01*
X1085000Y423301D01*
X1090000Y421961D01*
Y410000D01*
X1115000D01*
Y440000D01*
Y470000D01*
D02*
G37*
G36*
X1430000D02*
X1405000D01*
Y445000D01*
X1430000D01*
Y470000D01*
D02*
G37*
G36*
X1150000D02*
X1125000D01*
Y445000D01*
X1150000D01*
Y470000D01*
D02*
G37*
G36*
X65000D02*
X40000D01*
Y445000D01*
X65000D01*
Y470000D01*
D02*
G37*
G36*
X1430000Y435000D02*
X1405000D01*
Y410000D01*
X1430000D01*
Y435000D01*
D02*
G37*
G36*
X1150000D02*
X1125000D01*
Y410000D01*
X1150000D01*
Y435000D01*
D02*
G37*
G36*
X65000D02*
X40000D01*
Y410000D01*
X65000D01*
Y435000D01*
D02*
G37*
G36*
X1028978Y405000D02*
X1021022D01*
X1013671Y401955D01*
X1012010Y400294D01*
X802990D01*
X801329Y401955D01*
X793978Y405000D01*
X786022D01*
X778671Y401955D01*
X773045Y396329D01*
X770000Y388978D01*
Y381022D01*
X773045Y373671D01*
X778671Y368045D01*
X786022Y365000D01*
X793978D01*
X801329Y368045D01*
X802990Y369706D01*
X1012010D01*
X1013671Y368045D01*
X1021022Y365000D01*
X1028978D01*
X1036329Y368045D01*
X1041955Y373671D01*
X1045000Y381022D01*
Y388978D01*
X1041955Y396329D01*
X1036329Y401955D01*
X1028978Y405000D01*
D02*
G37*
G36*
X133950Y330000D02*
X126050D01*
X118420Y327956D01*
X111579Y324006D01*
X105994Y318421D01*
X105000Y316699D01*
X100000Y318039D01*
Y330000D01*
X75000D01*
Y300000D01*
Y270000D01*
X100000D01*
Y281961D01*
X105000Y283301D01*
X105994Y281579D01*
X111579Y275994D01*
X118420Y272044D01*
X126050Y270000D01*
X133950D01*
X141580Y272044D01*
X148421Y275994D01*
X154006Y281579D01*
X157956Y288420D01*
X160000Y296050D01*
Y303950D01*
X157956Y311580D01*
X154006Y318421D01*
X148421Y324006D01*
X141580Y327956D01*
X133950Y330000D01*
D02*
G37*
G36*
X65000D02*
X40000D01*
Y305000D01*
X65000D01*
Y330000D01*
D02*
G37*
G36*
Y295000D02*
X40000D01*
Y270000D01*
X65000D01*
Y295000D01*
D02*
G37*
G36*
X1406317Y164134D02*
X1393683D01*
X1381293Y161669D01*
X1369621Y156835D01*
X1359117Y149816D01*
X1350184Y140883D01*
X1343165Y130379D01*
X1338331Y118707D01*
X1335866Y106317D01*
Y93683D01*
X1338331Y81293D01*
X1343165Y69621D01*
X1350184Y59117D01*
X1359117Y50184D01*
X1369621Y43165D01*
X1381293Y38331D01*
X1393683Y35866D01*
X1406317D01*
X1418707Y38331D01*
X1430379Y43165D01*
X1440883Y50184D01*
X1449816Y59117D01*
X1456835Y69621D01*
X1461669Y81293D01*
X1464134Y93683D01*
Y106317D01*
X1461669Y118707D01*
X1456835Y130379D01*
X1449816Y140883D01*
X1440883Y149816D01*
X1430379Y156835D01*
X1418707Y161669D01*
X1406317Y164134D01*
D02*
G37*
G36*
X106317D02*
X93683D01*
X81293Y161669D01*
X69621Y156835D01*
X59117Y149816D01*
X50184Y140883D01*
X43165Y130379D01*
X38331Y118707D01*
X35866Y106317D01*
Y93683D01*
X38331Y81293D01*
X43165Y69621D01*
X50184Y59117D01*
X59117Y50184D01*
X69621Y43165D01*
X81293Y38331D01*
X93683Y35866D01*
X106317D01*
X118707Y38331D01*
X130379Y43165D01*
X140883Y50184D01*
X149816Y59117D01*
X156835Y69621D01*
X161669Y81293D01*
X164134Y93683D01*
Y106317D01*
X161669Y118707D01*
X156835Y130379D01*
X149816Y140883D01*
X140883Y149816D01*
X130379Y156835D01*
X118707Y161669D01*
X106317Y164134D01*
D02*
G37*
%LPD*%
G36*
X679720Y1599706D02*
X678510Y1599007D01*
X671993Y1592491D01*
X667385Y1584509D01*
X665000Y1575608D01*
Y1566392D01*
X667385Y1557491D01*
X671993Y1549509D01*
X676209Y1545294D01*
X674138Y1540294D01*
X625862D01*
X623791Y1545294D01*
X628007Y1549509D01*
X632615Y1557491D01*
X635000Y1566392D01*
Y1575608D01*
X632615Y1584509D01*
X628007Y1592491D01*
X621490Y1599007D01*
X620280Y1599706D01*
X621619Y1604706D01*
X678381D01*
X679720Y1599706D01*
D02*
G37*
D16*
X525000Y1620000D02*
X725000D01*
X890000Y1645000D02*
X985000D01*
X525000Y1525000D02*
X770000D01*
X790000Y385000D02*
X1025000D01*
X987706Y1040000D02*
X1110000D01*
X975000Y1050000D02*
X977706D01*
X987706Y1040000D01*
D18*
X450000Y1810000D02*
D03*
X350000D02*
D03*
X1050000Y690000D02*
D03*
X1350000D02*
D03*
X1150000Y1850000D02*
D03*
X1050000D02*
D03*
D19*
X250000Y1810000D02*
D03*
X1250000Y1850000D02*
D03*
D20*
X750000Y2040000D02*
D03*
D21*
Y2340000D02*
D03*
X490000Y2390000D02*
D03*
X1010000D02*
D03*
D22*
X290000D02*
D03*
X1210000D02*
D03*
D23*
X670000Y1772500D02*
D03*
X730000D02*
D03*
X610000D02*
D03*
X1110000Y1040000D02*
D03*
Y1100000D02*
D03*
Y980000D02*
D03*
X90000Y1240000D02*
D03*
Y1180000D02*
D03*
X1430000Y790000D02*
D03*
Y850000D02*
D03*
X1340000Y440000D02*
D03*
X1440000Y1240000D02*
D03*
X70000Y860000D02*
D03*
X1060000Y440000D02*
D03*
X130000Y580000D02*
D03*
Y300000D02*
D03*
X1120000Y580000D02*
D03*
X130000Y720000D02*
D03*
Y440000D02*
D03*
D24*
X790000Y1772500D02*
D03*
X1400000Y440000D02*
D03*
X130000Y860000D02*
D03*
X1120000Y440000D02*
D03*
X70000Y580000D02*
D03*
Y300000D02*
D03*
X1060000Y580000D02*
D03*
X70000Y720000D02*
D03*
Y440000D02*
D03*
D25*
X1110000Y1160000D02*
D03*
X90000Y1300000D02*
D03*
X1430000Y730000D02*
D03*
X1440000Y1180000D02*
D03*
D26*
X570000Y2110000D02*
D03*
X70000D02*
D03*
X930000D02*
D03*
X1430000D02*
D03*
D27*
X1340000Y1380000D02*
D03*
X1240000D02*
D03*
D28*
X1140000D02*
D03*
D29*
X700000Y1671000D02*
D03*
Y1571000D02*
D03*
X600000Y1671000D02*
D03*
Y1571000D02*
D03*
X500000Y1671000D02*
D03*
Y1571000D02*
D03*
X865000Y1475000D02*
D03*
D30*
X525000Y1620000D02*
D03*
X725000D02*
D03*
X985000Y1645000D02*
D03*
X890000D02*
D03*
X525000Y1525000D02*
D03*
X770000D02*
D03*
X1045000Y815000D02*
D03*
X790000Y385000D02*
D03*
X1025000D02*
D03*
X975000Y1050000D02*
D03*
X160000Y1110000D02*
D03*
X100000Y1450000D02*
D03*
D31*
X872000Y1797000D02*
D03*
X972000D02*
D03*
Y1997000D02*
D03*
Y1947000D02*
D03*
Y1897000D02*
D03*
Y1847000D02*
D03*
X1072000Y1997000D02*
D03*
Y1947000D02*
D03*
Y1897000D02*
D03*
Y1797000D02*
D03*
X1022000Y1997000D02*
D03*
Y1947000D02*
D03*
Y1897000D02*
D03*
Y1797000D02*
D03*
X872000Y2047000D02*
D03*
Y1997000D02*
D03*
Y1947000D02*
D03*
Y1897000D02*
D03*
Y1847000D02*
D03*
X822000Y1947000D02*
D03*
Y1897000D02*
D03*
Y1847000D02*
D03*
X772000Y1947000D02*
D03*
Y1897000D02*
D03*
Y1847000D02*
D03*
X722000Y1947000D02*
D03*
Y1897000D02*
D03*
Y1847000D02*
D03*
X672000Y1947000D02*
D03*
Y1897000D02*
D03*
Y1847000D02*
D03*
X622000Y2047000D02*
D03*
Y1997000D02*
D03*
Y1947000D02*
D03*
Y1897000D02*
D03*
Y1847000D02*
D03*
X572000Y1997000D02*
D03*
Y1947000D02*
D03*
Y1897000D02*
D03*
Y1847000D02*
D03*
Y1797000D02*
D03*
X522000Y1997000D02*
D03*
Y1947000D02*
D03*
Y1897000D02*
D03*
Y1847000D02*
D03*
Y1797000D02*
D03*
X472000Y1997000D02*
D03*
Y1947000D02*
D03*
Y1897000D02*
D03*
%TF.MD5,0d21b00562849c78128f570d1dc36dcf*%
M02*
