%TF.GenerationSoftware,Altium Limited,Altium Designer,22.5.1 (42)*%
G04 Layer_Color=128*
%FSLAX26Y26*%
%MOIN*%
%TF.SameCoordinates,CF75AC15-3A71-4360-887B-83ED2C6183BC*%
%TF.FilePolarity,Positive*%
%TF.FileFunction,Drillmap*%
%TF.Part,Single*%
G01*
G75*
%TA.AperFunction,NonConductor*%
%ADD51C,0.005000*%
D51*
X432284Y1810000D02*
X467716D01*
X450000Y1792284D02*
Y1827716D01*
X332284Y1810000D02*
X367716D01*
X350000Y1792284D02*
Y1827716D01*
X232284Y1810000D02*
X267716D01*
X250000Y1792284D02*
Y1827716D01*
X705000Y2040000D02*
X795000D01*
X750000Y1995000D02*
Y2085000D01*
X705000Y2340000D02*
X795000D01*
X750000Y2295000D02*
Y2385000D01*
X45866Y2400000D02*
X154134D01*
X100000Y2345866D02*
Y2454134D01*
X1345866Y2400000D02*
X1454134D01*
X1400000Y2345866D02*
Y2454134D01*
X45866Y100000D02*
X154134D01*
X100000Y45866D02*
Y154134D01*
X1345866Y100000D02*
X1454134D01*
X1400000Y45866D02*
Y154134D01*
X245000Y2390000D02*
X335000D01*
X290000Y2345000D02*
Y2435000D01*
X445000Y2390000D02*
X535000D01*
X490000Y2345000D02*
Y2435000D01*
X1165000Y2390000D02*
X1255000D01*
X1210000Y2345000D02*
Y2435000D01*
X965000Y2390000D02*
X1055000D01*
X1010000Y2345000D02*
Y2435000D01*
X657500Y1772500D02*
X682500D01*
X670000Y1760000D02*
Y1785000D01*
X777500Y1772500D02*
X802500D01*
X790000Y1760000D02*
Y1785000D01*
X717500Y1772500D02*
X742500D01*
X730000Y1760000D02*
Y1785000D01*
X597500Y1772500D02*
X622500D01*
X610000Y1760000D02*
Y1785000D01*
X1097500Y1040000D02*
X1122500D01*
X1110000Y1027500D02*
Y1052500D01*
X1097500Y1160000D02*
X1122500D01*
X1110000Y1147500D02*
Y1172500D01*
X1097500Y1100000D02*
X1122500D01*
X1110000Y1087500D02*
Y1112500D01*
X1097500Y980000D02*
X1122500D01*
X1110000Y967500D02*
Y992500D01*
X77500Y1240000D02*
X102500D01*
X90000Y1227500D02*
Y1252500D01*
X77500Y1300000D02*
X102500D01*
X90000Y1287500D02*
Y1312500D01*
X77500Y1180000D02*
X102500D01*
X90000Y1167500D02*
Y1192500D01*
X1417500Y790000D02*
X1442500D01*
X1430000Y777500D02*
Y802500D01*
X1417500Y730000D02*
X1442500D01*
X1430000Y717500D02*
Y742500D01*
X1417500Y850000D02*
X1442500D01*
X1430000Y837500D02*
Y862500D01*
X1387500Y440000D02*
X1412500D01*
X1400000Y427500D02*
Y452500D01*
X1327500Y440000D02*
X1352500D01*
X1340000Y427500D02*
Y452500D01*
X1427500Y1180000D02*
X1452500D01*
X1440000Y1167500D02*
Y1192500D01*
X1427500Y1240000D02*
X1452500D01*
X1440000Y1227500D02*
Y1252500D01*
X117500Y860000D02*
X142500D01*
X130000Y847500D02*
Y872500D01*
X57500Y860000D02*
X82500D01*
X70000Y847500D02*
Y872500D01*
X1107500Y440000D02*
X1132500D01*
X1120000Y427500D02*
Y452500D01*
X1047500Y440000D02*
X1072500D01*
X1060000Y427500D02*
Y452500D01*
X57500Y580000D02*
X82500D01*
X70000Y567500D02*
Y592500D01*
X117500Y580000D02*
X142500D01*
X130000Y567500D02*
Y592500D01*
X57500Y300000D02*
X82500D01*
X70000Y287500D02*
Y312500D01*
X117500Y300000D02*
X142500D01*
X130000Y287500D02*
Y312500D01*
X1047500Y580000D02*
X1072500D01*
X1060000Y567500D02*
Y592500D01*
X1107500Y580000D02*
X1132500D01*
X1120000Y567500D02*
Y592500D01*
X57500Y720000D02*
X82500D01*
X70000Y707500D02*
Y732500D01*
X117500Y720000D02*
X142500D01*
X130000Y707500D02*
Y732500D01*
X57500Y440000D02*
X82500D01*
X70000Y427500D02*
Y452500D01*
X117500Y440000D02*
X142500D01*
X130000Y427500D02*
Y452500D01*
X542500Y2110000D02*
X597500D01*
X570000Y2082500D02*
Y2137500D01*
X42500Y2110000D02*
X97500D01*
X70000Y2082500D02*
Y2137500D01*
X902500Y2110000D02*
X957500D01*
X930000Y2082500D02*
Y2137500D01*
X1402500Y2110000D02*
X1457500D01*
X1430000Y2082500D02*
Y2137500D01*
X1034252Y690000D02*
X1065748D01*
X1050000Y674252D02*
Y705748D01*
X1334252Y690000D02*
X1365748D01*
X1350000Y674252D02*
Y705748D01*
X1317362Y1380000D02*
X1362638D01*
X1340000Y1357362D02*
Y1402638D01*
X1217362Y1380000D02*
X1262638D01*
X1240000Y1357362D02*
Y1402638D01*
X1117362Y1380000D02*
X1162638D01*
X1140000Y1357362D02*
Y1402638D01*
X1232284Y1850000D02*
X1267716D01*
X1250000Y1832284D02*
Y1867716D01*
X1132284Y1850000D02*
X1167716D01*
X1150000Y1832284D02*
Y1867716D01*
X1032284Y1850000D02*
X1067716D01*
X1050000Y1832284D02*
Y1867716D01*
X675000Y1671000D02*
X725000D01*
X700000Y1646000D02*
Y1696000D01*
X675000Y1571000D02*
X725000D01*
X700000Y1546000D02*
Y1596000D01*
X575000Y1671000D02*
X625000D01*
X600000Y1646000D02*
Y1696000D01*
X575000Y1571000D02*
X625000D01*
X600000Y1546000D02*
Y1596000D01*
X475000Y1671000D02*
X525000D01*
X500000Y1646000D02*
Y1696000D01*
X475000Y1571000D02*
X525000D01*
X500000Y1546000D02*
Y1596000D01*
X520000Y1620000D02*
X530000D01*
X525000Y1615000D02*
Y1625000D01*
X720000Y1620000D02*
X730000D01*
X725000Y1615000D02*
Y1625000D01*
X980000Y1645000D02*
X990000D01*
X985000Y1640000D02*
Y1650000D01*
X885000Y1645000D02*
X895000D01*
X890000Y1640000D02*
Y1650000D01*
X520000Y1525000D02*
X530000D01*
X525000Y1520000D02*
Y1530000D01*
X765000Y1525000D02*
X775000D01*
X770000Y1520000D02*
Y1530000D01*
X867000Y1797000D02*
X877000D01*
X872000Y1792000D02*
Y1802000D01*
X967000Y1797000D02*
X977000D01*
X972000Y1792000D02*
Y1802000D01*
X967000Y1997000D02*
X977000D01*
X972000Y1992000D02*
Y2002000D01*
X967000Y1947000D02*
X977000D01*
X972000Y1942000D02*
Y1952000D01*
X967000Y1897000D02*
X977000D01*
X972000Y1892000D02*
Y1902000D01*
X967000Y1847000D02*
X977000D01*
X972000Y1842000D02*
Y1852000D01*
X1040000Y815000D02*
X1050000D01*
X1045000Y810000D02*
Y820000D01*
X785000Y385000D02*
X795000D01*
X790000Y380000D02*
Y390000D01*
X1020000Y385000D02*
X1030000D01*
X1025000Y380000D02*
Y390000D01*
X1067000Y1997000D02*
X1077000D01*
X1072000Y1992000D02*
Y2002000D01*
X1067000Y1947000D02*
X1077000D01*
X1072000Y1942000D02*
Y1952000D01*
X1067000Y1897000D02*
X1077000D01*
X1072000Y1892000D02*
Y1902000D01*
X1067000Y1797000D02*
X1077000D01*
X1072000Y1792000D02*
Y1802000D01*
X1017000Y1997000D02*
X1027000D01*
X1022000Y1992000D02*
Y2002000D01*
X1017000Y1947000D02*
X1027000D01*
X1022000Y1942000D02*
Y1952000D01*
X1017000Y1897000D02*
X1027000D01*
X1022000Y1892000D02*
Y1902000D01*
X1017000Y1797000D02*
X1027000D01*
X1022000Y1792000D02*
Y1802000D01*
X867000Y2047000D02*
X877000D01*
X872000Y2042000D02*
Y2052000D01*
X867000Y1997000D02*
X877000D01*
X872000Y1992000D02*
Y2002000D01*
X867000Y1947000D02*
X877000D01*
X872000Y1942000D02*
Y1952000D01*
X867000Y1897000D02*
X877000D01*
X872000Y1892000D02*
Y1902000D01*
X867000Y1847000D02*
X877000D01*
X872000Y1842000D02*
Y1852000D01*
X817000Y1947000D02*
X827000D01*
X822000Y1942000D02*
Y1952000D01*
X817000Y1897000D02*
X827000D01*
X822000Y1892000D02*
Y1902000D01*
X817000Y1847000D02*
X827000D01*
X822000Y1842000D02*
Y1852000D01*
X767000Y1947000D02*
X777000D01*
X772000Y1942000D02*
Y1952000D01*
X767000Y1897000D02*
X777000D01*
X772000Y1892000D02*
Y1902000D01*
X767000Y1847000D02*
X777000D01*
X772000Y1842000D02*
Y1852000D01*
X717000Y1947000D02*
X727000D01*
X722000Y1942000D02*
Y1952000D01*
X717000Y1897000D02*
X727000D01*
X722000Y1892000D02*
Y1902000D01*
X717000Y1847000D02*
X727000D01*
X722000Y1842000D02*
Y1852000D01*
X667000Y1947000D02*
X677000D01*
X672000Y1942000D02*
Y1952000D01*
X667000Y1897000D02*
X677000D01*
X672000Y1892000D02*
Y1902000D01*
X667000Y1847000D02*
X677000D01*
X672000Y1842000D02*
Y1852000D01*
X617000Y2047000D02*
X627000D01*
X622000Y2042000D02*
Y2052000D01*
X617000Y1997000D02*
X627000D01*
X622000Y1992000D02*
Y2002000D01*
X617000Y1947000D02*
X627000D01*
X622000Y1942000D02*
Y1952000D01*
X617000Y1897000D02*
X627000D01*
X622000Y1892000D02*
Y1902000D01*
X617000Y1847000D02*
X627000D01*
X622000Y1842000D02*
Y1852000D01*
X567000Y1997000D02*
X577000D01*
X572000Y1992000D02*
Y2002000D01*
X567000Y1947000D02*
X577000D01*
X572000Y1942000D02*
Y1952000D01*
X567000Y1897000D02*
X577000D01*
X572000Y1892000D02*
Y1902000D01*
X567000Y1847000D02*
X577000D01*
X572000Y1842000D02*
Y1852000D01*
X567000Y1797000D02*
X577000D01*
X572000Y1792000D02*
Y1802000D01*
X517000Y1997000D02*
X527000D01*
X522000Y1992000D02*
Y2002000D01*
X517000Y1947000D02*
X527000D01*
X522000Y1942000D02*
Y1952000D01*
X517000Y1897000D02*
X527000D01*
X522000Y1892000D02*
Y1902000D01*
X517000Y1847000D02*
X527000D01*
X522000Y1842000D02*
Y1852000D01*
X517000Y1797000D02*
X527000D01*
X522000Y1792000D02*
Y1802000D01*
X467000Y1997000D02*
X477000D01*
X472000Y1992000D02*
Y2002000D01*
X467000Y1947000D02*
X477000D01*
X472000Y1942000D02*
Y1952000D01*
X467000Y1897000D02*
X477000D01*
X472000Y1892000D02*
Y1902000D01*
X970000Y1050000D02*
X980000D01*
X975000Y1045000D02*
Y1055000D01*
X852500Y1475000D02*
X877500D01*
X865000Y1462500D02*
Y1487500D01*
X155000Y1110000D02*
X165000D01*
X160000Y1105000D02*
Y1115000D01*
X95000Y1450000D02*
X105000D01*
X100000Y1445000D02*
Y1455000D01*
%TF.MD5,9319d93b8768e16fdd417a9defc19283*%
M02*
