%TF.GenerationSoftware,Altium Limited,Altium Designer,22.10.1 (41)*%
G04 Layer_Color=16711935*
%FSLAX26Y26*%
%MOIN*%
%TF.SameCoordinates,59CDB8F9-364B-4C5A-A8AF-F7A69B8E0267*%
%TF.FilePolarity,Negative*%
%TF.FileFunction,Soldermask,Bot*%
%TF.Part,Single*%
G01*
G75*
%TA.AperFunction,ViaPad*%
%ADD29C,0.075000*%
%TA.AperFunction,ComponentPad*%
%ADD34R,0.148000X0.148000*%
%ADD35C,0.148000*%
%ADD36C,0.008000*%
%ADD37R,0.148000X0.148000*%
%ADD38C,0.068000*%
%ADD39R,0.068000X0.068000*%
%ADD40R,0.068000X0.068000*%
%ADD41C,0.098000*%
%ADD42C,0.072961*%
%ADD43R,0.072961X0.072961*%
%ADD44C,0.067055*%
%ADD45R,0.067055X0.067055*%
%TA.AperFunction,ViaPad*%
%ADD46C,0.018000*%
%ADD47C,0.058000*%
%ADD48C,0.036000*%
D29*
X485000Y95000D02*
D03*
X385000D02*
D03*
X500000Y1571000D02*
D03*
Y1671000D02*
D03*
X600000Y1571000D02*
D03*
Y1671000D02*
D03*
X700000Y1571000D02*
D03*
Y1671000D02*
D03*
D34*
X750000Y2040000D02*
D03*
D35*
Y2340000D02*
D03*
X490000Y2390000D02*
D03*
X1010000D02*
D03*
D36*
X100000Y2400000D02*
D03*
X1400000D02*
D03*
X100000Y100000D02*
D03*
X1400000D02*
D03*
D37*
X290000Y2390000D02*
D03*
X1210000D02*
D03*
D38*
X1050000Y910000D02*
D03*
Y710000D02*
D03*
Y810000D02*
D03*
X1250000Y1025000D02*
D03*
X1150000D02*
D03*
X1350000D02*
D03*
X1240000Y505000D02*
D03*
Y605000D02*
D03*
X1315000Y245000D02*
D03*
X1390000Y925000D02*
D03*
X140000Y1050000D02*
D03*
X1050000Y510000D02*
D03*
X140000Y650000D02*
D03*
Y250000D02*
D03*
X1050000Y210000D02*
D03*
X140000Y850000D02*
D03*
Y450000D02*
D03*
D39*
X1050000Y610000D02*
D03*
X1240000Y405000D02*
D03*
X1390000Y825000D02*
D03*
X140000Y1150000D02*
D03*
X1050000Y410000D02*
D03*
X140000Y750000D02*
D03*
Y350000D02*
D03*
X1050000Y310000D02*
D03*
X140000Y950000D02*
D03*
Y550000D02*
D03*
D40*
X1050000Y1025000D02*
D03*
X1415000Y245000D02*
D03*
D41*
X570000Y2110000D02*
D03*
X70000D02*
D03*
X930000D02*
D03*
X1430000D02*
D03*
D42*
X1340000Y1260000D02*
D03*
X1240000D02*
D03*
D43*
X1140000D02*
D03*
D44*
X450000Y1810000D02*
D03*
X350000D02*
D03*
X1145000Y420000D02*
D03*
Y120000D02*
D03*
X1150000Y1850000D02*
D03*
X1050000D02*
D03*
D45*
X250000Y1810000D02*
D03*
X1250000Y1850000D02*
D03*
D46*
X1060000Y2000000D02*
D03*
X1040000Y1960000D02*
D03*
X1060000Y1920000D02*
D03*
X1040000Y1800000D02*
D03*
X1020000Y2000000D02*
D03*
X1000000Y1960000D02*
D03*
X1020000Y1920000D02*
D03*
X1000000Y1880000D02*
D03*
Y1800000D02*
D03*
X980000Y2000000D02*
D03*
Y1920000D02*
D03*
Y1840000D02*
D03*
X880000Y2040000D02*
D03*
Y1960000D02*
D03*
Y1880000D02*
D03*
Y1800000D02*
D03*
X840000Y2040000D02*
D03*
X860000Y2000000D02*
D03*
X840000Y1960000D02*
D03*
X860000Y1920000D02*
D03*
X840000Y1880000D02*
D03*
X860000Y1840000D02*
D03*
X840000Y1800000D02*
D03*
X800000Y1960000D02*
D03*
X820000Y1920000D02*
D03*
X800000Y1880000D02*
D03*
X820000Y1840000D02*
D03*
X800000Y1800000D02*
D03*
X760000Y1960000D02*
D03*
X780000Y1920000D02*
D03*
X760000Y1880000D02*
D03*
X780000Y1840000D02*
D03*
X760000Y1800000D02*
D03*
X720000Y1960000D02*
D03*
X740000Y1920000D02*
D03*
X720000Y1880000D02*
D03*
X740000Y1840000D02*
D03*
X720000Y1800000D02*
D03*
X680000Y1960000D02*
D03*
X700000Y1920000D02*
D03*
X680000Y1880000D02*
D03*
X700000Y1840000D02*
D03*
X680000Y1800000D02*
D03*
X660000Y2080000D02*
D03*
X640000Y2040000D02*
D03*
X660000Y2000000D02*
D03*
X640000Y1960000D02*
D03*
X660000Y1920000D02*
D03*
X640000Y1880000D02*
D03*
X660000Y1840000D02*
D03*
X640000Y1800000D02*
D03*
X600000Y2040000D02*
D03*
X620000Y2000000D02*
D03*
X600000Y1960000D02*
D03*
X620000Y1920000D02*
D03*
X600000Y1880000D02*
D03*
X620000Y1840000D02*
D03*
X600000Y1800000D02*
D03*
X580000Y2000000D02*
D03*
X560000Y1960000D02*
D03*
X580000Y1920000D02*
D03*
X560000Y1880000D02*
D03*
X580000Y1840000D02*
D03*
X560000Y1800000D02*
D03*
X540000Y2000000D02*
D03*
X520000Y1960000D02*
D03*
X540000Y1920000D02*
D03*
X520000Y1880000D02*
D03*
X540000Y1840000D02*
D03*
X520000Y1800000D02*
D03*
X500000Y2000000D02*
D03*
X480000Y1960000D02*
D03*
X500000Y1920000D02*
D03*
X480000Y1880000D02*
D03*
X500000Y1840000D02*
D03*
X460000Y2000000D02*
D03*
X440000Y1960000D02*
D03*
X460000Y1920000D02*
D03*
X440000Y1880000D02*
D03*
D47*
X855000Y1480000D02*
D03*
D48*
X60000Y1410000D02*
D03*
%TF.MD5,a60606253bb659f796f5fc3099437063*%
M02*
