%TF.GenerationSoftware,Altium Limited,Altium Designer,22.5.1 (42)*%
G04 Layer_Color=8421504*
%FSLAX26Y26*%
%MOIN*%
%TF.SameCoordinates,CF75AC15-3A71-4360-887B-83ED2C6183BC*%
%TF.FilePolarity,Positive*%
%TF.FileFunction,Paste,Top*%
%TF.Part,Single*%
G01*
G75*
%TA.AperFunction,BGAPad,CuDef*%
%ADD10R,0.080000X0.080000*%
%TA.AperFunction,SMDPad,CuDef*%
%ADD11R,0.037402X0.051181*%
%ADD12R,0.051181X0.037402*%
%ADD13R,0.047244X0.043307*%
%TA.AperFunction,ConnectorPad*%
G04:AMPARAMS|DCode=14|XSize=15.748mil|YSize=33.465mil|CornerRadius=1.968mil|HoleSize=0mil|Usage=FLASHONLY|Rotation=180.000|XOffset=0mil|YOffset=0mil|HoleType=Round|Shape=RoundedRectangle|*
%AMROUNDEDRECTD14*
21,1,0.015748,0.029528,0,0,180.0*
21,1,0.011811,0.033465,0,0,180.0*
1,1,0.003937,-0.005906,0.014764*
1,1,0.003937,0.005906,0.014764*
1,1,0.003937,0.005906,-0.014764*
1,1,0.003937,-0.005906,-0.014764*
%
%ADD14ROUNDEDRECTD14*%
%ADD15R,0.037402X0.051181*%
D10*
X250000Y1575000D02*
D03*
X950000Y675000D02*
D03*
Y575000D02*
D03*
Y475000D02*
D03*
Y375000D02*
D03*
Y275000D02*
D03*
Y175000D02*
D03*
Y775000D02*
D03*
Y875000D02*
D03*
Y975000D02*
D03*
Y1075000D02*
D03*
Y1175000D02*
D03*
Y1275000D02*
D03*
Y1375000D02*
D03*
Y1475000D02*
D03*
Y1575000D02*
D03*
X250000Y175000D02*
D03*
Y275000D02*
D03*
Y375000D02*
D03*
Y475000D02*
D03*
Y575000D02*
D03*
Y675000D02*
D03*
Y775000D02*
D03*
Y875000D02*
D03*
Y975000D02*
D03*
Y1075000D02*
D03*
Y1175000D02*
D03*
Y1275000D02*
D03*
Y1375000D02*
D03*
Y1475000D02*
D03*
D11*
X993583Y1700000D02*
D03*
X1066417D02*
D03*
X1306417Y840000D02*
D03*
X1233583D02*
D03*
X1176417D02*
D03*
X1103583D02*
D03*
X1213583Y1700000D02*
D03*
X1286417D02*
D03*
D12*
X1035000Y873583D02*
D03*
Y946417D02*
D03*
Y1105000D02*
D03*
Y1177835D02*
D03*
X1220000Y496417D02*
D03*
Y423583D02*
D03*
X1330000Y1256417D02*
D03*
Y1183583D02*
D03*
X1220000Y1256417D02*
D03*
Y1183583D02*
D03*
X1230000Y1012835D02*
D03*
Y940000D02*
D03*
X70000Y1056417D02*
D03*
Y983583D02*
D03*
X150000Y1056417D02*
D03*
Y983583D02*
D03*
D13*
X1370000Y938661D02*
D03*
Y1021339D02*
D03*
D14*
X61614Y1376181D02*
D03*
X87205D02*
D03*
X112795D02*
D03*
X138386D02*
D03*
X61614Y1523819D02*
D03*
X87205D02*
D03*
X112795D02*
D03*
X138386D02*
D03*
D15*
X206417Y1680000D02*
D03*
X133583D02*
D03*
%TF.MD5,792cdf973aae1c71b29f9bf392c79507*%
M02*
